<?xml version="1.0" encoding="UTF-8"?>
<svg xmlns="http://www.w3.org/2000/svg" viewBox="0 0 220 180" role="img">
<rect width="220" height="180" rx="18" fill="#00253D"/>
<line x1="56.44" y1="102.50" x2="42.34" y2="97.37" stroke="#FF3030" stroke-width="7" stroke-linecap="round"/>
<line x1="57.23" y1="89.45" x2="48.72" y2="84.20" stroke="#FFFFFF" stroke-width="4" stroke-linecap="round"/>
<line x1="64.90" y1="79.45" x2="57.63" y2="72.59" stroke="#FFFFFF" stroke-width="4" stroke-linecap="round"/>
<line x1="74.44" y1="71.21" x2="68.70" y2="63.02" stroke="#FFFFFF" stroke-width="4" stroke-linecap="round"/>
<line x1="85.44" y1="65.07" x2="81.48" y2="55.89" stroke="#FFFFFF" stroke-width="4" stroke-linecap="round"/>
<line x1="97.46" y1="61.28" x2="95.44" y2="51.49" stroke="#FFFFFF" stroke-width="4" stroke-linecap="round"/>
<line x1="110.00" y1="60.00" x2="110.00" y2="50.00" stroke="#FFFFFF" stroke-width="4" stroke-linecap="round"/>
<line x1="122.54" y1="61.28" x2="124.56" y2="51.49" stroke="#FFFFFF" stroke-width="4" stroke-linecap="round"/>
<line x1="134.56" y1="65.07" x2="138.52" y2="55.89" stroke="#FFFFFF" stroke-width="4" stroke-linecap="round"/>
<line x1="145.56" y1="71.21" x2="151.30" y2="63.02" stroke="#FFFFFF" stroke-width="4" stroke-linecap="round"/>
<line x1="155.10" y1="79.45" x2="162.37" y2="72.59" stroke="#FFFFFF" stroke-width="4" stroke-linecap="round"/>
<line x1="162.77" y1="89.45" x2="171.28" y2="84.20" stroke="#FFFFFF" stroke-width="4" stroke-linecap="round"/>
<line x1="163.56" y1="102.50" x2="177.66" y2="97.37" stroke="#52BBFF" stroke-width="7" stroke-linecap="round"/>
<text x="28" y="139" fill="#FFFFFF" font-size="22" font-weight="700" font-family="Arial" text-anchor="middle">L</text>
<text x="190" y="42" fill="#FFFFFF" font-size="22" font-weight="700" font-family="Arial" text-anchor="middle">H</text>
<g transform="translate(148 84) scale(0.75)" fill="none" stroke="#52BBFF" stroke-width="2.2" stroke-linecap="round" stroke-linejoin="round"><path d="M-15 2h22l8-10 4 2-7 8v8h-24z"/><path d="M-8-6h10"/><circle cx="20" cy="8" r="2"/></g>
<g id="needle" class="needle" transform="rotate(232 110 122)">
<line x1="110.00" y1="122.00" x2="164.00" y2="122.00" stroke="#FFFFFF" stroke-width="8" stroke-linecap="round"/>
<line x1="116.00" y1="122.00" x2="164.00" y2="122.00" stroke="#C8D0D6" stroke-width="3" stroke-linecap="round"/>
</g>
<circle cx="110" cy="122" r="15" fill="#F3F5F6"/>
<circle cx="110" cy="122" r="9" fill="#C8D0D6"/>
<circle cx="110" cy="122" r="5" fill="#52BBFF"/>
</svg>