<?xml version="1.0" encoding="UTF-8"?>
<svg xmlns="http://www.w3.org/2000/svg" viewBox="0 0 220 180" role="img">
<rect width="220" height="180" rx="18" fill="#00253D"/>
<line x1="54.94" y1="107.25" x2="40.45" y2="103.37" stroke="#FFFFFF" stroke-width="7" stroke-linecap="round"/>
<line x1="54.14" y1="95.10" x2="45.13" y2="90.76" stroke="#FFFFFF" stroke-width="4" stroke-linecap="round"/>
<line x1="64.14" y1="88.15" x2="52.07" y2="79.24" stroke="#FFFFFF" stroke-width="7" stroke-linecap="round"/>
<line x1="67.83" y1="76.55" x2="61.03" y2="69.22" stroke="#FFFFFF" stroke-width="4" stroke-linecap="round"/>
<line x1="79.67" y1="73.74" x2="71.69" y2="61.04" stroke="#FFFFFF" stroke-width="7" stroke-linecap="round"/>
<line x1="87.35" y1="64.29" x2="83.70" y2="54.98" stroke="#FFFFFF" stroke-width="4" stroke-linecap="round"/>
<line x1="99.40" y1="65.99" x2="96.61" y2="51.26" stroke="#FFFFFF" stroke-width="7" stroke-linecap="round"/>
<line x1="110.00" y1="60.00" x2="110.00" y2="50.00" stroke="#FFFFFF" stroke-width="4" stroke-linecap="round"/>
<line x1="120.60" y1="65.99" x2="123.39" y2="51.26" stroke="#FFFFFF" stroke-width="7" stroke-linecap="round"/>
<line x1="132.65" y1="64.29" x2="136.30" y2="54.98" stroke="#FFFFFF" stroke-width="4" stroke-linecap="round"/>
<line x1="140.33" y1="73.74" x2="148.31" y2="61.04" stroke="#FFFFFF" stroke-width="7" stroke-linecap="round"/>
<line x1="152.17" y1="76.55" x2="158.97" y2="69.22" stroke="#FFFFFF" stroke-width="4" stroke-linecap="round"/>
<line x1="159.89" y1="85.18" x2="167.93" y2="79.24" stroke="#FFFFFF" stroke-width="4" stroke-linecap="round"/>
<line x1="165.86" y1="95.10" x2="174.87" y2="90.76" stroke="#FFFFFF" stroke-width="4" stroke-linecap="round"/>
<line x1="165.06" y1="107.25" x2="179.55" y2="103.37" stroke="#FFFFFF" stroke-width="7" stroke-linecap="round"/>
<text x="66.53333781699192" y="114.35314297038656" fill="#FFFFFF" font-size="10" font-family="Arial" text-anchor="middle">20</text>
<text x="73.79309991049992" y="99.27809164919245" fill="#FFFFFF" font-size="10" font-family="Arial" text-anchor="middle">60</text>
<text x="86.05855655680985" y="87.89741103472721" fill="#FFFFFF" font-size="10" font-family="Arial" text-anchor="middle">100</text>
<text x="101.63397767766882" y="81.78450870450203" fill="#FFFFFF" font-size="10" font-family="Arial" text-anchor="middle">140</text>
<text x="118.36602232233116" y="81.78450870450203" fill="#FFFFFF" font-size="10" font-family="Arial" text-anchor="middle">180</text>
<text x="133.9414434431901" y="87.89741103472718" fill="#FFFFFF" font-size="10" font-family="Arial" text-anchor="middle">220</text>
<text x="110" y="86" fill="#FFFFFF" font-size="10" font-family="Arial" text-anchor="middle">km/h</text>
<g transform="translate(148 84) scale(0.75)" fill="none" stroke="#52BBFF" stroke-width="2.2" stroke-linecap="round" stroke-linejoin="round"><path d="M8-10c-8 0-13 4-13 10s5 10 13 10z"/><path d="M-10-8h-10M-11-3h-12M-11 2h-12M-10 7h-10"/></g>
<circle cx="110" cy="122" r="15" fill="#F3F5F6"/>
<circle cx="110" cy="122" r="9" fill="#C8D0D6"/>
<circle cx="110" cy="122" r="5" fill="#52BBFF"/>
</svg>