<?xml version="1.0" encoding="UTF-8"?>
<!-- Generator: visioncortex VTracer 0.6.12 -->
<svg version="1.1" xmlns="http://www.w3.org/2000/svg" width="150" height="150">
<path d="M0 0 C0.543 0.225 1.085 0.449 1.644 0.681 C18.862 7.891 32.277 22.17 40 39 C47.684 57.983 49.088 78.853 41.17 98.007 C37.097 107.408 32.101 115.604 25 123 C24.654 123.365 24.308 123.731 23.951 124.107 C11.369 137.077 -7.497 144.931 -25.449 145.293 C-48.262 145.449 -66.864 138.789 -83.328 122.766 C-97.132 108.72 -104.458 89.909 -104.375 70.375 C-104.374 69.848 -104.373 69.322 -104.371 68.779 C-104.242 47.961 -96.097 30.176 -81.473 15.414 C-71.147 5.357 -59.793 -0.121 -46 -4 C-45.387 -4.179 -44.773 -4.358 -44.142 -4.542 C-29.975 -7.572 -13.113 -5.769 0 0 Z M-50 8 C-50 8.33 -50 8.66 -50 9 C-49.056 9.098 -48.113 9.196 -47.141 9.297 C-33.708 10.808 -18.55 13.981 -8.781 24.219 C-8.193 24.807 -7.606 25.394 -7 26 C-6.34 26 -5.68 26 -5 26 C-4.728 26.585 -4.456 27.17 -4.176 27.773 C-3.02 29.961 -1.738 31.703 -0.188 33.625 C7.612 43.897 10.739 55.497 13 68 C16.672 65.291 19.191 62.759 21.562 58.875 C21.858 58.399 22.153 57.924 22.457 57.433 C29.338 46.028 29.338 46.028 28.781 41.039 C23.185 26.432 10.301 16.056 -3.587 9.84 C-18.774 3.399 -34.28 3.407 -50 8 Z M-67 17 C-67.427 17.342 -67.854 17.684 -68.294 18.036 C-81.795 29.001 -91.941 44.431 -93.871 62.051 C-94.524 71.924 -93.38 80.425 -91 90 C-90.67 90 -90.34 90 -90 90 C-89.966 89.528 -89.931 89.056 -89.896 88.57 C-88.416 69.627 -83.608 53.263 -69.383 39.875 C-58.651 31.011 -45.472 26.586 -32 24 C-41.805 13.659 -54.952 7.107 -67 17 Z M-32.188 29.875 C-42.884 40.769 -47.673 55.387 -48.312 70.375 C-47.777 86.059 -41.466 102.107 -30 113 C-21.457 109.45 -16.57 99.268 -13.188 91.156 C-7.798 77.317 -8.693 60.955 -14.477 47.355 C-17.94 39.815 -22.293 33.041 -28 27 C-29.834 27 -30.926 28.667 -32.188 29.875 Z M32 50 C31.96 50.477 31.921 50.954 31.88 51.446 C30.235 70.381 26.616 88.013 11.491 100.834 C0.417 109.492 -12.41 113.331 -26 116 C-21.748 121.163 -16.442 123.714 -10.428 126.366 C-9.214 126.905 -8.019 127.483 -6.828 128.07 C-4.657 128.922 -3.329 129.222 -1 129 C3.093 127.204 6.505 124.762 10 122 C10.447 121.649 10.894 121.299 11.354 120.938 C25.88 109.292 33.687 93.319 36 75 C36.908 66.465 34.872 58.283 33 50 C32.67 50 32.34 50 32 50 Z M-73.734 73.73 C-77.663 78.388 -80.884 83.177 -83.5 88.688 C-83.755 89.209 -84.01 89.731 -84.272 90.268 C-86.006 94.142 -86.772 97.776 -86 102 C-85.086 104.078 -83.86 105.74 -82.438 107.5 C-82.073 107.972 -81.708 108.444 -81.332 108.931 C-69.801 123.58 -54.532 132.66 -36 135 C-26.307 135.926 -17.376 134.394 -8 132 C-8 131.67 -8 131.34 -8 131 C-8.513 130.935 -9.025 130.871 -9.554 130.804 C-28.742 128.301 -44.168 123.321 -57 108 C-59.249 104.783 -61.167 101.469 -63 98 C-63.38 97.327 -63.761 96.654 -64.152 95.961 C-67.945 88.548 -68.782 80.146 -70 72 C-72 72 -72 72 -73.734 73.73 Z " fill="#FA2F0E" transform="translate(104,5)"/>
<path d="M0 0 C0.543 0.225 1.085 0.449 1.644 0.681 C18.862 7.891 32.277 22.17 40 39 C47.684 57.983 49.088 78.853 41.17 98.007 C37.097 107.408 32.101 115.604 25 123 C24.654 123.365 24.308 123.731 23.951 124.107 C11.369 137.077 -7.497 144.931 -25.449 145.293 C-48.262 145.449 -66.864 138.789 -83.328 122.766 C-97.132 108.72 -104.458 89.909 -104.375 70.375 C-104.374 69.848 -104.373 69.322 -104.371 68.779 C-104.242 47.961 -96.097 30.176 -81.473 15.414 C-71.147 5.357 -59.793 -0.121 -46 -4 C-45.387 -4.179 -44.773 -4.358 -44.142 -4.542 C-29.975 -7.572 -13.113 -5.769 0 0 Z M-50 8 C-50 8.33 -50 8.66 -50 9 C-48.02 9.33 -46.04 9.66 -44 10 C-47.3 10 -50.6 10 -54 10 C-53.34 10.66 -52.68 11.32 -52 12 C-52.728 11.786 -53.457 11.572 -54.207 11.352 C-59.228 10.72 -63.102 14.123 -67 17 C-81.1 27.966 -90.535 42.695 -93.688 60.375 C-94.827 70.78 -93.505 79.922 -91 90 C-90.67 90 -90.34 90 -90 90 C-89.34 84.39 -88.68 78.78 -88 73 C-88.165 74.609 -88.33 76.218 -88.5 77.875 C-89.557 89.174 -89.557 89.174 -89 94 C-88.34 94.66 -87.68 95.32 -87 96 C-86.613 97.375 -86.613 97.375 -86.312 99 C-83.077 111.133 -71.3 120.812 -61 127 C-44.098 136.418 -26.368 136.69 -8 132 C-8 131.67 -8 131.34 -8 131 C-10.31 130.67 -12.62 130.34 -15 130 C-12.69 130 -10.38 130 -8 130 C-8 129.34 -8 128.68 -8 128 C-7.072 128.309 -6.144 128.619 -5.188 128.938 C0.286 129.699 4.419 126.197 8.59 123.085 C23.961 111.25 33.053 95.964 35.789 76.67 C36.951 67.467 35.022 58.945 33 50 C32.67 50 32.34 50 32 50 C31.34 55.94 30.68 61.88 30 68 C30.631 62.951 31.181 58.226 31.188 53.188 C31.2 52.629 31.212 52.07 31.225 51.494 C31.236 48.367 31.035 46.421 29 44 C29 43.67 29 43.34 29 43 C27.136 32.634 17.645 23.033 9.402 17.062 C-8.668 4.675 -29.051 1.879 -50 8 Z " fill="#F83B1C" transform="translate(104,5)"/>
<path d="M0 0 C0.66 0.33 1.32 0.66 2 1 C0.252 2.918 -1.499 4.834 -3.25 6.75 C-3.741 7.289 -4.232 7.828 -4.738 8.383 C-6.152 9.928 -7.573 11.466 -9 13 C-9.39 13.423 -9.78 13.847 -10.182 14.283 C-11.081 15.229 -12.036 16.121 -13 17 C-13.66 17 -14.32 17 -15 17 C-15 17.66 -15 18.32 -15 19 C-15.66 19 -16.32 19 -17 19 C-13.408 11.136 -6.531 5.428 0 0 Z " fill="#F35D46" transform="translate(31,13)"/>
<path d="M0 0 C1.018 3.241 0.959 5.766 0.562 9.125 C0.005 14.44 -0.104 19.661 0 25 C0.66 25.33 1.32 25.66 2 26 C2 27.98 2 29.96 2 32 C1.34 32 0.68 32 0 32 C-0.701 30.423 -1.386 28.838 -2.062 27.25 C-2.254 26.809 -2.254 26.809 -3.223 24.578 C-4.098 21.675 -3.9 20.823 -3 18 C-2.814 16.814 -2.65 15.625 -2.5 14.434 C-2.418 13.783 -2.335 13.133 -2.25 12.463 C-2.083 11.109 -1.916 9.755 -1.75 8.4 C-1.668 7.751 -1.585 7.102 -1.5 6.434 C-1.428 5.846 -1.356 5.259 -1.281 4.654 C-1.004 3.022 -0.566 1.553 0 0 Z " fill="#F29080" transform="translate(16,74)"/>
<path d="M0 0 C0.99 0.33 1.98 0.66 3 1 C-1.215 6.253 -5.834 10.686 -11 15 C-11 11.302 -10.186 10.729 -7.75 8.062 C-7.114 7.363 -6.479 6.663 -5.824 5.941 C-3.92 3.915 -2.005 1.925 0 0 Z " fill="#F45339" transform="translate(37,42)"/>
<path d="M0 0 C3.3 0.33 6.6 0.66 10 1 C10 1.66 10 2.32 10 3 C5.087 5.746 0.607 4.828 -4.812 4.125 C-5.696 4.021 -6.58 3.916 -7.49 3.809 C-9.662 3.55 -11.831 3.281 -14 3 C-14 2.67 -14 2.34 -14 2 C-8.892 1.881 -4.036 2.119 1 3 C0.67 2.01 0.34 1.02 0 0 Z " fill="#F08776" transform="translate(95,132)"/>
<path d="M0 0 C0 0.99 0 1.98 0 3 C2.97 3.33 5.94 3.66 9 4 C9 4.33 9 4.66 9 5 C5.37 5.66 1.74 6.32 -2 7 C-2 6.34 -2 5.68 -2 5 C-2.99 4.67 -3.98 4.34 -5 4 C-3.745 1.489 -2.499 1.129 0 0 Z " fill="#F08372" transform="translate(78,115)"/>
<path d="M0 0 C2.25 4.5 2.25 4.5 2.633 7.016 C2.717 7.544 2.8 8.073 2.887 8.617 C2.965 9.156 3.044 9.695 3.125 10.25 C3.211 10.804 3.298 11.359 3.387 11.93 C3.597 13.286 3.799 14.643 4 16 C3.01 16 2.02 16 1 16 C0.67 10.72 0.34 5.44 0 0 Z " fill="#F08270" transform="translate(114,59)"/>
<path d="M0 0 C1.32 0.33 2.64 0.66 4 1 C4 2.98 4 4.96 4 7 C3.34 7 2.68 7 2 7 C1.34 4.69 0.68 2.38 0 0 Z " fill="#F16B57" transform="translate(14,99)"/>
<path d="M0 0 C0.33 0.99 0.66 1.98 1 3 C1.99 3 2.98 3 4 3 C4 3.99 4 4.98 4 6 C3.01 6.33 2.02 6.66 1 7 C0.67 4.69 0.34 2.38 0 0 Z " fill="#F14025" transform="translate(15,94)"/>
<path d="M0 0 C0.66 0.33 0.66 0.33 4 2 C3.67 3.32 3.34 4.64 3 6 C0 2.25 0 2.25 0 0 Z " fill="#F27965" transform="translate(82,39)"/>
<path d="M0 0 C1.65 0 3.3 0 5 0 C3.68 1.32 2.36 2.64 1 4 C0.67 2.68 0.34 1.36 0 0 Z " fill="#F46650" transform="translate(71,31)"/>
<path d="M0 0 C4.875 1.75 4.875 1.75 6 4 C4.02 3.34 2.04 2.68 0 2 C0 1.34 0 0.68 0 0 Z " fill="#F16E5A" transform="translate(112,10)"/>
<path d="M0 0 C0.99 0.165 0.99 0.165 6 1 C5.34 1.66 4.68 2.32 4 3 C3.01 3 2.02 3 1 3 C0.67 2.01 0.34 1.02 0 0 Z " fill="#F17865" transform="translate(95,132)"/>
<path d="M0 0 C0.99 0.33 1.98 0.66 3 1 C2.34 1.66 1.68 2.32 1 3 C0.67 2.01 0.34 1.02 0 0 Z " fill="#F16954" transform="translate(14,118)"/>
<path d="M0 0 C0.99 0.33 1.98 0.66 3 1 C2.34 1.66 1.68 2.32 1 3 C0.67 2.01 0.34 1.02 0 0 Z " fill="#F25F47" transform="translate(12,115)"/>
<path d="M0 0 C0.99 0.33 1.98 0.66 3 1 C2.34 1.66 1.68 2.32 1 3 C0.67 2.01 0.34 1.02 0 0 Z " fill="#F16750" transform="translate(10,112)"/>
<path d="M0 0 C0.99 0.33 1.98 0.66 3 1 C2.34 1.66 1.68 2.32 1 3 C0.67 2.01 0.34 1.02 0 0 Z " fill="#F26751" transform="translate(118,14)"/>
</svg>
