<svg xmlns="http://www.w3.org/2000/svg" viewBox="0 0 300 190" role="img" aria-label="Iran Khodro Diesel">
<path d="M38 20h98v64c0 36-20 59-49 78-29-19-49-42-49-78z" fill="#fff" stroke="#171252" stroke-width="7"/>
<path d="M58 87c3-27 11-45 28-56 15-10 32-10 44-4l-5 14c12 11 19 24 20 36 1 8-5 13-12 13-6 0-11-4-15-8l-8 17c-7 14-14 25-27 37-4-20-10-32-25-49z" fill="#171252"/>
<text x="212" y="78" text-anchor="middle" font-family="Arial,sans-serif" font-size="28" font-weight="900" fill="#171252">IKD</text>
<text x="212" y="112" text-anchor="middle" font-family="Arial,sans-serif" font-size="18" font-weight="800" fill="#1073b9">IRAN KHODRO</text>
<text x="212" y="139" text-anchor="middle" font-family="Arial,sans-serif" font-size="24" font-weight="900" fill="#1073b9">DIESEL</text>
</svg>