<svg xmlns="http://www.w3.org/2000/svg" viewBox="0 0 220 240" role="img" aria-label="Iran Khodro">
<path d="M18 18h184v118c0 47-37 74-92 94-55-20-92-47-92-94z" fill="#fff" stroke="#171252" stroke-width="8"/>
<path d="M60 112c5-35 13-61 37-78 19-14 46-17 69-6l-7 17c15 14 26 30 31 48 3 11-1 20-10 24-8 4-18 0-24-5l-9 19c-10 23-20 40-39 58-4-28-13-46-27-62-6-7-13-12-21-15z" fill="#171252"/>
<path d="M85 64c17-15 37-20 55-17-15 7-25 17-31 29 17-1 31 5 42 18-16-8-31-8-45 1-12 8-21 20-27 37-5-25-3-49 6-68z" fill="#fff" opacity=".92"/>
<circle cx="158" cy="77" r="4" fill="#fff"/><path d="M152 107c10 4 20 4 29-2" fill="none" stroke="#fff" stroke-width="4" stroke-linecap="round"/>
<text x="110" y="222" text-anchor="middle" font-family="Arial,sans-serif" font-size="15" font-weight="800" fill="#171252">IRAN KHODRO</text>
</svg>