<svg xmlns="http://www.w3.org/2000/svg" width="3840" height="2160" preserveAspectRatio="none" style="display:block" viewBox="0 0 2160 2160"><path fill="#fe0000" d="M506.506 838.956c23.379-.707 49.397-.162 72.935-.164l137.863-.006v112.435l-130.363.021c-22.472-.066-44.755-.279-67.307.103-13.954-2.504-17.132 20.555-9.006 26.32 63.044 44.725 146.939 95.005 207.208 139.245 42.86 31.47 38.432 215.76-46.082 204.45-9.334-1.25-27.502-.09-38.414-.15H410.077v-112.43h154.807c23.087.03 47.18.87 70.08-.28 12.493-.63 9.308-17.09-.443-23.73-13.268-9.04-26.465-17.83-39.854-26.61l-99.134-65.03c-45.311-29.74-73.041-39.82-77.531-100.685-5.206-70.548 4.476-144.144 88.504-153.489m696.704-.17 148.81-.027c29.61 0 60.36-.746 89.81 1.504 8.49.649 26.39 3.51 33.28 8.473 8.39 6.048 17.15 13.146 22.19 22.623 20.22 38.019 18.34 103.669-5.33 139.671-5.29 8.04-32.11 30.32-40.6 37.98l-99.55 90.37c-17.73 16.03-35.79 31.91-52.99 48.48-5.69 5.48-9.99 11.96-4.75 19.15 9.11 3.89 194.89 1.75 216.32 1.77l-.04 112.43-176.79-.01c-24.59 0-63.15.72-85.83-.34-67.06-3.13-58.97-138.02-35.91-175.69 9.28-15.16 50.75-50.13 65.07-63.15l92.92-84.357c8.46-7.677 40.19-35.428 44.94-42.638l-.78-2.543c-3.65-2.269-189.98-1.271-210.84-1.261zm396.84 0h82.89c2.32 108.097-3.34 217.304 1.95 325.264 1.17 23.74 19.93 46.46 45.26 44.72 19.01-1.3 47.39 2.84 64.95-2.02 6.43-1.72 12.3-5.08 17.05-9.76 18.92-18.39 16.04-60.31 16.27-84.95.18-20.3-.04-41.2-.05-61.55l.01-211.704h82.66v113.069l.04 163.075c.02 76.1 13.48 208.1-97.75 206.33-21.15-.34-42.93.5-63.96-.05-25.66-.67-58.02 2.8-82.6-3.89a74.96 74.96 0 0 1-33.51-19.2c-29.9-29.65-33.14-83.88-33.24-123.48-.08-29.54.06-59.21.07-88.77zm-795.27 0q41.275-.158 82.548.178l-.028 211.166c.006 37.18-1.904 77.48 1.98 113.62 5.575 51.87 43.827 44.36 80.775 45.03 34.485.62 56.805-6.11 60.785-44.82 3.78-36.8 2.02-75.45 2.01-112.19l.03-212.984h82.84v113.069l.02 163.635c0 40.46 2.42 82.76-5 122.55-10.09 54.14-38.03 82.73-94.01 83.21l-67.646-.02c-21.924.03-56.611 1.9-76.758-3.62-77.456-21.21-66.834-126.59-67.601-188.65-.176-14.19.003-28.01.003-41.96zm-556.31 0h82.686v482.424H248.47z"/></svg>