<svg xmlns="http://www.w3.org/2000/svg" viewBox="0 0 300 200" role="img" aria-label="Mammut Khodro">
<path d="M65 120c-16-10-25-28-25-49 0-34 30-59 73-59 47 0 82 27 82 66 0 11-2 20-7 29 18-2 34 7 44 24-19-6-35-2-49 12-8 9-18 14-31 16l-8-27h-26l-7 27H82l11-40c-11 0-20 1-28 1z" fill="#d41424"/>
<path d="M196 77c25 3 42 16 51 39-17-6-33-4-47 7-7 5-13 7-19 7 11-17 16-35 15-53z" fill="#d41424"/>
<circle cx="155" cy="63" r="4" fill="#fff"/>
<text x="150" y="190" text-anchor="middle" font-family="Arial,sans-serif" font-size="33" font-weight="900" letter-spacing="5" fill="#d41424">MAMMUT</text>
</svg>