<svg xmlns="http://www.w3.org/2000/svg" viewBox="0 0 240 220" role="img" aria-label="Bahman Group">
<circle cx="120" cy="92" r="72" fill="#0065a8"/>
<path d="M72 49h53c31 0 50 14 50 37 0 14-8 25-22 31 18 5 28 18 28 34 0 24-20 39-55 39H72zm35 25v31h19c10 0 16-6 16-15s-6-16-16-16zm0 55v35h22c12 0 19-7 19-18 0-10-7-17-19-17z" fill="#fff" transform="translate(0 -22)"/>
<path d="M58 114h124M66 128h108" stroke="#8fd4f4" stroke-width="6" stroke-linecap="round"/>
<text x="120" y="207" text-anchor="middle" font-family="Arial,sans-serif" font-size="21" font-weight="900" fill="#0065a8">BAHMAN</text>
</svg>