<svg xmlns="http://www.w3.org/2000/svg" viewBox="0 0 300 190" role="img" aria-label="Bahman Diesel">
<circle cx="80" cy="82" r="58" fill="#0065a8"/><path d="M52 42h36c25 0 39 11 39 29 0 10-5 18-15 23 13 4 20 13 20 25 0 19-15 30-42 30H52zm27 18v24h11c8 0 13-5 13-12s-5-12-13-12zm0 43v28h14c9 0 15-5 15-14 0-8-6-14-15-14z" fill="#fff" transform="translate(0 -17)"/>
<text x="205" y="77" text-anchor="middle" font-family="Arial,sans-serif" font-size="27" font-weight="900" fill="#0065a8">BAHMAN</text><text x="205" y="113" text-anchor="middle" font-family="Arial,sans-serif" font-size="29" font-weight="900" fill="#e07b00">DIESEL</text>
</svg>