<?xml version="1.0" encoding="UTF-8"?>
<!-- Generator: visioncortex VTracer 0.6.12 -->
<svg version="1.1" xmlns="http://www.w3.org/2000/svg" width="150" height="141">
<path d="M0 0 C5.479 3.736 10.523 8.109 15 13 C15.603 13.621 16.207 14.243 16.828 14.883 C25.715 24.346 30.766 34.481 34 47 C34.176 47.624 34.352 48.248 34.533 48.891 C36.904 59.596 36.181 73.779 32 84 C31.34 84.66 30.68 85.32 30 86 C27.817 88.744 26.079 91.566 24.375 94.625 C19.261 103.359 12.668 110.019 4.227 115.539 C1.075 117.607 -1.804 119.926 -4.609 122.445 C-7.985 124.641 -11.518 125.552 -15.375 126.625 C-16.118 126.842 -16.86 127.058 -17.625 127.281 C-38.861 133.359 -61.255 130.597 -80.562 120.02 C-84.667 117.662 -88.383 115.063 -92 112 C-92.491 111.651 -92.982 111.301 -93.488 110.941 C-105.529 102.081 -112.674 86.406 -115 72 C-115.3 68.785 -115.381 65.603 -115.375 62.375 C-115.374 61.511 -115.373 60.646 -115.372 59.755 C-115.184 49.403 -112.817 40.137 -108 31 C-106.604 33.792 -107.594 35.76 -108.375 38.625 C-110.342 46.342 -110.722 54.068 -111 62 C-110.422 62.082 -109.845 62.165 -109.25 62.25 C-106.275 63.242 -105.087 64.69 -103 67 C-102.985 66.553 -102.971 66.106 -102.956 65.646 C-102.677 57.946 -102.355 50.293 -100.688 42.75 C-100.582 42.239 -100.477 41.727 -100.368 41.2 C-99.46 37.465 -97.775 34.622 -95 32 C-92.562 30.938 -92.562 30.938 -90 31 C-86.082 32.768 -84.305 35.869 -82.736 39.699 C-80.936 45.326 -80.218 51.275 -79.273 57.094 C-76.13 76.237 -76.13 76.237 -70.957 81.402 C-70.249 81.909 -69.542 82.416 -68.812 82.938 C-68.118 83.462 -67.423 83.987 -66.707 84.527 C-59.266 88.925 -51.745 89.482 -43.335 89.391 C-41.568 89.375 -39.804 89.391 -38.037 89.41 C-28.161 89.43 -19.287 88.246 -11.82 81.172 C-9.063 77.882 -7.12 74.289 -5.227 70.453 C-4 68 -4 68 -2.988 66.666 C-1.673 64.448 -1.386 62.428 -0.965 59.887 C-0.881 59.395 -0.798 58.903 -0.712 58.396 C-0.447 56.827 -0.192 55.258 0.062 53.688 C0.237 52.644 0.412 51.6 0.588 50.557 C1.067 47.706 1.533 44.853 2 42 C2.206 40.777 2.413 39.555 2.621 38.332 C3 36 3 36 3 35 C1.68 34.34 0.36 33.68 -1 33 C-1 32.34 -1 31.68 -1 31 C-1.99 31 -2.98 31 -4 31 C-4.431 30.35 -4.862 29.701 -5.307 29.031 C-7 27 -7 27 -9.771 26.502 C-10.879 26.481 -11.986 26.48 -13.094 26.496 C-13.388 26.491 -13.388 26.491 -14.875 26.468 C-16.751 26.439 -18.625 26.436 -20.5 26.438 C-22.375 26.434 -24.25 26.424 -26.125 26.397 C-27.29 26.38 -28.455 26.377 -29.62 26.39 C-32.201 26.356 -33.712 26.212 -35.818 24.664 C-37.657 22.075 -38.107 19.917 -38.281 16.785 C-38.3 16.483 -38.3 16.483 -38.395 14.955 C-38.412 14.643 -38.412 14.643 -38.5 13.062 C-38.919 5.595 -38.919 5.595 -40 2 C-40.66 2 -41.32 2 -42 2 C-41.984 2.484 -41.969 2.967 -41.952 3.465 C-41.89 5.685 -41.851 7.905 -41.812 10.125 C-41.787 10.886 -41.762 11.646 -41.736 12.43 C-41.671 17.483 -42.247 20.72 -45 25 C-47.682 26.341 -50.207 26.201 -53.145 26.238 C-53.751 26.246 -54.358 26.254 -54.983 26.263 C-56.269 26.277 -57.554 26.287 -58.839 26.295 C-60.795 26.312 -62.749 26.356 -64.705 26.4 C-65.956 26.411 -67.206 26.419 -68.457 26.426 C-69.037 26.443 -69.618 26.461 -70.216 26.479 C-76.228 26.447 -78.96 23.04 -83 19 C-83.66 18.67 -84.32 18.34 -85 18 C-80.311 7.042 -67.352 1.289 -57 -3 C-55.863 -3.357 -54.722 -3.703 -53.578 -4.035 C-52.727 -4.354 -51.877 -4.672 -51 -5 C-50.339 -6.56 -50.339 -6.56 -50 -8 C-50.99 -8.66 -51.98 -9.32 -53 -10 C-35.391 -14.878 -15.118 -9.444 0 0 Z M-64.368 5.693 C-67.334 7.326 -70.175 9.137 -73 11 C-73.719 11.471 -74.439 11.941 -75.18 12.426 C-78.744 14.852 -78.744 14.852 -80 16 C-80 16.66 -80 17.32 -80 18 C-79.34 18 -78.68 18 -78 18 C-77.866 18.402 -77.866 18.402 -77.188 20.438 C-76 23 -76 23 -74.779 23.647 C-72.304 24.138 -69.858 24.183 -67.344 24.203 C-66.8 24.209 -66.257 24.215 -65.697 24.22 C-64.55 24.23 -63.404 24.236 -62.257 24.24 C-60.506 24.25 -58.755 24.281 -57.004 24.312 C-55.888 24.319 -54.772 24.324 -53.656 24.328 C-53.134 24.34 -52.612 24.353 -52.075 24.366 C-49.648 24.351 -48.207 24.14 -46.178 22.771 C-44.678 20.516 -44.574 19.031 -44.488 16.332 C-44.453 15.439 -44.417 14.547 -44.381 13.627 C-44.358 12.698 -44.336 11.769 -44.312 10.812 C-44.278 9.872 -44.244 8.932 -44.209 7.963 C-44.127 5.642 -44.057 3.322 -44 1 C-50.233 -1.4 -58.63 2.784 -64.368 5.693 Z M-32.723 2.344 C-34.619 4.803 -35.127 6.36 -35.133 9.406 C-35.134 10.068 -35.135 10.729 -35.137 11.41 C-35.133 12.1 -35.129 12.789 -35.125 13.5 C-35.129 14.19 -35.133 14.879 -35.137 15.59 C-35.135 16.251 -35.134 16.912 -35.133 17.594 C-35.132 18.199 -35.131 18.804 -35.129 19.428 C-35 21 -35 21 -34 23 C-30.061 24.973 -24.694 24.305 -20.367 24.35 C-19.209 24.367 -18.051 24.394 -16.894 24.432 C-7.346 24.745 -7.346 24.745 -4.132 22.966 C-1.932 20.858 -0.851 18.917 0 16 C-25.34 -3.415 -25.34 -3.415 -32.723 2.344 Z M-8 8 C-7.67 8.66 -7.34 9.32 -7 10 C-6.34 9.67 -5.68 9.34 -5 9 C-5.99 8.67 -6.98 8.34 -8 8 Z M-93 37 C-99.981 49.057 -99.358 63.941 -95.902 77.027 C-91.38 92.59 -82.853 105.5 -68.602 113.629 C-63.132 116.512 -57.333 119.418 -51 118 C-48.522 116.694 -46.56 115.231 -45.383 112.645 C-44.9 110.571 -44.793 108.629 -44.75 106.5 C-44.737 106.113 -44.737 106.113 -44.672 104.156 C-45.09 101.41 -45.905 100.78 -48 99 C-49.99 98.004 -49.99 98.004 -52.238 97.133 C-53.059 96.804 -53.879 96.475 -54.725 96.137 C-56.437 95.467 -58.151 94.801 -59.865 94.137 C-68.38 90.715 -74.048 86.427 -78 78 C-81.316 69.325 -82.905 60.037 -84.518 50.929 C-85.404 46.137 -86.431 42.171 -89 38 C-91.188 37.125 -91.188 37.125 -93 37 Z M10 37 C7.436 39.713 6.484 42.172 5.719 45.781 C5.518 46.7 5.318 47.619 5.112 48.565 C4.91 49.534 4.708 50.502 4.5 51.5 C4.281 52.503 4.061 53.505 3.84 54.507 C3.067 58.009 2.309 61.514 1.579 65.025 C-0.606 75.491 -3.795 84.19 -12.711 90.577 C-16.58 92.982 -20.699 94.613 -24.938 96.25 C-26.636 96.916 -28.333 97.587 -30.027 98.266 C-30.767 98.552 -31.507 98.839 -32.269 99.134 C-34 100 -34 100 -35 102 C-35.415 106.058 -35.77 110.296 -33.688 113.938 C-30.602 117.708 -30.602 117.708 -27.605 118.254 C-18.013 118.95 -9.351 112.901 -2.25 107.1 C0.844 104.378 3.47 101.246 6 98 C6.33 98.66 6.66 99.32 7 100 C2.982 104.79 -1.017 109.203 -6 113 C-5.34 113.33 -4.68 113.66 -4 114 C5.896 107.324 13.572 100.215 19.479 89.718 C20.956 87.199 22.019 85.989 24.57 84.5 C27.619 82.618 28.09 81.239 29.188 77.875 C29.348 77.391 29.508 76.908 29.673 76.41 C31.092 72.008 32.226 67.561 33 63 C33.165 62.072 33.33 61.144 33.5 60.188 C32.906 57.588 32.469 57.403 30.312 56 C29.814 55.732 29.315 55.464 28.801 55.188 C26.194 53.468 24.15 51.251 22 49 C21.991 49.461 21.981 49.923 21.972 50.398 C21.621 64.318 20.508 78.859 13 91 C11.909 88.487 12.035 87.19 12.961 84.637 C13.185 83.997 13.41 83.357 13.641 82.697 C13.883 82.034 14.125 81.371 14.375 80.688 C18.833 68.305 20.346 53.559 15.199 41.055 C14.522 39.674 13.77 38.331 13 37 C12.01 37 11.02 37 10 37 Z M21 44 C22 47 22 47 22 47 Z " fill="#1F1D22" transform="translate(115,11)"/>
<path d="M0 0 C5.479 3.736 10.523 8.109 15 13 C15.603 13.621 16.207 14.243 16.828 14.883 C25.715 24.346 30.766 34.481 34 47 C34.176 47.624 34.352 48.248 34.533 48.891 C36.904 59.596 36.181 73.779 32 84 C31.34 84.66 30.68 85.32 30 86 C29.34 86 28.68 86 28 86 C28 85.34 28 84.68 28 84 C27.34 83.67 26.68 83.34 26 83 C26.254 82.368 26.508 81.737 26.77 81.086 C29.68 73.52 31.468 65.951 33 58 C32.278 57.794 31.556 57.588 30.812 57.375 C28 56 28 56 23 50 C22.67 55.61 22.34 61.22 22 67 C21.67 67 21.34 67 21 67 C21.01 66.355 21.021 65.709 21.032 65.044 C21.066 62.636 21.091 60.228 21.11 57.82 C21.12 56.781 21.134 55.741 21.151 54.701 C21.175 53.202 21.185 51.703 21.195 50.203 C21.206 49.302 21.216 48.402 21.227 47.474 C20.984 44.831 20.326 43.274 19 41 C17.667 38.333 16.333 35.667 15 33 C9.354 32.749 9.354 32.749 7.5 34.062 C5.01 35.619 2.784 34.619 0 34 C-0.33 33.01 -0.66 32.02 -1 31 C-1.99 31 -2.98 31 -4 31 C-4.431 30.35 -4.862 29.701 -5.307 29.031 C-7 27 -7 27 -9.771 26.502 C-10.879 26.481 -11.986 26.48 -13.094 26.496 C-13.388 26.491 -13.388 26.491 -14.875 26.468 C-16.751 26.439 -18.625 26.436 -20.5 26.438 C-22.375 26.434 -24.25 26.424 -26.125 26.397 C-27.29 26.38 -28.455 26.377 -29.62 26.39 C-32.201 26.356 -33.712 26.212 -35.818 24.664 C-37.657 22.075 -38.107 19.917 -38.281 16.785 C-38.3 16.483 -38.3 16.483 -38.395 14.955 C-38.412 14.643 -38.412 14.643 -38.5 13.062 C-38.919 5.595 -38.919 5.595 -40 2 C-40.66 2 -41.32 2 -42 2 C-41.984 2.484 -41.969 2.967 -41.952 3.465 C-41.89 5.685 -41.851 7.905 -41.812 10.125 C-41.787 10.886 -41.762 11.646 -41.736 12.43 C-41.671 17.483 -42.247 20.72 -45 25 C-47.682 26.341 -50.207 26.201 -53.145 26.238 C-53.751 26.246 -54.358 26.254 -54.983 26.263 C-56.269 26.277 -57.554 26.287 -58.839 26.295 C-60.795 26.312 -62.749 26.356 -64.705 26.4 C-65.956 26.411 -67.206 26.419 -68.457 26.426 C-69.037 26.443 -69.618 26.461 -70.216 26.479 C-76.228 26.447 -78.96 23.04 -83 19 C-83.66 18.67 -84.32 18.34 -85 18 C-80.311 7.042 -67.352 1.289 -57 -3 C-55.863 -3.357 -54.722 -3.703 -53.578 -4.035 C-52.727 -4.354 -51.877 -4.672 -51 -5 C-50.339 -6.56 -50.339 -6.56 -50 -8 C-50.99 -8.66 -51.98 -9.32 -53 -10 C-35.391 -14.878 -15.118 -9.444 0 0 Z M-64.368 5.693 C-67.334 7.326 -70.175 9.137 -73 11 C-73.719 11.471 -74.439 11.941 -75.18 12.426 C-78.744 14.852 -78.744 14.852 -80 16 C-80 16.66 -80 17.32 -80 18 C-79.34 18 -78.68 18 -78 18 C-77.866 18.402 -77.866 18.402 -77.188 20.438 C-76 23 -76 23 -74.779 23.647 C-72.304 24.138 -69.858 24.183 -67.344 24.203 C-66.8 24.209 -66.257 24.215 -65.697 24.22 C-64.55 24.23 -63.404 24.236 -62.257 24.24 C-60.506 24.25 -58.755 24.281 -57.004 24.312 C-55.888 24.319 -54.772 24.324 -53.656 24.328 C-53.134 24.34 -52.612 24.353 -52.075 24.366 C-49.648 24.351 -48.207 24.14 -46.178 22.771 C-44.678 20.516 -44.574 19.031 -44.488 16.332 C-44.453 15.439 -44.417 14.547 -44.381 13.627 C-44.358 12.698 -44.336 11.769 -44.312 10.812 C-44.278 9.872 -44.244 8.932 -44.209 7.963 C-44.127 5.642 -44.057 3.322 -44 1 C-50.233 -1.4 -58.63 2.784 -64.368 5.693 Z M-32.723 2.344 C-34.619 4.803 -35.127 6.36 -35.133 9.406 C-35.134 10.068 -35.135 10.729 -35.137 11.41 C-35.133 12.1 -35.129 12.789 -35.125 13.5 C-35.129 14.19 -35.133 14.879 -35.137 15.59 C-35.135 16.251 -35.134 16.912 -35.133 17.594 C-35.132 18.199 -35.131 18.804 -35.129 19.428 C-35 21 -35 21 -34 23 C-30.061 24.973 -24.694 24.305 -20.367 24.35 C-19.209 24.367 -18.051 24.394 -16.894 24.432 C-7.346 24.745 -7.346 24.745 -4.132 22.966 C-1.932 20.858 -0.851 18.917 0 16 C-25.34 -3.415 -25.34 -3.415 -32.723 2.344 Z M-8 8 C-7.67 8.66 -7.34 9.32 -7 10 C-6.34 9.67 -5.68 9.34 -5 9 C-5.99 8.67 -6.98 8.34 -8 8 Z " fill="#D0D1D1" transform="translate(115,11)"/>
<path d="M0 0 C1.396 2.792 0.406 4.76 -0.375 7.625 C-2.342 15.342 -2.722 23.068 -3 31 C-2.711 31.041 -2.711 31.041 -1.25 31.25 C1 32 1 32 5 36 C5.33 30.39 5.66 24.78 6 19 C6.33 19 6.66 19 7 19 C7.005 19.261 7.005 19.261 7.028 20.582 C7.402 37.312 8.566 52.403 19 66 C19.341 66.457 19.683 66.913 20.035 67.384 C23.33 71.773 26.431 75.839 31 79 C31.66 78.34 32.32 77.68 33 77 C33.557 77.398 34.114 77.797 34.688 78.207 C41.077 82.643 47.413 86.721 55.469 86.281 C58.52 85.721 60.068 84.217 61.906 81.816 C64.74 77.185 64.281 72.26 64 67 C64.66 67.33 65.32 67.66 66 68 C66.567 82.159 66.567 82.159 63 87 C59.876 89.899 57.282 90.55 53.125 90.5 C52.56 90.494 51.995 90.489 51.412 90.483 C37.184 89.902 21.595 81.256 12 71 C2.319 59.7 -1.816 47.314 -5 33 C-4.038 50.748 3.463 66.48 16.62 78.491 C29.592 89.66 46.649 94.94 63.438 96.375 C63.937 96.42 64.436 96.465 64.951 96.511 C71.963 97.121 78.037 97.048 84.695 94.629 C87.46 93.875 89.264 94.255 92 95 C83.111 101.759 65.919 99.896 55.592 98.728 C40.961 96.556 27.307 90.576 16 81 C15.509 80.651 15.018 80.301 14.512 79.941 C2.471 71.081 -4.674 55.406 -7 41 C-7.3 37.785 -7.381 34.603 -7.375 31.375 C-7.374 30.511 -7.373 29.646 -7.372 28.755 C-7.184 18.403 -4.817 9.137 0 0 Z " fill="#CECECF" transform="translate(7,42)"/>
<path d="M0 0 C4.823 4.461 6.031 11.365 6.291 17.628 C6.353 20.011 6.371 22.393 6.371 24.777 C6.375 26.601 6.411 28.422 6.449 30.246 C6.554 41.268 4.324 51.749 -2 61 C-3.074 59.773 -3.074 59.773 -4 58 C-3.645 55.977 -3.645 55.977 -2.812 53.625 C-2.524 52.736 -2.235 51.846 -1.938 50.93 C-1.86 50.692 -1.86 50.692 -1.469 49.487 C2.965 35.419 4.422 19.762 -2 6 C-3.899 6.26 -3.899 6.26 -6 7 C-8.997 12.128 -9.635 18.837 -10.685 24.616 C-12.16 32.718 -13.674 40.695 -17.375 48.125 C-17.631 48.649 -17.886 49.173 -18.149 49.714 C-22.456 57.577 -29.772 61.198 -37.812 64.375 C-38.67 64.729 -39.528 65.084 -40.412 65.449 C-46.671 68 -46.671 68 -49 68 C-49.562 79.89 -49.562 79.89 -46 84 C-42.276 85.862 -38.663 85.444 -34.703 84.387 C-24.171 80.58 -15.837 73.774 -9 65 C-8.67 65.495 -8.67 65.495 -7 68 C-12.414 74.484 -18.118 80.084 -25 85 C-25.454 85.351 -25.907 85.701 -26.375 86.062 C-32.157 89.398 -38.442 89.965 -45 89 C-49 87.012 -51.378 84.135 -53 80 C-53.759 75.312 -54.146 69.532 -52.16 65.145 C-49.004 61.691 -44.37 60.334 -40 59 C-40.99 58.34 -41.98 57.68 -43 57 C-42.685 56.932 -42.685 56.932 -41.094 56.59 C-33.207 54.606 -27.493 51.306 -23.242 44.203 C-22.179 42.313 -21.186 40.398 -20.227 38.453 C-19 36 -19 36 -17.988 34.666 C-16.673 32.448 -16.386 30.428 -15.965 27.887 C-15.881 27.395 -15.798 26.903 -15.712 26.396 C-15.447 24.827 -15.192 23.258 -14.938 21.688 C-14.763 20.644 -14.588 19.6 -14.412 18.557 C-13.063 10.502 -13.063 10.502 -12.751 8.016 C-12.466 5.786 -12.248 4.302 -10.801 2.539 C-7.021 0.218 -4.432 -0.964 0 0 Z " fill="#6F6F6F" transform="translate(130,43)"/>
<path d="M0 0 C0.165 0.33 0.165 0.33 1 2 C1.368 1.969 1.368 1.969 3.23 1.812 C6.552 2.037 7.76 2.923 10.312 5 C11.01 5.557 11.707 6.114 12.426 6.688 C12.945 7.121 13.465 7.554 14 8 C13.34 8.33 12.68 8.66 12 9 C12.165 9.33 12.165 9.33 13 11 C13.409 10.513 13.818 10.026 14.24 9.525 C16.935 7.19 19.137 7.565 22.579 7.688 C26.537 8.198 29.82 9.614 33.375 11.375 C34.105 11.727 34.834 12.079 35.586 12.442 C42.291 15.845 48.206 20.17 53 26 C53 29 53 29 52.082 30.281 C51.663 30.683 51.244 31.086 50.812 31.5 C50.609 31.701 50.609 31.701 49.582 32.719 C45.144 36.313 42.125 37.458 36.492 37.398 C35.885 37.401 35.278 37.404 34.652 37.407 C33.376 37.409 32.1 37.404 30.825 37.391 C28.873 37.375 26.924 37.391 24.973 37.41 C23.729 37.408 22.486 37.404 21.242 37.398 C20.661 37.405 20.08 37.411 19.481 37.417 C16.873 37.372 15.304 37.223 13.172 35.663 C11.345 33.071 10.892 30.913 10.719 27.785 C10.7 27.483 10.7 27.483 10.605 25.955 C10.588 25.643 10.588 25.643 10.5 24.062 C10.081 16.595 10.081 16.595 9 13 C8.34 13 7.68 13 7 13 C7.016 13.484 7.031 13.967 7.048 14.465 C7.11 16.685 7.149 18.905 7.188 21.125 C7.213 21.886 7.238 22.646 7.264 23.43 C7.329 28.483 6.753 31.72 4 36 C1.318 37.341 -1.207 37.201 -4.145 37.238 C-4.751 37.246 -5.358 37.254 -5.983 37.263 C-7.269 37.277 -8.554 37.287 -9.839 37.295 C-11.795 37.312 -13.749 37.356 -15.705 37.4 C-16.956 37.411 -18.206 37.419 -19.457 37.426 C-20.037 37.443 -20.618 37.461 -21.216 37.479 C-27.228 37.447 -29.96 34.04 -34 30 C-34.66 29.67 -35.32 29.34 -36 29 C-31.311 18.042 -18.352 12.289 -8 8 C-6.863 7.643 -5.722 7.297 -4.578 6.965 C-3.727 6.646 -2.877 6.328 -2 6 C-1.339 4.44 -1.339 4.44 -1 3 C-1.99 2.34 -2.98 1.68 -4 1 C-2.68 0.67 -1.36 0.34 0 0 Z M-15.368 16.693 C-18.334 18.326 -21.175 20.137 -24 22 C-24.719 22.471 -25.439 22.941 -26.18 23.426 C-29.744 25.852 -29.744 25.852 -31 27 C-31 27.66 -31 28.32 -31 29 C-30.34 29 -29.68 29 -29 29 C-28.866 29.402 -28.866 29.402 -28.188 31.438 C-27 34 -27 34 -25.779 34.647 C-23.304 35.138 -20.858 35.183 -18.344 35.203 C-17.8 35.209 -17.257 35.215 -16.697 35.22 C-15.55 35.23 -14.404 35.236 -13.257 35.24 C-11.506 35.25 -9.755 35.281 -8.004 35.312 C-6.888 35.319 -5.772 35.324 -4.656 35.328 C-4.134 35.34 -3.612 35.353 -3.075 35.366 C-0.648 35.351 0.793 35.14 2.822 33.771 C4.322 31.516 4.426 30.031 4.512 27.332 C4.547 26.439 4.583 25.547 4.619 24.627 C4.642 23.698 4.664 22.769 4.688 21.812 C4.722 20.872 4.756 19.932 4.791 18.963 C4.873 16.642 4.943 14.322 5 12 C-1.233 9.6 -9.63 13.784 -15.368 16.693 Z M16.277 13.344 C14.381 15.803 13.873 17.36 13.867 20.406 C13.866 21.068 13.865 21.729 13.863 22.41 C13.867 23.1 13.871 23.789 13.875 24.5 C13.871 25.19 13.867 25.879 13.863 26.59 C13.865 27.251 13.866 27.912 13.867 28.594 C13.868 29.199 13.869 29.804 13.871 30.428 C14 32 14 32 15 34 C18.939 35.973 24.306 35.305 28.633 35.35 C29.791 35.367 30.949 35.394 32.106 35.432 C41.654 35.745 41.654 35.745 44.868 33.966 C47.068 31.858 48.149 29.917 49 27 C23.66 7.585 23.66 7.585 16.277 13.344 Z M41 19 C41.33 19.66 41.66 20.32 42 21 C42.66 20.67 43.32 20.34 44 20 C43.01 19.67 42.02 19.34 41 19 Z " fill="#DADBDA" transform="translate(66,0)"/>
<path d="M0 0 C3.19 1.391 4.836 3.046 6.438 6.062 C9.271 13.777 10.548 21.765 11.811 29.852 C14.705 47.046 14.705 47.046 21.625 52 C22.32 52.525 23.015 53.049 23.73 53.59 C31.547 58.223 39.691 58.574 48.5 58.75 C49.663 58.783 50.827 58.818 51.99 58.854 C54.806 58.937 57.621 59.005 60.438 59.062 C60.438 59.392 60.438 59.722 60.438 60.062 C59.958 60.113 59.479 60.163 58.985 60.214 C56.822 60.446 54.661 60.691 52.5 60.938 C51.745 61.016 50.991 61.095 50.213 61.176 C49.494 61.26 48.776 61.343 48.035 61.43 C47.37 61.503 46.705 61.576 46.02 61.652 C45.498 61.787 44.975 61.923 44.438 62.062 C44.273 62.392 44.273 62.392 43.438 64.062 C44.757 64.722 46.078 65.382 47.438 66.062 C47.492 67.812 47.53 69.562 47.562 71.312 C47.586 72.287 47.609 73.262 47.633 74.266 C47.438 77.062 47.438 77.062 45.438 81.062 C45.108 77.103 44.778 73.142 44.438 69.062 C43.819 68.867 43.819 68.867 40.688 67.875 C29.295 64.03 18.889 60.497 12.555 49.484 C8.299 40.258 6.678 29.923 4.92 19.991 C4.03 15.18 2.875 11.315 0.438 7.062 C-0.553 7.062 -1.543 7.062 -2.562 7.062 C-3.048 8.435 -3.525 9.811 -4 11.188 C-4.267 11.953 -4.534 12.719 -4.809 13.508 C-9.521 29.478 -5.937 46.525 1.432 61.094 C4.802 67.237 9.478 72.173 14.438 77.062 C14.108 78.052 13.778 79.043 13.438 80.062 C7.484 75.654 3.439 70.415 -0.671 64.354 C-1.427 63.258 -2.229 62.193 -3.039 61.137 C-10.465 50.864 -10.942 37.827 -11 25.625 C-11.006 25.069 -11.012 24.513 -11.019 23.941 C-11.071 16.683 -11.049 8.616 -6.438 2.594 C-4.343 0.657 -2.838 0.069 0 0 Z " fill="#7F7F80" transform="translate(24.5625,41.9375)"/>
<path d="M0 0 C0.799 -0.037 1.597 -0.075 2.42 -0.113 C6.376 -0.172 9.092 -0.141 12.07 2.648 C15.684 7.041 15.331 11.992 14.805 17.426 C13.438 28.778 10.424 41.958 1.449 49.781 C-2.271 52.366 -5.446 53.52 -10 53.562 C-10.346 53.57 -10.346 53.57 -12.098 53.605 C-13.938 53.375 -13.938 53.375 -15.938 51.375 C-16.198 49.415 -16.198 49.415 -16.212 46.989 C-16.222 46.081 -16.231 45.173 -16.241 44.238 C-16.24 43.254 -16.239 42.271 -16.238 41.258 C-16.242 40.239 -16.247 39.22 -16.251 38.201 C-16.259 36.064 -16.258 33.927 -16.253 31.791 C-16.247 29.058 -16.264 26.326 -16.288 23.593 C-16.302 21.488 -16.303 19.382 -16.3 17.277 C-16.301 15.781 -16.315 14.286 -16.329 12.79 C-16.322 11.876 -16.316 10.962 -16.31 10.02 C-16.31 9.218 -16.311 8.415 -16.312 7.589 C-15.844 4.819 -14.812 3.436 -12.938 1.375 C-8.847 -0.18 -4.326 0.076 0 0 Z M-12.691 7.848 C-14.549 11.615 -14.328 15.082 -14.266 19.227 C-14.264 20.082 -14.262 20.937 -14.26 21.818 C-14.253 23.622 -14.239 25.426 -14.219 27.229 C-14.188 29.997 -14.178 32.764 -14.172 35.531 C-14.163 37.284 -14.152 39.036 -14.141 40.789 C-14.136 41.619 -14.132 42.449 -14.128 43.305 C-14.118 44.073 -14.109 44.84 -14.099 45.631 C-14.092 46.308 -14.085 46.984 -14.078 47.681 C-13.938 49.375 -13.938 49.375 -12.938 51.375 C-7.746 52.105 -4.152 51.086 0.145 48.094 C8.125 40.942 11.538 28.76 12.375 18.332 C12.475 14.088 12.328 11.063 10.062 7.375 C6.533 5.61 2.514 6.105 -1.375 6.062 C-2.247 6.033 -3.119 6.004 -4.018 5.975 C-4.856 5.966 -5.695 5.958 -6.559 5.949 C-6.942 5.942 -6.942 5.942 -8.885 5.905 C-10.938 6.375 -10.938 6.375 -12.691 7.848 Z " fill="#818181" transform="translate(93.9375,43.625)"/>
<path d="M0 0 C2.107 2.46 2.252 4.346 2.259 7.531 C2.265 8.446 2.271 9.36 2.278 10.302 C2.274 11.286 2.27 12.271 2.266 13.285 C2.267 14.307 2.269 15.33 2.271 16.352 C2.274 18.491 2.27 20.63 2.261 22.77 C2.249 25.513 2.256 28.255 2.268 30.998 C2.275 33.108 2.273 35.217 2.268 37.327 C2.266 38.83 2.272 40.334 2.278 41.837 C2.272 42.748 2.265 43.659 2.259 44.598 C2.258 45 2.258 45 2.254 47.033 C2 49 2 49 0 51 C-5.095 52.029 -9.665 50.891 -14.121 48.371 C-22.763 42.065 -26.543 30.042 -28.375 19.875 C-29.181 14.028 -29.995 6.892 -27.211 1.461 C-21.825 -4.625 -6.731 -3.155 0 0 Z M-25 6 C-28.279 12.654 -25.703 22.888 -23.495 29.515 C-20.896 36.755 -18.069 43.841 -11.125 47.875 C-7.799 49.356 -4.577 49.286 -1 49 C0.095 46.809 0.137 45.676 0.161 43.256 C0.171 42.489 0.18 41.721 0.19 40.93 C0.194 40.1 0.199 39.269 0.203 38.414 C0.206 37.987 0.206 37.987 0.22 35.828 C0.23 34.021 0.236 32.214 0.24 30.406 C0.25 27.643 0.281 24.88 0.312 22.117 C0.319 20.362 0.324 18.607 0.328 16.852 C0.34 16.025 0.353 15.199 0.366 14.348 C0.352 10.919 0.287 8.581 -1.249 5.476 C-3.432 3.636 -4.511 3.508 -7.344 3.539 C-8.178 3.543 -9.012 3.547 -9.871 3.551 C-10.305 3.563 -10.305 3.563 -12.5 3.625 C-13.368 3.626 -14.235 3.628 -15.129 3.629 C-22.289 3.729 -22.289 3.729 -25 6 Z " fill="#9C9D9D" transform="translate(70,46)"/>
<path d="M0 0 C3.182 1.387 5.028 2.92 6.438 6.062 C7.048 9.39 7.306 12.684 7.438 16.062 C6.777 16.062 6.117 16.062 5.438 16.062 C3.788 13.093 2.137 10.123 0.438 7.062 C-0.553 7.062 -1.543 7.062 -2.562 7.062 C-3.048 8.435 -3.525 9.811 -4 11.188 C-4.267 11.953 -4.534 12.719 -4.809 13.508 C-9.521 29.478 -5.937 46.525 1.432 61.094 C4.802 67.237 9.478 72.173 14.438 77.062 C14.108 78.052 13.778 79.043 13.438 80.062 C7.484 75.654 3.439 70.415 -0.671 64.354 C-1.427 63.258 -2.229 62.193 -3.039 61.137 C-10.465 50.864 -10.942 37.827 -11 25.625 C-11.006 25.069 -11.012 24.513 -11.019 23.941 C-11.071 16.683 -11.049 8.616 -6.438 2.594 C-4.343 0.657 -2.838 0.069 0 0 Z " fill="#6C6C6D" transform="translate(24.5625,41.9375)"/>
<path d="M0 0 C0.577 0.082 1.155 0.165 1.75 0.25 C1.22 10.32 -7.086 19.688 -14.25 26.25 C-16.733 28.259 -19.352 30.042 -22.023 31.789 C-25.29 33.933 -28.242 36.372 -31.188 38.938 C-33.906 40.668 -36.063 40.888 -39.25 41.25 C-39.58 39.93 -39.91 38.61 -40.25 37.25 C-37.609 36.062 -35.975 36.404 -33.25 37.25 C-33.625 35.312 -33.625 35.312 -34.25 33.25 C-34.91 32.92 -35.57 32.59 -36.25 32.25 C-35.905 32.08 -35.905 32.08 -34.16 31.219 C-22.725 25.404 -15.641 17.942 -8.512 7.422 C-3.658 0.406 -3.658 0.406 0 0 Z " fill="#3E3D41" transform="translate(141.25,94.75)"/>
<path d="M0 0 C2.141 0.822 4.176 1.752 6.231 2.771 C6.961 3.123 7.691 3.475 8.442 3.838 C15.147 7.241 21.062 11.566 25.856 17.396 C25.856 20.396 25.856 20.396 24.938 21.677 C24.52 22.079 24.101 22.481 23.669 22.896 C23.263 23.298 22.857 23.7 22.438 24.114 C18.001 27.708 14.982 28.853 9.349 28.794 C8.741 28.797 8.134 28.8 7.508 28.803 C6.233 28.805 4.957 28.799 3.681 28.787 C1.73 28.77 -0.22 28.787 -2.171 28.806 C-3.414 28.804 -4.658 28.8 -5.901 28.794 C-6.192 28.797 -6.192 28.797 -7.663 28.812 C-10.2 28.768 -11.86 28.58 -14.007 27.181 C-16.163 23.794 -15.623 19.892 -15.59 15.99 C-15.581 14.465 -15.61 12.945 -15.642 11.421 C-15.636 3.228 -15.636 3.228 -13.679 0.704 C-9.211 -1.602 -4.785 -1.349 0 0 Z M-10.866 4.739 C-12.763 7.198 -13.271 8.756 -13.276 11.802 C-13.278 12.463 -13.279 13.124 -13.28 13.806 C-13.276 14.495 -13.273 15.185 -13.269 15.896 C-13.272 16.585 -13.276 17.275 -13.28 17.985 C-13.279 18.647 -13.278 19.308 -13.276 19.989 C-13.275 20.594 -13.274 21.2 -13.273 21.823 C-13.144 23.396 -13.144 23.396 -12.144 25.396 C-8.205 27.369 -2.837 26.7 1.489 26.746 C2.647 26.762 3.805 26.789 4.963 26.828 C14.511 27.14 14.511 27.14 17.725 25.361 C19.924 23.253 21.005 21.312 21.856 18.396 C-3.484 -1.019 -3.484 -1.019 -10.866 4.739 Z M13.856 10.396 C14.186 11.056 14.516 11.716 14.856 12.396 C15.516 12.066 16.176 11.736 16.856 11.396 C15.866 11.066 14.876 10.736 13.856 10.396 Z " fill="#A0A0A1" transform="translate(93.1435546875,8.6044921875)"/>
<path d="M0 0 C1.516 2.069 2.306 3.717 2.789 6.23 C6.72 24.925 14.467 39.387 30.648 49.953 C39.843 55.716 49.128 59.002 59.961 59.656 C60.634 59.77 61.307 59.883 62 60 C62.33 60.66 62.66 61.32 63 62 C62.01 62.33 61.02 62.66 60 63 C60.66 63.99 61.32 64.98 62 66 C45.218 65.427 28.842 55.504 17.066 44.133 C6.824 33.138 -0.094 18.038 -0.125 2.875 C-0.084 1.926 -0.042 0.978 0 0 Z " fill="#201F24" transform="translate(1,72)"/>
<path d="M0 0 C2.52 2.427 4.938 4.84 7.062 7.625 C8.776 9.842 10.671 11.42 13 13 C13.66 12.34 14.32 11.68 15 11 C15.557 11.398 16.114 11.797 16.688 12.207 C23.077 16.643 29.413 20.721 37.469 20.281 C40.52 19.721 42.068 18.217 43.906 15.816 C46.74 11.185 46.281 6.26 46 1 C46.66 1.33 47.32 1.66 48 2 C48.567 16.159 48.567 16.159 45 21 C41.876 23.899 39.282 24.55 35.125 24.5 C34.56 24.494 33.995 24.489 33.412 24.483 C18.644 23.88 4.358 15.023 -6 5 C-5.34 4.67 -4.68 4.34 -4 4 C-3.34 4.33 -2.68 4.66 -2 5 C-1.856 4.361 -1.711 3.721 -1.562 3.062 C-1 1 -1 1 0 0 Z " fill="#747475" transform="translate(25,108)"/>
<path d="M0 0 C0.33 0 0.66 0 1 0 C1.027 2.25 1.047 4.5 1.062 6.75 C1.071 7.384 1.079 8.018 1.088 8.672 C1.114 13.595 1.114 13.595 0.434 16.02 C-1.624 25.417 4.136 36.84 9.031 44.532 C20.351 61.68 36.975 71.6 57 76 C60.803 76.629 64.597 77.047 68.438 77.375 C68.937 77.42 69.436 77.465 69.951 77.511 C76.963 78.121 83.037 78.048 89.695 75.629 C92.46 74.875 94.264 75.255 97 76 C88.111 82.759 70.919 80.896 60.592 79.728 C45.961 77.556 32.307 71.576 21 62 C20.509 61.651 20.018 61.301 19.512 60.941 C8.449 52.801 0.702 37.877 -1.758 24.551 C-2.098 20.97 -2.208 17.408 -2.25 13.812 C-2.26 13.135 -2.269 12.457 -2.279 11.758 C-2.25 7.427 -1.582 4.036 0 0 Z " fill="#B0B1B2" transform="translate(2,61)"/>
<path d="M0 0 C0 0.66 0 1.32 0 2 C-1.485 2.495 -1.485 2.495 -9 5 C-9.562 16.89 -9.562 16.89 -6 21 C-2.276 22.862 1.337 22.444 5.297 21.387 C15.829 17.58 24.163 10.774 31 2 C31.66 2.99 32.32 3.98 33 5 C27.586 11.484 21.882 17.084 15 22 C14.546 22.351 14.093 22.701 13.625 23.062 C7.843 26.398 1.558 26.965 -5 26 C-8.978 24.023 -11.427 21.137 -13 17 C-13.228 14.742 -13.19 12.516 -13.125 10.25 C-13.116 9.648 -13.107 9.046 -13.098 8.426 C-13.074 6.95 -13.038 5.475 -13 4 C-11.592 3.131 -10.174 2.28 -8.75 1.438 C-7.961 0.962 -7.172 0.486 -6.359 -0.004 C-3.692 -1.13 -2.655 -1.017 0 0 Z " fill="#7B7B7C" transform="translate(90,106)"/>
<path d="M0 0 C-0.129 1.852 -0.129 1.852 -1 4 C-3.021 4.994 -4.812 5.7 -6.938 6.375 C-14.355 8.969 -20.89 12.349 -27 17.375 C-29 19 -29 19 -31 19 C-31 19.66 -31 20.32 -31 21 C-30.34 21 -29.68 21 -29 21 C-28.34 22.65 -27.68 24.3 -27 26 C-24.69 26.33 -22.38 26.66 -20 27 C-20 27.33 -20 27.66 -20 28 C-22.726 28.298 -25.285 28.433 -28 28 C-29.391 26.868 -30.168 25.754 -31.125 24.246 C-32.391 22.443 -33.989 21.79 -36 21 C-32.581 12.943 -24.29 7.781 -16.75 4 C-16.172 3.71 -15.594 3.419 -14.999 3.12 C-10.093 0.793 -5.474 -0.211 0 0 Z " fill="#6D6D6D" transform="translate(66,8)"/>
<path d="M0 0 C0.66 0.33 1.32 0.66 2 1 C1.795 1.603 1.59 2.207 1.379 2.828 C1.109 3.627 0.84 4.427 0.562 5.25 C0.296 6.039 0.029 6.828 -0.246 7.641 C-0.92 9.748 -1.492 11.848 -2 14 C-1.34 14.33 -0.68 14.66 0 15 C-4.387 21.504 -10.496 25.744 -18 28 C-20.011 28.041 -21.479 27.783 -23.398 27.234 C-26.533 26.776 -29.3 28.547 -32 30 C-32 29.34 -32 28.68 -32 28 C-30.73 27.352 -29.459 26.706 -28.188 26.062 C-27.48 25.703 -26.772 25.343 -26.043 24.973 C-24.369 24.176 -22.772 23.531 -21 23 C-21.99 22.34 -22.98 21.68 -24 21 C-23.371 20.865 -22.742 20.729 -22.094 20.59 C-14.133 18.588 -8.468 15.244 -4.172 8.098 C-2.673 5.448 -1.311 2.747 0 0 Z " fill="#7C7C7D" transform="translate(111,79)"/>
<path d="M0 0 C0.33 1.65 0.66 3.3 1 5 C0.672 4.997 0.672 4.997 -0.988 4.984 C-3.422 4.967 -5.856 4.955 -8.29 4.945 C-9.343 4.94 -10.396 4.933 -11.45 4.925 C-12.964 4.912 -14.478 4.907 -15.992 4.902 C-16.903 4.897 -17.815 4.892 -18.753 4.886 C-21 5 -21 5 -23 6 C-23.897 8.025 -24.164 9.941 -24.316 12.137 C-24.358 12.714 -24.4 13.29 -24.443 13.885 C-24.483 14.48 -24.522 15.075 -24.562 15.688 C-24.606 16.294 -24.649 16.901 -24.693 17.525 C-24.799 19.017 -24.9 20.508 -25 22 C-25.66 21.67 -26.32 21.34 -27 21 C-27.373 18.897 -27.605 16.933 -27.75 14.812 C-27.805 14.247 -27.861 13.682 -27.918 13.1 C-28.283 8.277 -27.596 4.203 -24.688 0.188 C-18.194 -4.382 -6.998 -2.488 0 0 Z " fill="#919192" transform="translate(69,46)"/>
<path d="M0 0 C0.33 0 0.66 0 1 0 C1.034 0.497 1.069 0.994 1.104 1.506 C2.694 22.931 8.037 38.372 23 54 C22.67 54.99 22.34 55.98 22 57 C16.059 52.6 12.003 47.365 7.896 41.318 C7.107 40.157 6.299 39.009 5.488 37.863 C-0.388 29.163 -1.465 20.676 -0.688 10.375 C-0.624 9.361 -0.562 8.346 -0.502 7.332 C-0.351 4.887 -0.183 2.443 0 0 Z " fill="#616163" transform="translate(16,65)"/>
<path d="M0 0 C1.246 2.397 2.347 4.817 3.375 7.312 C4.73 10.56 6.423 13.468 8.328 16.422 C9 18 9 18 8.645 19.598 C8.432 20.06 8.219 20.523 8 21 C7.814 21.557 7.629 22.114 7.438 22.688 C7.293 23.121 7.149 23.554 7 24 C1.784 22.619 -1.005 19.382 -4 15 C-5.515 12.064 -6.812 9.082 -8 6 C-2 9 -2 9 -1.375 10.562 C-1.251 11.037 -1.128 11.511 -1 12 C-1.095 11.385 -1.191 10.77 -1.289 10.137 C-1.4 9.328 -1.511 8.52 -1.625 7.688 C-1.741 6.887 -1.857 6.086 -1.977 5.262 C-2.002 2.76 -1.59 1.876 0 0 Z " fill="#C2C2C3" transform="translate(16,89)"/>
<path d="M0 0 C3.333 2.893 3.667 5.008 4 9.285 C4 22.073 0.434 36.17 -8 46 C-12.069 49.547 -15.782 51.151 -21.188 51.062 C-21.545 51.058 -21.545 51.058 -23.355 51.035 C-23.898 51.024 -24.441 51.012 -25 51 C-25.33 50.34 -25.66 49.68 -26 49 C-25.34 48.34 -24.68 47.68 -24 47 C-24 47.66 -24 48.32 -24 49 C-12.658 47.084 -12.658 47.084 -9 43 C-2.56 32.866 1.192 21.085 0 9 C-0.597 6.473 -1.055 5.945 -3 4 C-1.68 4 -0.36 4 1 4 C0.67 2.68 0.34 1.36 0 0 Z " fill="#ADADAE" transform="translate(105,46)"/>
<path d="M0 0 C4.193 1.603 8.105 3.785 12 6 C11.67 6.99 11.34 7.98 11 9 C6.698 8.209 2.652 6.977 -1.5 5.621 C-4.096 4.976 -6.337 4.891 -9 5 C-9.753 7.732 -10.166 10.281 -10.316 13.109 C-10.358 13.863 -10.4 14.618 -10.443 15.395 C-10.463 15.783 -10.463 15.783 -10.562 17.75 C-10.606 18.543 -10.649 19.336 -10.693 20.152 C-10.799 22.101 -10.901 24.051 -11 26 C-11.66 26 -12.32 26 -13 26 C-13.099 22.94 -13.172 19.881 -13.22 16.82 C-13.24 15.78 -13.267 14.741 -13.302 13.701 C-13.62 3.942 -13.62 3.942 -11.234 1.336 C-7.389 -0.963 -4.343 -0.88 0 0 Z " fill="#656566" transform="translate(91,8)"/>
<path d="M0 0 C0.577 0.082 1.155 0.165 1.75 0.25 C1.306 8.686 -4.719 16.23 -10.25 22.25 C-10.58 21.59 -10.91 20.93 -11.25 20.25 C-12.812 19.625 -12.812 19.625 -14.25 19.25 C-14.25 14.872 -14.25 14.872 -12.641 12.691 C-12.298 12.223 -11.955 11.754 -11.602 11.271 C-11.238 10.79 -10.875 10.309 -10.5 9.812 C-10.152 9.335 -9.804 8.857 -9.445 8.365 C-3.54 0.393 -3.54 0.393 0 0 Z " fill="#3A393D" transform="translate(141.25,94.75)"/>
<path d="M0 0 C2.375 -0.125 2.375 -0.125 5 0 C7.139 2.139 7.427 3.133 8 6 C9.32 6 10.64 6 12 6 C13.228 12.061 14.276 17.791 14 24 C13.34 24.33 12.68 24.66 12 25 C12.33 22.69 12.66 20.38 13 18 C12.639 17.897 12.639 17.897 10.812 17.375 C8 16 8 16 3 10 C2.67 15.61 2.34 21.22 2 27 C1.67 27 1.34 27 1 27 C1 19.74 1 12.48 1 5 C0.67 5 0.34 5 0 5 C0 3.35 0 1.7 0 0 Z " fill="#D6D7D7" transform="translate(135,51)"/>
<path d="M0 0 C0.753 0.726 1.503 1.456 2.25 2.188 C2.459 2.391 2.459 2.391 3.516 3.418 C5 5 5 5 6.758 7.383 C9.23 10.513 12.315 12.519 15.625 14.688 C16.785 15.46 17.944 16.235 19.102 17.012 C19.61 17.346 20.119 17.681 20.643 18.026 C22 19 22 19 24 21 C11.9 20.931 2.649 12.528 -6 5 C-5.34 4.67 -4.68 4.34 -4 4 C-3.34 4.33 -2.68 4.66 -2 5 C-1.856 4.361 -1.711 3.721 -1.562 3.062 C-1 1 -1 1 0 0 Z " fill="#A7A8A9" transform="translate(25,108)"/>
<path d="M0 0 C5.148 0.443 9.233 1.696 13.812 4.062 C14.416 4.37 15.02 4.677 15.642 4.994 C23.363 9.064 30.131 14.541 36 21 C36.65 21.703 37.299 22.405 37.969 23.129 C44.726 30.541 44.726 30.541 47 35 C46.835 35.33 46.835 35.33 46 37 C45.754 36.652 45.507 36.304 45.253 35.946 C44.116 34.353 42.964 32.77 41.812 31.188 C41.425 30.64 41.038 30.093 40.639 29.529 C38.057 26.009 35.806 24.098 32 22 C31.321 20.803 30.643 19.605 29.996 18.391 C25.441 12.032 16.476 7.454 9 6 C7.188 4.437 7.188 4.437 6 3 C5.67 4.98 5.34 6.96 5 9 C3.02 8.34 1.04 7.68 -1 7 C-0.649 6.216 -0.299 5.433 0.062 4.625 C0.372 3.759 0.681 2.893 1 2 C0.67 1.34 0.34 0.68 0 0 Z " fill="#C9C9CA" transform="translate(94,3)"/>
<path d="M0 0 C0.33 0 0.66 0 1 0 C1.33 2.31 1.66 4.62 2 7 C2.33 7 2.66 7 3 7 C3.749 18.547 1.636 29.293 -5 39 C-6.074 37.773 -6.074 37.773 -7 36 C-6.645 33.977 -6.645 33.977 -5.812 31.625 C-2.393 21.155 -0.522 11.005 0 0 Z " fill="#5F5F60" transform="translate(133,65)"/>
<path d="M0 0 C2.478 0.059 2.942 0.149 4.875 1.875 C7.801 7.581 8.427 13.03 8.312 19.375 C8.312 20.056 8.311 20.738 8.311 21.439 C8.275 25.507 7.903 29.321 7.125 33.312 C6.795 33.312 6.465 33.312 6.125 33.312 C6.064 32.386 6.004 31.459 5.941 30.504 C5.857 29.294 5.772 28.085 5.688 26.875 C5.648 26.263 5.609 25.652 5.568 25.021 C5.238 20.426 5.238 20.426 4.125 19.312 C3.775 17.779 3.47 16.235 3.188 14.688 C2.383 10.48 1.398 6.401 0.125 2.312 C-1.195 1.983 -2.515 1.653 -3.875 1.312 C-2.875 0.312 -2.875 0.312 0 0 Z " fill="#666667" transform="translate(127.875,44.6875)"/>
<path d="M0 0 C0.267 0.099 0.267 0.099 1.617 0.598 C2.156 0.792 2.695 0.987 3.25 1.188 C3.66 1.343 4.07 1.499 4.492 1.66 C4.492 2.32 4.492 2.98 4.492 3.66 C5.152 3.66 5.812 3.66 6.492 3.66 C6.492 4.32 6.492 4.98 6.492 5.66 C7.482 5.825 7.482 5.825 12.492 6.66 C11.011 8.633 9.557 10.291 7.492 11.66 C5.019 11.803 2.861 11.35 0.492 10.66 C0.162 9.67 -0.168 8.68 -0.508 7.66 C-1.498 7.66 -2.488 7.66 -3.508 7.66 C-5.195 5.66 -5.195 5.66 -6.508 3.66 C-2.474 -0.558 -2.474 -0.558 0 0 Z " fill="#DBDBDB" transform="translate(114.5078125,34.33984375)"/>
<path d="M0 0 C0.331 0.065 0.331 0.065 2.004 0.391 C8.792 1.677 15.554 2.664 22.438 3.312 C22.937 3.36 23.436 3.408 23.951 3.457 C30.978 4.096 37.018 4.054 43.695 1.629 C46.46 0.875 48.264 1.255 51 2 C42.605 8.384 26.826 6.826 17 6 C10.908 5.083 4.937 3.633 -1 2 C-0.67 1.34 -0.34 0.68 0 0 Z " fill="#CDCDCE" transform="translate(48,135)"/>
<path d="M0 0 C0.66 0.99 1.32 1.98 2 3 C-3.414 9.484 -9.118 15.084 -16 20 C-16.237 20.186 -16.237 20.186 -17.438 21.125 C-19.668 22.374 -21.448 22.813 -24 23 C-26.16 21.512 -26.16 21.512 -28 20 C-27.703 19.902 -27.703 19.902 -26.199 19.406 C-15.358 15.495 -7.07 9.072 0 0 Z " fill="#838485" transform="translate(121,108)"/>
<path d="M0 0 C1.516 2.069 2.306 3.717 2.789 6.23 C4.396 13.864 6.488 20.759 10 27.75 C10.332 28.417 10.664 29.083 11.006 29.77 C12.951 33.492 14.978 36.113 18 39 C18 39.66 18 40.32 18 41 C17.505 41.165 17.505 41.165 15 42 C13.557 39.795 12.122 37.585 10.688 35.375 C10.283 34.758 9.879 34.14 9.463 33.504 C5.429 27.273 2.677 21.894 1.312 14.562 C1.183 13.933 1.053 13.303 0.92 12.654 C0.092 8.394 -0.158 4.335 0 0 Z " fill="#28272B" transform="translate(1,72)"/>
<path d="M0 0 C1.396 2.792 0.406 4.76 -0.375 7.625 C-2.342 15.342 -2.722 23.068 -3 31 C-2.397 31.102 -1.793 31.204 -1.172 31.309 C1.369 32.117 2.149 32.972 3.75 35.062 C3.964 35.336 3.964 35.336 5.047 36.723 C5.361 37.144 5.676 37.566 6 38 C5.01 38.165 5.01 38.165 0 39 C0 37.68 0 36.36 0 35 C-0.66 35 -1.32 35 -2 35 C-2 34.34 -2 33.68 -2 33 C-2.66 33 -3.32 33 -4 33 C-4.33 29.7 -4.66 26.4 -5 23 C-5.66 23.66 -6.32 24.32 -7 25 C-6.791 17.973 -5.15 5.15 0 0 Z " fill="#D3D3D4" transform="translate(7,42)"/>
<path d="M0 0 C0.66 0 1.32 0 2 0 C2.108 2.085 2.187 4.164 2.25 6.25 C2.267 6.543 2.267 6.543 2.352 8.027 C2.364 8.601 2.377 9.175 2.391 9.766 C2.412 10.289 2.433 10.813 2.454 11.353 C1.691 14.123 0.252 15.278 -2 17 C-4.188 17.523 -6.276 17.469 -8.516 17.391 C-8.824 17.388 -8.824 17.388 -10.382 17.373 C-12.339 17.351 -14.294 17.301 -16.25 17.25 C-17.581 17.23 -18.911 17.212 -20.242 17.195 C-23.496 17.151 -26.747 17.082 -30 17 C-30 16.67 -30 16.34 -30 16 C-24.093 14.784 -18.133 14.663 -12.125 14.438 C-11.044 14.394 -9.964 14.351 -8.883 14.307 C-6.255 14.2 -3.628 14.1 -1 14 C-0.67 9.38 -0.34 4.76 0 0 Z " fill="#B0B1B1" transform="translate(70,20)"/>
<path d="M0 0 C2.349 3.316 2.083 5.875 1.492 9.695 C0.599 13.877 -0.676 17.937 -2 22 C-2.99 22 -3.98 22 -5 22 C-5 21.34 -5 20.68 -5 20 C-5.66 19.67 -6.32 19.34 -7 19 C-6.867 18.644 -6.867 18.644 -6.195 16.84 C-2.977 8.133 -2.977 8.133 -1.812 3.875 C-1 1 -1 1 0 0 Z " fill="#D0D0D0" transform="translate(148,75)"/>
<path d="M0 0 C3.292 1.447 5.529 3.279 8.125 5.75 C15.701 12.699 24.642 16.979 34 21 C34 21.66 34 22.32 34 23 C29.405 22.444 25.922 21.283 21.875 19.062 C21.32 18.76 20.765 18.458 20.194 18.147 C15.957 15.743 12.129 12.973 8.375 9.875 C8.127 9.671 8.127 9.671 6.871 8.641 C3.84 6.037 1.873 3.532 0 0 Z " fill="#B8B9BA" transform="translate(14,113)"/>
<path d="M0 0 C0.917 -0.026 1.833 -0.052 2.777 -0.078 C5.062 0.25 5.062 0.25 6.402 1.66 C7.062 3.25 7.062 3.25 6.688 4.938 C6.584 5.154 6.584 5.154 6.062 6.25 C5.403 5.92 4.743 5.59 4.062 5.25 C2.616 5.099 1.164 5.001 -0.289 4.934 C-1.14 4.892 -1.991 4.85 -2.867 4.807 C-3.757 4.767 -4.646 4.728 -5.562 4.688 C-6.46 4.644 -7.357 4.601 -8.281 4.557 C-10.5 4.45 -12.719 4.348 -14.938 4.25 C-14.938 3.26 -14.938 2.27 -14.938 1.25 C-9.967 0.563 -5.017 0.132 0 0 Z " fill="#404041" transform="translate(62.9375,44.75)"/>
<path d="M0 0 C0.33 0 0.66 0 1 0 C1.045 0.513 1.09 1.025 1.136 1.554 C2.04 11.612 3.097 21.303 6 31 C5.01 31.66 4.02 32.32 3 33 C2.795 32.374 2.59 31.747 2.379 31.102 C2.244 30.693 2.244 30.693 1.562 28.625 C1.296 27.813 1.029 27.001 0.754 26.164 C0 24 0 24 -1 22 C-1.016 20.33 -0.965 18.66 -0.879 16.992 C-0.831 16.006 -0.782 15.02 -0.732 14.004 C-0.676 12.961 -0.619 11.918 -0.562 10.875 C-0.509 9.824 -0.457 8.773 -0.404 7.723 C-0.274 5.148 -0.139 2.574 0 0 Z " fill="#737374" transform="translate(16,65)"/>
<path d="M0 0 C0.66 0.33 1.32 0.66 2 1 C1.34 1.66 0.68 2.32 0 3 C0.99 3.66 1.98 4.32 3 5 C-0.75 8 -0.75 8 -3 8 C-3 8.66 -3 9.32 -3 10 C-2.34 10 -1.68 10 -1 10 C-0.34 11.65 0.32 13.3 1 15 C3.31 15.33 5.62 15.66 8 16 C8 16.33 8 16.66 8 17 C5.274 17.298 2.715 17.433 0 17 C-1.391 15.868 -2.168 14.754 -3.125 13.246 C-4.391 11.443 -5.989 10.79 -8 10 C-6.367 5.754 -3.238 3.055 0 0 Z " fill="#6E6E6F" transform="translate(38,19)"/>
<path d="M0 0 C7.59 0 15.18 0 23 0 C23.33 1.32 23.66 2.64 24 4 C20.205 3.835 20.205 3.835 1 3 C0.67 2.01 0.34 1.02 0 0 Z " fill="#3F3F3F" transform="translate(82,46)"/>
<path d="M0 0 C0.66 0.33 1.32 0.66 2 1 C1.67 1.412 1.34 1.825 1 2.25 C0 4 0 4 0 6.062 C0 6.702 0 7.341 0 8 C-3.925 11.925 -6.552 13.381 -12 14 C-12.33 12.68 -12.66 11.36 -13 10 C-10.359 8.812 -8.725 9.154 -6 10 C-6.375 8.062 -6.375 8.062 -7 6 C-7.66 5.67 -8.32 5.34 -9 5 C-7.547 4.136 -6.088 3.284 -4.625 2.438 C-3.813 1.962 -3.001 1.486 -2.164 0.996 C-1.45 0.667 -0.736 0.339 0 0 Z " fill="#4D4B4F" transform="translate(114,122)"/>
<path d="M0 0 C0.66 0.33 1.32 0.66 2 1 C2.567 15.159 2.567 15.159 -1 20 C-4.106 22.854 -6.067 23.353 -10.25 23.188 C-11.142 23.16 -12.034 23.133 -12.953 23.105 C-13.629 23.071 -14.304 23.036 -15 23 C-12.939 20.682 -11.609 19.681 -8.562 19.125 C-5.218 18.284 -3.722 17.084 -1.727 14.316 C0.036 11.122 0.11 8.453 0.062 4.812 C0.053 3.911 0.044 3.01 0.035 2.082 C0.024 1.395 0.012 0.708 0 0 Z " fill="#C2C2C3" transform="translate(71,109)"/>
<path d="M0 0 C2.562 2.467 5.01 4.932 7.188 7.75 C9 10 9 10 11 11 C10.67 11.99 10.34 12.98 10 14 C9.278 13.34 8.556 12.68 7.812 12 C5.754 10.329 5.323 9.992 2.562 10.062 C-1.321 9.968 -3.292 7.605 -6 5 C-5.34 4.67 -4.68 4.34 -4 4 C-3.34 4.33 -2.68 4.66 -2 5 C-1.856 4.361 -1.711 3.721 -1.562 3.062 C-1 1 -1 1 0 0 Z " fill="#B4B5B6" transform="translate(25,108)"/>
<path d="M0 0 C-0.513 3.765 -1.075 6.663 -3 10 C-3.763 9.959 -4.526 9.918 -5.312 9.875 C-8.024 10.001 -8.976 10.296 -11 12 C-10.479 7.57 -8.834 4.379 -6 1 C-3.776 -0.112 -2.444 -0.081 0 0 Z " fill="#353338" transform="translate(143,95)"/>
<path d="M0 0 C2.438 0.312 2.438 0.312 5 1 C5.516 1.103 6.031 1.206 6.562 1.312 C8.813 2.389 10.279 4.223 12 6 C12.66 6.33 13.32 6.66 14 7 C14 8.32 14 9.64 14 11 C12.35 11 10.7 11 9 11 C8.67 10.34 8.34 9.68 8 9 C6.438 8.375 6.438 8.375 5 8 C5 7.34 5 6.68 5 6 C4.34 6 3.68 6 3 6 C3 5.34 3 4.68 3 4 C2.175 3.67 2.175 3.67 -2 2 C-1.34 1.34 -0.68 0.68 0 0 Z " fill="#D5D6D6" transform="translate(116,32)"/>
<path d="M0 0 C2.11 1.743 2.956 2.863 3.812 5.5 C4 8 4 8 3.062 9.812 C2.887 10.008 2.887 10.008 2 11 C-2.776 9.635 -5.212 7.07 -8 3 C-8 2.67 -8 2.34 -8 2 C-2.25 1.875 -2.25 1.875 0 3 C0 2.01 0 1.02 0 0 Z " fill="#BABBBC" transform="translate(21,102)"/>
<path d="M0 0 C-3.087 3.087 -6.838 4.743 -11 6 C-13.812 5.125 -13.812 5.125 -16 4 C-18.062 4.938 -18.062 4.938 -20 6 C-22.25 5.625 -22.25 5.625 -24 5 C-23.67 4.01 -23.34 3.02 -23 2 C-20.48 1.659 -17.959 1.329 -15.438 1 C-14.733 0.905 -14.029 0.809 -13.303 0.711 C-8.826 0.133 -4.513 -0.095 0 0 Z " fill="#1B191E" transform="translate(92,101)"/>
<path d="M0 0 C2.314 0.109 4.625 0.24 6.938 0.375 C7.597 0.406 8.256 0.437 8.936 0.469 C9.564 0.507 10.192 0.546 10.84 0.586 C11.13 0.602 11.13 0.602 12.601 0.681 C13.063 0.786 13.524 0.892 14 1 C14.33 1.66 14.66 2.32 15 3 C14.01 3.33 13.02 3.66 12 4 C12.33 4.495 12.33 4.495 14 7 C8.808 6.488 3.969 5.599 -1 4 C-0.67 2.68 -0.34 1.36 0 0 Z " fill="#29272C" transform="translate(49,131)"/>
<path d="M0 0 C0.99 0.33 1.98 0.66 3 1 C3 1.66 3 2.32 3 3 C3.619 3.309 4.238 3.619 4.875 3.938 C9 6 9 6 10.125 8.25 C11.005 11.016 11.165 13.12 11 16 C10.34 15.67 9.68 15.34 9 15 C9 14.01 9 13.02 9 12 C8.701 11.856 8.701 11.856 7.188 11.125 C2.213 8.567 2.213 8.567 1.27 6.055 C1.119 5.335 0.968 4.616 0.812 3.875 C0.654 3.151 0.495 2.426 0.332 1.68 C0.222 1.125 0.113 0.571 0 0 Z " fill="#C4C5C6" transform="translate(5,86)"/>
<path d="M0 0 C3.361 5.041 3.135 9.956 3.062 15.812 C3.058 16.505 3.053 17.198 3.049 17.912 C3.037 19.608 3.021 21.304 3 23 C0.506 21.162 -0.243 19.607 -0.73 16.645 C-0.896 15.369 -1.048 14.091 -1.188 12.812 C-1.269 12.158 -1.351 11.504 -1.436 10.83 C-1.635 9.221 -1.819 7.611 -2 6 C-1.67 6.66 -1.34 7.32 -1 8 C-0.34 8 0.32 8 1 8 C0.67 5.36 0.34 2.72 0 0 Z " fill="#707070" transform="translate(31,50)"/>
<path d="M0 0 C9.57 0 19.14 0 29 0 C29 0.33 29 0.66 29 1 C28.536 1.055 28.073 1.111 27.595 1.168 C25.479 1.422 23.365 1.68 21.25 1.938 C20.52 2.025 19.791 2.112 19.039 2.201 C18.33 2.288 17.621 2.375 16.891 2.465 C16.566 2.504 16.566 2.504 14.923 2.703 C13 3 13 3 10.904 3.568 C8.305 4.158 6.727 3.473 4.25 2.562 C3.451 2.275 2.652 1.988 1.828 1.691 C1.225 1.463 0.622 1.235 0 1 C0 0.67 0 0.34 0 0 Z " fill="#656568" transform="translate(56,101)"/>
<path d="M0 0 C2.76 0.581 4.685 2.283 6.559 4.328 C7.681 6.573 7.675 7.758 7.656 10.242 C7.653 11.003 7.65 11.763 7.646 12.547 C7.638 13.341 7.63 14.135 7.621 14.953 C7.617 15.755 7.612 16.557 7.607 17.383 C7.596 19.365 7.579 21.346 7.559 23.328 C7.229 23.328 6.899 23.328 6.559 23.328 C6.559 20.028 6.559 16.728 6.559 13.328 C5.899 13.328 5.239 13.328 4.559 13.328 C4.559 10.688 4.559 8.048 4.559 5.328 C3.899 4.998 3.239 4.668 2.559 4.328 C2.229 4.988 1.899 5.648 1.559 6.328 C0.899 5.668 0.239 5.008 -0.441 4.328 C-0.111 3.338 0.219 2.348 0.559 1.328 C-2.081 1.658 -4.721 1.988 -7.441 2.328 C-4.595 0.431 -3.345 -0.1 0 0 Z " fill="#C6C7C7" transform="translate(65.44140625,6.671875)"/>
<path d="M0 0 C1.245 2.491 0.777 3.411 0 6 C-4.571 7.143 -4.571 7.143 -6.875 6.375 C-10.295 5.772 -12.971 7.494 -16 9 C-16 8.34 -16 7.68 -16 7 C-14.73 6.352 -13.459 5.706 -12.188 5.062 C-11.48 4.703 -10.772 4.343 -10.043 3.973 C-8.369 3.176 -6.772 2.531 -5 2 C-5.99 1.34 -6.98 0.68 -8 0 C-4.979 -0.971 -2.995 -1.136 0 0 Z " fill="#7B7B7D" transform="translate(95,100)"/>
<path d="M0 0 C3.415 2.919 3.594 5.186 3.941 9.508 C4.032 13.353 3.96 17.26 3 21 C2.34 21.33 1.68 21.66 1 22 C0.939 21.096 0.879 20.193 0.816 19.262 C0.732 18.07 0.647 16.879 0.562 15.688 C0.523 15.093 0.484 14.498 0.443 13.885 C0.401 13.308 0.36 12.731 0.316 12.137 C0.28 11.608 0.243 11.079 0.205 10.534 C-0.201 7.496 -0.783 6.217 -3 4 C-1.68 4 -0.36 4 1 4 C0.67 2.68 0.34 1.36 0 0 Z " fill="#8F9090" transform="translate(105,46)"/>
<path d="M0 0 C4.019 0.603 6.601 2.67 9.75 5.062 C10.257 5.44 10.763 5.817 11.285 6.205 C12.528 7.131 13.764 8.065 15 9 C14.01 9.99 13.02 10.98 12 12 C10.56 10.898 9.123 9.794 7.688 8.688 C7.283 8.379 6.879 8.07 6.463 7.752 C4.154 5.969 1.913 4.21 0 2 C0 1.34 0 0.68 0 0 Z " fill="#262529" transform="translate(17,113)"/>
<path d="M0 0 C1.588 2.163 2.405 4.015 3.035 6.617 C3.205 7.307 3.374 7.996 3.549 8.707 C3.718 9.422 3.888 10.138 4.062 10.875 C4.236 11.583 4.409 12.29 4.588 13.02 C4.922 14.392 5.248 15.767 5.567 17.144 C5.937 18.729 6.338 20.307 6.746 21.883 C6.83 22.581 6.914 23.28 7 24 C6.34 24.66 5.68 25.32 5 26 C1.911 17.474 -0.397 9.125 0 0 Z " fill="#48474A" transform="translate(1,72)"/>
<path d="M0 0 C0.33 0.66 0.66 1.32 1 2 C1.66 2 2.32 2 3 2 C3.33 1.34 3.66 0.68 4 0 C2.958 6.046 1.398 10.87 -2 16 C-3.082 14.812 -3.082 14.812 -4 13 C-3.574 10.625 -3.574 10.625 -2.688 8 C-2.403 7.134 -2.118 6.267 -1.824 5.375 C-1.552 4.591 -1.28 3.808 -1 3 C-0.666 2 -0.332 1 0 0 Z " fill="#D8D8D8" transform="translate(130,88)"/>
<path d="M0 0 C0.33 0 0.66 0 1 0 C1.842 7.744 -0.175 12.457 -4 19 C-4.66 19 -5.32 19 -6 19 C-5.391 14.393 -4.174 10.425 -2.438 6.125 C-2.204 5.532 -1.97 4.939 -1.729 4.328 C-1.158 2.883 -0.58 1.441 0 0 Z " fill="#5E5E5F" transform="translate(115,74)"/>
<path d="M0 0 C0.66 0.33 1.32 0.66 2 1 C1.795 1.603 1.59 2.207 1.379 2.828 C1.109 3.627 0.84 4.427 0.562 5.25 C0.296 6.039 0.029 6.828 -0.246 7.641 C-0.92 9.748 -1.492 11.848 -2 14 C-1.34 14.33 -0.68 14.66 0 15 C-0.99 15 -1.98 15 -3 15 C-3.33 14.34 -3.66 13.68 -4 13 C-5.65 14.32 -7.3 15.64 -9 17 C-9.66 16.67 -10.32 16.34 -11 16 C-10.541 15.515 -10.082 15.031 -9.609 14.531 C-5.456 9.994 -2.422 5.657 0 0 Z " fill="#7B7A7C" transform="translate(111,79)"/>
<path d="M0 0 C0.33 0.66 0.66 1.32 1 2 C-0.98 2.33 -2.96 2.66 -5 3 C-4.01 3.66 -3.02 4.32 -2 5 C-2.619 5.289 -3.237 5.578 -3.875 5.875 C-6 7 -6 7 -8 9 C-8.99 8.67 -9.98 8.34 -11 8 C-11.33 8.66 -11.66 9.32 -12 10 C-12.517 6.208 -12.517 6.208 -12 4 C-8.64 0.15 -4.864 -0.463 0 0 Z " fill="#868687" transform="translate(130,43)"/>
<path d="M0 0 C4.585 2.026 7.665 4.266 11 8 C10.34 8.33 10.34 8.33 7 10 C4.03 8.02 1.06 6.04 -2 4 C-1.34 2.68 -0.68 1.36 0 0 Z M4 5 C4.33 5.66 4.66 6.32 5 7 C5.66 6.67 6.32 6.34 7 6 C6.01 5.67 5.02 5.34 4 5 Z " fill="#C0C1C1" transform="translate(103,14)"/>
<path d="M0 0 C0.124 0.474 0.248 0.949 0.375 1.438 C1 3 1 3 3 4 C2.842 4.43 2.683 4.861 2.52 5.304 C2.01 6.968 1.804 8.405 1.684 10.137 C1.642 10.714 1.6 11.29 1.557 11.885 C1.517 12.48 1.478 13.075 1.438 13.688 C1.394 14.294 1.351 14.901 1.307 15.525 C1.201 17.017 1.1 18.508 1 20 C0.34 19.67 -0.32 19.34 -1 19 C-1.373 16.897 -1.605 14.933 -1.75 12.812 C-1.805 12.247 -1.861 11.682 -1.918 11.1 C-2.235 6.912 -1.54 3.904 0 0 Z " fill="#7E7F7F" transform="translate(43,48)"/>
<path d="M0 0 C1.886 1.586 2.901 2.483 3.372 4.945 C3.369 5.665 3.366 6.384 3.363 7.125 C3.363 7.914 3.362 8.703 3.361 9.516 C3.345 10.335 3.329 11.155 3.312 12 C3.316 12.82 3.319 13.64 3.322 14.484 C3.262 21.136 3.262 21.136 1 24 C0.98 23.536 0.96 23.073 0.94 22.595 C0.844 20.479 0.735 18.365 0.625 16.25 C0.594 15.52 0.563 14.791 0.531 14.039 C0.325 10.249 0.121 7.277 -2 4 C-1.34 4 -0.68 4 0 4 C0 2.68 0 1.36 0 0 Z " fill="#848484" transform="translate(69,46)"/>
<path d="M0 0 C0.66 0 1.32 0 2 0 C1.67 7.59 1.34 15.18 1 23 C0.34 23 -0.32 23 -1 23 C-1.029 20.104 -1.047 17.208 -1.062 14.312 C-1.071 13.496 -1.079 12.679 -1.088 11.838 C-1.104 7.743 -1.027 3.972 0 0 Z " fill="#424243" transform="translate(15,58)"/>
<path d="M0 0 C0.33 0 0.66 0 1 0 C1 3.63 1 7.26 1 11 C1.66 11.165 1.66 11.165 5 12 C6.484 13.41 6.484 13.41 7.75 15.062 C7.964 15.336 7.964 15.336 9.047 16.723 C9.361 17.144 9.676 17.566 10 18 C8.02 18.33 6.04 18.66 4 19 C4 17.68 4 16.36 4 15 C3.34 15 2.68 15 2 15 C2 14.34 2 13.68 2 13 C1.34 13 0.68 13 0 13 C0 8.71 0 4.42 0 0 Z " fill="#DCDCDC" transform="translate(3,62)"/>
<path d="M0 0 C0.33 0 0.66 0 1 0 C1 7.59 1 15.18 1 23 C-0.65 23 -2.3 23 -4 23 C-4 22.34 -4 21.68 -4 21 C-5.32 21 -6.64 21 -8 21 C-8 20.34 -8 19.68 -8 19 C-5.36 19 -2.72 19 0 19 C0 12.73 0 6.46 0 0 Z " fill="#C9CACA" transform="translate(13,61)"/>
<path d="M0 0 C1.506 1.964 2.891 3.783 4 6 C3.66 8.383 3.66 8.383 3.062 11.125 C2.868 12.035 2.673 12.945 2.473 13.883 C2.317 14.581 2.161 15.28 2 16 C1.67 16 1.34 16 1 16 C1 14.02 1 12.04 1 10 C0.34 10 -0.32 10 -1 10 C-1 11.65 -1 13.3 -1 15 C-1.33 15 -1.66 15 -2 15 C-2.252 9.614 -1.784 5.098 0 0 Z " fill="#797879" transform="translate(16,48)"/>
<path d="M0 0 C4.152 0.611 7.364 2.014 11 4 C10.67 4.99 10.34 5.98 10 7 C5.946 6.421 3.253 5.416 0 3 C0 2.01 0 1.02 0 0 Z " fill="#49494A" transform="translate(92,10)"/>
<path d="M0 0 C0.33 1.32 0.66 2.64 1 4 C-0.98 4 -2.96 4 -5 4 C-5 5.32 -5 6.64 -5 8 C-5.99 8.33 -6.98 8.66 -8 9 C-8.99 7.02 -9.98 5.04 -11 3 C-9.543 2.496 -8.084 1.997 -6.625 1.5 C-5.813 1.222 -5.001 0.943 -4.164 0.656 C-2 0 -2 0 0 0 Z " fill="#232126" transform="translate(107,128)"/>
<path d="M0 0 C6.761 0.615 6.761 0.615 9.312 3.496 C10.925 7.022 10.518 11.243 10 15 C8.977 17.312 8.977 17.312 8 19 C7.951 18.145 7.902 17.291 7.852 16.41 C7.777 15.294 7.701 14.178 7.625 13.062 C7.594 12.499 7.563 11.935 7.531 11.354 C7.426 9.895 7.22 8.445 7 7 C6.34 6.67 5.68 6.34 5 6 C5.99 6 6.98 6 8 6 C8 5.34 8 4.68 8 4 C7.59 3.879 7.18 3.758 6.758 3.633 C6.219 3.465 5.68 3.298 5.125 3.125 C4.858 3.044 4.858 3.044 3.508 2.633 C2 2 2 2 0 0 Z " fill="#8F9091" transform="translate(62,104)"/>
<path d="M0 0 C0.66 0 1.32 0 2 0 C3.296 2.592 3.149 4.919 3.125 7.75 C3.123 8.289 3.121 8.828 3.119 9.384 C3.08 13.019 2.791 16.442 2 20 C1.67 20 1.34 20 1 20 C0.67 13.4 0.34 6.8 0 0 Z " fill="#3E3E3F" transform="translate(133,58)"/>
<path d="M0 0 C0.33 0.66 0.66 1.32 1 2 C2.49 2.319 2.49 2.319 4.379 2.414 C5.052 2.453 5.726 2.491 6.42 2.531 C7.127 2.562 7.834 2.593 8.562 2.625 C8.918 2.644 8.918 2.644 10.717 2.742 C12.478 2.837 14.238 2.922 16 3 C16 3.66 16 4.32 16 5 C13.542 5.087 11.084 5.14 8.625 5.188 C8.276 5.2 8.276 5.2 6.508 5.264 C5.838 5.273 5.167 5.283 4.477 5.293 C3.859 5.309 3.241 5.324 2.604 5.341 C1 5 1 5 -0.217 3.482 C-0.476 2.993 -0.734 2.504 -1 2 C-0.67 1.34 -0.34 0.68 0 0 Z " fill="#CACBCB" transform="translate(80,32)"/>
<path d="M0 0 C3 0 3 0 5.062 1.938 C5.702 2.618 6.341 3.299 7 4 C7.66 4.33 8.32 4.66 9 5 C9 5.99 9 6.98 9 8 C9.66 8 10.32 8 11 8 C11 10.31 11 12.62 11 15 C10.67 15.165 10.67 15.165 9 16 C9.33 13.69 9.66 11.38 10 9 C9.278 8.794 8.556 8.588 7.812 8.375 C4.243 6.978 2.12 4.094 0 1 C0 0.67 0 0.34 0 0 Z " fill="#DFDFDF" transform="translate(138,60)"/>
<path d="M0 0 C0.713 0.133 1.426 0.266 2.16 0.402 C7.429 1.374 12.689 2.292 18 3 C16 5 16 5 13.863 5.047 C8.737 4.45 3.893 3.669 -1 2 C-0.67 1.34 -0.34 0.68 0 0 Z " fill="#C5C5C6" transform="translate(48,135)"/>
<path d="M0 0 C0 1.32 0 2.64 0 4 C-2.646 4.893 -5.222 5.666 -8 6 C-10.5 4.625 -10.5 4.625 -12 3 C-10.753 2.492 -9.503 1.994 -8.25 1.5 C-7.554 1.222 -6.858 0.943 -6.141 0.656 C-3.967 -0.01 -2.258 -0.122 0 0 Z " fill="#8A8B8B" transform="translate(105,125)"/>
<path d="M0 0 C5.054 0.778 10.017 1.859 15 3 C15.33 2.34 15.66 1.68 16 1 C16.33 1.99 16.66 2.98 17 4 C15.554 5.446 14.461 5.237 12.438 5.312 C7.6 5.286 4.086 3.434 0 1 C0 0.67 0 0.34 0 0 Z " fill="#A2A2A3" transform="translate(54,92)"/>
<path d="M0 0 C1.32 0.33 2.64 0.66 4 1 C4.33 4.3 4.66 7.6 5 11 C4.34 11 3.68 11 3 11 C0.819 7.222 -0.396 4.487 0 0 Z " fill="#4C4C4D" transform="translate(27,47)"/>
<path d="M0 0 C1.625 0.012 1.625 0.012 3.125 0.312 C5 2.312 5 2.312 6.125 4.312 C5.795 4.972 5.465 5.633 5.125 6.312 C4.465 5.983 3.805 5.653 3.125 5.312 C2.795 6.633 2.465 7.953 2.125 9.312 C1.465 7.002 0.805 4.693 0.125 2.312 C-1.195 1.983 -2.515 1.653 -3.875 1.312 C-2.875 0.312 -2.875 0.312 0 0 Z " fill="#545455" transform="translate(127.875,44.6875)"/>
<path d="M0 0 C2.563 1.041 4.026 2.026 6 4 C6 4.99 6 5.98 6 7 C4.68 7.33 3.36 7.66 2 8 C2 7.01 2 6.02 2 5 C0.68 4.34 -0.64 3.68 -2 3 C-2 2.34 -2 1.68 -2 1 C-1.34 0.67 -0.68 0.34 0 0 Z " fill="#868687" transform="translate(113,22)"/>
<path d="M0 0 C1.75 0.125 1.75 0.125 4 1 C6.054 3.44 7.578 6.156 9 9 C6.688 9.25 6.688 9.25 4 9 C1.223 6.322 0.522 3.762 0 0 Z " fill="#59595A" transform="translate(38,89)"/>
<path d="M0 0 C0.33 0 0.66 0 1 0 C0.554 5.286 -0.091 10.037 -2 15 C-2.33 14.34 -2.66 13.68 -3 13 C-3.66 12.67 -4.32 12.34 -5 12 C-3.35 8.04 -1.7 4.08 0 0 Z " fill="#B1B1B1" transform="translate(146,82)"/>
<path d="M0 0 C0.33 0 0.66 0 1 0 C1 2.64 1 5.28 1 8 C1.66 8 2.32 8 3 8 C2.67 10.64 2.34 13.28 2 16 C1.34 15.34 0.68 14.68 0 14 C-0.66 14.99 -1.32 15.98 -2 17 C-1.34 11.39 -0.68 5.78 0 0 Z " fill="#878788" transform="translate(115,63)"/>
<path d="M0 0 C1.98 1.155 1.98 1.155 12 7 C11.34 7.33 11.34 7.33 8 9 C5.859 8.242 5.859 8.242 3.75 6.875 C3.044 6.439 2.337 6.004 1.609 5.555 C1.078 5.042 0.547 4.529 0 4 C0 2.68 0 1.36 0 0 Z " fill="#727273" transform="translate(39,119)"/>
<path d="M0 0 C0.66 0 1.32 0 2 0 C2.33 5.28 2.66 10.56 3 16 C1 14 1 14 0.805 12.492 C0.87 10.995 0.935 9.497 1 8 C0.34 8 -0.32 8 -1 8 C-1.027 6.854 -1.046 5.708 -1.062 4.562 C-1.074 3.924 -1.086 3.286 -1.098 2.629 C-1 1 -1 1 0 0 Z " fill="#151419" transform="translate(75,110)"/>
<path d="M0 0 C0.516 0.248 1.031 0.495 1.562 0.75 C1.562 1.41 1.562 2.07 1.562 2.75 C0.078 3.245 0.078 3.245 -7.438 5.75 C-8.097 5.09 -8.757 4.43 -9.438 3.75 C-3.206 -0.329 -3.206 -0.329 0 0 Z " fill="#616263" transform="translate(88.4375,105.25)"/>
<path d="M0 0 C3 3 6 6 9 9 C8.67 9.99 8.34 10.98 8 12 C0.668 6.602 0.668 6.602 0.062 2.625 C0.052 2.192 0.052 2.192 0 0 Z " fill="#6D6D6E" transform="translate(30,110)"/>
<path d="M0 0 C1.98 0 3.96 0 6 0 C6.33 0.66 6.66 1.32 7 2 C6.01 2.33 5.02 2.66 4 3 C4.33 3.495 4.33 3.495 6 6 C3.36 5.67 0.72 5.34 -2 5 C-2 4.34 -2 3.68 -2 3 C-1.01 3 -0.02 3 1 3 C0.67 2.01 0.34 1.02 0 0 Z " fill="#2E2C31" transform="translate(57,132)"/>
<path d="M0 0 C1.047 1.188 1.047 1.188 2 3 C1.828 5.375 1.828 5.375 1.25 8 C1.07 8.866 0.889 9.733 0.703 10.625 C0.059 12.8 -0.621 14.224 -2 16 C-3.39 12.208 -2.613 9.488 -1.562 5.75 C-1.415 5.196 -1.267 4.641 -1.115 4.07 C-0.752 2.711 -0.377 1.355 0 0 Z " fill="#B3B3B4" transform="translate(105,65)"/>
<path d="M0 0 C0 0.66 0 1.32 0 2 C-1.43 2.866 -2.869 3.718 -4.312 4.562 C-4.713 4.8 -4.713 4.8 -6.738 6.004 C-9 7 -9 7 -10.793 6.652 C-11.191 6.437 -11.59 6.222 -12 6 C-8.803 2.27 -4.914 0 0 0 Z " fill="#828283" transform="translate(56,10)"/>
<path d="M0 0 C0.516 0.188 1.031 0.376 1.562 0.57 C2.078 0.753 2.594 0.936 3.125 1.125 C4.562 1.695 4.562 1.695 6.562 2.695 C6.562 3.355 6.562 4.015 6.562 4.695 C5.458 4.553 4.354 4.406 3.25 4.258 C2.635 4.177 2.02 4.095 1.387 4.012 C-0.307 3.718 -1.826 3.285 -3.438 2.695 C-3.438 2.035 -3.438 1.375 -3.438 0.695 C-1.438 -0.305 -1.438 -0.305 0 0 Z " fill="#59595A" transform="translate(63.4375,105.3046875)"/>
<path d="M0 0 C1.497 0.293 2.995 0.586 4.492 0.879 C6 1 6 1 8 0 C8.66 0.66 9.32 1.32 10 2 C3.768 5.098 3.768 5.098 0.562 4.688 C0.047 4.461 -0.469 4.234 -1 4 C-0.67 2.68 -0.34 1.36 0 0 Z " fill="#909092" transform="translate(102,131)"/>
<path d="M0 0 C3.3 0 6.6 0 10 0 C7.722 2.278 6.062 3.052 3 4 C0.688 3.625 0.688 3.625 -1 3 C-0.67 2.01 -0.34 1.02 0 0 Z " fill="#17151B" transform="translate(69,103)"/>
<path d="M0 0 C6 3 6 3 6.5 4.438 C6.665 4.953 6.83 5.469 7 6 C7.66 6.66 8.32 7.32 9 8 C7.35 8.33 5.7 8.66 4 9 C2.68 6.03 1.36 3.06 0 0 Z " fill="#BCBCBD" transform="translate(8,95)"/>
<path d="M0 0 C0.99 0.33 1.98 0.66 3 1 C3 1.66 3 2.32 3 3 C3.619 3.309 4.238 3.619 4.875 3.938 C6.25 4.625 7.625 5.312 9 6 C8.67 6.99 8.34 7.98 8 9 C5.525 7.843 3.187 6.646 1 5 C0.062 2.25 0.062 2.25 0 0 Z " fill="#C9C9CB" transform="translate(5,86)"/>
<path d="M0 0 C4.084 0.743 8.022 1.819 12 3 C10.036 4.414 8.648 5.075 6.211 4.793 C2.664 3.895 2.664 3.895 1 3 C0.293 1.418 0.293 1.418 0 0 Z " fill="#6B6B6B" transform="translate(49,101)"/>
<path d="M0 0 C4.329 1.924 7.675 4.675 11 8 C9.68 8.33 8.36 8.66 7 9 C5.83 7.69 4.664 6.377 3.5 5.062 C2.85 4.332 2.201 3.601 1.531 2.848 C0 1 0 1 0 0 Z " fill="#858587" transform="translate(42,91)"/>
<path d="M0 0 C1.5 1.375 1.5 1.375 3 3 C3 3.66 3 4.32 3 5 C5.31 5.33 7.62 5.66 10 6 C10 6.33 10 6.66 10 7 C2.979 7.767 2.979 7.767 0.578 5.887 C-0.5 4.5 -0.5 4.5 -2 2 C-1.34 1.34 -0.68 0.68 0 0 Z " fill="#838383" transform="translate(36,29)"/>
<path d="M0 0 C0.66 0.99 1.32 1.98 2 3 C0.35 4.98 -1.3 6.96 -3 9 C-3.99 8.34 -4.98 7.68 -6 7 C-4.02 4.69 -2.04 2.38 0 0 Z " fill="#AEAEAE" transform="translate(121,108)"/>
<path d="M0 0 C0 0.99 0 1.98 0 3 C-1.863 4.641 -1.863 4.641 -4.312 6.25 C-5.113 6.791 -5.914 7.333 -6.738 7.891 C-9 9 -9 9 -10.793 8.672 C-11.191 8.45 -11.59 8.228 -12 8 C-11.34 8 -10.68 8 -10 8 C-10 7.34 -10 6.68 -10 6 C-9.446 5.734 -8.891 5.469 -8.32 5.195 C-7.596 4.842 -6.871 4.489 -6.125 4.125 C-5.406 3.777 -4.686 3.429 -3.945 3.07 C-2 2 -2 2 0 0 Z " fill="#3C3B3F" transform="translate(105,92)"/>
<path d="M0 0 C1.062 1.25 1.062 1.25 2 3 C1.625 5.188 1.625 5.188 1 7 C-0.32 7.33 -1.64 7.66 -3 8 C-2.49 4.856 -1.992 2.523 0 0 Z " fill="#6E6E6F" transform="translate(107,91)"/>
<path d="M0 0 C0 0.99 0 1.98 0 3 C-1.98 3 -3.96 3 -6 3 C-6 2.34 -6 1.68 -6 1 C-7.32 0.67 -8.64 0.34 -10 0 C-6.283 -0.76 -3.671 -1.271 0 0 Z " fill="#16141A" transform="translate(98,133)"/>
<path d="M0 0 C0.33 0.66 0.66 1.32 1 2 C1.66 2 2.32 2 3 2 C3.33 1.34 3.66 0.68 4 0 C3.648 4.052 3.648 4.052 3 6 C0.938 7.375 0.938 7.375 -1 8 C-0.67 5.36 -0.34 2.72 0 0 Z " fill="#9C9C9D" transform="translate(130,88)"/>
<path d="M0 0 C-0.33 1.32 -0.66 2.64 -1 4 C-2.98 4 -4.96 4 -7 4 C-7.33 3.34 -7.66 2.68 -8 2 C-5.18 0.389 -3.251 -0.232 0 0 Z " fill="#575757" transform="translate(66,8)"/>
<path d="M0 0 C1.086 1.176 1.086 1.176 2 3 C1.539 5.48 1.539 5.48 0.625 8.188 C0.329 9.089 0.032 9.99 -0.273 10.918 C-0.393 11.262 -0.393 11.262 -1 13 C-2.051 11.719 -2.051 11.719 -3 10 C-2.793 8.281 -2.793 8.281 -2.188 6.5 C-1.995 5.912 -1.803 5.324 -1.605 4.719 C-1.406 4.152 -1.206 3.584 -1 3 C-0.666 2 -0.332 1 0 0 Z " fill="#D4D4D5" transform="translate(147,84)"/>
<path d="M0 0 C1.32 0.33 2.64 0.66 4 1 C3.67 1.33 3.34 1.66 3 2 C4.32 2.66 5.64 3.32 7 4 C5.515 4.165 5.515 4.165 -2 5 C-2 4.34 -2 3.68 -2 3 C-1.34 3 -0.68 3 0 3 C0 2.01 0 1.02 0 0 Z " fill="#6A6A6B" transform="translate(56,9)"/>
<path d="M0 0 C-2.807 2.339 -5.441 2.697 -9 3 C-9.66 2.34 -10.32 1.68 -11 1 C-6.83 -0.649 -4.446 -1.308 0 0 Z " fill="#C3C4C4" transform="translate(99,137)"/>
<path d="M0 0 C3.938 3.323 3.938 3.323 4.25 6.75 C4.168 7.493 4.085 8.235 4 9 C0.062 5.677 0.062 5.677 -0.25 2.25 C-0.168 1.507 -0.085 0.765 0 0 Z " fill="#595A5B" transform="translate(20,95)"/>
<path d="M0 0 C-0.33 1.32 -0.66 2.64 -1 4 C-1 3.34 -1 2.68 -1 2 C-2.98 3.32 -4.96 4.64 -7 6 C-6.625 3.562 -6.625 3.562 -6 1 C-3.776 -0.112 -2.444 -0.081 0 0 Z " fill="#444347" transform="translate(143,95)"/>
<path d="M0 0 C0.66 0 1.32 0 2 0 C1.67 2.31 1.34 4.62 1 7 C0.01 7.33 -0.98 7.66 -2 8 C-1.125 2.25 -1.125 2.25 0 0 Z " fill="#555556" transform="translate(111,85)"/>
<path d="M0 0 C0.33 0 0.66 0 1 0 C1 2.64 1 5.28 1 8 C1.66 8 2.32 8 3 8 C3 8.66 3 9.32 3 10 C2.34 10 1.68 10 1 10 C1 10.66 1 11.32 1 12 C0.34 12 -0.32 12 -1 12 C-0.67 8.04 -0.34 4.08 0 0 Z " fill="#7D7D7E" transform="translate(132,78)"/>
<path d="M0 0 C0.66 0.33 1.32 0.66 2 1 C1.01 3.97 0.02 6.94 -1 10 C-3 6 -3 6 -2.539 4.297 C-2.237 3.786 -1.936 3.276 -1.625 2.75 C-1.329 2.229 -1.032 1.708 -0.727 1.172 C-0.487 0.785 -0.247 0.398 0 0 Z " fill="#A5A5A6" transform="translate(111,79)"/>
<path d="M0 0 C0.66 0 1.32 0 2 0 C2.287 6.459 2.287 6.459 0 9 C-0.66 9.66 -1.32 10.32 -2 11 C-1.859 9.541 -1.712 8.083 -1.562 6.625 C-1.481 5.813 -1.4 5.001 -1.316 4.164 C-1 2 -1 2 0 0 Z " fill="#C9C9C9" transform="translate(2,56)"/>
<path d="M0 0 C0.243 4.497 0.243 4.497 -0.875 6.812 C-1.061 7.008 -1.061 7.008 -2 8 C-2.66 8 -3.32 8 -4 8 C-3.886 6.853 -3.759 5.707 -3.625 4.562 C-3.555 3.924 -3.486 3.286 -3.414 2.629 C-3.346 2.36 -3.346 2.36 -3 1 C-1 0 -1 0 0 0 Z " fill="#4C4C4C" transform="translate(122,50)"/>
<path d="M0 0 C1.793 -0.081 3.581 -0.14 5.375 -0.188 C5.883 -0.213 6.391 -0.238 6.914 -0.264 C8.398 -0.293 8.398 -0.293 11 0 C12.375 1.406 12.375 1.406 13 3 C12.625 4.688 12.625 4.688 12 6 C11.34 5.67 10.68 5.34 10 5 C10 3.68 10 2.36 10 1 C6.7 1 3.4 1 0 1 C0 0.67 0 0.34 0 0 Z " fill="#585859" transform="translate(57,45)"/>
<path d="M0 0 C0.454 0.186 0.907 0.371 1.375 0.562 C1 2.5 1 2.5 0.375 4.562 C0.045 4.727 0.045 4.727 -1.625 5.562 C-2.285 5.233 -2.945 4.903 -3.625 4.562 C-3.625 3.242 -3.625 1.922 -3.625 0.562 C-1.625 -0.438 -1.625 -0.438 0 0 Z " fill="#D6D7D7" transform="translate(136.625,43.4375)"/>
<path d="M0 0 C0.66 0.33 1.32 0.66 2 1 C1.34 1.66 0.68 2.32 0 3 C0.99 3.66 1.98 4.32 3 5 C1.188 6.562 1.188 6.562 -1 8 C-2.637 7.59 -2.637 7.59 -4 7 C-3.523 6.02 -3.044 5.041 -2.562 4.062 C-2.296 3.517 -2.029 2.972 -1.754 2.41 C-1 1 -1 1 0 0 Z " fill="#737374" transform="translate(38,19)"/>
<path d="M0 0 C3.333 1.667 6.667 3.333 10 5 C10 5.33 10 5.66 10 6 C6.69 6.378 4.796 6.137 2.188 4.125 C0.918 3.07 0.918 3.07 0 2 C0 1.34 0 0.68 0 0 Z " fill="#B5B5B6" transform="translate(27,124)"/>
<path d="M0 0 C0.66 0 1.32 0 2 0 C2.53 0.953 3.049 1.913 3.562 2.875 C3.853 3.409 4.143 3.942 4.441 4.492 C4.626 4.99 4.81 5.487 5 6 C4.67 6.66 4.34 7.32 4 8 C3.34 8 2.68 8 2 8 C0.389 5.18 -0.232 3.251 0 0 Z " fill="#333236" transform="translate(7,96)"/>
<path d="M0 0 C0.66 0 1.32 0 2 0 C3.391 2.782 3.067 4.902 3 8 C2.01 7.67 1.02 7.34 0 7 C0 4.69 0 2.38 0 0 Z " fill="#5E5E5F" transform="translate(34,74)"/>
<path d="M0 0 C1.65 0 3.3 0 5 0 C4.67 0.66 4.34 1.32 4 2 C4.66 2.66 5.32 3.32 6 4 C3.03 3.67 0.06 3.34 -3 3 C-2.01 2.67 -1.02 2.34 0 2 C0 1.34 0 0.68 0 0 Z " fill="#868688" transform="translate(49,127)"/>
<path d="M0 0 C4.554 -0.369 4.554 -0.369 6.812 1.5 C7.204 1.995 7.596 2.49 8 3 C7.67 3.66 7.34 4.32 7 5 C1.571 3.143 1.571 3.143 0 0 Z " fill="#686869" transform="translate(43,98)"/>
<path d="M0 0 C0.732 0.065 0.732 0.065 4.395 0.391 C4.725 1.051 5.055 1.711 5.395 2.391 C2.095 3.051 -1.205 3.711 -4.605 4.391 C-1.605 0.391 -1.605 0.391 0 0 Z " fill="#767777" transform="translate(125.60546875,42.609375)"/>
<path d="M0 0 C-0.33 0.99 -0.66 1.98 -1 3 C-4.144 2.49 -6.477 1.992 -9 0 C-5.779 -1.227 -3.221 -1.227 0 0 Z " fill="#737374" transform="translate(103,14)"/>
<path d="M0 0 C1.65 0 3.3 0 5 0 C5.33 1.98 5.66 3.96 6 6 C4.125 5.812 4.125 5.812 2 5 C0.75 2.438 0.75 2.438 0 0 Z " fill="#4E4D51" transform="translate(96,131)"/>
<path d="M0 0 C0.598 0.082 1.196 0.165 1.812 0.25 C1.153 1.57 0.492 2.89 -0.188 4.25 C-1.837 4.25 -3.487 4.25 -5.188 4.25 C-2.726 0.312 -2.726 0.312 0 0 Z " fill="#4D4E4E" transform="translate(42.1875,18.75)"/>
<path d="M0 0 C1.65 0.33 3.3 0.66 5 1 C5 2.65 5 4.3 5 6 C4.01 5.835 4.01 5.835 -1 5 C-0.34 4.34 0.32 3.68 1 3 C0.67 2.01 0.34 1.02 0 0 Z " fill="#8A8A8B" transform="translate(88,8)"/>
<path d="M0 0 C0.66 0 1.32 0 2 0 C2 0.66 2 1.32 2 2 C2.66 2 3.32 2 4 2 C4 2.99 4 3.98 4 5 C3.34 5 2.68 5 2 5 C1.67 5.66 1.34 6.32 1 7 C0.67 4.69 0.34 2.38 0 0 Z " fill="#D2D3D3" transform="translate(3,75)"/>
<path d="M0 0 C0.33 0 0.66 0 1 0 C1.33 3.3 1.66 6.6 2 10 C1.67 10.165 1.67 10.165 0 11 C-1.333 3.702 -1.333 3.702 0 0 Z " fill="#A1A0A1" transform="translate(44,64)"/>
<path d="M0 0 C1.314 0.114 2.626 0.241 3.938 0.375 C4.668 0.445 5.399 0.514 6.152 0.586 C6.762 0.723 7.372 0.859 8 1 C8.33 1.66 8.66 2.32 9 3 C6.36 3 3.72 3 1 3 C0.67 2.01 0.34 1.02 0 0 Z " fill="#3B3B3B" transform="translate(82,46)"/>
<path d="M0 0 C-0.66 1.32 -1.32 2.64 -2 4 C-5 4 -5 4 -7 3 C-3.375 0 -3.375 0 0 0 Z " fill="#989999" transform="translate(117,116)"/>
<path d="M0 0 C0.66 0.99 1.32 1.98 2 3 C1 4 1 4 -0.848 4.098 C-1.213 4.092 -1.213 4.092 -3.062 4.062 C-3.796 4.053 -4.529 4.044 -5.285 4.035 C-5.851 4.024 -6.417 4.012 -7 4 C-5 2 -5 2 -2.375 1.875 C-1.591 1.916 -0.808 1.957 0 2 C0 1.34 0 0.68 0 0 Z " fill="#B5B5B6" transform="translate(69,93)"/>
<path d="M0 0 C1.65 0 3.3 0 5 0 C5.33 0.99 5.66 1.98 6 3 C4.02 3 2.04 3 0 3 C0 2.01 0 1.02 0 0 Z " fill="#19171C" transform="translate(52,132)"/>
<path d="M0 0 C0.99 0.33 1.98 0.66 3 1 C3.33 2.98 3.66 4.96 4 7 C3.01 6.67 2.02 6.34 1 6 C0.67 4.02 0.34 2.04 0 0 Z " fill="#484849" transform="translate(16,87)"/>
<path d="M0 0 C0.33 0.66 0.66 1.32 1 2 C0.062 4.625 0.062 4.625 -1 7 C-1.66 7 -2.32 7 -3 7 C-2.25 2.25 -2.25 2.25 0 0 Z " fill="#252429" transform="translate(116,122)"/>
<path d="M0 0 C0.66 0.33 1.32 0.66 2 1 C1.34 2.32 0.68 3.64 0 5 C-1.32 4.34 -2.64 3.68 -4 3 C-2.68 2.01 -1.36 1.02 0 0 Z " fill="#58585A" transform="translate(83,106)"/>
<path d="M0 0 C0.625 1.812 0.625 1.812 1 4 C0.062 5.75 0.062 5.75 -1 7 C-1 6.34 -1 5.68 -1 5 C-1.66 4.67 -2.32 4.34 -3 4 C-2.625 2.562 -2.625 2.562 -2 1 C-1.34 0.67 -0.68 0.34 0 0 Z " fill="#7C7C7D" transform="translate(144,90)"/>
<path d="M0 0 C2.125 -0.188 2.125 -0.188 4 0 C4 0.99 4 1.98 4 3 C2.02 3 0.04 3 -2 3 C-1.25 1.5 -1.25 1.5 0 0 Z " fill="#3B3B3B" transform="translate(63,46)"/>
<path d="M0 0 C2.125 -0.188 2.125 -0.188 4 0 C4 0.99 4 1.98 4 3 C2.02 3 0.04 3 -2 3 C-1.25 1.5 -1.25 1.5 0 0 Z " fill="#505051" transform="translate(82,8)"/>
<path d="M0 0 C0.33 0.99 0.66 1.98 1 3 C-0.65 3.33 -2.3 3.66 -4 4 C-3.688 2.562 -3.688 2.562 -3 1 C-1.438 0.312 -1.438 0.312 0 0 Z " fill="#747475" transform="translate(112,119)"/>
<path d="M0 0 C3.367 1.393 4.986 2.979 7 6 C5.188 5.812 5.188 5.812 3 5 C1.742 3.41 0.933 1.819 0 0 Z " fill="#B5B5B6" transform="translate(14,113)"/>
<path d="M0 0 C1.938 0.312 1.938 0.312 4 1 C4.75 2.562 4.75 2.562 5 4 C3.062 3.688 3.062 3.688 1 3 C0.25 1.438 0.25 1.438 0 0 Z " fill="#1F1E23" transform="translate(17,113)"/>
<path d="M0 0 C2.31 0 4.62 0 7 0 C4.64 2.36 3.221 2.491 0 3 C0 2.01 0 1.02 0 0 Z " fill="#232126" transform="translate(85,101)"/>
<path d="M0 0 C0.99 0.66 1.98 1.32 3 2 C2.67 2.66 2.34 3.32 2 4 C1.34 3.67 0.68 3.34 0 3 C-0.33 3.99 -0.66 4.98 -1 6 C-1.625 4.688 -1.625 4.688 -2 3 C-1.062 1.312 -1.062 1.312 0 0 Z " fill="#818182" transform="translate(27,44)"/>
<path d="M0 0 C0.99 0.165 0.99 0.165 6 1 C6 1.33 6 1.66 6 2 C3.69 2.33 1.38 2.66 -1 3 C-0.67 2.01 -0.34 1.02 0 0 Z " fill="#CECFCF" transform="translate(84,138)"/>
<path d="M0 0 C0.454 0.186 0.907 0.371 1.375 0.562 C0.715 1.882 0.055 3.203 -0.625 4.562 C-1.615 3.243 -2.605 1.922 -3.625 0.562 C-1.625 -0.438 -1.625 -0.438 0 0 Z " fill="#323135" transform="translate(23.625,116.4375)"/>
<path d="M0 0 C1.65 1.65 3.3 3.3 5 5 C4.01 5.33 3.02 5.66 2 6 C0.235 3.684 0 3.087 0 0 Z " fill="#A0A0A1" transform="translate(11,107)"/>
<path d="M0 0 C0.66 0.33 1.32 0.66 2 1 C2 2.32 2 3.64 2 5 C0.68 4.67 -0.64 4.34 -2 4 C-1.34 2.68 -0.68 1.36 0 0 Z " fill="#747475" transform="translate(96,100)"/>
<path d="M0 0 C0.825 0.165 0.825 0.165 5 1 C4.67 1.66 4.34 2.32 4 3 C3.34 2.67 2.68 2.34 2 2 C1.67 3.32 1.34 4.64 1 6 C0.67 4.02 0.34 2.04 0 0 Z " fill="#707171" transform="translate(129,48)"/>
<path d="M0 0 C0.33 0.66 0.66 1.32 1 2 C3.562 2.625 3.562 2.625 6 3 C6 3.33 6 3.66 6 4 C4.02 4 2.04 4 0 4 C-0.33 3.34 -0.66 2.68 -1 2 C-0.67 1.34 -0.34 0.68 0 0 Z " fill="#B3B4B4" transform="translate(80,32)"/>
<path d="M0 0 C0.66 0.33 0.66 0.33 4 2 C3.67 2.495 3.67 2.495 2 5 C1.34 4.34 0.68 3.68 0 3 C0 2.01 0 1.02 0 0 Z " fill="#1D1B20" transform="translate(24,118)"/>
<path d="M0 0 C1.98 0.66 3.96 1.32 6 2 C5.67 2.66 5.34 3.32 5 4 C1.125 2.25 1.125 2.25 0 0 Z " fill="#999A9C" transform="translate(19,112)"/>
<path d="M0 0 C-2.647 1.461 -3.894 2 -7 2 C-7 1.34 -7 0.68 -7 0 C-4.333 -1.333 -2.833 -0.671 0 0 Z " fill="#5F5F60" transform="translate(67,106)"/>
<path d="M0 0 C0.33 0.66 0.66 1.32 1 2 C1.99 1.67 2.98 1.34 4 1 C3.34 2.32 2.68 3.64 2 5 C1.34 5 0.68 5 0 5 C0 3.35 0 1.7 0 0 Z " fill="#C2C3C4" transform="translate(128,94)"/>
<path d="M0 0 C0.99 0.33 1.98 0.66 3 1 C2.67 2.32 2.34 3.64 2 5 C1.34 4.67 0.68 4.34 0 4 C0 2.68 0 1.36 0 0 Z " fill="#464546" transform="translate(17,48)"/>
<path d="M0 0 C1.32 0.33 2.64 0.66 4 1 C4 1.66 4 2.32 4 3 C3.01 3 2.02 3 1 3 C0.67 3.66 0.34 4.32 0 5 C0 3.35 0 1.7 0 0 Z " fill="#5E5E5F" transform="translate(27,47)"/>
<path d="M0 0 C0.66 0 1.32 0 2 0 C2.33 1.32 2.66 2.64 3 4 C1.68 4 0.36 4 -1 4 C-0.67 2.68 -0.34 1.36 0 0 Z " fill="#464648" transform="translate(103,46)"/>
<path d="M0 0 C2 2 2 2 2 5 C0.562 4.688 0.562 4.688 -1 4 C-1.688 2.438 -1.688 2.438 -2 1 C-1.34 0.67 -0.68 0.34 0 0 Z " fill="#89898A" transform="translate(36,29)"/>
<path d="M0 0 C1.32 0.66 2.64 1.32 4 2 C2.688 3.062 2.688 3.062 1 4 C-0.688 3.625 -0.688 3.625 -2 3 C-1.34 2.01 -0.68 1.02 0 0 Z " fill="#969698" transform="translate(103,14)"/>
<path d="M0 0 C1.65 0 3.3 0 5 0 C5.33 0.99 5.66 1.98 6 3 C4.02 2.34 2.04 1.68 0 1 C0 0.67 0 0.34 0 0 Z " fill="#BCBCBD" transform="translate(34,130)"/>
<path d="M0 0 C0.825 0.165 0.825 0.165 5 1 C4.67 1.66 4.34 2.32 4 3 C2.68 3 1.36 3 0 3 C0 2.01 0 1.02 0 0 Z " fill="#C4C4C5" transform="translate(64,128)"/>
<path d="M0 0 C0.66 0.33 0.66 0.33 4 2 C3.67 2.99 3.34 3.98 3 5 C1.5 3.625 1.5 3.625 0 2 C0 1.34 0 0.68 0 0 Z " fill="#575859" transform="translate(35,117)"/>
<path d="M0 0 C1.32 0.33 2.64 0.66 4 1 C4 1.66 4 2.32 4 3 C3.01 3.33 2.02 3.66 1 4 C0.67 2.68 0.34 1.36 0 0 Z " fill="#2F2E33" transform="translate(15,110)"/>
<path d="M0 0 C0.66 0.33 0.66 0.33 4 2 C4 2.99 4 3.98 4 5 C2.646 3.688 1.313 2.354 0 1 C0 0.67 0 0.34 0 0 Z " fill="#ADADAF" transform="translate(13,104)"/>
<path d="M0 0 C0.66 0.33 1.32 0.66 2 1 C1.34 2.65 0.68 4.3 0 6 C-0.33 6 -0.66 6 -1 6 C-1.043 4.334 -1.041 2.666 -1 1 C-0.67 0.67 -0.34 0.34 0 0 Z " fill="#616063" transform="translate(137,104)"/>
<path d="M0 0 C0.59 1.332 0.59 1.332 1 3 C0.246 4.871 -0.862 6.316 -2 8 C-2.33 7.34 -2.66 6.68 -3 6 C-2.441 4.492 -2.441 4.492 -1.562 2.875 C-1.275 2.336 -0.988 1.797 -0.691 1.242 C-0.463 0.832 -0.235 0.422 0 0 Z " fill="#D7D8D8" transform="translate(144,97)"/>
<path d="M0 0 C0.66 0.33 0.66 0.33 4 2 C4 2.99 4 3.98 4 5 C2.646 3.688 1.313 2.354 0 1 C0 0.67 0 0.34 0 0 Z " fill="#ADADAE" transform="translate(42,91)"/>
<path d="M0 0 C1.98 0.66 3.96 1.32 6 2 C5.01 2.66 4.02 3.32 3 4 C1.5 3.125 1.5 3.125 0 2 C0 1.34 0 0.68 0 0 Z " fill="#E0E0E0" transform="translate(114,42)"/>
<path d="M0 0 C0.99 0 1.98 0 3 0 C3 0.99 3 1.98 3 3 C1.68 3.33 0.36 3.66 -1 4 C-0.67 2.68 -0.34 1.36 0 0 Z " fill="#6C6C6D" transform="translate(116,26)"/>
<path d="M0 0 C0.66 0.99 1.32 1.98 2 3 C1.34 3.66 0.68 4.32 0 5 C-0.66 4.34 -1.32 3.68 -2 3 C-1.34 2.01 -0.68 1.02 0 0 Z " fill="#D1D1D2" transform="translate(121,108)"/>
<path d="M0 0 C0.825 0.165 0.825 0.165 5 1 C4.34 1.33 4.34 1.33 1 3 C0.67 2.01 0.34 1.02 0 0 Z " fill="#646565" transform="translate(49,101)"/>
<path d="M0 0 C0.99 0.33 1.98 0.66 3 1 C3 1.66 3 2.32 3 3 C1.68 2.67 0.36 2.34 -1 2 C-0.67 1.34 -0.34 0.68 0 0 Z " fill="#1F1D23" transform="translate(95,133)"/>
<path d="M0 0 C0.66 1.32 1.32 2.64 2 4 C1.34 4.66 0.68 5.32 0 6 C-0.787 4.165 -1.072 3.278 -0.562 1.312 C-0.377 0.879 -0.191 0.446 0 0 Z " fill="#6E6F70" transform="translate(24,101)"/>
<path d="M0 0 C1.32 0 2.64 0 4 0 C4 0.99 4 1.98 4 3 C2.68 2.34 1.36 1.68 0 1 C0 0.67 0 0.34 0 0 Z " fill="#7D7D7E" transform="translate(43,98)"/>
<path d="M0 0 C0.99 0.165 0.99 0.165 6 1 C5.01 1.66 4.02 2.32 3 3 C2.01 2.01 1.02 1.02 0 0 Z " fill="#B2B2B2" transform="translate(54,92)"/>
<path d="M0 0 C0.66 0.33 1.32 0.66 2 1 C1.67 1.99 1.34 2.98 1 4 C0.34 4 -0.32 4 -1 4 C-0.67 2.68 -0.34 1.36 0 0 Z " fill="#3E3E3E" transform="translate(45,47)"/>
<path d="M0 0 C0.33 1.32 0.66 2.64 1 4 C0.01 4 -0.98 4 -2 4 C-1.34 2.68 -0.68 1.36 0 0 Z " fill="#828282" transform="translate(19,44)"/>
<path d="M0 0 C0.66 0 1.32 0 2 0 C2 0.99 2 1.98 2 3 C0.68 2.67 -0.64 2.34 -2 2 C-1.34 1.34 -0.68 0.68 0 0 Z " fill="#414142" transform="translate(60,9)"/>
<path d="M0 0 C0.99 0 1.98 0 3 0 C2.67 0.99 2.34 1.98 2 3 C1.01 2.34 0.02 1.68 -1 1 C-0.67 0.67 -0.34 0.34 0 0 Z " fill="#BFBFC0" transform="translate(118,112)"/>
<path d="M0 0 C0.66 0.33 1.32 0.66 2 1 C2 1.66 2 2.32 2 3 C1.01 3.33 0.02 3.66 -1 4 C-0.67 2.68 -0.34 1.36 0 0 Z " fill="#666768" transform="translate(85,106)"/>
<path d="M0 0 C0.66 0.33 1.32 0.66 2 1 C1.34 2.32 0.68 3.64 0 5 C-0.562 3.625 -0.562 3.625 -1 2 C-0.67 1.34 -0.34 0.68 0 0 Z " fill="#CDCDCE" transform="translate(111,79)"/>
<path d="M0 0 C0.66 0.99 1.32 1.98 2 3 C0.68 3 -0.64 3 -2 3 C-1.34 2.67 -0.68 2.34 0 2 C0 1.34 0 0.68 0 0 Z " fill="#BEBEBE" transform="translate(69,32)"/>
<path d="M0 0 C0.99 0.33 1.98 0.66 3 1 C3 1.66 3 2.32 3 3 C2.01 2.67 1.02 2.34 0 2 C0 1.34 0 0.68 0 0 Z " fill="#ACADAE" transform="translate(27,124)"/>
<path d="M0 0 C0.99 0.33 1.98 0.66 3 1 C3 1.66 3 2.32 3 3 C2.01 2.67 1.02 2.34 0 2 C0 1.34 0 0.68 0 0 Z " fill="#4F4F50" transform="translate(17,91)"/>
<path d="M0 0 C0.66 0.33 1.32 0.66 2 1 C1.34 1.33 1.34 1.33 -2 3 C-1.34 2.01 -0.68 1.02 0 0 Z " fill="#D6D6D6" transform="translate(125,122)"/>
<path d="M0 0 C0 0.99 0 1.98 0 3 C-0.33 3.165 -0.33 3.165 -2 4 C-1.34 2.68 -0.68 1.36 0 0 Z " fill="#D7D7D8" transform="translate(137,110)"/>
<path d="M0 0 C0.66 0.33 1.32 0.66 2 1 C1.01 1 0.02 1 -1 1 C-0.67 0.67 -0.34 0.34 0 0 Z " fill="#D8D8D8" transform="translate(115,129)"/>
<path d="M0 0 C0.66 0.33 1.32 0.66 2 1 C1.01 1 0.02 1 -1 1 C-0.67 0.67 -0.34 0.34 0 0 Z " fill="#D3D3D4" transform="translate(120,126)"/>
<path d="M0 0 C0 3 0 3 0 3 Z " fill="#D4D4D4" transform="translate(139,107)"/>
<path d="M0 0 C2 1 2 1 2 1 Z " fill="#D5D4D5" transform="translate(112,131)"/>
<path d="M0 0 C2 1 2 1 2 1 Z " fill="#D6D6D6" transform="translate(117,128)"/>
<path d="" fill="#D6D6D6" transform="translate(0,0)"/>
<path d="" fill="#DADADB" transform="translate(0,0)"/>
<path d="" fill="#DCDCDC" transform="translate(0,0)"/>
<path d="" fill="#DEDFDE" transform="translate(0,0)"/>
<path d="" fill="#CDCDCE" transform="translate(0,0)"/>
<path d="" fill="#D1D1D1" transform="translate(0,0)"/>
<path d="" fill="#CFD0D0" transform="translate(0,0)"/>
<path d="" fill="#D1D1D1" transform="translate(0,0)"/>
<path d="" fill="#D1D2D2" transform="translate(0,0)"/>
<path d="" fill="#D0D1D0" transform="translate(0,0)"/>
<path d="" fill="#CECECF" transform="translate(0,0)"/>
<path d="" fill="#CECECF" transform="translate(0,0)"/>
<path d="" fill="#CFCFCF" transform="translate(0,0)"/>
<path d="" fill="#DFDFDF" transform="translate(0,0)"/>
<path d="" fill="#DDDDDD" transform="translate(0,0)"/>
<path d="" fill="#DFE0E0" transform="translate(0,0)"/>
<path d="" fill="#DDDEDD" transform="translate(0,0)"/>
</svg>
