<?xml version="1.0" encoding="UTF-8"?>
<!-- Generator: visioncortex VTracer 0.6.12 -->
<svg version="1.1" xmlns="http://www.w3.org/2000/svg" width="150" height="132">
<path d="M0 0 C0.406 0.001 0.406 0.001 2.462 0.006 C19.42 0.07 36.154 0.906 51.75 8.312 C51.915 8.643 51.915 8.643 52.75 10.312 C52.06 10.108 51.371 9.903 50.66 9.691 C44.684 7.978 38.979 6.759 32.75 6.312 C33.5 6.532 34.25 6.751 35.023 6.977 C47.207 10.683 57.493 16.254 64.062 27.574 C68.578 37.086 69.191 46.972 69.75 57.312 C70.74 56.983 71.73 56.653 72.75 56.312 C73.222 45.928 71.755 36.639 67.427 27.233 C66.252 24.671 65.75 23.196 65.75 20.312 C73.555 31.634 74.986 42.563 75 56 C75.001 56.599 75.001 57.197 75.002 57.814 C74.967 77.243 73.096 101.809 58.588 116.488 C45.595 128.51 27.922 132.413 10.605 132.516 C10.221 132.518 10.221 132.518 8.276 132.533 C6.652 132.542 5.027 132.549 3.403 132.553 C0.982 132.562 -1.437 132.593 -3.857 132.625 C-21.112 132.743 -40.16 131.449 -54.25 120.312 C-54.628 120.039 -55.006 119.765 -55.395 119.484 C-58.618 117.07 -60.737 114.558 -62.812 111.125 C-63.111 110.637 -63.41 110.148 -63.718 109.645 C-64.58 108.21 -65.42 106.766 -66.25 105.312 C-66.644 104.624 -67.039 103.936 -67.445 103.227 C-76.912 84.368 -79.322 53.296 -73.086 32.996 C-69.281 22.101 -62.84 14.151 -52.625 8.625 C-36.005 0.911 -18.047 -0.084 0 0 Z M-17.25 3.312 C-17.25 3.643 -17.25 3.973 -17.25 4.312 C-13.95 4.312 -10.65 4.312 -7.25 4.312 C-7.25 3.982 -7.25 3.652 -7.25 3.312 C-10.55 3.312 -13.85 3.312 -17.25 3.312 Z M6.75 3.312 C6.75 3.643 6.75 3.973 6.75 4.312 C10.05 4.312 13.35 4.312 16.75 4.312 C16.75 3.982 16.75 3.652 16.75 3.312 C13.45 3.312 10.15 3.312 6.75 3.312 Z M-26.25 4.312 C-22.25 5.312 -22.25 5.312 -22.25 5.312 Z M21.75 4.312 C25.75 5.312 25.75 5.312 25.75 5.312 Z M-65.055 20.371 C-72.619 30.626 -73.917 41.952 -73.25 54.312 C-72.59 54.642 -71.93 54.972 -71.25 55.312 C-70.836 57.379 -70.836 57.379 -70.625 59.875 C-70.55 60.701 -70.475 61.528 -70.398 62.379 C-70.349 63.017 -70.3 63.655 -70.25 64.312 C-69.92 64.312 -69.59 64.312 -69.25 64.312 C-69.235 63.739 -69.221 63.166 -69.206 62.575 C-68.269 29.582 -68.269 29.582 -55.562 17.5 C-47.882 11.294 -38.704 8.562 -29.25 6.312 C-29.25 5.982 -29.25 5.652 -29.25 5.312 C-43.282 3.858 -55.914 9.944 -65.055 20.371 Z M-45.719 28.297 C-51.749 36.235 -54.808 45.392 -54.25 55.312 C-53.59 55.642 -52.93 55.972 -52.25 56.312 C-52.103 55.357 -51.956 54.402 -51.805 53.418 C-50.028 42.821 -47.385 32.44 -38.349 25.631 C-35.981 24.144 -33.622 23.159 -31.016 22.152 C-30.121 21.804 -29.227 21.456 -28.306 21.097 C-27.966 20.968 -27.966 20.968 -26.25 20.312 C-26.255 21.148 -26.26 21.983 -26.266 22.844 C-26.284 26.016 -26.296 29.189 -26.305 32.361 C-26.31 33.72 -26.317 35.08 -26.325 36.439 C-26.371 43.647 -26.315 50.828 -25.844 58.023 C-25.809 58.592 -25.775 59.161 -25.74 59.747 C-25.3 65.662 -23.804 70.062 -19.312 74.02 C-17.953 75.046 -16.568 76.04 -15.152 76.988 C-13.283 78.289 -11.837 79.688 -10.25 81.312 C-9.129 82.259 -7.982 83.177 -6.812 84.062 C-6.236 84.511 -5.66 84.96 -5.066 85.422 C-3.25 86.312 -3.25 86.312 -1.027 85.953 C-0.441 85.742 0.146 85.53 0.75 85.312 C0.42 85.148 0.42 85.148 -1.25 84.312 C-1.858 82.525 -1.858 82.525 -2.441 80.023 C-3.83 74.491 -5.61 69.119 -7.465 63.727 C-7.763 62.857 -8.062 61.988 -8.37 61.093 C-9.306 58.373 -10.246 55.655 -11.188 52.938 C-22.25 20.931 -22.25 20.931 -22.25 18.312 C-31.589 17.139 -39.478 21.526 -45.719 28.297 Z M21.75 18.312 C21.618 18.857 21.485 19.402 21.349 19.963 C19.647 26.569 17.554 33.011 15.359 39.469 C15.049 40.384 14.739 41.299 14.419 42.241 C13.116 46.078 11.81 49.914 10.491 53.746 C9.521 56.567 8.565 59.393 7.609 62.219 C7.307 63.087 7.005 63.956 6.694 64.851 C6.424 65.656 6.153 66.461 5.874 67.291 C5.632 67.997 5.39 68.704 5.141 69.431 C4.716 71.475 4.894 72.438 5.75 74.312 C10.6 68.997 15.033 63.441 19.373 57.706 C19.782 57.166 20.191 56.627 20.613 56.07 C20.795 55.829 20.795 55.829 21.716 54.606 C22.75 53.313 22.75 53.313 24.75 51.312 C26.47 44.951 25.866 37.861 25.812 31.312 C25.807 30.241 25.803 29.169 25.799 28.098 C25.788 25.503 25.771 22.908 25.75 20.312 C27.34 20.917 28.926 21.529 30.512 22.145 C31.396 22.485 32.28 22.825 33.19 23.175 C40.522 26.433 44.668 32.061 47.75 39.312 C49.602 44.867 50.966 50.51 51.75 56.312 C53.75 54.312 53.75 54.312 53.867 52.062 C52.832 40.31 48.906 31.011 39.75 23.312 C34.091 19.183 28.675 17.609 21.75 18.312 Z M67.75 71.312 C68.75 73.312 68.75 73.312 68.75 73.312 Z M3.75 74.312 C4.75 77.312 4.75 77.312 4.75 77.312 Z M2.75 77.312 C3.75 79.312 3.75 79.312 3.75 79.312 Z M1.75 80.312 C2.75 82.312 2.75 82.312 2.75 82.312 Z M-59.25 105.312 C-57.803 110.618 -54.199 113.649 -50.25 117.312 C-49.59 116.983 -48.93 116.653 -48.25 116.312 C-49.567 112.472 -51.133 109.028 -54.25 106.312 C-57 105.5 -57 105.5 -59.25 105.312 Z M54.75 105.312 C53.338 106.728 52.192 108.044 51 109.625 C50.671 110.029 50.343 110.433 50.004 110.85 C49.078 112.051 49.078 112.051 47.75 114.312 C48.047 116.105 48.047 116.105 48.75 117.312 C56.233 111.162 56.233 111.162 58.75 107.312 C58.42 106.653 58.09 105.993 57.75 105.312 C56.76 105.312 55.77 105.312 54.75 105.312 Z M-6.25 128.312 C-2.25 129.312 -2.25 129.312 -2.25 129.312 Z M-1.25 128.312 C-1.25 128.643 -1.25 128.972 -1.25 129.312 C1.06 129.312 3.37 129.312 5.75 129.312 C5.75 128.982 5.75 128.653 5.75 128.312 C3.44 128.312 1.13 128.312 -1.25 128.312 Z " fill="#112F6B" transform="translate(75.25,-0.3125)"/>
<path d="M0 0 C0.593 -0.001 1.186 -0.002 1.797 -0.003 C17.516 -0 17.516 -0 22.188 1.188 C22.352 1.518 22.352 1.518 23.188 3.188 C25.25 3.812 25.25 3.812 27.188 4.188 C24.787 5.388 23.294 5.302 20.617 5.285 C19.721 5.282 18.825 5.279 17.902 5.275 C16.965 5.267 16.028 5.259 15.062 5.25 C14.118 5.245 13.173 5.241 12.199 5.236 C9.862 5.225 7.525 5.208 5.188 5.188 C5.352 5.683 5.352 5.683 6.188 8.188 C3.016 10.042 0.624 10.456 -3.031 10.531 C-4.051 10.56 -5.072 10.589 -6.092 10.617 C-6.355 10.623 -6.355 10.623 -7.689 10.652 C-16.522 10.847 -25.163 11.234 -33.812 13.188 C-33.812 13.848 -33.812 14.508 -33.812 15.188 C-34.442 15.444 -35.071 15.701 -35.719 15.965 C-44.61 19.942 -50.433 25.257 -54.25 34.438 C-56.309 40.089 -56.967 45.219 -56.812 51.188 C-56.723 50.755 -56.633 50.323 -56.541 49.877 C-53.908 37.536 -50.856 26.651 -39.812 19.188 C-36.649 17.261 -34.478 17.106 -30.812 17.188 C-30.807 17.733 -30.801 18.279 -30.795 18.842 C-30.737 24.02 -30.664 29.197 -30.577 34.375 C-30.532 37.036 -30.493 39.697 -30.466 42.358 C-30.435 45.426 -30.38 48.494 -30.324 51.562 C-30.318 52.506 -30.311 53.449 -30.305 54.42 C-30.177 60.235 -29.265 64.899 -26.812 70.188 C-25.822 70.188 -24.833 70.188 -23.812 70.188 C-22.697 71.374 -22.697 71.374 -21.648 73.047 C-21.45 73.354 -21.45 73.354 -20.449 74.91 C-20.033 75.579 -19.616 76.248 -19.188 76.938 C-14.106 84.962 -14.106 84.962 -11.156 88.363 C-5.877 94.485 -3.903 98.601 -4.353 106.821 C-4.474 108.279 -4.638 109.734 -4.812 111.188 C8.675 111.726 23.252 110.582 33.875 101.062 C36.628 98.025 38.7 94.365 40.778 90.845 C41.531 89.594 42.354 88.386 43.188 87.188 C43.847 87.188 44.507 87.188 45.188 87.188 C45.847 85.537 46.507 83.888 47.188 82.188 C48.702 86.225 47.84 90.049 47.188 94.188 C46.528 94.188 45.868 94.188 45.188 94.188 C44.528 97.817 43.868 101.448 43.188 105.188 C44.177 105.188 45.168 105.188 46.188 105.188 C46.188 108.188 46.188 108.188 44.859 109.617 C29.713 121.007 12.363 122.441 -6 122.562 C-6.629 122.57 -7.257 122.578 -7.905 122.587 C-26.335 122.765 -42.034 118.836 -55.812 106.188 C-57.722 104.278 -58.149 103.64 -58.926 101.219 C-59.122 100.648 -59.319 100.077 -59.521 99.488 C-59.923 98.291 -60.313 97.091 -60.693 95.887 C-61.288 94.193 -61.85 92.704 -62.812 91.188 C-63.645 90.874 -64.478 90.561 -65.336 90.238 C-67.812 89.188 -67.812 89.188 -68.59 87.828 C-69.249 85.856 -69.71 83.913 -70.125 81.875 C-70.29 81.105 -70.454 80.334 -70.624 79.541 C-73.404 64.534 -75.92 37.544 -68.188 23.875 C-67.918 23.378 -67.649 22.882 -67.371 22.37 C-61.533 12.072 -51.574 6.542 -40.48 3.059 C-36.09 1.895 -31.64 1.464 -27.125 1.062 C-26.657 1.02 -26.657 1.02 -24.288 0.807 C-16.197 0.134 -8.116 -0.001 0 0 Z " fill="#11306C" transform="translate(78.8125,3.8125)"/>
<path d="M0 0 C1.121 0.138 2.241 0.282 3.361 0.429 C3.985 0.509 4.609 0.589 5.252 0.671 C11.395 1.827 16.058 7.887 19.676 12.582 C23.946 20.378 24.497 27.945 24.375 36.625 C24.371 37.195 24.367 37.765 24.363 38.352 C24.306 45.282 24.057 52.112 22.75 58.938 C22.695 59.232 22.695 59.232 22.419 60.723 C21.536 64.555 20.14 65.812 17 68 C15.762 70.234 15.762 70.234 14.688 72.75 C10.39 81.697 4.039 86.414 -5 90 C-5.66 90 -6.32 90 -7 90 C-7 90.66 -7 91.32 -7 92 C-13.43 93.74 -19.349 94.25 -26 94 C-27.296 87.112 -27.278 81.533 -23.387 75.484 C-20.098 70.855 -16.554 66.426 -13 62 C-12.158 60.922 -11.323 59.84 -10.496 58.75 C-10.336 58.54 -10.336 58.54 -9.525 57.477 C-6.31 52.743 -4.206 48.332 -2.832 42.758 C-2.661 42.068 -2.491 41.377 -2.315 40.666 C-0.452 32.496 -0.327 24.344 -0.25 16 C-0.222 14.435 -0.192 12.87 -0.16 11.305 C-0.088 7.537 -0.037 3.769 0 0 Z " fill="#0B2B6B" transform="translate(102,21)"/>
<path d="M0 0 C0.003 0.273 0.003 0.273 0.018 1.655 C0.076 6.832 0.148 12.01 0.236 17.187 C0.28 19.848 0.32 22.509 0.346 25.17 C0.378 28.239 0.433 31.307 0.488 34.375 C0.495 35.318 0.501 36.261 0.508 37.233 C0.635 43.047 1.548 47.712 4 53 C4.99 53 5.98 53 7 53 C8.211 54.282 8.211 54.282 9.375 56.07 C9.803 56.72 10.231 57.37 10.672 58.039 C11.11 58.727 11.548 59.416 12 60.125 C12.438 60.79 12.877 61.455 13.328 62.141 C20.159 72.634 20.159 72.634 19.688 76.688 C19.461 77.451 19.234 78.214 19 79 C19 82.342 19.988 84.324 21.5 87.188 C21.738 87.651 21.977 88.114 22.223 88.592 C22.81 89.731 23.404 90.866 24 92 C12.094 92.552 2.51 90.83 -7 83 C-14.388 75.948 -17.869 68.548 -20.191 58.711 C-20.846 56.517 -21.461 55.13 -22.574 53.203 C-24.575 49.358 -24.371 45.624 -24.25 41.375 C-24.235 40.58 -24.219 39.784 -24.204 38.965 C-24.167 37.373 -24.123 35.781 -24.069 34.19 C-24.01 32.306 -23.987 30.427 -23.977 28.543 C-23.682 19.888 -20.863 13.123 -14.965 6.828 C-10.127 2.452 -6.65 -0.143 0 0 Z " fill="#0B2B6B" transform="translate(48,21)"/>
<path d="M0 0 C0.66 0.33 1.32 0.66 2 1 C1.348 1.461 0.695 1.923 0.023 2.398 C-9.596 9.465 -15.13 17.937 -17 30 C-17.538 34.655 -17.802 39.32 -18 44 C-17.01 44.33 -16.02 44.66 -15 45 C-14.34 39.39 -13.68 33.78 -13 28 C-12.67 28 -12.34 28 -12 28 C-12.007 28.43 -12.013 28.86 -12.02 29.304 C-12.088 33.864 -12.132 38.424 -12.165 42.984 C-12.18 44.676 -12.2 46.368 -12.226 48.06 C-12.378 58.061 -11.967 67.356 -9.65 77.109 C-9 80 -9 80 -9 83 C-8.092 83.144 -7.185 83.289 -6.25 83.438 C-3.794 84.223 -3.1 84.84 -1.711 87.066 C1 93.142 1 93.142 1 96 C0.34 96.165 0.34 96.165 -3 97 C-0.36 99.97 2.28 102.94 5 106 C5.165 105.505 5.165 105.505 6 103 C8.718 104.302 11.189 105.756 13.688 107.438 C25.394 114.781 39.2 115.389 52.625 115.312 C53.284 115.311 53.944 115.309 54.623 115.307 C72.222 115.225 89.904 113.664 104 102 C104.33 103.32 104.66 104.64 105 106 C106.32 104.515 106.32 104.515 113 97 C111.68 96.67 110.36 96.34 109 96 C109.29 95.136 109.58 94.273 109.879 93.383 C110.595 91.238 111.291 89.088 111.965 86.93 C112.289 85.911 112.613 84.893 112.938 83.875 C113.094 83.363 113.251 82.851 113.412 82.324 C114.454 79.093 115.609 76.505 118 74 C118.99 74 119.98 74 121 74 C121.061 73.397 121.121 72.793 121.184 72.172 C121.267 71.373 121.351 70.573 121.438 69.75 C121.478 69.356 121.478 69.356 121.684 67.359 C122 65 122 65 122.531 62.938 C123.009 60.961 123.101 59.277 123.062 57.25 C123.053 56.636 123.044 56.023 123.035 55.391 C123.024 54.932 123.012 54.473 123 54 C123.33 54 123.66 54 124 54 C124.33 51.69 124.66 49.38 125 47 C125.99 46.67 126.98 46.34 128 46 C128.472 35.615 127.005 26.327 122.677 16.921 C121.502 14.359 121 12.884 121 10 C128.805 21.322 130.236 32.251 130.25 45.688 C130.251 46.286 130.251 46.885 130.252 47.502 C130.217 66.93 128.346 91.497 113.838 106.176 C100.845 118.198 83.172 122.1 65.855 122.203 C65.087 122.209 64.318 122.215 63.526 122.22 C61.902 122.23 60.277 122.236 58.653 122.24 C56.232 122.25 53.813 122.281 51.393 122.312 C34.138 122.43 15.09 121.136 1 110 C0.622 109.726 0.244 109.453 -0.145 109.171 C-3.368 106.758 -5.487 104.245 -7.562 100.812 C-7.861 100.324 -8.16 99.836 -8.468 99.332 C-9.33 97.898 -10.17 96.453 -11 95 C-11.394 94.312 -11.789 93.623 -12.195 92.914 C-21.662 74.056 -24.072 42.983 -17.836 22.683 C-14.58 13.359 -9.108 4.554 0 0 Z M49 118 C53 119 53 119 53 119 Z M54 118 C54 118.33 54 118.66 54 119 C56.31 119 58.62 119 61 119 C61 118.67 61 118.34 61 118 C58.69 118 56.38 118 54 118 Z " fill="#5E5E5F" transform="translate(20,10)"/>
<path d="M0 0 C1.525 0.018 3.049 0.021 4.574 0.02 C10.175 0.053 15.626 0.33 21.16 1.206 C22.221 3.68 22.054 4.725 21.16 7.206 C21.092 8.69 21.04 10.174 20.996 11.659 C20.223 20.8 16.754 29.339 13.785 37.956 C13.188 39.725 12.591 41.495 11.996 43.264 C11.419 44.969 10.841 46.674 10.262 48.378 C9.996 49.16 9.73 49.943 9.456 50.749 C7.878 55.326 6.14 59.787 4.16 64.206 C3.5 64.206 2.84 64.206 2.16 64.206 C-0.898 56.223 -3.91 48.22 -6.715 40.143 C-6.93 39.55 -7.145 38.956 -7.366 38.344 C-8.615 34.676 -9.028 31.564 -8.817 27.688 C-8.84 26.206 -8.84 26.206 -9.84 24.206 C-9.964 23.381 -10.087 22.556 -10.215 21.706 C-12.039 10.006 -12.039 10.006 -15.84 6.206 C-15.965 4.081 -15.965 4.081 -15.84 2.206 C-10.583 -0.064 -5.678 -0.07 0 0 Z " fill="#0A2A6A" transform="translate(71.83984375,19.794189453125)"/>
<path d="M0 0 C0.593 -0.001 1.186 -0.002 1.797 -0.003 C17.516 -0 17.516 -0 22.188 1.188 C22.352 1.518 22.352 1.518 23.188 3.188 C25.25 3.812 25.25 3.812 27.188 4.188 C24.787 5.388 23.294 5.302 20.617 5.285 C19.721 5.282 18.825 5.279 17.902 5.275 C16.965 5.267 16.028 5.259 15.062 5.25 C14.118 5.245 13.173 5.241 12.199 5.236 C9.862 5.225 7.525 5.208 5.188 5.188 C5.352 5.683 5.352 5.683 6.188 8.188 C3.016 10.042 0.624 10.456 -3.031 10.531 C-4.051 10.56 -5.072 10.589 -6.092 10.617 C-6.355 10.623 -6.355 10.623 -7.689 10.652 C-16.522 10.847 -25.163 11.234 -33.812 13.188 C-33.812 13.848 -33.812 14.508 -33.812 15.188 C-34.442 15.444 -35.071 15.701 -35.719 15.965 C-44.744 20.002 -50.57 25.511 -54.312 34.75 C-54.832 36.222 -55.34 37.699 -55.812 39.188 C-57.133 38.858 -58.453 38.528 -59.812 38.188 C-59.812 37.528 -59.812 36.867 -59.812 36.188 C-60.431 35.878 -61.05 35.569 -61.688 35.25 C-63.062 34.562 -64.438 33.875 -65.812 33.188 C-66.887 40.168 -67.129 47.142 -67.375 54.188 C-67.418 55.355 -67.462 56.523 -67.506 57.691 C-67.612 60.523 -67.713 63.355 -67.812 66.188 C-69.132 65.858 -70.453 65.528 -71.812 65.188 C-71.876 57.52 -71.871 49.855 -71.812 42.188 C-71.812 41.503 -71.812 40.819 -71.811 40.114 C-71.752 30.284 -68.305 21.758 -61.812 14.375 C-52.362 5.769 -39.525 2.165 -27.125 1.062 C-26.657 1.02 -26.657 1.02 -24.288 0.807 C-16.197 0.134 -8.116 -0.001 0 0 Z " fill="#15336E" transform="translate(78.8125,3.8125)"/>
<path d="M0 0 C1.32 0 2.64 0 4 0 C4.025 0.835 4.05 1.671 4.076 2.532 C4.172 5.704 4.272 8.876 4.372 12.048 C4.415 13.408 4.457 14.767 4.497 16.126 C4.713 23.327 4.978 30.522 5.438 37.711 C5.47 38.28 5.502 38.848 5.536 39.434 C5.872 44.272 6.886 48.228 10 52 C12.055 53.752 14.13 55.297 16.391 56.773 C16.922 57.178 17.453 57.583 18 58 C18 58.66 18 59.32 18 60 C18.742 60.268 19.485 60.536 20.25 60.812 C23 62 23 62 25.062 63.688 C27 65 27 65 29.25 64.688 C29.828 64.461 30.405 64.234 31 64 C31.124 63.031 31.248 62.061 31.375 61.062 C31.586 59.41 31.586 59.41 32 58 C32.66 57.67 33.32 57.34 34 57 C35.07 55.371 35.07 55.371 36.125 53.438 C36.478 52.797 36.831 52.156 37.195 51.496 C37.328 51.249 37.328 51.249 38 50 C38.66 50 39.32 50 40 50 C40.113 49.738 40.113 49.738 40.688 48.414 C42.469 45.137 44.707 42.309 47 39.375 C47.226 39.082 47.226 39.082 48.367 37.602 C50.17 35.276 51.916 33.084 54 31 C55.645 24.643 55.313 17.551 55.562 11 C55.606 9.928 55.649 8.857 55.693 7.785 C55.799 5.19 55.901 2.595 56 0 C57.32 0.33 58.64 0.66 60 1 C59.01 1 58.02 1 57 1 C57.021 1.946 57.042 2.892 57.063 3.867 C57.137 7.46 57.182 11.054 57.22 14.647 C57.24 16.187 57.267 17.727 57.302 19.267 C57.622 33.687 56.531 47.926 47.5 59.75 C47.115 60.258 46.729 60.766 46.332 61.289 C45.355 62.545 44.369 63.794 43.379 65.039 C35.308 75.213 30.294 81.729 31 95 C37.27 94.34 43.54 93.68 50 93 C50 92.34 50 91.68 50 91 C50.857 90.588 51.714 90.175 52.598 89.75 C62.338 84.899 68.709 80.011 73.078 69.664 C74 68 74 68 75.508 67.168 C77.928 65.274 78.093 62.569 78.625 59.688 C78.75 59.046 78.875 58.405 79.003 57.744 C80.621 48.596 80.758 39.267 81 30 C81.33 30.66 81.33 30.66 83 34 C82.977 33.374 82.954 32.747 82.93 32.102 C82.912 31.284 82.894 30.467 82.875 29.625 C82.852 28.813 82.829 28.001 82.805 27.164 C83 25 83 25 85 23 C85.57 47.046 85.57 47.046 83.688 58.188 C83.629 58.543 83.629 58.543 83.331 60.339 C82.511 64.672 81.14 68.145 79 72 C78.34 72 77.68 72 77 72 C75.976 73.547 75.075 75.065 74.188 76.688 C68.795 86.032 61.57 91.13 51.273 94.422 C46.516 95.632 42.071 96.124 37.164 96.098 C36.64 96.096 36.116 96.095 35.576 96.093 C33.925 96.088 32.275 96.075 30.625 96.062 C29.496 96.057 28.367 96.053 27.238 96.049 C24.492 96.038 21.746 96.021 19 96 C19 95.67 19 95.34 19 95 C22.3 95 25.6 95 29 95 C30.007 82.6 25.214 76.155 17.493 66.866 C15.364 64.205 13.533 61.4 11.75 58.5 C11.463 58.037 11.176 57.574 10.88 57.097 C10.248 56.068 9.623 55.035 9 54 C8.34 54.66 7.68 55.32 7 56 C3.561 48.784 2.432 43.178 2.609 35.18 C2.615 34.195 2.621 33.21 2.627 32.196 C2.642 29.614 2.681 27.034 2.725 24.453 C2.767 21.805 2.785 19.156 2.805 16.508 C2.847 11.338 2.915 6.169 3 1 C2.01 0.67 1.02 0.34 0 0 Z " fill="#B5B7BB" transform="translate(45,20)"/>
<path d="M0 0 C1.427 0.336 1.427 0.336 3 1 C3.9 3.01 4.625 4.919 5.312 7 C9.149 17.682 14.828 26.243 25.375 31.25 C33.512 34.832 41.811 35.349 50.555 35.316 C52.3 35.313 54.043 35.336 55.787 35.361 C67.855 35.43 81.358 33.235 90.688 24.875 C93.44 21.837 95.513 18.177 97.591 14.658 C98.343 13.407 99.167 12.199 100 11 C100.66 11 101.32 11 102 11 C102.66 9.35 103.32 7.7 104 6 C104.875 7.991 105.178 9.429 104.523 11.53 C103.723 13.329 102.855 15.07 101.938 16.812 C101.611 17.438 101.284 18.064 100.948 18.709 C95.205 29.437 87.836 34.651 76.312 38.312 C59.469 42.152 34.616 43.325 19.133 34.383 C18.429 33.926 17.725 33.47 17 33 C16.379 32.626 15.757 32.252 15.117 31.867 C7.528 26.456 2.407 15.668 0.738 6.667 C0.409 4.449 0.166 2.235 0 0 Z " fill="#313232" transform="translate(22,80)"/>
<path d="M0 0 C0.33 0.66 0.33 0.66 2 4 C1.34 4 0.68 4 0 4 C-0.66 7.63 -1.32 11.26 -2 15 C-1.01 15 -0.02 15 1 15 C1 18 1 18 -0.328 19.43 C-4.332 22.44 -8.339 24.805 -12.938 26.75 C-13.403 26.948 -13.868 27.147 -14.347 27.351 C-15.882 27.964 -17.426 28.494 -19 29 C-19.288 29.096 -19.288 29.096 -20.748 29.58 C-28.965 31.85 -37.618 31.215 -46.062 31.125 C-47.708 31.115 -49.353 31.106 -50.998 31.098 C-54.999 31.076 -58.999 31.042 -63 31 C-63 29.68 -63 28.36 -63 27 C-58.886 26.25 -54.885 25.805 -50.711 25.605 C-49.509 25.537 -48.307 25.467 -47.105 25.396 C-45.25 25.29 -43.395 25.188 -41.539 25.101 C-29.405 24.518 -17.387 22.439 -8 14 C-4.448 9.677 -1.965 5.201 0 0 Z " fill="#0B2B69" transform="translate(124,94)"/>
<path d="M0 0 C0.33 0 0.66 0 1 0 C0.99 0.777 0.979 1.554 0.968 2.355 C0.932 5.236 0.909 8.117 0.89 10.999 C0.88 12.246 0.866 13.493 0.849 14.741 C0.825 16.533 0.814 18.325 0.805 20.117 C0.794 20.676 0.784 21.234 0.773 21.809 C0.773 23.386 0.773 23.386 1 26 C1.66 26.66 2.32 27.32 3 28 C3.575 29.721 3.575 29.721 4.043 31.781 C7.075 44.298 10.723 54.567 22 62 C28.545 65.509 34.358 67.152 41.812 67.062 C42.788 67.053 43.764 67.044 44.77 67.035 C45.506 67.024 46.242 67.012 47 67 C46.555 66.229 46.111 65.458 45.652 64.664 C45.08 63.651 44.509 62.638 43.938 61.625 C43.643 61.117 43.348 60.609 43.045 60.086 C42.302 58.757 41.644 57.38 41 56 C41.165 55.67 41.165 55.67 42 54 C42.082 53.67 42.082 53.67 42.5 52 C43 50 43 50 44 48 C47.665 51.513 50.09 54.532 50.398 59.648 C50.441 63.111 50.262 66.548 50 70 C37.81 71.632 27.852 70.668 17.316 63.785 C9.079 57.437 3.002 48.712 1.188 38.312 C1.126 37.549 1.064 36.786 1 36 C0.763 35.938 0.763 35.938 -0.438 35.625 C-2 35 -2 35 -3 33 C-4.112 24.696 -4.121 16.361 -4 8 C-3.34 8.66 -2.68 9.32 -2 10 C-1.34 6.7 -0.68 3.4 0 0 Z " fill="#505359" transform="translate(24,45)"/>
<path d="M0 0 C2.179 0.011 4.357 0 6.535 -0.013 C14.699 -0.022 22.96 0.048 30.881 2.261 C31.541 2.921 32.201 3.581 32.881 4.261 C30.901 4.591 28.921 4.921 26.881 5.261 C25.231 10.541 23.581 15.821 21.881 21.261 C21.551 21.261 21.221 21.261 20.881 21.261 C20.781 16.779 20.791 12.622 21.881 8.261 C15.84 7.295 9.893 7.105 3.781 7.13 C2.251 7.136 0.723 7.13 -0.806 7.124 C-5.695 7.13 -10.333 7.232 -15.119 8.261 C-14.851 8.921 -14.583 9.581 -14.306 10.261 C-13.102 13.269 -11.973 16.304 -10.849 19.343 C-10.257 20.897 -9.604 22.427 -8.931 23.948 C-8.027 26.523 -8.046 28.553 -8.119 31.261 C-7.789 31.921 -7.459 32.581 -7.119 33.261 C-7.779 34.251 -8.439 35.241 -9.119 36.261 C-12.419 26.031 -15.719 15.801 -19.119 5.261 C-21.429 4.931 -23.739 4.601 -26.119 4.261 C-18.829 -1.078 -8.603 -0.05 0 0 Z " fill="#343945" transform="translate(71.118896484375,13.7392578125)"/>
<path d="M0 0 C0.66 0.33 1.32 0.66 2 1 C1.348 1.461 0.695 1.923 0.023 2.398 C-9.596 9.465 -15.13 17.937 -17 30 C-17.538 34.655 -17.802 39.32 -18 44 C-17.01 44.33 -16.02 44.66 -15 45 C-14.34 39.39 -13.68 33.78 -13 28 C-12.67 28 -12.34 28 -12 28 C-12.007 28.43 -12.013 28.86 -12.02 29.304 C-12.088 33.864 -12.132 38.424 -12.165 42.984 C-12.18 44.676 -12.2 46.368 -12.226 48.06 C-12.378 58.061 -11.967 67.356 -9.65 77.109 C-9 80 -9 80 -9 83 C-8.092 83.144 -7.185 83.289 -6.25 83.438 C-3.794 84.223 -3.1 84.84 -1.711 87.066 C1 93.142 1 93.142 1 96 C-2.755 95.493 -4.605 94.955 -7 92 C-7.825 90.093 -8.537 88.274 -9.188 86.312 C-9.365 85.801 -9.542 85.29 -9.725 84.764 C-10.158 83.512 -10.58 82.256 -11 81 C-11.66 81 -12.32 81 -13 81 C-13.33 82.65 -13.66 84.3 -14 86 C-15.985 82.529 -16.774 79.122 -17.562 75.25 C-17.625 74.959 -17.625 74.959 -17.943 73.484 C-22.029 53.976 -22.991 30.411 -13.25 12.5 C-9.915 7.404 -5.501 2.751 0 0 Z " fill="#949595" transform="translate(20,10)"/>
<path d="M0 0 C0.33 0 0.66 0 1 0 C2.268 4.901 2.192 9.774 2.188 14.812 C2.187 15.275 2.187 15.275 2.187 17.617 C2.12 25.841 1.407 33.898 0 42 C-0.125 42.782 -0.25 43.565 -0.379 44.371 C-0.584 44.909 -0.789 45.446 -1 46 C-1.477 46.136 -1.954 46.272 -2.445 46.411 C-4 47 -4 47 -4.846 48.339 C-4.955 48.621 -4.955 48.621 -5.504 50.047 C-5.752 50.678 -5.999 51.309 -6.254 51.959 C-7.763 56.089 -9.252 60.226 -10.662 64.391 C-12.091 68.372 -13.139 70.832 -17 73 C-17 72.34 -17 71.68 -17 71 C-17.99 71 -18.98 71 -20 71 C-19.688 69.271 -19.375 67.542 -19.062 65.812 C-18.888 64.85 -18.714 63.887 -18.535 62.895 C-18.048 60.257 -17.529 57.629 -17 55 C-15.394 46.7 -14.149 38.373 -13 30 C-12.67 30 -12.34 30 -12 30 C-11.89 34.808 -12.056 39.279 -13 44 C-12.01 44 -11.02 44 -10 44 C-10 43.34 -10 42.68 -10 42 C-9.34 42 -8.68 42 -8 42 C-7.01 42.99 -6.02 43.98 -5 45 C-4.34 33.45 -3.68 21.9 -3 10 C-2.67 10 -2.34 10 -2 10 C-2 14.62 -2 19.24 -2 24 C-1.34 24 -0.68 24 0 24 C0 16.08 0 8.16 0 0 Z " fill="#12316E" transform="translate(142,38)"/>
<path d="M0 0 C6.869 5.643 8.814 14.547 10 23 C10.352 27.306 10.338 31.62 10.312 35.938 C10.312 36.523 10.311 37.108 10.31 37.71 C10.224 64.301 10.224 64.301 5 73 C5 70.69 5 68.38 5 66 C4.01 66 3.02 66 2 66 C1.902 66.545 1.804 67.091 1.703 67.652 C-1.092 81.747 -1.092 81.747 -5.301 85.008 C-7.214 85.809 -8.937 86 -11 86 C-10.71 85.136 -10.42 84.273 -10.121 83.383 C-9.405 81.238 -8.709 79.088 -8.035 76.93 C-7.711 75.911 -7.387 74.893 -7.062 73.875 C-6.906 73.363 -6.749 72.851 -6.588 72.324 C-5.546 69.093 -4.391 66.505 -2 64 C-1.01 64 -0.02 64 1 64 C1.061 63.397 1.121 62.793 1.184 62.172 C1.267 61.373 1.351 60.573 1.438 59.75 C1.478 59.356 1.478 59.356 1.684 57.359 C2 55 2 55 2.531 52.938 C3.009 50.961 3.101 49.277 3.062 47.25 C3.053 46.636 3.044 46.023 3.035 45.391 C3.024 44.932 3.012 44.473 3 44 C3.33 44 3.66 44 4 44 C4.33 41.69 4.66 39.38 5 37 C5.495 36.835 5.495 36.835 8 36 C8.502 24.957 6.632 15.477 2.121 5.496 C1.298 3.664 0.575 1.917 0 0 Z " fill="#B3B3B3" transform="translate(140,20)"/>
<path d="M0 0 C1.391 0.191 1.391 0.191 3 1 C3.922 3.152 3.922 3.152 4.75 5.938 C7.527 14.446 12.619 20.813 19 27 C19 27.66 19 28.32 19 29 C19.639 29.248 20.279 29.495 20.938 29.75 C22.611 30.403 24.206 31.104 25.809 31.918 C39.602 38.723 54.886 38.509 69.938 38.688 C71.893 38.721 73.848 38.755 75.803 38.791 C80.535 38.875 85.267 38.944 90 39 C87.131 40.624 85.05 41.256 81.761 41.291 C80.932 41.303 80.103 41.316 79.249 41.329 C78.803 41.33 78.803 41.33 76.547 41.336 C75.614 41.343 74.681 41.349 73.72 41.356 C71.739 41.366 69.759 41.372 67.778 41.371 C64.802 41.37 61.827 41.411 58.852 41.449 C42.908 41.544 28.531 39.896 15 31 C14.42 30.634 13.84 30.268 13.242 29.891 C8.477 26.447 5.651 21.238 2.732 16.248 C2.137 15.233 1.517 14.231 0.891 13.234 C-1.373 9.348 -1.55 5.431 -1 1 C-0.67 0.67 -0.34 0.34 0 0 Z " fill="#5C5C5D" transform="translate(7,90)"/>
<path d="M0 0 C0.75 1.75 0.75 1.75 1 4 C-1.538 7.221 -4.458 9.002 -8 11 C-8.474 11.351 -8.949 11.701 -9.438 12.062 C-13.869 14.721 -17.934 15.11 -23 15 C-24.928 15.397 -26.74 15.915 -28.609 16.525 C-32.114 17.222 -35.567 17.163 -39.133 17.168 C-39.529 17.17 -39.529 17.17 -41.532 17.178 C-43.208 17.183 -44.885 17.185 -46.561 17.185 C-49.095 17.187 -51.629 17.206 -54.164 17.225 C-62.388 17.253 -70.012 17.098 -78 15 C-78.419 14.923 -78.419 14.923 -80.536 14.536 C-82.799 14.044 -84.505 13.423 -86.551 12.371 C-87.166 12.058 -87.782 11.746 -88.416 11.424 C-89.042 11.098 -89.668 10.773 -90.312 10.438 C-90.635 10.273 -90.635 10.273 -92.268 9.439 C-93.848 8.632 -95.425 7.818 -97 7 C-97 5.02 -97 3.04 -97 1 C-94.282 2.302 -91.811 3.756 -89.312 5.438 C-77.606 12.781 -63.8 13.389 -50.375 13.312 C-49.716 13.311 -49.056 13.309 -48.377 13.307 C-32.276 13.232 -13.374 12.577 -0.891 0.918 C-0.597 0.615 -0.303 0.312 0 0 Z " fill="#A8ADB7" transform="translate(123,112)"/>
<path d="M0 0 C0.828 -0.001 1.655 -0.001 2.508 -0.002 C19.596 0.02 36.401 0.782 52.125 8.25 C52.29 8.58 52.29 8.58 53.125 10.25 C52.517 10.045 51.908 9.84 51.281 9.629 C42.955 7.07 34.801 6.546 26.125 6.25 C26.125 5.59 26.125 4.93 26.125 4.25 C24.64 4.415 24.64 4.415 17.125 5.25 C17.125 4.59 17.125 3.93 17.125 3.25 C16.612 3.322 16.099 3.394 15.57 3.469 C6.773 4.535 -2.028 4.344 -10.875 4.25 C-10.875 4.58 -10.875 4.91 -10.875 5.25 C-11.839 5.238 -12.803 5.227 -13.797 5.215 C-15.073 5.205 -16.349 5.196 -17.625 5.188 C-18.259 5.179 -18.893 5.171 -19.547 5.162 C-22.866 5.145 -25.654 5.397 -28.875 6.25 C-30.376 6.22 -31.877 6.155 -33.375 6.062 C-38.371 5.973 -42.34 7.143 -46.939 8.915 C-48.234 9.407 -49.554 9.834 -50.875 10.25 C-51.535 9.92 -52.195 9.59 -52.875 9.25 C-46.609 6.347 -40.462 3.928 -33.688 2.5 C-33.143 2.385 -32.598 2.27 -32.037 2.151 C-30.32 1.814 -28.603 1.522 -26.875 1.25 C-26.281 1.154 -25.687 1.059 -25.075 0.96 C-16.778 -0.165 -8.357 0.006 0 0 Z " fill="#B9BABA" transform="translate(74.875,-0.24999999999999997)"/>
<path d="M0 0 C0.33 0 0.66 0 1 0 C1.57 24.046 1.57 24.046 -0.312 35.188 C-0.371 35.543 -0.371 35.543 -0.669 37.339 C-1.489 41.672 -2.86 45.145 -5 49 C-5.66 49 -6.32 49 -7 49 C-8.024 50.547 -8.925 52.065 -9.812 53.688 C-15.166 62.964 -22.457 68.274 -32.746 71.441 C-36.136 72.281 -39.522 72.725 -43 73 C-43 72.34 -43 71.68 -43 71 C-41.515 70.835 -41.515 70.835 -34 70 C-34 69.34 -34 68.68 -34 68 C-33.143 67.588 -32.286 67.175 -31.402 66.75 C-21.662 61.899 -15.291 57.011 -10.922 46.664 C-10 45 -10 45 -8.492 44.168 C-6.072 42.274 -5.907 39.569 -5.375 36.688 C-5.25 36.046 -5.125 35.405 -4.997 34.744 C-3.379 25.596 -3.242 16.267 -3 7 C-2.34 8.32 -1.68 9.64 -1 11 C-1.012 10.374 -1.023 9.747 -1.035 9.102 C-1.044 8.284 -1.053 7.467 -1.062 6.625 C-1.074 5.813 -1.086 5.001 -1.098 4.164 C-1 2 -1 2 0 0 Z " fill="#424752" transform="translate(129,43)"/>
<path d="M0 0 C6.153 0.385 10.669 4.512 14.742 8.859 C21.539 17.313 22.516 26.147 22.375 36.625 C22.372 37.194 22.37 37.763 22.367 38.349 C22.317 47.498 21.453 56.15 19 65 C18.505 65.165 18.505 65.165 16 66 C16.072 65.67 16.072 65.67 16.438 64 C19.295 49.423 21.09 29.561 14 16 C11.908 13.024 9.643 10.49 7 8 C5.999 7.001 4.998 6.002 4 5 C4.33 4.34 4.66 3.68 5 3 C3.35 2.67 1.7 2.34 0 2 C0 1.34 0 0.68 0 0 Z " fill="#232833" transform="translate(104,21)"/>
<path d="M0 0 C1.376 1.986 2.521 3.96 3.551 6.145 C3.694 6.442 3.694 6.442 4.42 7.947 C5.008 9.177 5.592 10.408 6.17 11.643 C10.239 20.024 15.713 25.721 24.598 28.941 C27.054 29.69 29.51 30.373 32 31 C32.57 31.172 33.141 31.344 33.728 31.521 C36.715 32.151 39.599 32.2 42.645 32.238 C42.966 32.243 42.966 32.243 44.591 32.268 C79.187 32.689 79.187 32.689 90.929 22.096 C94.148 18.802 96.618 14.919 99 11 C99.707 12.168 99.707 12.168 100 14 C98.98 15.952 97.984 17.557 96.688 19.312 C96.326 19.802 95.964 20.292 95.591 20.797 C88.794 29.502 78.582 33.227 67.855 34.562 C51.161 36.281 30.643 37.494 16 28 C15.379 27.626 14.757 27.252 14.117 26.867 C9.625 23.665 7.216 19.315 4.625 14.562 C4.279 13.93 3.932 13.297 3.576 12.645 C1.418 8.457 0.339 4.7 0 0 Z " fill="#0A0D16" transform="translate(23,85)"/>
<path d="M0 0 C1.953 0.746 1.953 0.746 4 2 C4.609 3.785 4.609 3.785 4.75 6.062 C4.805 6.938 4.861 7.813 4.918 8.715 C5.131 15.473 5.077 22.24 5 29 C4.01 28.67 3.02 28.34 2 28 C1.01 34.93 0.02 41.86 -1 49 C-1.99 48.67 -2.98 48.34 -4 48 C-4 47.34 -4 46.68 -4 46 C-4.66 46 -5.32 46 -6 46 C-6 46.66 -6 47.32 -6 48 C-6.99 48 -7.98 48 -9 48 C-8.889 45.437 -8.759 42.875 -8.625 40.312 C-8.594 39.591 -8.563 38.87 -8.531 38.127 C-8.305 33.989 -7.814 30.739 -6 27 C-5.438 28.375 -5.438 28.375 -5 30 C-5.33 30.66 -5.66 31.32 -6 32 C-5.34 32.33 -4.68 32.66 -4 33 C-4.66 33 -5.32 33 -6 33 C-5.524 35.096 -5.184 35.86 -3.438 37.188 C-2.963 37.456 -2.489 37.724 -2 38 C-1.142 35.767 -0.881 33.941 -0.902 31.554 C-0.904 31.216 -0.904 31.216 -0.912 29.502 C-0.921 28.777 -0.929 28.052 -0.938 27.305 C-0.941 26.557 -0.945 25.809 -0.949 25.038 C-0.961 22.65 -0.98 20.263 -1 17.875 C-1.026 14.727 -1.047 11.578 -1.062 8.43 C-1.071 7.701 -1.079 6.971 -1.088 6.22 C-1.091 5.549 -1.094 4.878 -1.098 4.187 C-1.103 3.594 -1.108 3.002 -1.114 2.391 C-1 1 -1 1 0 0 Z " fill="#0B2A67" transform="translate(138,34)"/>
<path d="M0 0 C0 0.99 0 1.98 0 3 C-1.32 3.33 -2.64 3.66 -4 4 C-4 4.66 -4 5.32 -4 6 C-4.443 6.186 -4.443 6.186 -6.688 7.125 C-13.45 10.562 -16.549 17.09 -19 24 C-19.939 27.869 -20.134 31.445 -20.098 35.395 C-20.096 35.987 -20.095 36.579 -20.093 37.189 C-20.088 39.064 -20.075 40.938 -20.062 42.812 C-20.057 44.09 -20.053 45.368 -20.049 46.646 C-20.038 49.764 -20.021 52.882 -20 56 C-22.728 53.509 -23.865 51.881 -24.129 48.198 C-24.131 47.535 -24.132 46.873 -24.133 46.191 C-24.135 45.45 -24.138 44.709 -24.14 43.946 C-24.12 40.709 -24.092 37.474 -24.037 34.238 C-24.015 32.879 -23.998 31.52 -23.994 30.16 C-23.938 20.855 -21.314 13.604 -14.965 6.828 C-10.261 2.573 -6.539 -0.363 0 0 Z " fill="#303A4E" transform="translate(48,21)"/>
<path d="M0 0 C1.005 0.616 2.004 1.243 3 1.875 C3.557 2.223 4.114 2.571 4.688 2.93 C5.121 3.283 5.554 3.636 6 4 C6 4.66 6 5.32 6 6 C6.66 6 7.32 6 8 6 C8.33 5.34 8.66 4.68 9 4 C9.141 9.751 8.731 15.298 8 21 C7.952 21.387 7.952 21.387 7.711 23.348 C7.478 25.232 7.241 27.116 7 29 C6.67 28.34 6.34 27.68 6 27 C5.34 27 4.68 27 4 27 C4 27.66 4 28.32 4 29 C1.5 30.625 1.5 30.625 -1 32 C-1.206 9.199 -1.206 9.199 0 0 Z " fill="#102F6E" transform="translate(13,36)"/>
<path d="M0 0 C0.99 0.33 1.98 0.66 3 1 C1.7 7.706 -0.218 14.092 -2.404 20.548 C-2.939 22.128 -3.465 23.71 -3.99 25.293 C-5.774 30.627 -7.643 35.886 -10 41 C-10.66 41 -11.32 41 -12 41 C-12.864 38.878 -13.716 36.753 -14.562 34.625 C-14.809 34.022 -15.056 33.418 -15.311 32.797 C-15.539 32.217 -15.768 31.637 -16.004 31.039 C-16.219 30.505 -16.433 29.971 -16.655 29.42 C-17 28 -17 28 -16 26 C-15.539 26.003 -15.539 26.003 -13.203 26.02 C-11.568 25.795 -11.568 25.795 -10 25 C-8.033 21.78 -6.925 18.254 -5.75 14.688 C-5.411 13.713 -5.07 12.74 -4.727 11.768 C-4.094 9.971 -3.473 8.171 -2.866 6.366 C-2.052 4.143 -1.103 2.092 0 0 Z " fill="#626468" transform="translate(86,43)"/>
<path d="M0 0 C0.296 -0 0.296 -0 1.795 -0.002 C17.516 -0 17.516 -0 22.188 1.188 C22.352 1.518 22.352 1.518 23.188 3.188 C25.25 3.812 25.25 3.812 27.188 4.188 C24.896 5.333 23.912 5.239 21.391 5.066 C20.999 5.042 20.999 5.042 19.018 4.919 C18.167 4.864 17.315 4.808 16.438 4.75 C-25.321 2.354 -25.321 2.354 -39.762 7.566 C-41.889 8.211 -43.604 8.302 -45.812 8.188 C-45.812 7.527 -45.812 6.867 -45.812 6.188 C-42.843 5.527 -39.873 4.867 -36.812 4.188 C-36.812 3.527 -36.812 2.867 -36.812 2.188 C-24.518 0.755 -12.374 -0.015 0 0 Z " fill="#1A2B4E" transform="translate(78.8125,3.8125)"/>
<path d="M0 0 C1.32 0 2.64 0 4 0 C4.025 0.835 4.05 1.671 4.076 2.532 C4.172 5.704 4.272 8.876 4.372 12.048 C4.415 13.408 4.457 14.767 4.497 16.126 C4.713 23.327 4.978 30.522 5.438 37.711 C5.47 38.28 5.502 38.848 5.536 39.434 C5.872 44.272 6.886 48.228 10 52 C12.055 53.752 14.13 55.297 16.391 56.773 C16.922 57.178 17.453 57.583 18 58 C18 58.66 18 59.32 18 60 C18.742 60.268 19.485 60.536 20.25 60.812 C23 62 23 62 25 63.688 C27 65 27 65 29.75 64.688 C30.493 64.461 31.235 64.234 32 64 C30.667 66.667 29.333 69.333 28 72 C27.801 71.861 27.801 71.861 26.793 71.16 C26.263 70.798 25.733 70.436 25.188 70.062 C24.926 69.883 24.926 69.883 23.605 68.973 C22.081 68.049 20.707 67.487 19 67 C19 66.34 19 65.68 19 65 C18.01 65 17.02 65 16 65 C15.017 63.99 15.017 63.99 14.176 62.594 C13.87 62.097 13.563 61.601 13.248 61.09 C12.939 60.565 12.631 60.041 12.312 59.5 C11.992 58.975 11.672 58.451 11.342 57.91 C10.551 56.613 9.774 55.307 9 54 C8.34 54.66 7.68 55.32 7 56 C3.561 48.784 2.432 43.178 2.609 35.18 C2.615 34.195 2.621 33.21 2.627 32.196 C2.642 29.614 2.681 27.034 2.725 24.453 C2.767 21.805 2.785 19.156 2.805 16.508 C2.847 11.338 2.915 6.169 3 1 C2.01 0.67 1.02 0.34 0 0 Z " fill="#CDCECE" transform="translate(45,20)"/>
<path d="M0 0 C3.331 0.43 5.864 1.383 8.875 2.875 C22.109 8.814 36.707 8.519 50.938 8.688 C52.893 8.721 54.848 8.755 56.803 8.791 C61.535 8.875 66.267 8.944 71 9 C68.131 10.624 66.05 11.256 62.761 11.291 C62.346 11.297 62.346 11.297 60.249 11.329 C59.803 11.33 59.803 11.33 57.547 11.336 C56.614 11.343 55.681 11.349 54.72 11.356 C52.739 11.366 50.759 11.372 48.778 11.371 C45.802 11.37 42.827 11.411 39.852 11.449 C27.191 11.525 11.952 11.537 1 4 C0.125 1.812 0.125 1.812 0 0 Z " fill="#505051" transform="translate(26,120)"/>
<path d="M0 0 C0 3.168 -0.628 4.256 -2 7 C-2 7.99 -2 8.98 -2 10 C-14.616 17.4 -29.272 20.194 -43.777 20.098 C-44.589 20.096 -45.4 20.095 -46.236 20.093 C-48.803 20.088 -51.37 20.075 -53.938 20.062 C-55.688 20.057 -57.439 20.053 -59.189 20.049 C-63.46 20.038 -67.73 20.021 -72 20 C-72 19.67 -72 19.34 -72 19 C-60.12 18.67 -48.24 18.34 -36 18 C-36.165 17.67 -36.165 17.67 -37 16 C-36.532 15.93 -36.064 15.86 -35.582 15.788 C-21.419 13.621 -10.276 10.623 0 0 Z " fill="#747474" transform="translate(129,112)"/>
<path d="M0 0 C2.179 0.011 4.357 0 6.535 -0.013 C14.699 -0.022 22.96 0.048 30.881 2.261 C31.541 2.921 32.201 3.581 32.881 4.261 C31.675 4.46 30.466 4.644 29.256 4.823 C28.583 4.928 27.91 5.032 27.217 5.14 C24.881 5.261 24.881 5.261 22.264 4.774 C18.317 4.086 14.416 4.136 10.42 4.163 C10.025 4.164 10.025 4.164 8.025 4.167 C5.518 4.173 3.012 4.185 0.506 4.198 C-1.201 4.203 -2.908 4.208 -4.615 4.212 C-8.783 4.223 -12.951 4.24 -17.119 4.261 C-17.119 4.921 -17.119 5.581 -17.119 6.261 C-18.604 5.931 -18.604 5.931 -26.119 4.261 C-18.458 -0.846 -8.87 -0.052 0 0 Z " fill="#A6A9AF" transform="translate(71.118896484375,13.7392578125)"/>
<path d="M0 0 C1 2 1 2 0.609 3.602 C-3.018 12.142 -8.635 19.486 -14 27 C-14.42 27.593 -14.84 28.187 -15.272 28.798 C-16.385 30.369 -17.503 31.936 -18.625 33.5 C-18.955 33.963 -19.286 34.425 -19.626 34.902 C-20.392 35.954 -21.192 36.98 -22 38 C-22.33 38 -22.66 38 -23 38 C-23.754 30.463 -23.754 30.463 -22.203 27.453 C-21.4 26.519 -20.56 25.616 -19.695 24.738 C-17.001 21.975 -14.688 18.897 -12.299 15.87 C-10.566 13.723 -9.079 12.057 -6.824 10.426 C-4.642 8.72 -4.177 7.494 -3.375 4.875 C-2.711 2.742 -2.711 2.742 -2 1 C-1.34 0.67 -0.68 0.34 0 0 Z " fill="#888889" transform="translate(99,63)"/>
<path d="M0 0 C0.165 0.495 0.165 0.495 1 3 C0.533 3.077 0.067 3.155 -0.414 3.234 C-2 4 -2 4 -2.773 5.891 C-2.972 6.669 -3.17 7.448 -3.375 8.25 C-4.526 12.018 -5.608 14.128 -8.547 16.695 C-10.357 18.32 -11.906 20.101 -13.5 21.938 C-13.773 22.251 -13.773 22.251 -15.156 23.84 C-15.46 24.196 -15.46 24.196 -17 26 C-17.43 26.387 -17.86 26.774 -18.303 27.173 C-22.388 31.181 -22.682 35.169 -22.795 40.703 C-22.801 41.76 -22.807 42.818 -22.812 43.875 C-22.836 44.956 -22.861 46.037 -22.889 47.117 C-22.955 49.746 -22.977 52.369 -23 55 C-19.7 55 -16.4 55 -13 55 C-13 55.33 -13 55.66 -13 56 C-20.26 56 -27.52 56 -35 56 C-35 55.67 -35 55.34 -35 55 C-31.7 55 -28.4 55 -25 55 C-25.012 54.189 -25.023 53.378 -25.035 52.543 C-25.262 30.565 -25.262 30.565 -20 24 C-19.38 23.395 -18.76 22.791 -18.121 22.168 C-15.241 19.356 -13.089 16.024 -10.824 12.715 C-9.929 11.443 -8.969 10.217 -8 9 C-7.34 9 -6.68 9 -6 9 C-5.752 8.443 -5.505 7.886 -5.25 7.312 C-3.765 4.565 -1.998 2.398 0 0 Z " fill="#ADADAE" transform="translate(99,60)"/>
<path d="M0 0 C0.66 0.33 1.32 0.66 2 1 C1.348 1.461 0.695 1.923 0.023 2.398 C-9.596 9.465 -15.13 17.937 -17 30 C-17.538 34.655 -17.802 39.32 -18 44 C-17.01 44.33 -16.02 44.66 -15 45 C-14.67 49.29 -14.34 53.58 -14 58 C-14.33 57.34 -14.66 56.68 -15 56 C-15.99 56 -16.98 56 -18 56 C-18.66 57.32 -19.32 58.64 -20 60 C-21.079 21.924 -21.079 21.924 -10 8 C-6.969 4.918 -3.89 1.945 0 0 Z " fill="#BEBEBE" transform="translate(20,10)"/>
<path d="M0 0 C0.33 0 0.66 0 1 0 C2.268 4.901 2.192 9.774 2.188 14.812 C2.187 15.275 2.187 15.275 2.187 17.617 C2.112 26.861 1.898 37.112 -1 46 C-2.438 46.625 -2.438 46.625 -4 47 C-4.66 47.66 -5.32 48.32 -6 49 C-5.867 48.028 -5.734 47.056 -5.598 46.055 C-4.035 34.048 -3.415 22.091 -3 10 C-2.67 10 -2.34 10 -2 10 C-2 14.62 -2 19.24 -2 24 C-1.34 24 -0.68 24 0 24 C0 16.08 0 8.16 0 0 Z " fill="#43464F" transform="translate(142,38)"/>
<path d="M0 0 C0.33 0 0.66 0 1 0 C0.939 1.064 0.85 2.126 0.75 3.188 C0.727 3.483 0.727 3.483 0.609 4.98 C-0.081 7.267 -1.247 8.575 -2.774 10.374 C-5.546 14.051 -7.571 18.264 -9.75 22.312 C-10.261 23.253 -10.773 24.194 -11.285 25.135 C-12.529 27.42 -13.766 29.709 -15 32 C-6.646 32.092 -6.646 32.092 -2.5 31.5 C-2.165 31.454 -2.165 31.454 -0.469 31.219 C0.016 31.147 0.501 31.074 1 31 C1 31.66 1 32.32 1 33 C-5.43 34.74 -11.349 35.25 -18 35 C-18.108 32.749 -18.187 30.503 -18.25 28.25 C-18.284 27.616 -18.317 26.982 -18.352 26.328 C-18.449 21.665 -18.449 21.665 -17.092 19.654 C-15.984 18.547 -15.984 18.547 -14 17 C-14 18.65 -14 20.3 -14 22 C-13.34 22 -12.68 22 -12 22 C-3.274 6.937 -3.274 6.937 0 0 Z " fill="#4D535F" transform="translate(94,80)"/>
<path d="M0 0 C-0.033 0.321 -0.033 0.321 -0.199 1.943 C-0.92 9.354 -1.297 16.747 -1.562 24.188 C-1.606 25.342 -1.649 26.496 -1.693 27.65 C-1.799 30.433 -1.9 33.217 -2 36 C-3.32 35.67 -4.64 35.34 -6 35 C-6.05 31.926 -6.086 28.852 -6.11 25.778 C-6.12 24.737 -6.133 23.697 -6.151 22.656 C-6.271 15.364 -6.132 8.04 -4 1 C-2 0 -2 0 0 0 Z " fill="#06070A" transform="translate(13,34)"/>
<path d="M0 0 C6.84 5.618 8.887 14.561 10 23 C10.291 27.704 10.191 32.416 10.125 37.125 C10.115 38.38 10.106 39.635 10.098 40.891 C10.076 43.927 10.042 46.964 10 50 C9.34 49.67 8.68 49.34 8 49 C5.375 49.938 5.375 49.938 3 51 C3 48.69 3 46.38 3 44 C3.33 44 3.66 44 4 44 C4.33 41.69 4.66 39.38 5 37 C5.495 36.835 5.495 36.835 8 36 C8.502 24.957 6.632 15.477 2.121 5.496 C1.298 3.664 0.575 1.917 0 0 Z " fill="#BEBFBF" transform="translate(140,20)"/>
<path d="M0 0 C0.33 0 0.66 0 1 0 C0.979 0.693 0.958 1.387 0.937 2.101 C0.574 15.997 0.742 28.815 4.542 42.319 C5.144 44.53 5.586 46.747 6 49 C2.829 45.685 2.328 42.4 1.625 37.926 C1.419 37.29 1.212 36.655 1 36 C-0.5 35.355 -0.5 35.355 -2 35 C-5.658 27.685 -4.117 16.057 -4 8 C-3.34 8.66 -2.68 9.32 -2 10 C-1.34 6.7 -0.68 3.4 0 0 Z " fill="#B3B5B8" transform="translate(24,45)"/>
<path d="M0 0 C0.33 0 0.66 0 1 0 C1.027 1.792 1.047 3.583 1.062 5.375 C1.071 5.883 1.079 6.391 1.088 6.914 C1.104 9.302 1.083 10.833 0 13 C-0.66 13 -1.32 13 -2 13 C-2.227 13.516 -2.454 14.031 -2.688 14.562 C-4.172 17.319 -5.929 19.744 -7.777 22.266 C-8.797 23.712 -9.661 25.135 -10.5 26.688 C-11.989 28.983 -13.479 30.156 -15.66 31.754 C-18.417 34.318 -20.149 37.755 -22 41 C-22.66 40.67 -23.32 40.34 -24 40 C-23.625 37.562 -23.625 37.562 -23 35 C-22.67 34.835 -22.67 34.835 -21 34 C-19.93 32.371 -19.93 32.371 -18.875 30.438 C-18.698 30.117 -18.698 30.117 -17.805 28.496 C-17.539 28.002 -17.274 27.509 -17 27 C-16.34 27 -15.68 27 -15 27 C-14.773 26.477 -14.546 25.953 -14.312 25.414 C-12.531 22.137 -10.293 19.309 -8 16.375 C-7.549 15.79 -7.098 15.205 -6.633 14.602 C-4.83 12.276 -3.084 10.084 -1 8 C-0.586 6.055 -0.586 6.055 -0.375 3.875 C-0.3 3.151 -0.225 2.426 -0.148 1.68 C-0.099 1.125 -0.05 0.571 0 0 Z " fill="#D5D5D5" transform="translate(100,43)"/>
<path d="M0 0 C2.718 1.302 5.189 2.756 7.688 4.438 C14.218 8.557 21.544 10.273 29 12 C29 12.66 29 13.32 29 14 C30.65 14 32.3 14 34 14 C34 14.33 34 14.66 34 15 C32.271 15.054 30.542 15.093 28.812 15.125 C27.85 15.148 26.887 15.171 25.895 15.195 C22.853 14.99 20.778 14.2 18 13 C16.367 12.797 16.367 12.797 14.875 12.75 C9.392 12.13 4.661 8.756 0 6 C0 4.02 0 2.04 0 0 Z " fill="#BEC0C5" transform="translate(26,113)"/>
<path d="M0 0 C0.665 1.149 0.665 1.149 1 3 C0.204 4.983 -0.631 6.751 -1.641 8.621 C-1.782 8.892 -1.782 8.892 -2.498 10.261 C-3.098 11.406 -3.704 12.548 -4.314 13.688 C-5.242 15.423 -6.155 17.164 -7.066 18.908 C-7.653 20.021 -8.24 21.134 -8.828 22.246 C-9.1 22.763 -9.372 23.28 -9.652 23.812 C-11.224 26.74 -12.926 29.387 -15 32 C-15.99 31.67 -16.98 31.34 -18 31 C-17.754 25.251 -16.054 22.073 -12.375 17.75 C-11.465 16.629 -10.559 15.506 -9.656 14.379 C-9.432 14.099 -9.432 14.099 -8.297 12.684 C-5.21 8.676 -2.616 4.323 0 0 Z " fill="#111012" transform="translate(97,71)"/>
<path d="M0 0 C0.33 0 0.66 0 1 0 C1.05 3.377 1.086 6.754 1.11 10.132 C1.12 11.276 1.133 12.42 1.151 13.564 C1.262 21.005 0.821 27.741 -1 35 C-1.66 35 -2.32 35 -3 35 C-3.66 37.64 -4.32 40.28 -5 43 C-5.97 39.118 -5.996 38.196 -5.125 34.562 C-3.294 25.508 -3.315 16.208 -3 7 C-2.34 8.32 -1.68 9.64 -1 11 C-1.012 10.374 -1.023 9.747 -1.035 9.102 C-1.044 8.284 -1.053 7.467 -1.062 6.625 C-1.074 5.813 -1.086 5.001 -1.098 4.164 C-1 2 -1 2 0 0 Z " fill="#A9AEB7" transform="translate(129,43)"/>
<path d="M0 0 C1.427 0.336 1.427 0.336 3 1 C3.9 3.01 4.625 4.919 5.312 7 C8.795 16.696 13.817 25.311 23.305 30.184 C24.821 30.862 26.347 31.517 27.887 32.141 C29.985 32.994 31.986 33.964 34 35 C25.993 35.767 20.641 33.222 14.375 28.375 C6.829 21.498 3.119 11.497 0 2 C0 1.34 0 0.68 0 0 Z " fill="#323333" transform="translate(22,80)"/>
<path d="M0 0 C0.33 0 0.66 0 1 0 C1.573 2.935 2.143 5.871 2.709 8.807 C2.902 9.806 3.096 10.804 3.291 11.802 C3.572 13.238 3.848 14.676 4.125 16.113 C4.293 16.977 4.46 17.841 4.633 18.732 C5 21 5 21 5 24 C5.454 24.072 5.454 24.072 7.75 24.438 C10.206 25.223 10.9 25.84 12.289 28.066 C15 34.142 15 34.142 15 37 C11.243 36.492 9.424 35.924 7 33 C2.31 23.259 -0.907 10.821 0 0 Z " fill="#BCBDC0" transform="translate(6,69)"/>
<path d="M0 0 C1.32 0.33 2.64 0.66 4 1 C5.9 8.968 7.624 16.924 9 25 C7.35 24.67 5.7 24.34 4 24 C3.323 21.127 2.66 18.252 2 15.375 C1.809 14.567 1.618 13.759 1.422 12.926 C0.416 8.507 -0.235 4.531 0 0 Z " fill="#5D5D5F" transform="translate(7,69)"/>
<path d="M0 0 C0.66 0.33 1.32 0.66 2 1 C2 1.99 2 2.98 2 4 C0.461 5.289 0.461 5.289 -1.625 6.625 C-6.912 10.362 -10.129 15.258 -13 21 C-15.062 21.625 -15.062 21.625 -17 22 C-16.712 20.937 -16.419 19.874 -16.125 18.812 C-15.963 18.221 -15.8 17.629 -15.633 17.02 C-14.116 12.18 -12.538 9.093 -8.625 5.812 C-8.238 5.47 -7.852 5.128 -7.453 4.775 C-5.129 2.767 -2.88 1.097 0 0 Z " fill="#2B2B2F" transform="translate(28,11)"/>
<path d="M0 0 C1.953 0.746 1.953 0.746 4 2 C4.609 3.785 4.609 3.785 4.75 6.062 C4.805 6.938 4.861 7.813 4.918 8.715 C5.131 15.473 5.077 22.24 5 29 C4.01 28.67 3.02 28.34 2 28 C1.972 27.715 1.972 27.715 1.832 26.275 C1.577 23.662 1.32 21.05 1.062 18.438 C1.019 17.99 1.019 17.99 0.799 15.725 C0.408 11.768 -0.004 7.837 -0.629 3.91 C-0.751 2.95 -0.874 1.989 -1 1 C-0.67 0.67 -0.34 0.34 0 0 Z " fill="#050405" transform="translate(138,34)"/>
<path d="M0 0 C1.32 0 2.64 0 4 0 C4.025 0.835 4.05 1.671 4.076 2.532 C4.172 5.704 4.272 8.876 4.372 12.048 C4.415 13.408 4.457 14.767 4.497 16.126 C4.713 23.315 4.973 30.501 5.41 37.68 C5.439 38.244 5.468 38.809 5.497 39.39 C5.736 42.943 6.559 45.703 8 49 C8.195 51.02 8.195 51.02 8.125 52.812 C8.107 53.417 8.089 54.022 8.07 54.645 C8.059 54.868 8.059 54.868 8 56 C2.654 49.682 2.719 43.491 2.805 35.57 C2.808 34.57 2.811 33.57 2.813 32.569 C2.821 29.955 2.84 27.342 2.863 24.728 C2.883 22.053 2.892 19.378 2.902 16.703 C2.924 11.469 2.958 6.234 3 1 C2.01 0.67 1.02 0.34 0 0 Z " fill="#AAAFB9" transform="translate(45,20)"/>
<path d="M0 0 C1.627 2.885 2.469 5.638 3.242 8.823 C5.144 16.521 8.029 21.841 13 28 C14.004 29.331 15.005 30.663 16 32 C11.072 30.975 8.036 29.055 5 25 C1.657 17.703 -0.761 9.05 -1 1 C-0.67 0.67 -0.34 0.34 0 0 Z " fill="#51545A" transform="translate(26,73)"/>
<path d="M0 0 C0.165 0.495 0.165 0.495 1 3 C-13.52 3 -28.04 3 -43 3 C-42.67 2.34 -42.34 1.68 -42 1 C-40.184 0.654 -38.526 0.478 -36.688 0.375 C-36.107 0.337 -35.526 0.299 -34.927 0.26 C-23.312 -0.37 -11.628 -0.079 0 0 Z " fill="#1A1C22" transform="translate(92,4)"/>
<path d="M0 0 C0.707 1.168 0.707 1.168 1 3 C-0.02 4.952 -1.016 6.557 -2.312 8.312 C-2.674 8.802 -3.036 9.292 -3.409 9.797 C-9.245 17.272 -17.73 21.331 -27 23 C-30.353 23.207 -33.647 23.193 -37 23 C-37 22.67 -37 22.34 -37 22 C-36.527 21.9 -36.054 21.8 -35.566 21.696 C-17.761 17.87 -17.761 17.87 -12 14 C-11.475 13.655 -10.951 13.309 -10.41 12.953 C-5.795 9.524 -2.969 4.833 0 0 Z " fill="#080A0E" transform="translate(122,96)"/>
<path d="M0 0 C0.99 0.33 1.98 0.66 3 1 C1.612 8.232 -0.582 15.064 -3 22 C-3.33 21.34 -3.66 20.68 -4 20 C-4.66 20 -5.32 20 -6 20 C-5.793 12.392 -3.372 6.658 0 0 Z " fill="#61656D" transform="translate(86,43)"/>
<path d="M0 0 C3.223 3.014 5.653 6.188 8.062 9.875 C8.401 10.379 8.739 10.883 9.088 11.402 C15.155 20.579 15.155 20.579 14.688 24.875 C14.461 25.576 14.234 26.278 14 27 C11.419 24.672 9.916 22.285 8.301 19.219 C8.181 18.991 8.181 18.991 7.574 17.841 C7.071 16.884 6.571 15.926 6.074 14.966 C5.313 13.5 4.539 12.041 3.764 10.582 C3.275 9.649 2.788 8.715 2.301 7.781 C1.859 6.936 1.417 6.091 0.962 5.221 C0 3 0 3 0 0 Z " fill="#0D0D0E" transform="translate(53,73)"/>
<path d="M0 0 C0.176 0.163 0.176 0.163 1.066 0.988 C4.826 4.316 8.358 6.192 13 8 C14.649 8.722 16.295 9.451 17.938 10.188 C18.324 10.36 18.324 10.36 20.277 11.23 C20.846 11.484 21.414 11.738 22 12 C22 12.66 22 13.32 22 14 C24.97 14.33 27.94 14.66 31 15 C31 15.66 31 16.32 31 17 C19.242 15.791 9.395 12.275 1.109 3.516 C0 2 0 2 0 0 Z " fill="#717276" transform="translate(33,99)"/>
<path d="M0 0 C0.844 1.996 1.197 3.406 0.504 5.496 C-0.969 8.556 -2.598 10.598 -5 13 C-6.073 14.451 -7.135 15.91 -8.188 17.375 C-11.453 21.768 -15.158 24.497 -20 27 C-19.339 23.256 -19.339 23.256 -17.836 22.121 C-17.354 21.896 -16.872 21.67 -16.375 21.438 C-12.524 19.136 -10.672 15.744 -8.449 11.972 C-6.862 9.288 -5.335 7.117 -3 5 C-1.117 3.117 -0.662 2.426 0 0 Z " fill="#303131" transform="translate(126,86)"/>
<path d="M0 0 C1.363 0.172 1.363 0.172 3 1 C3.893 2.78 4.56 4.38 5.188 6.25 C5.365 6.728 5.542 7.206 5.725 7.699 C6.845 10.891 7.178 13.633 7 17 C4.484 16.32 2.702 15.833 1 13.812 C-1.301 9.742 -1.571 5.598 -1 1 C-0.67 0.67 -0.34 0.34 0 0 Z " fill="#505051" transform="translate(7,90)"/>
<path d="M0 0 C0.33 0 0.66 0 1 0 C0.881 4.323 0.757 8.647 0.628 12.97 C0.584 14.439 0.543 15.909 0.503 17.378 C0.445 19.496 0.381 21.613 0.316 23.73 C0.3 24.383 0.283 25.035 0.266 25.707 C0.152 29.244 -0.187 32.538 -1 36 C-1.99 36 -2.98 36 -4 36 C-4.66 37.32 -5.32 38.64 -6 40 C-6 35.71 -6 31.42 -6 27 C-4.68 27.33 -3.36 27.66 -2 28 C-1.987 27.665 -1.987 27.665 -1.924 25.968 C-1.828 23.461 -1.729 20.955 -1.628 18.448 C-1.585 17.367 -1.543 16.285 -1.503 15.204 C-1.444 13.642 -1.381 12.081 -1.316 10.52 C-1.298 10.051 -1.298 10.051 -1.205 7.679 C-1.004 5.049 -0.573 2.572 0 0 Z " fill="#8C8C8C" transform="translate(7,38)"/>
<path d="M0 0 C0.99 0 1.98 0 3 0 C3.331 6.199 3.362 10.676 0 16 C-0.99 16 -1.98 16 -3 16 C-3.66 16.66 -4.32 17.32 -5 18 C-4.383 13.677 -3.376 9.743 -1.938 5.625 C-1.751 5.08 -1.565 4.534 -1.373 3.973 C-0.92 2.647 -0.46 1.323 0 0 Z " fill="#373738" transform="translate(142,86)"/>
<path d="M0 0 C0.165 0.33 0.165 0.33 1 2 C0.392 1.795 -0.217 1.59 -0.844 1.379 C-9.17 -1.18 -17.324 -1.704 -26 -2 C-26 -2.66 -26 -3.32 -26 -4 C-27.485 -3.835 -27.485 -3.835 -35 -3 C-35 -3.66 -35 -4.32 -35 -5 C-22.645 -6.454 -11.393 -5.381 0 0 Z " fill="#C8C9C9" transform="translate(127,8)"/>
<path d="M0 0 C4.984 2.077 6.307 5.081 8.398 9.941 C9 12 9 12 8 14 C7.01 13.67 6.02 13.34 5 13 C5 14.98 5 16.96 5 19 C3.307 16.736 2.592 14.816 2 12.062 C1.456 9.683 0.96 7.924 -0.188 5.75 C-1.242 3.48 -0.823 2.306 0 0 Z " fill="#232835" transform="translate(133,22)"/>
<path d="M0 0 C1.083 2.511 0.936 3.803 0.102 6.375 C-1.479 12.176 -1.462 18.027 -1.625 24 C-1.663 25.168 -1.702 26.336 -1.742 27.504 C-1.837 30.336 -1.922 33.168 -2 36 C-3.829 33.658 -4.249 32.146 -4.23 29.191 C-4.229 28.45 -4.228 27.708 -4.227 26.944 C-4.214 26.158 -4.201 25.372 -4.188 24.562 C-4.179 23.759 -4.17 22.956 -4.161 22.129 C-3.892 4.05 -3.892 4.05 -1.457 1.184 C-0.976 0.793 -0.495 0.402 0 0 Z " fill="#1B1B1C" transform="translate(28,38)"/>
<path d="M0 0 C-0.474 0.268 -0.949 0.536 -1.438 0.812 C-3.184 2.14 -3.524 2.904 -4 5 C-3.01 5.33 -2.02 5.66 -1 6 C-4.907 7.839 -7.685 8.201 -12 8 C-12 7.01 -12 6.02 -12 5 C-14.97 4.67 -17.94 4.34 -21 4 C-21 3.67 -21 3.34 -21 3 C-20.566 2.939 -20.566 2.939 -18.367 2.633 C-17.203 2.464 -16.039 2.295 -14.875 2.125 C-14.305 2.046 -13.735 1.968 -13.148 1.887 C-10.202 1.451 -7.501 0.882 -4.695 -0.133 C-2 -1 -2 -1 0 0 Z " fill="#0B275D" transform="translate(107,116)"/>
<path d="M0 0 C2.31 0 4.62 0 7 0 C7.195 1.937 7.381 3.874 7.562 5.812 C7.619 6.36 7.675 6.907 7.732 7.471 C8.189 12.49 8.189 12.49 7 15 C6.34 15 5.68 15 5 15 C4.163 12.877 3.33 10.751 2.5 8.625 C2.262 8.022 2.023 7.418 1.777 6.797 C1.552 6.217 1.326 5.637 1.094 5.039 C0.989 4.772 0.989 4.772 0.459 3.42 C0 2 0 2 0 0 Z " fill="#69696B" transform="translate(69,69)"/>
<path d="M0 0 C0.99 0.33 1.98 0.66 3 1 C-5.613 14.862 -5.613 14.862 -10 20 C-10.33 20 -10.66 20 -11 20 C-11.714 16.371 -11.591 13.913 -9.547 10.754 C-7.778 8.669 -6.111 6.741 -4 5 C-3.01 5 -2.02 5 -1 5 C-0.67 3.35 -0.34 1.7 0 0 Z " fill="#858586" transform="translate(87,81)"/>
<path d="M0 0 C0.25 6.651 -0.26 12.57 -2 19 C-2.33 19 -2.66 19 -3 19 C-3 16.69 -3 14.38 -3 12 C-3.99 12 -4.98 12 -6 12 C-5.859 10.541 -5.712 9.083 -5.562 7.625 C-5.481 6.813 -5.4 6.001 -5.316 5.164 C-5 3 -5 3 -4 1 C-2.626 0.428 -1.495 0 0 0 Z " fill="#767676" transform="translate(148,74)"/>
<path d="M0 0 C1.54 4.381 0.158 6.968 -1.75 11.004 C-2.964 12.942 -3.55 13.716 -5.625 14.562 C-8 15 -8 15 -10 15 C-8.864 11.156 -7.903 7.903 -5 5 C-2.812 4.75 -2.812 4.75 -1 5 C-0.67 3.35 -0.34 1.7 0 0 Z " fill="#B1B4BA" transform="translate(139,91)"/>
<path d="M0 0 C0.66 0 1.32 0 2 0 C3.849 2.174 4.447 4.297 5.035 7.055 C5.12 7.445 5.12 7.445 5.549 9.418 C5.718 10.229 5.888 11.04 6.062 11.875 C6.236 12.678 6.409 13.481 6.588 14.309 C7.424 18.199 8.233 22.095 9 26 C5.829 22.685 5.328 19.4 4.625 14.926 C4.419 14.29 4.212 13.655 4 13 C2.5 12.355 2.5 12.355 1 12 C-0.262 9.475 -0.099 7.688 -0.062 4.875 C-0.053 3.965 -0.044 3.055 -0.035 2.117 C-0.024 1.419 -0.012 0.72 0 0 Z " fill="#959698" transform="translate(21,68)"/>
<path d="M0 0 C0.33 0 0.66 0 1 0 C1 11.88 1 23.76 1 36 C1.99 36.33 2.98 36.66 4 37 C4 37.99 4 38.98 4 40 C3.34 40 2.68 40 2 40 C1.67 41.32 1.34 42.64 1 44 C-1.015 37.022 -1.282 30.418 -1.206 23.225 C-1.187 21.437 -1.185 19.649 -1.186 17.861 C-1.166 11.842 -0.989 5.955 0 0 Z " fill="#0F295F" transform="translate(12,37)"/>
<path d="M0 0 C5.358 0.335 9.084 3.525 13 7 C14.238 8.695 14.238 8.695 15 10 C14.34 10 13.68 10 13 10 C12.67 10.99 12.34 11.98 12 13 C9.36 10.69 6.72 8.38 4 6 C4.33 5.01 4.66 4.02 5 3 C3.35 2.67 1.7 2.34 0 2 C0 1.34 0 0.68 0 0 Z " fill="#3A404D" transform="translate(104,21)"/>
<path d="M0 0 C-0.33 0.66 -0.66 1.32 -1 2 C-5.457 3.325 -10.415 3.137 -15.027 3.098 C-15.661 3.096 -16.295 3.095 -16.948 3.093 C-18.944 3.088 -20.941 3.075 -22.938 3.062 C-24.303 3.057 -25.668 3.053 -27.033 3.049 C-30.356 3.038 -33.678 3.021 -37 3 C-34.347 0.802 -32.197 0.701 -28.809 0.586 C-28.556 0.576 -28.556 0.576 -27.279 0.527 C-25.665 0.468 -24.052 0.421 -22.438 0.375 C-21.38 0.337 -20.322 0.298 -19.264 0.258 C-12.841 0.027 -6.428 -0.048 0 0 Z " fill="#C8C8C9" transform="translate(100,126)"/>
<path d="M0 0 C0.75 1.75 0.75 1.75 1 4 C-1.538 7.221 -4.458 9.002 -8 11 C-8.258 11.206 -8.258 11.206 -9.562 12.25 C-11 13 -11 13 -13.188 12.625 C-13.786 12.419 -14.384 12.213 -15 12 C-11.584 8.264 -8.135 5.676 -3.77 3.113 C-2 2 -2 2 0 0 Z " fill="#C5C9D0" transform="translate(123,112)"/>
<path d="M0 0 C0.66 0.33 1.32 0.66 2 1 C1.674 1.447 1.348 1.895 1.012 2.355 C-2.984 7.884 -2.984 7.884 -4.5 10.688 C-5.989 12.983 -7.479 14.156 -9.66 15.754 C-12.417 18.318 -14.149 21.755 -16 25 C-16.66 24.67 -17.32 24.34 -18 24 C-17.637 19.641 -17.637 19.641 -15.891 17.883 C-15.005 17.21 -14.107 16.553 -13.199 15.91 C-12 15 -12 15 -10.875 13.312 C-10 12 -10 12 -8.535 11.59 C-7 11 -7 11 -6.191 9.766 C-6.088 9.516 -6.088 9.516 -5.562 8.25 C-4.111 5.054 -2.274 2.666 0 0 Z " fill="#D3D3D3" transform="translate(94,59)"/>
<path d="M0 0 C0.66 0 1.32 0 2 0 C2.33 0.66 2.66 1.32 3 2 C5.062 2.625 5.062 2.625 7 3 C7 3.99 7 4.98 7 6 C7.66 6.66 8.32 7.32 9 8 C8.34 8.33 8.34 8.33 5 10 C4.01 9.34 3.02 8.68 2 8 C1.67 9.98 1.34 11.96 1 14 C0.67 14 0.34 14 0 14 C0 9.38 0 4.76 0 0 Z " fill="#132A57" transform="translate(102,21)"/>
<path d="M0 0 C1.033 0.005 2.065 0.01 3.098 0.014 C5.607 0.025 8.116 0.042 10.625 0.062 C10.295 0.723 9.965 1.383 9.625 2.062 C5.17 2.227 5.17 2.227 -17.375 3.062 C-17.375 2.402 -17.375 1.742 -17.375 1.062 C-11.604 -0.188 -5.88 -0.05 0 0 Z " fill="#212123" transform="translate(71.375,16.9375)"/>
<path d="M0 0 C3.069 1.464 5.904 3.14 8.75 5 C9.15 5.258 9.15 5.258 11.172 6.562 C11.775 7.037 12.378 7.511 13 8 C13 8.66 13 9.32 13 10 C10.345 11.017 9.308 11.13 6.641 10.004 C5.852 9.528 5.063 9.053 4.25 8.562 C3.451 8.089 2.652 7.616 1.828 7.129 C1.225 6.756 0.622 6.384 0 6 C0 4.02 0 2.04 0 0 Z " fill="#CACCD1" transform="translate(26,113)"/>
<path d="M0 0 C-0.309 1.626 -0.622 3.251 -0.938 4.875 C-1.112 5.78 -1.286 6.685 -1.465 7.617 C-2 10 -2 10 -3 12 C-5.562 12.625 -5.562 12.625 -8 13 C-5.639 0 -5.639 0 0 0 Z " fill="#8F9196" transform="translate(141,84)"/>
<path d="M0 0 C0 0.99 0 1.98 0 3 C-1.32 3.33 -2.64 3.66 -4 4 C-4 4.66 -4 5.32 -4 6 C-5.271 6.169 -6.541 6.335 -7.812 6.5 C-8.52 6.593 -9.228 6.686 -9.957 6.781 C-12 7 -12 7 -15 7 C-13.71 6.019 -12.418 5.04 -11.125 4.062 C-10.765 3.79 -10.765 3.79 -8.945 2.41 C-5.766 0.106 -3.889 -0.102 0 0 Z " fill="#3A4459" transform="translate(48,21)"/>
<path d="M0 0 C0.99 1.32 1.98 2.64 3 4 C1.68 6.64 0.36 9.28 -1 12 C-2.32 12 -3.64 12 -5 12 C-4.695 6.706 -3.644 3.879 0 0 Z " fill="#3B3B3C" transform="translate(84,90)"/>
<path d="M0 0 C0.645 0.005 1.29 0.009 1.955 0.014 C3.533 0.025 5.11 0.043 6.688 0.062 C6.688 0.723 6.688 1.383 6.688 2.062 C4.543 2.227 4.543 2.227 -6.312 3.062 C-6.312 3.723 -6.312 4.383 -6.312 5.062 C-7.797 4.733 -7.797 4.733 -15.312 3.062 C-10.408 -0.207 -5.696 -0.076 0 0 Z " fill="#BDBFC4" transform="translate(60.3125,14.9375)"/>
<path d="M0 0 C1.023 3.194 0.963 5.422 0.25 8.688 C0.09 9.475 -0.07 10.263 -0.234 11.074 C-1 13 -1 13 -2.453 13.645 C-2.964 13.762 -3.474 13.879 -4 14 C-4.66 14.66 -5.32 15.32 -6 16 C-5.858 14.729 -5.711 13.458 -5.562 12.188 C-5.481 11.48 -5.4 10.772 -5.316 10.043 C-5.039 8.25 -4.636 6.694 -4 5 C-3.34 5 -2.68 5 -2 5 C-2 4.01 -2 3.02 -2 2 C-1.34 2 -0.68 2 0 2 C0 1.34 0 0.68 0 0 Z " fill="#61646A" transform="translate(142,71)"/>
<path d="M0 0 C1.137 3.404 0.84 5.775 0.062 9.25 C-0.132 10.142 -0.327 11.034 -0.527 11.953 C-0.683 12.629 -0.839 13.304 -1 14 C-1.66 14 -2.32 14 -3 14 C-3.66 16.64 -4.32 19.28 -5 22 C-5.984 18.066 -5.925 16.363 -5.188 12.5 C-5.016 11.562 -4.845 10.623 -4.668 9.656 C-4.046 7.184 -3.239 5.216 -2 3 C-1.34 3 -0.68 3 0 3 C0 2.01 0 1.02 0 0 Z " fill="#8F9197" transform="translate(129,64)"/>
<path d="M0 0 C13.633 -0.369 13.633 -0.369 20 2 C20 2.33 20 2.66 20 3 C13.019 4.519 6.876 3.387 0 2 C0 1.34 0 0.68 0 0 Z " fill="#C2C4C8" transform="translate(84,15)"/>
<path d="M0 0 C1.375 1.5 1.375 1.5 2 3 C1.67 3.66 1.34 4.32 1 5 C-3.177 5.211 -6.349 5.337 -10 3 C-10 2.34 -10 1.68 -10 1 C-6.538 -0.065 -3.59 -0.312 0 0 Z " fill="#0C2D6C" transform="translate(95,120)"/>
<path d="M0 0 C1 2 1 2 1 5 C1.66 5.66 2.32 6.32 3 7 C1.35 9.97 -0.3 12.94 -2 16 C-2.33 16 -2.66 16 -3 16 C-3.081 14.082 -3.141 12.168 -3.188 10.25 C-3.213 9.711 -3.238 9.172 -3.264 8.617 C-3.333 4.81 -2.684 2.902 0 0 Z " fill="#454546" transform="translate(79,97)"/>
<path d="M0 0 C0.33 0.99 0.66 1.98 1 3 C0.767 3.039 0.767 3.039 -0.414 3.234 C-2 4 -2 4 -2.773 5.891 C-2.972 6.669 -3.17 7.448 -3.375 8.25 C-4.725 12.701 -6.367 15.159 -10 18 C-10.382 18.299 -10.382 18.299 -12.312 19.812 C-12.869 20.204 -13.426 20.596 -14 21 C-12.82 18.319 -11.347 16.039 -9.625 13.688 C-7.864 11.279 -6.312 8.864 -4.875 6.25 C-3.513 3.787 -2.17 1.845 0 0 Z " fill="#A8A8A9" transform="translate(99,60)"/>
<path d="M0 0 C0.33 0 0.66 0 1 0 C1.086 0.414 1.171 0.827 1.26 1.253 C1.649 3.128 2.043 5.001 2.438 6.875 C2.572 7.526 2.707 8.177 2.846 8.848 C2.978 9.473 3.11 10.098 3.246 10.742 C3.367 11.318 3.487 11.894 3.611 12.488 C4 14 4 14 5 16 C5.098 17.727 5.098 17.727 5.062 19.625 C5.053 20.257 5.044 20.888 5.035 21.539 C5.024 22.021 5.012 22.503 5 23 C0.585 17.782 -0.319 12.716 -0.125 6.125 C-0.116 5.532 -0.107 4.939 -0.098 4.328 C-0.074 2.885 -0.039 1.443 0 0 Z " fill="#888D99" transform="translate(48,53)"/>
<path d="M0 0 C3.85 0.604 6.861 1.768 10.312 3.562 C10.767 3.796 11.221 4.03 11.689 4.271 C12.796 4.842 13.898 5.42 15 6 C10.596 7.379 7.259 6.555 3 5 C1 3.5 1 3.5 0 2 C0 1.34 0 0.68 0 0 Z " fill="#424243" transform="translate(26,120)"/>
<path d="M0 0 C0.33 0 0.66 0 1 0 C1 6.6 1 13.2 1 20 C-0.32 19.67 -1.64 19.34 -3 19 C-3 17.02 -3 15.04 -3 13 C-2.01 12.67 -1.02 12.34 0 12 C0 8.04 0 4.08 0 0 Z " fill="#081228" transform="translate(10,50)"/>
<path d="M0 0 C0.66 1.32 1.32 2.64 2 4 C1.34 4 0.68 4 0 4 C-0.007 4.271 -0.007 4.271 -0.043 5.645 C-0.191 7.858 -0.415 9.858 -1 12 C-3.312 13.875 -3.312 13.875 -6 15 C-7.337 15.66 -8.671 16.325 -10 17 C-9.613 16.443 -9.227 15.886 -8.828 15.312 C-5.456 10.371 -2.515 5.428 0 0 Z " fill="#0A2760" transform="translate(124,94)"/>
<path d="M0 0 C-6.409 3.713 -14.45 7 -22 7 C-22 6.34 -22 5.68 -22 5 C-20.515 4.835 -20.515 4.835 -13 4 C-13 3.34 -13 2.68 -13 2 C-11.211 1.47 -9.419 0.951 -7.625 0.438 C-7.371 0.362 -7.371 0.362 -6.086 -0.021 C-2.227 -1.113 -2.227 -1.113 0 0 Z " fill="#7C7C7E" transform="translate(108,109)"/>
<path d="M0 0 C0.33 0 0.66 0 1 0 C0.748 4.379 0.247 7.195 -2.812 10.535 C-5.364 13.682 -7.104 17.434 -9 21 C-9.66 20.67 -10.32 20.34 -11 20 C-10.771 19.613 -10.771 19.613 -9.609 17.656 C-6.192 11.867 -2.88 6.082 0 0 Z " fill="#444E63" transform="translate(94,80)"/>
<path d="M0 0 C0.66 0.33 0.66 0.33 4 2 C3.34 2 2.68 2 2 2 C2 2.66 2 3.32 2 4 C2.66 4.33 3.32 4.66 4 5 C3.67 5.66 3.34 6.32 3 7 C4.32 7 5.64 7 7 7 C7 11.225 6.935 13.251 5 17 C4.162 14.543 3.33 12.084 2.5 9.625 C2.262 8.926 2.023 8.228 1.777 7.508 C1.552 6.837 1.326 6.167 1.094 5.477 C0.884 4.859 0.675 4.241 0.459 3.604 C0 2 0 2 0 0 Z " fill="#6E6E70" transform="translate(63,51)"/>
<path d="M0 0 C1.32 0.66 2.64 1.32 4 2 C4 4.31 4 6.62 4 9 C3.67 9 3.34 9 3 9 C2.67 10.65 2.34 12.3 2 14 C1.67 14 1.34 14 1 14 C0.639 11.855 0.286 9.709 -0.062 7.562 C-0.166 6.951 -0.27 6.339 -0.377 5.709 C-0.627 4.146 -0.818 2.573 -1 1 C-0.67 0.67 -0.34 0.34 0 0 Z " fill="#09090B" transform="translate(138,34)"/>
<path d="M0 0 C0.66 0 1.32 0 2 0 C1.434 3.851 0.517 7.93 -2 11 C-3.32 11.33 -4.64 11.66 -6 12 C-5.01 9.03 -4.02 6.06 -3 3 C-2.34 3 -1.68 3 -1 3 C-0.67 2.01 -0.34 1.02 0 0 Z " fill="#040509" transform="translate(17,21)"/>
<path d="M0 0 C4 1 4 1 5.188 2.188 C6.339 4.757 6.628 7.21 7 10 C5.35 9.67 3.7 9.34 2 9 C1.34 6.03 0.68 3.06 0 0 Z " fill="#939498" transform="translate(9,84)"/>
<path d="M0 0 C1.413 0.321 1.413 0.321 3 1 C3.8 2.275 3.8 2.275 4.387 3.871 C4.603 4.445 4.819 5.02 5.041 5.611 C5.148 5.913 5.148 5.913 5.688 7.438 C5.912 8.036 6.137 8.635 6.369 9.252 C8 13.679 8 13.679 8 16 C6.587 15.679 6.587 15.679 5 15 C4.2 13.725 4.2 13.725 3.613 12.129 C3.397 11.555 3.181 10.98 2.959 10.389 C2.852 10.087 2.852 10.087 2.312 8.562 C2.088 7.964 1.863 7.365 1.631 6.748 C0 2.321 0 2.321 0 0 Z " fill="#393B3F" transform="translate(22,80)"/>
<path d="M0 0 C0 3.204 -0.743 5.094 -2 8 C-2.99 8 -3.98 8 -5 8 C-5.227 8.578 -5.454 9.155 -5.688 9.75 C-7.383 12.656 -9.302 14.012 -12 16 C-10.538 12.807 -8.732 10.194 -6.562 7.438 C-5.966 6.673 -5.369 5.909 -4.754 5.121 C-3.248 3.3 -1.705 1.632 0 0 Z " fill="#959595" transform="translate(88,78)"/>
<path d="M0 0 C3.54 4.067 5.926 8.367 8.312 13.188 C8.498 13.549 8.498 13.549 9.439 15.381 C9.786 16.074 10.132 16.767 10.488 17.48 C10.803 18.108 11.118 18.736 11.443 19.384 C11.627 19.917 11.81 20.45 12 21 C11.67 21.66 11.34 22.32 11 23 C9.343 20.11 7.701 17.212 6.062 14.312 C5.594 13.496 5.125 12.679 4.643 11.838 C4.195 11.042 3.747 10.246 3.285 9.426 C2.871 8.698 2.458 7.97 2.031 7.22 C0.917 4.821 0.418 2.604 0 0 Z " fill="#505B71" transform="translate(53,76)"/>
<path d="M0 0 C2.703 2.468 3.901 4.142 4.098 7.824 C4.086 8.439 4.074 9.054 4.062 9.688 C4.053 10.31 4.044 10.933 4.035 11.574 C4.024 12.045 4.012 12.515 4 13 C3.34 13 2.68 13 2 13 C1.711 12.361 1.422 11.721 1.125 11.062 C0 9 0 9 -2 8 C-1.67 7.34 -1.34 6.68 -1 6 C-0.412 3.91 0 2.176 0 0 Z " fill="#47484A" transform="translate(67,93)"/>
<path d="M0 0 C0.66 0 1.32 0 2 0 C1.605 5.363 0.688 9.325 -2 14 C-2.66 13.67 -3.32 13.34 -4 13 C-3.523 11.208 -3.044 9.416 -2.562 7.625 C-2.495 7.371 -2.495 7.371 -2.154 6.086 C-1.576 3.941 -0.996 1.993 0 0 Z " fill="#343539" transform="translate(126,78)"/>
<path d="M0 0 C1.98 0 3.96 0 6 0 C6.33 0.99 6.66 1.98 7 3 C7.743 2.959 8.485 2.918 9.25 2.875 C12.172 3.008 13.607 3.35 16 5 C17.25 7.125 17.25 7.125 18 9 C13.987 7.443 10.088 5.693 6.188 3.875 C5.889 3.736 5.889 3.736 4.377 3.035 C2.917 2.358 1.459 1.679 0 1 C0 0.67 0 0.34 0 0 Z " fill="#060A15" transform="translate(107,8)"/>
<path d="M0 0 C3.451 4.247 6.733 8.611 10 13 C6.527 12.435 5.05 11.374 2.812 8.688 C2.558 8.39 2.558 8.39 1.27 6.887 C-0.073 4.892 -0.661 3.373 -1 1 C-0.67 0.67 -0.34 0.34 0 0 Z " fill="#414753" transform="translate(32,92)"/>
<path d="M0 0 C6.343 1.806 11.569 4.256 17 8 C14.624 8.836 13.456 9.184 11.078 8.223 C10.475 7.84 9.872 7.457 9.25 7.062 C8.636 6.682 8.023 6.302 7.391 5.91 C6.932 5.61 6.473 5.309 6 5 C6 4.34 6 3.68 6 3 C4.35 3 2.7 3 1 3 C0.67 2.01 0.34 1.02 0 0 Z " fill="#444444" transform="translate(113,8)"/>
<path d="M0 0 C0.375 2.25 0.375 2.25 0 5 C-1.82 6.666 -3.829 7.843 -6 9 C-6.75 7.312 -6.75 7.312 -7 5 C-5.209 1.563 -3.976 0 0 0 Z " fill="#4A4A4B" transform="translate(133,112)"/>
<path d="M0 0 C0.99 0.33 1.98 0.66 3 1 C3.33 3.64 3.66 6.28 4 9 C3.01 9.33 2.02 9.66 1 10 C-0.851 6.877 -1.294 4.621 -1 1 C-0.67 0.67 -0.34 0.34 0 0 Z " fill="#3E3E3F" transform="translate(7,90)"/>
<path d="M0 0 C1.32 0.33 2.64 0.66 4 1 C4.33 2.65 4.66 4.3 5 6 C4.67 6.165 4.67 6.165 3 7 C2.375 9.562 2.375 9.562 2 12 C-0.557 8.164 -0.193 4.424 0 0 Z " fill="#5A5A5B" transform="translate(4,84)"/>
<path d="M0 0 C0.66 0.33 1.32 0.66 2 1 C1.34 4.96 0.68 8.92 0 13 C-0.99 13.33 -1.98 13.66 -3 14 C-2.692 11.853 -2.379 9.708 -2.062 7.562 C-1.975 6.951 -1.888 6.339 -1.799 5.709 C-1.113 1.113 -1.113 1.113 0 0 Z " fill="#40454E" transform="translate(123,73)"/>
<path d="M0 0 C0.66 0 1.32 0 2 0 C1.511 4.28 0.19 7.143 -3 10 C-5.25 10.812 -5.25 10.812 -7 11 C-5.257 7.039 -2.853 3.256 0 0 Z " fill="#C4C5C5" transform="translate(98,56)"/>
<path d="M0 0 C0 3.123 -0.157 3.574 -1.875 5.938 C-3.151 7.737 -4.135 9.294 -5.062 11.312 C-6.207 13.373 -6.823 13.365 -9 14 C-10.188 15.562 -10.188 15.562 -11 17 C-11.66 16.67 -12.32 16.34 -13 16 C-11.625 14 -11.625 14 -10 12 C-9.34 12 -8.68 12 -8 12 C-7.867 11.714 -7.867 11.714 -7.195 10.266 C-5.943 7.892 -4.506 5.878 -2.875 3.75 C-2.606 3.397 -2.606 3.397 -1.242 1.609 C-0.832 1.078 -0.422 0.547 0 0 Z " fill="#DDDDDC" transform="translate(93,58)"/>
<path d="M0 0 C0.441 0.188 0.882 0.376 1.336 0.57 C-2.935 6.295 -2.935 6.295 -5.977 7.445 C-6.533 7.487 -7.09 7.528 -7.664 7.57 C-7.309 3.192 -7.309 3.192 -5.59 1.535 C-2.294 -0.592 -2.294 -0.592 0 0 Z " fill="#2C2F37" transform="translate(37.6640625,27.4296875)"/>
<path d="M0 0 C0.66 0.33 1.32 0.66 2 1 C0.35 5.95 -1.3 10.9 -3 16 C-3.33 16 -3.66 16 -4 16 C-4.241 10.84 -4.24 5.769 -2 1 C-1.34 0.67 -0.68 0.34 0 0 Z " fill="#54565A" transform="translate(96,19)"/>
<path d="M0 0 C2.293 1.795 3.25 3.256 3.812 6.062 C3.874 7.032 3.936 8.001 4 9 C3.34 9.66 2.68 10.32 2 11 C0.68 8.36 -0.64 5.72 -2 3 C-1.34 2.01 -0.68 1.02 0 0 Z " fill="#303132" transform="translate(64,89)"/>
<path d="M0 0 C0.33 0 0.66 0 1 0 C1.346 6.967 1.079 12.604 -2 19 C-2.33 19 -2.66 19 -3 19 C-2.409 12.566 -1.358 6.316 0 0 Z " fill="#535A68" transform="translate(101,55)"/>
<path d="M0 0 C0.33 0 0.66 0 1 0 C1 2.31 1 4.62 1 7 C1.99 7.33 2.98 7.66 4 8 C4 9.98 4 11.96 4 14 C2.68 13.67 1.36 13.34 0 13 C0 8.71 0 4.42 0 0 Z " fill="#DDDDDD" transform="translate(1,47)"/>
<path d="M0 0 C1.426 0.34 1.426 0.34 3 1 C5.166 5.675 5.233 9.909 5 15 C2.261 11.848 1.447 9.352 0.812 5.25 C0.731 4.743 0.649 4.237 0.564 3.715 C0.366 2.478 0.182 1.239 0 0 Z " fill="#3C3C3D" transform="translate(121,38)"/>
<path d="M0 0 C0.931 2.606 1.149 3.642 0.062 6.25 C-0.113 6.539 -0.113 6.539 -1 8 C-0.34 8 0.32 8 1 8 C0.67 9.32 0.34 10.64 0 12 C0 11.34 0 10.68 0 10 C-1.937 10.312 -1.937 10.312 -4 11 C-4.629 12.543 -4.629 12.543 -5 14 C-4.664 8.47 -3.017 4.616 0 0 Z " fill="#424348" transform="translate(13,24)"/>
<path d="M0 0 C0.99 0.33 1.98 0.66 3 1 C2.34 1.66 1.68 2.32 1 3 C0.656 4.473 0.656 4.473 0.5 6.062 C0.335 7.032 0.17 8.001 0 9 C-0.33 9.165 -0.33 9.165 -2 10 C-2 8.68 -2 7.36 -2 6 C-2.99 5.67 -3.98 5.34 -5 5 C-3.35 3.35 -1.7 1.7 0 0 Z " fill="#59595A" transform="translate(135,106)"/>
<path d="M0 0 C-1 2 -1 2 -3.145 2.852 C-4.025 3.107 -4.905 3.362 -5.812 3.625 C-6.685 3.885 -7.558 4.146 -8.457 4.414 C-10.755 4.943 -12.657 5.12 -15 5 C-15 4.34 -15 3.68 -15 3 C-9.871 1.085 -5.504 -0.423 0 0 Z " fill="#060B16" transform="translate(48,7)"/>
<path d="M0 0 C0.599 1.333 0.599 1.333 1 3 C0.411 4.334 0.411 4.334 -0.582 5.664 C-0.937 6.146 -1.292 6.628 -1.658 7.125 C-1.849 7.373 -1.849 7.373 -2.812 8.625 C-3.182 9.128 -3.551 9.63 -3.932 10.148 C-6.705 13.852 -6.705 13.852 -9 15 C-8.39 11.633 -7.17 9.611 -5.062 6.938 C-3.29 4.668 -1.561 2.421 0 0 Z " fill="#090D17" transform="translate(122,96)"/>
<path d="M0 0 C0.185 10.558 0.185 10.558 -1 15 C-1.33 15 -1.66 15 -2 15 C-2.027 13.896 -2.046 12.792 -2.062 11.688 C-2.074 11.073 -2.086 10.458 -2.098 9.824 C-2.002 8.028 -1.651 6.667 -1 5 C-2.32 5 -3.64 5 -5 5 C-4.688 3.062 -4.688 3.062 -4 1 C-2.571 0.285 -1.588 0 0 0 Z " fill="#939394" transform="translate(148,74)"/>
<path d="M0 0 C2.296 2.296 2.323 3.008 2.625 6.125 C2.7 6.849 2.775 7.574 2.852 8.32 C2.876 8.597 2.876 8.597 3 10 C1.68 10 0.36 10 -1 10 C-2.295 3.611 -2.295 3.611 -1.062 1.062 C-0.712 0.712 -0.361 0.361 0 0 Z " fill="#414347" transform="translate(70,59)"/>
<path d="M0 0 C0.66 0.165 0.66 0.165 4 1 C4.33 3.31 4.66 5.62 5 8 C4.67 7.34 4.34 6.68 4 6 C3.01 6 2.02 6 1 6 C0.34 7.32 -0.32 8.64 -1 10 C-1.027 8.896 -1.046 7.792 -1.062 6.688 C-1.074 6.073 -1.086 5.458 -1.098 4.824 C-1.002 3.028 -0.651 1.667 0 0 Z " fill="#C6C6C6" transform="translate(1,60)"/>
<path d="M0 0 C0.66 0 1.32 0 2 0 C0.82 3.11 -0.554 4.787 -3.492 6.406 C-6.231 7.485 -9.083 7.756 -12 8 C-10.65 5.3 -8.617 4.662 -6 3.438 C-1.106 1.106 -1.106 1.106 0 0 Z " fill="#3A4253" transform="translate(109,103)"/>
<path d="M0 0 C1.54 4.381 0.158 6.968 -1.75 11.004 C-2.964 12.942 -3.55 13.716 -5.625 14.562 C-8 15 -8 15 -10 15 C-10 14.34 -10 13.68 -10 13 C-8.02 12.67 -6.04 12.34 -4 12 C-3.795 11.385 -3.59 10.77 -3.379 10.137 C-2.253 6.758 -1.126 3.379 0 0 Z " fill="#CDCECF" transform="translate(139,91)"/>
<path d="M0 0 C2.191 3.184 3.888 6.554 5.625 10 C5.95 10.629 6.275 11.258 6.609 11.906 C6.916 12.515 7.223 13.123 7.539 13.75 C7.82 14.302 8.1 14.853 8.389 15.422 C9 17 9 17 9 20 C5.864 17.353 4.468 14.222 2.812 10.562 C2.54 9.99 2.267 9.417 1.986 8.826 C0.588 5.782 -0.379 3.427 0 0 Z " fill="#0F1626" transform="translate(23,85)"/>
<path d="M0 0 C0.66 0 1.32 0 2 0 C1.69 1.438 1.377 2.875 1.062 4.312 C0.888 5.113 0.714 5.914 0.535 6.738 C0.108 8.543 -0.374 10.257 -1 12 C-1.66 12 -2.32 12 -3 12 C-3.027 10.708 -3.046 9.417 -3.062 8.125 C-3.074 7.406 -3.086 6.686 -3.098 5.945 C-3 4 -3 4 -2 2 C-1.34 2 -0.68 2 0 2 C0 1.34 0 0.68 0 0 Z " fill="#6F7071" transform="translate(80,65)"/>
<path d="M0 0 C0.33 0.66 0.66 1.32 1 2 C1.66 2 2.32 2 3 2 C3.061 2.482 3.121 2.964 3.184 3.461 C3.267 4.093 3.351 4.724 3.438 5.375 C3.519 6.001 3.6 6.628 3.684 7.273 C4 9 4 9 5 11 C4.67 11.495 4.67 11.495 3 14 C-0.444 4.59 -0.444 4.59 0 0 Z " fill="#595A5C" transform="translate(59,36)"/>
<path d="M0 0 C1.062 1.062 1.062 1.062 2 3 C1.936 4.691 1.659 6.284 1.359 7.949 C0.952 10.273 0.689 12.592 0.438 14.938 C0.354 15.71 0.27 16.482 0.184 17.277 C0.123 17.846 0.062 18.414 0 19 C-0.33 19 -0.66 19 -1 19 C-1.027 16.771 -1.047 14.542 -1.062 12.312 C-1.071 11.687 -1.079 11.061 -1.088 10.416 C-1.107 6.805 -0.858 3.534 0 0 Z " fill="#020102" transform="translate(8,41)"/>
<path d="M0 0 C1.32 1.32 2.64 2.64 4 4 C3 6 3 6 1 7 C0.67 7.66 0.34 8.32 0 9 C-0.66 7.845 -0.66 7.845 -4 2 C-2.68 2.33 -1.36 2.66 0 3 C0 2.01 0 1.02 0 0 Z " fill="#69696A" transform="translate(14,104)"/>
<path d="M0 0 C4.111 1.451 7.448 3.485 11 6 C8.424 6.954 7.083 7.02 4.375 6.375 C1.413 4.66 0.933 3.224 0 0 Z " fill="#DCDCDC" transform="translate(63,80)"/>
<path d="M0 0 C-0.33 1.32 -0.66 2.64 -1 4 C-3.31 4.33 -5.62 4.66 -8 5 C-8 4.01 -8 3.02 -8 2 C-7.01 2 -6.02 2 -5 2 C-5 1.34 -5 0.68 -5 0 C-2.25 -1.125 -2.25 -1.125 0 0 Z " fill="#B8BBC1" transform="translate(110,122)"/>
<path d="M0 0 C0.99 0.165 0.99 0.165 6 1 C5.67 1.66 5.34 2.32 5 3 C5.495 3.227 5.99 3.454 6.5 3.688 C8 5 8 5 8.188 7.625 C8.126 8.409 8.064 9.192 8 10 C4.68 6.916 2.165 3.989 0 0 Z " fill="#A7A7A8" transform="translate(66,91)"/>
<path d="M0 0 C0.66 0 1.32 0 2 0 C2 0.66 2 1.32 2 2 C2.763 2.124 3.526 2.248 4.312 2.375 C6.75 2.942 8.157 3.351 10 5 C10 5.66 10 6.32 10 7 C4.721 6.64 4.721 6.64 2.711 4.855 C0 1.472 0 1.472 0 0 Z " fill="#C4C4C4" transform="translate(62,85)"/>
<path d="M0 0 C0.33 0.99 0.66 1.98 1 3 C-2.836 5.557 -6.576 5.193 -11 5 C-8.711 3.339 -6.468 2.333 -3.812 1.375 C-3.097 1.115 -2.382 0.854 -1.645 0.586 C-1.102 0.393 -0.559 0.199 0 0 Z " fill="#353536" transform="translate(105,110)"/>
<path d="M0 0 C1.32 0 2.64 0 4 0 C4.33 1.98 4.66 3.96 5 6 C3.68 5.67 2.36 5.34 1 5 C0.67 6.32 0.34 7.64 0 9 C0 6.03 0 3.06 0 0 Z " fill="#7B7B7C" transform="translate(3,79)"/>
<path d="M0 0 C1.742 2.32 2.478 4.369 3.125 7.188 C3.293 7.903 3.46 8.618 3.633 9.355 C3.754 9.898 3.875 10.441 4 11 C2.68 10.67 1.36 10.34 0 10 C0.021 9.216 0.041 8.432 0.062 7.625 C0 5 0 5 -1 3 C-0.562 1.375 -0.562 1.375 0 0 Z " fill="#293142" transform="translate(63,41)"/>
<path d="M0 0 C0 3.204 -0.743 5.094 -2 8 C-6.8 5.415 -6.8 5.415 -7.812 3.312 C-7.874 2.879 -7.936 2.446 -8 2 C-6.503 2.065 -5.005 2.13 -3.508 2.195 C-2 2 -2 2 0 0 Z " fill="#D4D4D4" transform="translate(76,84)"/>
<path d="M0 0 C-0.33 0.99 -0.66 1.98 -1 3 C-3.97 3 -6.94 3 -10 3 C-9 1 -9 1 -7.812 0.375 C-5.182 -0.169 -2.684 -0.06 0 0 Z " fill="#454546" transform="translate(115,125)"/>
<path d="M0 0 C0 3.168 -0.628 4.256 -2 7 C-2 7.99 -2 8.98 -2 10 C-2.99 10.33 -3.98 10.66 -5 11 C-5.875 8.875 -5.875 8.875 -6 6 C-4.253 3.705 -2.2 1.856 0 0 Z " fill="#7E7E7E" transform="translate(129,112)"/>
<path d="M0 0 C0.99 0.33 1.98 0.66 3 1 C2.025 2.503 1.045 4.002 0.062 5.5 C-0.215 5.929 -0.493 6.359 -0.779 6.801 C-1.493 7.885 -2.244 8.945 -3 10 C-3.33 10 -3.66 10 -4 10 C-4 8.35 -4 6.7 -4 5 C-3.01 5 -2.02 5 -1 5 C-0.67 3.35 -0.34 1.7 0 0 Z " fill="#7B7C7D" transform="translate(87,81)"/>
<path d="M0 0 C3.34 2.994 5.198 5.905 7 10 C6.34 10.66 5.68 11.32 5 12 C4.159 10.567 3.327 9.128 2.5 7.688 C2.268 7.287 2.268 7.287 1.094 5.262 C0 3 0 3 0 0 Z " fill="#1D1D1E" transform="translate(53,73)"/>
<path d="M0 0 C0.99 0.165 0.99 0.165 6 1 C5.34 2.65 4.68 4.3 4 6 C3.01 6 2.02 6 1 6 C0.67 4.02 0.34 2.04 0 0 Z " fill="#153065" transform="translate(72,63)"/>
<path d="M0 0 C0.66 0.66 1.32 1.32 2 2 C1.758 4.164 1.758 4.164 1.125 6.625 C0.921 7.442 0.718 8.26 0.508 9.102 C0.34 9.728 0.173 10.355 0 11 C-1.997 8.437 -1.997 8.437 -2.012 6.465 C-1.905 5.961 -1.798 5.457 -1.688 4.938 C-1.588 4.431 -1.489 3.924 -1.387 3.402 C-1 2 -1 2 0 0 Z " fill="#54565A" transform="translate(90,33)"/>
<path d="M0 0 C2.062 1.75 2.062 1.75 4 4 C3.75 6.25 3.75 6.25 3 8 C0.938 6.25 0.938 6.25 -1 4 C-0.75 1.75 -0.75 1.75 0 0 Z " fill="#030306" transform="translate(133,22)"/>
<path d="M0 0 C1.792 -0.027 3.583 -0.047 5.375 -0.062 C5.883 -0.071 6.391 -0.079 6.914 -0.088 C9.302 -0.104 10.833 -0.083 13 1 C13 1.66 13 2.32 13 3 C8.625 2.49 4.304 1.942 0 1 C0 0.67 0 0.34 0 0 Z " fill="#262727" transform="translate(50,115)"/>
<path d="M0 0 C3.96 1.32 7.92 2.64 12 4 C12 4.33 12 4.66 12 5 C10.729 5.027 9.458 5.046 8.188 5.062 C7.48 5.074 6.772 5.086 6.043 5.098 C2.629 4.934 2.629 4.934 1 4 C0.67 2.68 0.34 1.36 0 0 Z " fill="#343434" transform="translate(44,110)"/>
<path d="M0 0 C0 3 0 3 -0.988 4.387 C-1.425 4.816 -1.862 5.245 -2.312 5.688 C-2.742 6.124 -3.171 6.561 -3.613 7.012 C-5 8 -5 8 -8 8 C-6.611 4.527 -5.388 3.482 -2 2 C-1.34 1.34 -0.68 0.68 0 0 Z " fill="#797A7D" transform="translate(116,99)"/>
<path d="M0 0 C1 3 1 3 0.223 5.043 C-0.16 5.751 -0.543 6.458 -0.938 7.188 C-1.318 7.903 -1.698 8.618 -2.09 9.355 C-2.24 9.627 -2.24 9.627 -3 11 C-3.99 10.34 -4.98 9.68 -6 9 C-4.02 6.03 -2.04 3.06 0 0 Z " fill="#1D1D1E" transform="translate(97,71)"/>
<path d="M0 0 C0.33 0 0.66 0 1 0 C1 2.31 1 4.62 1 7 C0.34 7.33 0.34 7.33 -3 9 C-3 7.35 -3 5.7 -3 4 C-2.01 3.67 -1.02 3.34 0 3 C0 2.01 0 1.02 0 0 Z " fill="#DBDBDB" transform="translate(148,53)"/>
<path d="M0 0 C2.551 2.891 2.617 6.32 3 10 C2.01 10 1.02 10 0 10 C-0.195 8.709 -0.381 7.417 -0.562 6.125 C-0.667 5.406 -0.771 4.686 -0.879 3.945 C-1 2 -1 2 0 0 Z " fill="#3F434E" transform="translate(58,28)"/>
<path d="M0 0 C4.153 -0.108 7.932 0.014 12 1 C9.795 3.205 9.496 3.294 6.562 3.312 C3.924 3.252 3.217 3.168 1.062 1.5 C0.887 1.252 0.887 1.252 0 0 Z " fill="#051028" transform="translate(94,6)"/>
<path d="M0 0 C3.63 0 7.26 0 11 0 C7.689 1.656 6.207 2.279 2.75 2.625 C2.044 2.7 1.337 2.775 0.609 2.852 C0.078 2.901 -0.453 2.95 -1 3 C-0.67 2.01 -0.34 1.02 0 0 Z " fill="#2B2B2B" transform="translate(88,115)"/>
<path d="M0 0 C0.688 1.188 0.688 1.188 1 3 C0.167 4.818 -0.873 6.332 -2 8 C-2.99 7.34 -3.98 6.68 -5 6 C-4.533 3.55 -3.932 2.944 -1.938 1.312 C-1.618 1.096 -1.618 1.096 0 0 Z " fill="#050405" transform="translate(89,86)"/>
<path d="M0 0 C0.33 0 0.66 0 1 0 C1.195 1.937 1.381 3.874 1.562 5.812 C1.619 6.36 1.675 6.907 1.732 7.471 C2.189 12.49 2.189 12.49 1 15 C0.34 15 -0.32 15 -1 15 C-1.33 13.68 -1.66 12.36 -2 11 C-1.34 11 -0.68 11 0 11 C0 7.37 0 3.74 0 0 Z " fill="#818284" transform="translate(75,69)"/>
<path d="M0 0 C1.65 0 3.3 0 5 0 C5 0.66 5 1.32 5 2 C6.65 2 8.3 2 10 2 C10 2.33 10 2.66 10 3 C6.37 3 2.74 3 -1 3 C-0.67 2.01 -0.34 1.02 0 0 Z " fill="#C6C6C8" transform="translate(50,125)"/>
<path d="M0 0 C0.652 1.176 0.652 1.176 1 3 C0.261 4.839 -0.495 6.462 -1.438 8.188 C-1.68 8.651 -1.923 9.114 -2.174 9.592 C-2.774 10.733 -3.386 11.867 -4 13 C-4.33 12.34 -4.66 11.68 -5 11 C-4.441 9.633 -4.441 9.633 -3.562 8.125 C-2.212 5.62 -1.666 3.898 -2 1 C-1.34 0.67 -0.68 0.34 0 0 Z " fill="#838384" transform="translate(122,86)"/>
<path d="M0 0 C0.99 0 1.98 0 3 0 C2.67 1.65 2.34 3.3 2 5 C0.35 5.33 -1.3 5.66 -3 6 C-1.125 1.125 -1.125 1.125 0 0 Z " fill="#7D7F83" transform="translate(138,84)"/>
<path d="M0 0 C-0.615 4.677 -0.615 4.677 -2.562 6.312 C-2.8 6.426 -2.8 6.426 -4 7 C-4.33 5.35 -4.66 3.7 -5 2 C-2.25 0 -2.25 0 0 0 Z " fill="#092B6E" transform="translate(19,78)"/>
<path d="M0 0 C0.931 2.606 1.149 3.642 0.062 6.25 C-0.113 6.539 -0.113 6.539 -1 8 C-1.99 8 -2.98 8 -4 8 C-4 7.01 -4 6.02 -4 5 C-3.34 5 -2.68 5 -2 5 C-2 4.01 -2 3.02 -2 2 C-1.34 2 -0.68 2 0 2 C0 1.34 0 0.68 0 0 Z " fill="#555659" transform="translate(142,71)"/>
<path d="M0 0 C0.99 0.33 1.98 0.66 3 1 C2.67 2.98 2.34 4.96 2 7 C0.68 6.67 -0.64 6.34 -2 6 C-1.34 4.02 -0.68 2.04 0 0 Z " fill="#54565B" transform="translate(86,43)"/>
<path d="M0 0 C0.66 0.165 0.66 0.165 4 1 C4.33 2.98 4.66 4.96 5 7 C3.02 5.35 1.04 3.7 -1 2 C-0.67 1.34 -0.34 0.68 0 0 Z " fill="#06080F" transform="translate(126,16)"/>
<path d="M0 0 C4.956 1.502 8.224 4.539 12 8 C11.67 8.66 11.34 9.32 11 10 C9.728 8.897 8.457 7.793 7.188 6.688 C6.48 6.073 5.772 5.458 5.043 4.824 C3.299 3.267 1.632 1.673 0 0 Z " fill="#C4C5C5" transform="translate(128,10)"/>
<path d="M0 0 C0.99 0 1.98 0 3 0 C2.67 1.65 2.34 3.3 2 5 C0.68 5 -0.64 5 -2 5 C-1.34 3.35 -0.68 1.7 0 0 Z " fill="#4F4F4F" transform="translate(121,119)"/>
<path d="M0 0 C0.66 0 1.32 0 2 0 C2.33 1.32 2.66 2.64 3 4 C3.99 4.165 3.99 4.165 9 5 C9 5.66 9 6.32 9 7 C5.335 6.505 3.292 5.979 1 3 C0.312 1.312 0.312 1.312 0 0 Z " fill="#D1D2D4" transform="translate(12,99)"/>
<path d="M0 0 C0.858 2.029 1.177 3.44 0.504 5.566 C-1.451 9.769 -1.451 9.769 -3.609 10.676 C-4.068 10.783 -4.527 10.89 -5 11 C-5 10.34 -5 9.68 -5 9 C-4.34 9 -3.68 9 -3 9 C-3.33 7.68 -3.66 6.36 -4 5 C-3.34 5 -2.68 5 -2 5 C-1.34 3.35 -0.68 1.7 0 0 Z " fill="#162137" transform="translate(126,86)"/>
<path d="M0 0 C0.33 1.32 0.66 2.64 1 4 C1.66 4.165 1.66 4.165 5 5 C5 5.66 5 6.32 5 7 C4.01 7 3.02 7 2 7 C1.34 8.32 0.68 9.64 0 11 C0 7.37 0 3.74 0 0 Z " fill="#A6A6A6" transform="translate(1,67)"/>
<path d="M0 0 C0.66 0 1.32 0 2 0 C2 3.3 2 6.6 2 10 C1.34 9.67 0.68 9.34 0 9 C-0.449 7.441 -0.449 7.441 -0.688 5.562 C-0.774 4.945 -0.86 4.328 -0.949 3.691 C-1 2 -1 2 0 0 Z " fill="#092A6C" transform="translate(136,54)"/>
<path d="M0 0 C0.66 0.33 0.66 0.33 4 2 C4 3.32 4 4.64 4 6 C2.68 5.67 1.36 5.34 0 5 C0 3.35 0 1.7 0 0 Z " fill="#292B30" transform="translate(117,31)"/>
<path d="M0 0 C2.029 2.029 3.008 3.33 4 6 C3.625 8.75 3.625 8.75 3 11 C1.154 8.621 0.668 6.791 0.375 3.812 C0.3 3.097 0.225 2.382 0.148 1.645 C0.099 1.102 0.05 0.559 0 0 Z " fill="#4F5053" transform="translate(54,21)"/>
<path d="M0 0 C0.33 0 0.66 0 1 0 C0.859 1.126 0.712 2.25 0.562 3.375 C0.481 4.001 0.4 4.628 0.316 5.273 C0 7 0 7 -1 9 C-1.66 9 -2.32 9 -3 9 C-2.443 5.656 -1.648 2.967 0 0 Z " fill="#2E4167" transform="translate(94,80)"/>
<path d="M0 0 C1.98 1.65 3.96 3.3 6 5 C5.67 5.66 5.34 6.32 5 7 C4.34 6.67 3.68 6.34 3 6 C2.34 6.66 1.68 7.32 1 8 C0.67 5.36 0.34 2.72 0 0 Z " fill="#3E3E41" transform="translate(130,17)"/>
<path d="M0 0 C0.66 0.33 1.32 0.66 2 1 C2 1.99 2 2.98 2 4 C1.34 4.33 1.34 4.33 -2 6 C-2.33 5.34 -2.66 4.68 -3 4 C-3.66 3.67 -4.32 3.34 -5 3 C-2.625 1.438 -2.625 1.438 0 0 Z " fill="#333439" transform="translate(28,11)"/>
<path d="M0 0 C0.99 1.32 1.98 2.64 3 4 C2.34 5.32 1.68 6.64 1 8 C0.67 7.34 0.34 6.68 0 6 C-0.66 5.67 -1.32 5.34 -2 5 C-1.34 3.35 -0.68 1.7 0 0 Z " fill="#222324" transform="translate(84,90)"/>
<path d="M0 0 C1.875 0.188 1.875 0.188 4 1 C5.25 3.562 5.25 3.562 6 6 C4.35 5.67 2.7 5.34 1 5 C0.67 3.35 0.34 1.7 0 0 Z " fill="#7E8085" transform="translate(9,84)"/>
<path d="M0 0 C5.429 1.857 5.429 1.857 7 5 C6.01 5.33 5.02 5.66 4 6 C2.624 4.71 1.292 3.373 0 2 C0 1.34 0 0.68 0 0 Z " fill="#3D3D3F" transform="translate(112,26)"/>
<path d="M0 0 C0.33 0.66 0.66 1.32 1 2 C0.062 4.125 0.062 4.125 -1 6 C-1.66 6 -2.32 6 -3 6 C-3 6.99 -3 7.98 -3 9 C-3.66 9 -4.32 9 -5 9 C-3.751 5.541 -2.325 2.853 0 0 Z " fill="#0B265C" transform="translate(21,21)"/>
<path d="M0 0 C0.983 0.256 1.962 0.53 2.938 0.812 C3.21 0.888 3.21 0.888 4.59 1.27 C6 2 6 2 7 5 C4.69 4.34 2.38 3.68 0 3 C0 2.01 0 1.02 0 0 Z " fill="#090F1E" transform="translate(44,113)"/>
<path d="M0 0 C0.66 0 1.32 0 2 0 C1.67 2.31 1.34 4.62 1 7 C0.34 6.67 -0.32 6.34 -1 6 C-1.043 4.334 -1.041 2.666 -1 1 C-0.67 0.67 -0.34 0.34 0 0 Z " fill="#303030" transform="translate(7,90)"/>
<path d="M0 0 C0.66 0.33 1.32 0.66 2 1 C2 1.66 2 2.32 2 3 C1.34 3 0.68 3 0 3 C-0.33 4.65 -0.66 6.3 -1 8 C-1.99 7.67 -2.98 7.34 -4 7 C-2.68 4.69 -1.36 2.38 0 0 Z " fill="#343435" transform="translate(121,92)"/>
<path d="M0 0 C1.32 0.33 2.64 0.66 4 1 C4.33 2.32 4.66 3.64 5 5 C3.68 5 2.36 5 1 5 C0.67 3.35 0.34 1.7 0 0 Z " fill="#363C48" transform="translate(65,53)"/>
<path d="M0 0 C0.825 0.33 0.825 0.33 5 2 C5 3.98 5 5.96 5 8 C4.349 7.234 3.704 6.462 3.062 5.688 C2.703 5.258 2.343 4.829 1.973 4.387 C0.965 2.95 0.469 1.683 0 0 Z " fill="#50648A" transform="translate(121,29)"/>
<path d="M0 0 C0.66 0.33 1.32 0.66 2 1 C1.375 2.938 1.375 2.938 0 5 C-2.036 5.677 -3.839 5.812 -6 6 C-4 4 -2 2 0 0 Z " fill="#636365" transform="translate(39,23)"/>
<path d="M0 0 C0.66 0.165 0.66 0.165 4 1 C3.67 1.99 3.34 2.98 3 4 C2.34 4 1.68 4 1 4 C0.34 4.66 -0.32 5.32 -1 6 C-0.67 4.02 -0.34 2.04 0 0 Z " fill="#3E3F3F" transform="translate(138,98)"/>
<path d="M0 0 C0.625 1.188 0.625 1.188 1 3 C0.062 5.688 0.062 5.688 -1 8 C-1.33 8 -1.66 8 -2 8 C-2.33 6.02 -2.66 4.04 -3 2 C-2.01 1.34 -1.02 0.68 0 0 Z " fill="#6A6A6B" transform="translate(144,93)"/>
<path d="M0 0 C1.98 0.66 3.96 1.32 6 2 C6 2.66 6 3.32 6 4 C1.25 3.25 1.25 3.25 -1 1 C-0.67 0.67 -0.34 0.34 0 0 Z " fill="#A4A6AA" transform="translate(11,93)"/>
<path d="M0 0 C0.99 0 1.98 0 3 0 C3 2.31 3 4.62 3 7 C2.67 6.01 2.34 5.02 2 4 C0.438 3.312 0.438 3.312 -1 3 C-0.67 2.01 -0.34 1.02 0 0 Z " fill="#4C4C4C" transform="translate(142,86)"/>
<path d="M0 0 C1.32 0.33 2.64 0.66 4 1 C4 1.66 4 2.32 4 3 C3.01 3 2.02 3 1 3 C1 4.65 1 6.3 1 8 C0.67 8 0.34 8 0 8 C0 5.36 0 2.72 0 0 Z " fill="#696A6A" transform="translate(4,84)"/>
<path d="M0 0 C0.66 0 1.32 0 2 0 C1.67 1.98 1.34 3.96 1 6 C0.01 6 -0.98 6 -2 6 C-1.34 4.02 -0.68 2.04 0 0 Z " fill="#53575E" transform="translate(126,78)"/>
<path d="M0 0 C3.523 1.674 3.523 1.674 5 3 C5.312 5.688 5.312 5.688 5 8 C4.349 7.234 3.704 6.462 3.062 5.688 C2.703 5.258 2.343 4.829 1.973 4.387 C0.965 2.95 0.469 1.683 0 0 Z " fill="#C3C4C4" transform="translate(53,71)"/>
<path d="M0 0 C1.65 0 3.3 0 5 0 C5 1.32 5 2.64 5 4 C3.68 4 2.36 4 1 4 C0.67 2.68 0.34 1.36 0 0 Z " fill="#5F5F60" transform="translate(69,69)"/>
<path d="M0 0 C0.66 0.66 1.32 1.32 2 2 C1.968 4.087 1.446 5.947 1 8 C-1 6 -1 6 -1.188 3.438 C-1 1 -1 1 0 0 Z " fill="#707071" transform="translate(85,48)"/>
<path d="M0 0 C2.5 2.174 3.436 3.73 4 7 C3.01 7.33 2.02 7.66 1 8 C-0.391 5.218 -0.067 3.098 0 0 Z " fill="#454446" transform="translate(136,24)"/>
<path d="M0 0 C1.393 1.951 2.341 3.692 3 6 C2.01 6.66 1.02 7.32 0 8 C-0.194 6.855 -0.38 5.709 -0.562 4.562 C-0.615 4.243 -0.615 4.243 -0.879 2.629 C-0.919 2.091 -0.959 1.554 -1 1 C-0.67 0.67 -0.34 0.34 0 0 Z " fill="#303131" transform="translate(82,93)"/>
<path d="M0 0 C0.66 0 1.32 0 2 0 C0.707 2.884 -0.659 4.872 -3 7 C-2.25 2.25 -2.25 2.25 0 0 Z " fill="#78787A" transform="translate(81,91)"/>
<path d="M0 0 C2.5 1.375 2.5 1.375 5 3 C5 3.66 5 4.32 5 5 C3.35 4.67 1.7 4.34 0 4 C0 2.68 0 1.36 0 0 Z " fill="#DCDCDB" transform="translate(58,75)"/>
<path d="M0 0 C1.32 0.33 2.64 0.66 4 1 C4.33 2.98 4.66 4.96 5 7 C4.67 6.01 4.34 5.02 4 4 C3.01 4 2.02 4 1 4 C0.67 2.68 0.34 1.36 0 0 Z " fill="#43464C" transform="translate(7,69)"/>
<path d="M0 0 C1.32 0 2.64 0 4 0 C3.67 1.32 3.34 2.64 3 4 C2.01 4 1.02 4 0 4 C0 2.68 0 1.36 0 0 Z " fill="#303133" transform="translate(139,66)"/>
<path d="M0 0 C1.32 0 2.64 0 4 0 C4 1.32 4 2.64 4 4 C2.68 3.67 1.36 3.34 0 3 C0 2.01 0 1.02 0 0 Z " fill="#2C2D30" transform="translate(7,66)"/>
<path d="M0 0 C0 1.65 0 3.3 0 5 C-1.32 5 -2.64 5 -4 5 C-4 4.01 -4 3.02 -4 2 C-1.579 0 -1.579 0 0 0 Z " fill="#CBCBCB" transform="translate(149,60)"/>
<path d="M0 0 C1.65 0 3.3 0 5 0 C5 0.99 5 1.98 5 3 C3.68 3.33 2.36 3.66 1 4 C0.67 2.68 0.34 1.36 0 0 Z " fill="#35383F" transform="translate(43,21)"/>
<path d="M0 0 C0.825 0.165 0.825 0.165 5 1 C4.67 2.32 4.34 3.64 4 5 C4 4.34 4 3.68 4 3 C2.68 2.67 1.36 2.34 0 2 C0 1.34 0 0.68 0 0 Z " fill="#6B6F79" transform="translate(9,82)"/>
<path d="M0 0 C0.825 0.165 0.825 0.165 5 1 C4.67 2.65 4.34 4.3 4 6 C3.33 5.19 2.664 4.377 2 3.562 C1.629 3.11 1.258 2.658 0.875 2.191 C0 1 0 1 0 0 Z " fill="#C2C2C2" transform="translate(58,79)"/>
<path d="M0 0 C0.825 0.165 0.825 0.165 5 1 C5 1.99 5 2.98 5 4 C3.68 4 2.36 4 1 4 C0.67 2.68 0.34 1.36 0 0 Z " fill="#62656C" transform="translate(8,78)"/>
<path d="M0 0 C1.218 3.531 1.218 3.531 0.188 5.75 C-0.204 6.163 -0.596 6.575 -1 7 C-1.66 7 -2.32 7 -3 7 C-2.691 6.02 -2.378 5.041 -2.062 4.062 C-1.888 3.517 -1.714 2.972 -1.535 2.41 C-1 1 -1 1 0 0 Z " fill="#5A5A5B" transform="translate(13,24)"/>
<path d="M0 0 C4.75 0.75 4.75 0.75 7 3 C5.02 3 3.04 3 1 3 C0.67 2.01 0.34 1.02 0 0 Z " fill="#575758" transform="translate(104,21)"/>
<path d="M0 0 C0.66 0.33 1.32 0.66 2 1 C1.312 2.5 1.312 2.5 0 4 C-2.625 4.188 -2.625 4.188 -5 4 C-3.35 2.68 -1.7 1.36 0 0 Z " fill="#0A2355" transform="translate(112,111)"/>
<path d="M0 0 C0.99 0 1.98 0 3 0 C3.33 1.98 3.66 3.96 4 6 C1.937 4.116 0.654 2.748 0 0 Z " fill="#2F2F30" transform="translate(28,96)"/>
<path d="M0 0 C1.32 0 2.64 0 4 0 C4 0.66 4 1.32 4 2 C3.546 2.124 3.093 2.248 2.625 2.375 C1 3 1 3 -1 5 C-0.67 3.35 -0.34 1.7 0 0 Z " fill="#666B75" transform="translate(137,82)"/>
<path d="M0 0 C0.33 0.99 0.66 1.98 1 3 C1.66 3 2.32 3 3 3 C3.33 4.32 3.66 5.64 4 7 C3.01 6.67 2.02 6.34 1 6 C0.67 4.02 0.34 2.04 0 0 Z " fill="#656B78" transform="translate(21,74)"/>
<path d="M0 0 C0.66 0 1.32 0 2 0 C2 2.31 2 4.62 2 7 C0.438 5.188 0.438 5.188 -1 3 C-0.688 1.25 -0.688 1.25 0 0 Z " fill="#686D79" transform="translate(51,69)"/>
<path d="M0 0 C0.99 0.33 1.98 0.66 3 1 C3 1.99 3 2.98 3 4 C1.68 4 0.36 4 -1 4 C-0.67 2.68 -0.34 1.36 0 0 Z " fill="#17181B" transform="translate(140,62)"/>
<path d="M0 0 C2 2 2 2 2.125 4.125 C2.084 4.744 2.043 5.362 2 6 C0.68 5.67 -0.64 5.34 -2 5 C-1.34 3.35 -0.68 1.7 0 0 Z " fill="#333B4C" transform="translate(70,59)"/>
<path d="M0 0 C0.66 0 1.32 0 2 0 C2.33 1.32 2.66 2.64 3 4 C1.68 4 0.36 4 -1 4 C-0.67 2.68 -0.34 1.36 0 0 Z " fill="#151619" transform="translate(8,62)"/>
<path d="M0 0 C0.99 0.33 1.98 0.66 3 1 C3 1.66 3 2.32 3 3 C1.35 3.33 -0.3 3.66 -2 4 C-1.34 2.68 -0.68 1.36 0 0 Z " fill="#9FA2A7" transform="translate(135,93)"/>
<path d="M0 0 C0.33 1.32 0.66 2.64 1 4 C1.66 4 2.32 4 3 4 C3 4.66 3 5.32 3 6 C1.68 5.67 0.36 5.34 -1 5 C-0.67 3.35 -0.34 1.7 0 0 Z " fill="#4D5462" transform="translate(79,59)"/>
<path d="M0 0 C1.32 0.33 2.64 0.66 4 1 C4 1.99 4 2.98 4 4 C2.68 3.67 1.36 3.34 0 3 C0 2.01 0 1.02 0 0 Z " fill="#D5D6D6" transform="translate(1,57)"/>
<path d="M0 0 C-2 2 -2 2 -4.125 2.125 C-4.744 2.084 -5.362 2.043 -6 2 C-6 1.34 -6 0.68 -6 0 C-3.611 -1.024 -2.389 -1.024 0 0 Z " fill="#03060D" transform="translate(39,10)"/>
<path d="M0 0 C0.66 0.165 0.66 0.165 4 1 C3.175 1.495 3.175 1.495 -1 4 C-0.67 2.68 -0.34 1.36 0 0 Z " fill="#242425" transform="translate(107,109)"/>
<path d="M0 0 C0.66 0 1.32 0 2 0 C0.25 3.875 0.25 3.875 -2 5 C-1.125 1.125 -1.125 1.125 0 0 Z " fill="#484B53" transform="translate(109,103)"/>
<path d="M0 0 C0.66 0 1.32 0 2 0 C2 0.66 2 1.32 2 2 C2.99 2 3.98 2 5 2 C4.67 2.99 4.34 3.98 4 5 C2.646 3.688 1.313 2.354 0 1 C0 0.67 0 0.34 0 0 Z " fill="#B2B2B2" transform="translate(62,85)"/>
<path d="M0 0 C0.66 0 1.32 0 2 0 C2.66 1.32 3.32 2.64 4 4 C2.68 4 1.36 4 0 4 C0 2.68 0 1.36 0 0 Z " fill="#131213" transform="translate(59,83)"/>
<path d="M0 0 C0.66 0 1.32 0 2 0 C1.67 1.98 1.34 3.96 1 6 C0.876 5.526 0.752 5.051 0.625 4.562 C0 3 0 3 -2 2 C-1.34 2 -0.68 2 0 2 C0 1.34 0 0.68 0 0 Z " fill="#828283" transform="translate(80,65)"/>
<path d="M0 0 C1.32 0.33 2.64 0.66 4 1 C4 1.99 4 2.98 4 4 C3.01 4 2.02 4 1 4 C0.67 2.68 0.34 1.36 0 0 Z " fill="#CBCBCB" transform="translate(1,60)"/>
<path d="M0 0 C1.438 0.312 1.438 0.312 3 1 C3.688 2.562 3.688 2.562 4 4 C3.175 3.67 3.175 3.67 -1 2 C-0.67 1.34 -0.34 0.68 0 0 Z " fill="#282829" transform="translate(41,109)"/>
<path d="M0 0 C0.99 0.33 1.98 0.66 3 1 C1.68 2.32 0.36 3.64 -1 5 C-0.67 3.35 -0.34 1.7 0 0 Z " fill="#29292A" transform="translate(117,100)"/>
<path d="M0 0 C0.33 1.32 0.66 2.64 1 4 C0.01 4.33 -0.98 4.66 -2 5 C-2 4.01 -2 3.02 -2 2 C-1.34 2 -0.68 2 0 2 C0 1.34 0 0.68 0 0 Z " fill="#666667" transform="translate(142,71)"/>
<path d="M0 0 C0.66 0 1.32 0 2 0 C2 0.99 2 1.98 2 3 C0.68 3.33 -0.64 3.66 -2 4 C-1.34 2.68 -0.68 1.36 0 0 Z " fill="#B1B1B2" transform="translate(146,69)"/>
<path d="M0 0 C0.33 0.66 0.66 1.32 1 2 C1.66 2 2.32 2 3 2 C3 2.66 3 3.32 3 4 C1.68 3.67 0.36 3.34 -1 3 C-0.67 2.01 -0.34 1.02 0 0 Z " fill="#3B3E43" transform="translate(64,48)"/>
<path d="M0 0 C2 2 2 2 2 5 C1.01 4.67 0.02 4.34 -1 4 C-0.67 2.68 -0.34 1.36 0 0 Z " fill="#2D3340" transform="translate(87,39)"/>
<path d="M0 0 C0.66 0.99 1.32 1.98 2 3 C1.01 3.99 0.02 4.98 -1 6 C-0.67 4.02 -0.34 2.04 0 0 Z " fill="#0B265B" transform="translate(15,30)"/>
<path d="M0 0 C0.66 0 1.32 0 2 0 C1.67 1.32 1.34 2.64 1 4 C0.34 3.67 -0.32 3.34 -1 3 C-0.67 2.01 -0.34 1.02 0 0 Z " fill="#D0D2D4" transform="translate(32,118)"/>
<path d="M0 0 C0.99 1.32 1.98 2.64 3 4 C2.67 4.165 2.67 4.165 1 5 C0.34 4.34 -0.32 3.68 -1 3 C-0.67 2.01 -0.34 1.02 0 0 Z " fill="#131315" transform="translate(85,89)"/>
<path d="M0 0 C0.99 0.33 1.98 0.66 3 1 C3 1.99 3 2.98 3 4 C2.34 4 1.68 4 1 4 C0.67 2.68 0.34 1.36 0 0 Z " fill="#8D8D8D" transform="translate(73,80)"/>
<path d="M0 0 C0.99 0.33 1.98 0.66 3 1 C3 1.66 3 2.32 3 3 C1.68 2.67 0.36 2.34 -1 2 C-0.67 1.34 -0.34 0.68 0 0 Z " fill="#030408" transform="translate(126,16)"/>
<path d="M0 0 C0.99 0 1.98 0 3 0 C2.67 0.99 2.34 1.98 2 3 C1.34 3 0.68 3 0 3 C0 2.01 0 1.02 0 0 Z " fill="#353535" transform="translate(100,112)"/>
<path d="M0 0 C0.66 1.32 1.32 2.64 2 4 C1.01 3.67 0.02 3.34 -1 3 C-0.67 2.01 -0.34 1.02 0 0 Z " fill="#39393A" transform="translate(28,92)"/>
<path d="M0 0 C0.33 1.32 0.66 2.64 1 4 C0.01 4 -0.98 4 -2 4 C-1.34 2.68 -0.68 1.36 0 0 Z " fill="#1F1F21" transform="translate(64,89)"/>
<path d="M0 0 C0.66 0.33 1.32 0.66 2 1 C1.67 1.99 1.34 2.98 1 4 C0.34 4 -0.32 4 -1 4 C-0.67 2.68 -0.34 1.36 0 0 Z " fill="#4A4C53" transform="translate(121,83)"/>
<path d="M0 0 C0.66 0 1.32 0 2 0 C1.67 0.99 1.34 1.98 1 3 C0.01 2.67 -0.98 2.34 -2 2 C-1.34 1.34 -0.68 0.68 0 0 Z " fill="#141416" transform="translate(41,23)"/>
<path d="M0 0 C0.99 0.33 1.98 0.66 3 1 C2.34 1.33 2.34 1.33 -1 3 C-0.67 2.01 -0.34 1.02 0 0 Z " fill="#06070C" transform="translate(30,11)"/>
<path d="M0 0 C0.66 0 1.32 0 2 0 C1.67 0.99 1.34 1.98 1 3 C0.34 3 -0.32 3 -1 3 C-0.67 2.01 -0.34 1.02 0 0 Z " fill="#DADADB" transform="translate(117,118)"/>
<path d="M0 0 C0.66 0 1.32 0 2 0 C1.67 0.99 1.34 1.98 1 3 C0.34 3 -0.32 3 -1 3 C-0.67 2.01 -0.34 1.02 0 0 Z " fill="#B7B8B8" transform="translate(135,97)"/>
<path d="M0 0 C0.99 0.33 1.98 0.66 3 1 C2.34 1.66 1.68 2.32 1 3 C0.67 2.01 0.34 1.02 0 0 Z " fill="#0A090A" transform="translate(86,89)"/>
</svg>
