<svg xmlns="http://www.w3.org/2000/svg" xml:space="preserve" viewBox="0 0 221 65.3"><path d="M61.5 6.9c.1 3.8.3 8.5.4 10.5s.3 5 .3 6.8c.1 1.9.3 3.3.6 3.4s2.7.4 5.5.5 5.8.3 6.7.4 3.7.3 6.3.4 7.8.4 11.6.5c9 .4 26.4.4 35.6 0 3.9-.2 9.2-.4 11.6-.5 2.5-.1 5.3-.3 6.3-.4s4-.3 6.6-.4 5.1-.3 5.4-.4c.5-.1.6-1 .8-5.1.3-5.5.7-18.3.8-20.8V.2L110.7.1 61.2 0zM40.9.5c-.1.1-4.9.2-10.7.4-11.2.2-19.5.7-22.3 1.2C2.6 3.3.1 6.7 0 13.2c-.1 4.8.3 9.3.6 9.6.2.2 2.1.4 4.1.5 2.1.1 8.3.6 13.8 1.1s11.3.9 12.9 1 3.9.3 5.2.4c2.4.2 15.9 1.1 20.1 1.4l2.5.2-.2-2.3c-.1-1.3-.3-4.9-.4-7.9s-.3-6.8-.4-8.2c-.1-1.5-.2-4-.2-5.7V.4h-8.5c-4.6 0-8.5 0-8.6.1m122.4.4c0 .4-.3 5.7-.5 11.8-.3 6.1-.5 11.9-.5 12.9v1.9l2.4-.2c1.3-.1 6.9-.5 12.4-.9 13-.9 12.8-.9 25.4-2 5.9-.5 12.3-1 14.3-1.1s3.7-.4 3.9-.5.4-3.3.4-7c0-6.4 0-6.8-.8-8.6-2-4.4-5.2-5.5-17.7-6-2.9-.1-6.4-.3-7.7-.4S186 .5 178 .4c-14.3-.2-14.7-.2-14.7.5M1.1 27.9c1.7 12.6 6.7 17.9 21.4 22.7 6.1 2 26.2 6.4 37.7 8.2l1.5.3-.2-2.3c-.8-8.5-1.6-18.9-1.8-22-.1-2-.4-3.8-.5-3.8-.3-.2-5.4-.6-12.8-1.1-4.3-.3-25.4-1.9-27.6-2.1-.9-.1-3.1-.3-5-.4s-5.5-.4-8.2-.6l-4.8-.4zm214.3-1.2c-2.5.3-6 .6-7.9.7s-4.1.3-5.2.4c-2.4.2-19.4 1.5-22.7 1.8-1.5.1-3.8.3-5.2.4-6 .4-12.5.9-12.6 1-.2.2-2.4 27.9-2.2 28 .3.4 15.2-2.5 27.6-5.3 14.5-3.3 22.1-6.4 26.7-11.3 3.3-3.4 4.6-6.5 5.9-12.9.6-3.5.6-3.3.3-3.2 0-.1-2.2.1-4.7.4M62.7 30.9c-.1.1.1 3.2.5 6.9.3 3.7.7 8.1.8 9.8.3 4.5 1 12 1.1 12.1.3.4 19 3.2 28.8 4.4 13.9 1.6 19.2 1.6 33.4 0 9.3-1.1 26.7-3.7 28.3-4.3.6-.2.8-.6.8-1.8 0-.9.3-3.2.4-5.2 1-10.2 1.8-21.4 1.5-21.6-.1-.1-4.5 0-9.8.4-5.2.3-12.6.8-16.5.9-8.7.4-34.2.4-42.4 0-8.3-.4-24.4-1.3-25.8-1.5-.5-.1-1.1-.1-1.1-.1"/></svg>