<?xml version="1.0" encoding="UTF-8"?>
<!-- Generator: visioncortex VTracer 0.6.12 -->
<svg version="1.1" xmlns="http://www.w3.org/2000/svg" width="150" height="102">
<path d="M0 0 C0.614 -0.007 1.229 -0.014 1.861 -0.021 C26.922 -0.244 52.429 2.174 71.289 20.641 C74.991 24.456 78.034 28.442 80.414 33.203 C80.732 33.819 81.051 34.435 81.379 35.07 C85.246 44.231 84.919 56.892 81.852 66.266 C79.537 71.587 76.256 75.893 72.414 80.203 C72.164 80.505 72.164 80.505 70.898 82.035 C59.474 94.815 39.364 101.152 22.692 102.324 C18.204 102.533 13.718 102.541 9.227 102.516 C8.541 102.513 7.854 102.511 7.148 102.509 C-2.995 102.458 -12.819 102.209 -22.586 99.203 C-23.251 98.999 -23.916 98.795 -24.601 98.585 C-39.692 93.769 -54.016 86.301 -61.649 71.823 C-67.006 61.13 -68.798 49.484 -64.961 37.891 C-62.005 29.676 -57.033 23.033 -50.586 17.203 C-49.926 17.533 -49.266 17.863 -48.586 18.203 C-49.068 18.662 -49.55 19.121 -50.047 19.594 C-50.679 20.207 -51.31 20.821 -51.961 21.453 C-52.587 22.056 -53.214 22.66 -53.859 23.281 C-55.559 25.173 -56.571 26.885 -57.586 29.203 C-55.936 29.533 -54.286 29.863 -52.586 30.203 C-52.73 30.591 -52.73 30.591 -53.461 32.555 C-57.634 44.408 -58.567 56.172 -53.266 67.86 C-47.55 79.149 -36.351 87.18 -24.586 91.203 C-19.694 92.714 -14.727 94.203 -9.586 94.203 C-9.586 93.543 -9.586 92.883 -9.586 92.203 C-10.134 92.201 -10.682 92.198 -11.246 92.195 C-25.571 91.497 -37.716 84.601 -47.398 74.328 C-54.4 65.978 -56.359 56.523 -55.765 45.9 C-54.917 37.863 -50.8 31.169 -45.586 25.203 C-45.131 24.62 -44.676 24.038 -44.207 23.438 C-34.152 11.781 -15.429 6.444 -0.586 5.203 C19.651 4.063 36.633 7.444 54.184 17.51 C55.243 18.107 56.327 18.66 57.414 19.203 C50.34 14.649 43.226 11.28 35.414 8.203 C34.036 7.647 32.661 7.086 31.289 6.516 C31.03 6.411 31.03 6.411 29.719 5.879 C28.414 5.203 28.414 5.203 26.414 3.203 C19.017 1 10.058 2.095 2.414 2.141 C0.957 2.146 -0.5 2.15 -1.957 2.154 C-5.5 2.165 -9.043 2.182 -12.586 2.203 C-12.586 1.873 -12.586 1.543 -12.586 1.203 C-8.346 0.405 -4.31 0.033 0 0 Z M-40.121 28.309 C-47.221 37.491 -48.97 46.847 -47.586 58.203 C-46.182 63.821 -42.899 68.974 -38.184 72.363 C-34.668 74.212 -31.565 74.668 -27.691 73.758 C-24.712 72.666 -22.47 71.527 -20.711 68.828 C-18.894 64.59 -18.457 60.481 -18.27 55.902 C-18.228 54.926 -18.186 53.949 -18.143 52.943 C-18.103 51.926 -18.063 50.908 -18.023 49.891 C-17.98 48.854 -17.937 47.816 -17.893 46.779 C-17.787 44.254 -17.685 41.729 -17.586 39.203 C-14.308 37.452 -11.019 35.726 -7.717 34.021 C-6.597 33.439 -5.481 32.85 -4.368 32.255 C6.936 26.215 6.936 26.215 11.615 27.538 C11.911 27.648 11.911 27.648 13.414 28.203 C14.228 28.44 15.041 28.677 15.88 28.921 C22.272 30.954 30.173 33.676 34.414 39.203 C37.353 45.698 36.832 53.993 36.305 60.954 C36.034 65.804 37.939 68.137 40.664 71.953 C43.42 73.922 46.058 74.3 49.414 74.203 C55.405 72.982 59.097 69.147 62.414 64.203 C63.462 62.227 64.003 60.397 64.414 58.203 C64.547 57.535 64.68 56.868 64.816 56.18 C66.317 46.571 63.971 38.114 58.414 30.203 C49.523 18.341 34.148 13.124 20.027 10.812 C-0.644 8.071 -25.373 12.335 -40.121 28.309 Z M60.414 22.203 C61.404 23.193 62.394 24.183 63.414 25.203 C63.084 24.213 62.754 23.223 62.414 22.203 C61.754 22.203 61.094 22.203 60.414 22.203 Z M63.414 25.203 C64.486 27.356 65.568 29.502 66.668 31.641 C67.1 32.486 67.532 33.332 67.977 34.203 C68.411 35.049 68.845 35.894 69.293 36.766 C72.536 43.816 72.808 53.646 70.73 61.129 C66.653 72.008 58.714 80.891 48.227 85.891 C42.152 88.549 35.781 90.391 29.414 92.203 C29.744 92.863 30.074 93.523 30.414 94.203 C43.638 93.281 55.964 86.46 64.789 76.766 C72.051 68.357 74.919 59.022 74.66 48 C73.922 39.615 70.73 32.704 65.414 26.203 C64.754 25.873 64.094 25.543 63.414 25.203 Z M7.414 44.203 C7.414 46.513 7.414 48.823 7.414 51.203 C7.744 51.203 8.074 51.203 8.414 51.203 C8.414 48.893 8.414 46.583 8.414 44.203 C8.084 44.203 7.754 44.203 7.414 44.203 Z M-19.586 68.203 C-20.474 69.344 -21.322 70.517 -22.148 71.703 C-22.603 72.353 -23.059 73.002 -23.527 73.672 C-23.877 74.177 -24.226 74.683 -24.586 75.203 C-24.017 75.76 -23.449 76.317 -22.863 76.891 C-22.083 77.661 -21.303 78.432 -20.523 79.203 C-20.318 79.404 -20.318 79.404 -19.28 80.422 C-17.293 82.392 -15.409 84.356 -13.711 86.582 C-9.531 91.991 -9.531 91.991 -6.375 92.699 C-4.377 92.703 -2.547 92.57 -0.586 92.203 C-2.036 88.774 -4.076 86.612 -6.773 84.141 C-11.145 79.991 -14.216 75.459 -17.273 70.293 C-17.707 69.603 -18.14 68.914 -18.586 68.203 C-18.916 68.203 -19.246 68.203 -19.586 68.203 Z M35.414 69.203 C34.041 70.926 32.781 72.639 31.539 74.453 C29.567 77.31 27.682 80.039 25.156 82.438 C23.414 84.203 23.414 84.203 23.414 86.203 C22.795 86.471 22.177 86.739 21.539 87.016 C19.374 88.225 18.58 89.066 17.414 91.203 C18.797 92.586 19.73 92.469 21.664 92.578 C24.727 92.553 26.157 91.966 28.352 89.828 C30.414 87.56 30.414 87.56 30.414 85.203 C31.074 85.203 31.734 85.203 32.414 85.203 C34.07 83.559 34.07 83.559 35.914 81.391 C36.218 81.037 36.218 81.037 37.758 79.246 C39.087 77.607 40.29 75.985 41.414 74.203 C40.797 73.364 40.17 72.532 39.539 71.703 C39.191 71.239 38.843 70.775 38.484 70.297 C38.131 69.936 37.778 69.575 37.414 69.203 C36.754 69.203 36.094 69.203 35.414 69.203 Z " fill="#C8C8C7" transform="translate(66.5859375,-0.203125)"/>
<path d="M0 0 C7.882 7.449 12.48 16.267 12.965 27.097 C13.163 38.197 9.768 46.173 2.562 54.625 C2.376 54.853 2.376 54.853 1.43 56.008 C-0.25 57.899 -1.137 58.592 -3.688 58.875 C-4.265 58.793 -4.843 58.71 -5.438 58.625 C-5.108 56.645 -4.778 54.665 -4.438 52.625 C-4.933 52.46 -4.933 52.46 -7.438 51.625 C-6.895 51.213 -6.352 50.8 -5.793 50.375 C0.815 45.041 3.065 40.519 4.375 32.25 C5.165 22.472 1.859 14.6 -3.758 6.789 C-13.22 -4.16 -30.316 -9.054 -44.246 -10.25 C-62.152 -11.271 -81.506 -8.213 -95.674 3.661 C-102.675 10.124 -106.421 17.673 -106.956 27.168 C-107.14 35.397 -105.579 41.579 -100.238 48.086 C-96.551 51.541 -92.303 51.69 -87.539 51.582 C-85.403 51.271 -84.225 50.845 -82.438 49.625 C-79.146 42.886 -78.922 35.356 -78.75 28 C-78.717 26.986 -78.682 25.971 -78.646 24.957 C-78.565 22.513 -78.496 20.07 -78.438 17.625 C-77.778 17.625 -77.118 17.625 -76.438 17.625 C-76.108 18.615 -75.778 19.605 -75.438 20.625 C-75.231 20.512 -75.231 20.512 -74.188 19.938 C-72.438 19.625 -72.438 19.625 -70.25 20.688 C-68.28 22.793 -68.181 23.105 -68.188 25.812 C-68.27 26.741 -68.352 27.669 -68.438 28.625 C-67.972 28.732 -67.507 28.839 -67.027 28.949 C-65.025 29.801 -64.807 30.458 -64 32.438 C-62.628 35.463 -60.831 37.308 -58.438 39.625 C-58.273 39.976 -58.273 39.976 -57.438 41.75 C-56.168 44.131 -54.842 44.529 -52.438 45.625 C-52.35 48.354 -52.297 51.083 -52.25 53.812 C-52.225 54.581 -52.2 55.35 -52.174 56.143 C-52.112 60.943 -52.499 63.777 -55.438 67.625 C-58.518 67.052 -60.139 66.292 -62.312 64.043 C-62.823 63.523 -63.333 63.003 -63.859 62.467 C-64.38 61.921 -64.901 61.375 -65.438 60.812 C-65.698 60.545 -65.698 60.545 -67.016 59.193 C-68.032 58.15 -69.045 57.104 -70.056 56.055 C-71.827 54.222 -73.629 52.422 -75.438 50.625 C-76.771 49.292 -78.104 47.958 -79.438 46.625 C-79.685 47.223 -79.933 47.821 -80.188 48.438 C-82.024 51.651 -83.915 53.156 -87.477 54.254 C-89.457 54.754 -91.437 55.212 -93.438 55.625 C-92.944 56.179 -92.45 56.734 -91.941 57.305 C-91.301 58.029 -90.66 58.754 -90 59.5 C-89.362 60.219 -88.724 60.939 -88.066 61.68 C-86.438 63.625 -86.438 63.625 -85.438 65.625 C-93.865 65.442 -100.127 60.212 -105.785 54.372 C-113.336 46.127 -115.961 37.03 -115.715 26.078 C-115.226 17.331 -111.107 10.112 -105.438 3.625 C-104.982 3.042 -104.527 2.46 -104.059 1.859 C-80.329 -25.65 -26.041 -21.379 0 0 Z " fill="#898989" transform="translate(126.4375,21.375)"/>
<path d="M0 0 C3.915 1.219 7.366 2.594 10.961 4.602 C11.396 4.843 11.832 5.084 12.28 5.333 C13.648 6.092 15.012 6.858 16.375 7.625 C17.311 8.146 18.247 8.667 19.184 9.188 C21.459 10.453 23.73 11.725 26 13 C26.05 16.487 26.086 19.974 26.11 23.461 C26.12 24.647 26.134 25.832 26.151 27.017 C26.175 28.725 26.187 30.433 26.195 32.141 C26.206 32.667 26.216 33.193 26.227 33.735 C26.228 37.025 25.688 39.186 24 42 C23.575 42.779 23.149 43.557 22.711 44.359 C22.491 44.754 22.491 44.754 21.375 46.75 C20.929 47.549 20.483 48.348 20.023 49.172 C19.686 49.775 19.348 50.378 19 51 C18.34 51 17.68 51 17 51 C16.749 51.571 16.497 52.142 16.238 52.73 C14.831 55.31 13.217 57.189 11.188 59.312 C10.521 60.031 9.855 60.749 9.168 61.488 C7 63 7 63 4.363 62.98 C2 62 2 62 0.866 60.3 C-0.169 57.551 -0.266 55.114 -0.227 52.222 C-0.227 51.655 -0.228 51.089 -0.228 50.506 C-0.227 48.644 -0.211 46.783 -0.195 44.922 C-0.192 43.627 -0.189 42.333 -0.187 41.038 C-0.179 37.638 -0.159 34.238 -0.137 30.839 C-0.117 27.366 -0.108 23.894 -0.098 20.422 C-0.076 13.615 -0.042 6.807 0 0 Z " fill="#787777" transform="translate(76,26)"/>
<path d="M0 0 C0.614 -0.007 1.229 -0.014 1.861 -0.021 C26.922 -0.244 52.429 2.174 71.289 20.641 C74.991 24.456 78.034 28.442 80.414 33.203 C80.732 33.819 81.051 34.435 81.379 35.07 C85.246 44.231 84.919 56.892 81.852 66.266 C79.537 71.587 76.256 75.893 72.414 80.203 C72.164 80.505 72.164 80.505 70.898 82.035 C60.813 93.317 43.787 99.904 28.914 101.016 C26.414 101.148 23.918 101.184 21.414 101.203 C20.441 101.212 19.468 101.22 18.466 101.229 C11.448 101.279 4.432 101.259 -2.586 101.203 C-0.003 99.056 1.642 97.837 5.031 97.797 C5.713 97.777 6.395 97.758 7.098 97.738 C7.821 97.726 8.544 97.715 9.289 97.703 C27.959 96.961 49.394 91.804 62.812 77.911 C70.669 69.253 73.933 59.603 73.66 48 C72.727 37.395 67.515 28.069 59.414 21.203 C58.875 20.734 58.336 20.265 57.781 19.781 C50.106 13.551 40.697 9.57 31.219 6.941 C29.414 6.203 29.414 6.203 28.172 4.684 C22.398 -0.179 9.614 2.097 2.414 2.141 C0.957 2.146 -0.5 2.15 -1.957 2.154 C-5.5 2.165 -9.043 2.182 -12.586 2.203 C-12.586 1.873 -12.586 1.543 -12.586 1.203 C-8.346 0.405 -4.31 0.033 0 0 Z " fill="#686767" transform="translate(66.5859375,-0.203125)"/>
<path d="M0 0 C0.66 0.33 1.32 0.66 2 1 C1.759 1.229 1.759 1.229 0.539 2.391 C-0.093 3.004 -0.724 3.618 -1.375 4.25 C-2.001 4.853 -2.628 5.457 -3.273 6.078 C-4.973 7.97 -5.985 9.682 -7 12 C-5.35 12.33 -3.7 12.66 -2 13 C-2.144 13.388 -2.144 13.388 -2.875 15.352 C-7.048 27.205 -7.981 38.969 -2.68 50.657 C3.015 61.903 14.241 70.037 26 74 C28.625 74.766 31.268 75.434 33.941 76.013 C36.071 76.477 37.87 76.926 39.771 78.016 C42.613 79.27 45.243 79.352 48.297 79.414 C48.891 79.433 49.484 79.453 50.096 79.473 C51.98 79.532 53.865 79.579 55.75 79.625 C57.033 79.663 58.315 79.702 59.598 79.742 C62.732 79.838 65.866 79.922 69 80 C69 80.33 69 80.66 69 81 C68.495 81.025 67.991 81.05 67.471 81.076 C65.189 81.192 62.907 81.315 60.625 81.438 C59.831 81.477 59.037 81.516 58.219 81.557 C57.458 81.599 56.698 81.64 55.914 81.684 C55.212 81.72 54.511 81.757 53.788 81.795 C52 82 52 82 50 83 C60.23 83 70.46 83 81 83 C81 83.33 81 83.66 81 84 C76.688 84.816 72.58 85.171 68.195 85.203 C67.559 85.21 66.922 85.217 66.266 85.225 C39.231 85.456 39.231 85.456 28 82 C27.335 81.796 26.67 81.592 25.985 81.382 C10.894 76.566 -3.43 69.098 -11.063 54.619 C-16.42 43.927 -18.212 32.281 -14.375 20.688 C-11.419 12.473 -6.448 5.83 0 0 Z " fill="#8B8B8A" transform="translate(16,17)"/>
<path d="M0 0 C0 17.82 0 35.64 0 54 C-0.33 54.165 -0.33 54.165 -2 55 C-2.014 54.024 -2.028 53.048 -2.043 52.043 C-2.09 50.758 -2.138 49.473 -2.188 48.188 C-2.193 47.545 -2.199 46.902 -2.205 46.24 C-2.424 41.536 -2.424 41.536 -4.112 39.965 C-5.373 39.245 -6.686 38.619 -8 38 C-9.562 35.625 -9.562 35.625 -11 33 C-12.01 31.704 -13.057 30.453 -14.133 29.211 C-15 28 -15 28 -15.492 26.414 C-16 25 -16 25 -18 24 C-18.124 23.031 -18.248 22.061 -18.375 21.062 C-18.59 19.434 -18.59 19.434 -19 18 C-21.159 16.468 -22.363 16 -25 16 C-25 17.98 -25 19.96 -25 22 C-25.33 22 -25.66 22 -26 22 C-26.33 18.7 -26.66 15.4 -27 12 C-23.641 10.283 -20.278 8.575 -16.911 6.873 C-15.766 6.293 -14.623 5.711 -13.48 5.127 C-11.837 4.287 -10.191 3.455 -8.543 2.625 C-8.288 2.494 -8.288 2.494 -6.999 1.83 C-4.413 0.536 -2.953 0 0 0 Z M-2 18 C-2 20.31 -2 22.62 -2 25 C-1.67 25 -1.34 25 -1 25 C-1 22.69 -1 20.38 -1 18 C-1.33 18 -1.66 18 -2 18 Z " fill="#989898" transform="translate(76,26)"/>
<path d="M0 0 C0.614 -0.007 1.229 -0.014 1.861 -0.021 C26.922 -0.244 52.429 2.174 71.289 20.641 C74.991 24.456 78.034 28.442 80.414 33.203 C80.732 33.819 81.051 34.435 81.379 35.07 C84.686 42.905 83.677 51.873 83.414 60.203 C83.084 60.203 82.754 60.203 82.414 60.203 C82.084 56.573 81.754 52.943 81.414 49.203 C80.754 50.193 80.094 51.183 79.414 52.203 C78.754 52.203 78.094 52.203 77.414 52.203 C77.414 53.193 77.414 54.183 77.414 55.203 C76.754 55.203 76.094 55.203 75.414 55.203 C75.084 56.853 74.754 58.503 74.414 60.203 C73.458 57.04 73.395 54.368 73.539 51.078 C73.597 40.197 69.471 31.399 62.039 23.516 C61.18 22.727 60.304 21.957 59.414 21.203 C58.875 20.734 58.336 20.265 57.781 19.781 C50.106 13.551 40.697 9.57 31.219 6.941 C29.414 6.203 29.414 6.203 28.172 4.684 C22.398 -0.179 9.614 2.097 2.414 2.141 C0.957 2.146 -0.5 2.15 -1.957 2.154 C-5.5 2.165 -9.043 2.182 -12.586 2.203 C-12.586 1.873 -12.586 1.543 -12.586 1.203 C-8.346 0.405 -4.31 0.033 0 0 Z " fill="#757575" transform="translate(66.5859375,-0.203125)"/>
<path d="M0 0 C11.374 1.404 21.445 7.083 28.656 16.062 C35.485 25.703 37.393 35.368 36 47 C34.327 54.03 30.641 59.556 26 65 C25.813 65.228 25.813 65.228 24.867 66.383 C23.188 68.274 22.3 68.967 19.75 69.25 C19.172 69.168 18.595 69.085 18 69 C18.33 67.02 18.66 65.04 19 63 C18.505 62.835 18.505 62.835 16 62 C16.271 61.794 16.271 61.794 17.645 60.75 C24.252 55.416 26.502 50.894 27.812 42.625 C28.596 32.928 25.401 24.81 19.609 17.164 C14.267 11.202 6.982 7.707 0 4 C0 2.68 0 1.36 0 0 Z " fill="#616161" transform="translate(103,11)"/>
<path d="M0 0 C0.66 0.33 1.32 0.66 2 1 C1.759 1.229 1.759 1.229 0.539 2.391 C-0.093 3.004 -0.724 3.618 -1.375 4.25 C-2.001 4.853 -2.628 5.457 -3.273 6.078 C-4.973 7.97 -5.985 9.682 -7 12 C-5.35 12.33 -3.7 12.66 -2 13 C-2.144 13.388 -2.144 13.388 -2.875 15.352 C-7.367 28.109 -7.558 39.528 -2 52 C-1.051 53.706 -0.043 55.348 1 57 C-2.3 56.34 -5.6 55.68 -9 55 C-9.33 55.66 -9.66 56.32 -10 57 C-10.819 55.274 -11.63 53.544 -12.438 51.812 C-12.668 51.33 -12.898 50.847 -13.135 50.35 C-17.575 40.762 -17.39 29.066 -13.841 19.202 C-10.825 11.605 -6.03 5.453 0 0 Z " fill="#D9D9D9" transform="translate(16,17)"/>
<path d="M0 0 C1.091 0.026 2.181 0.074 3.27 0.141 C3.549 0.15 3.549 0.15 4.963 0.195 C6.337 0.242 7.71 0.314 9.082 0.391 C11.624 4.733 13.159 8.295 12.082 13.391 C10.606 15.825 8.735 17.718 6.707 19.703 C6.199 20.227 5.691 20.751 5.168 21.291 C3.822 22.675 2.458 24.036 1.082 25.391 C0.422 26.051 -0.238 26.711 -0.918 27.391 C-2.98 27.141 -2.98 27.141 -4.918 26.391 C-6.733 22.761 -6.146 18.512 -6.168 14.516 C-6.189 13.604 -6.209 12.693 -6.23 11.754 C-6.236 10.873 -6.241 9.993 -6.246 9.086 C-6.255 8.282 -6.265 7.478 -6.274 6.649 C-5.629 2.557 -4.115 0.551 0 0 Z " fill="#424141" transform="translate(81.91796875,59.609375)"/>
<path d="M0 0 C-1.32 0.66 -2.64 1.32 -4 2 C-4 1.34 -4 0.68 -4 0 C-4.66 0.33 -5.32 0.66 -6 1 C-6 1.99 -6 2.98 -6 4 C-6.906 3.795 -7.812 3.59 -8.746 3.379 C-28.365 -0.991 -46.058 -1.046 -65 6 C-65.998 6.338 -66.997 6.675 -68 7 C-68 6.01 -68 5.02 -68 4 C-67.34 4 -66.68 4 -66 4 C-65.67 3.34 -65.34 2.68 -65 2 C-64.67 1.67 -64.34 1.34 -64 1 C-65.32 0.67 -66.64 0.34 -68 0 C-45.808 -8.237 -22.2 -8.376 0 0 Z " fill="#7C7C7B" transform="translate(109,11)"/>
<path d="M0 0 C-0.33 0.66 -0.66 1.32 -1 2 C-1.495 2.124 -1.99 2.248 -2.5 2.375 C-2.995 2.581 -3.49 2.787 -4 3 C-4.099 3.605 -4.199 4.209 -4.301 4.832 C-5.258 7.799 -7.156 8.756 -9.688 10.312 C-18.635 16.261 -22.338 23.132 -26 33 C-26.66 33 -27.32 33 -28 33 C-28.33 35.97 -28.66 38.94 -29 42 C-29.66 42.165 -29.66 42.165 -33 43 C-33.881 31.063 -32.599 22.561 -24.762 13.246 C-18.267 6.056 -10.074 -0.56 0 0 Z " fill="#585858" transform="translate(45,12)"/>
<path d="M0 0 C1.119 1.132 2.204 2.299 3.25 3.5 C3.701 4.017 4.152 4.534 4.617 5.066 C6.243 7.001 7.83 8.963 9.387 10.953 C11.908 13.868 13.696 14.822 17.562 15.312 C18.79 15.396 20.02 15.466 21.25 15.5 C17.386 11.013 13.502 6.623 9.25 2.5 C9.58 1.84 9.91 1.18 10.25 0.5 C12.258 2.45 14.255 4.411 16.25 6.375 C16.822 6.931 17.395 7.486 17.984 8.059 C18.526 8.594 19.067 9.129 19.625 9.68 C20.128 10.172 20.63 10.664 21.148 11.171 C22.25 12.5 22.25 12.5 22.25 14.5 C22.91 14.83 23.57 15.16 24.25 15.5 C23.105 17.484 23.105 17.484 21.25 19.5 C18.551 19.891 18.551 19.891 15.562 19.75 C15.051 19.732 14.54 19.714 14.014 19.695 C12.758 19.648 11.504 19.577 10.25 19.5 C10.91 18.18 11.57 16.86 12.25 15.5 C11.621 15.463 10.992 15.425 10.344 15.387 C4.506 14.938 -0.397 13.877 -5.75 11.5 C-5.75 10.51 -5.75 9.52 -5.75 8.5 C-7.281 6.492 -7.281 6.492 -9.25 4.375 C-12.75 0.583 -12.75 0.583 -12.75 -0.5 C-7.87 -2.337 -4.235 -3.608 0 0 Z " fill="#D5D5D5" transform="translate(44.75,76.5)"/>
<path d="M0 0 C0.99 0.33 1.98 0.66 3 1 C3 1.99 3 2.98 3 4 C3.66 4 4.32 4 5 4 C8.46 9.997 8.134 16.282 8 23 C8.66 23 9.32 23 10 23 C10.33 24.32 10.66 25.64 11 27 C11.66 27 12.32 27 13 27 C13 22.38 13 17.76 13 13 C13.33 13 13.66 13 14 13 C14.649 26.51 13.063 35.369 4 46 C3.813 46.228 3.813 46.228 2.867 47.383 C1.188 49.274 0.3 49.967 -2.25 50.25 C-2.828 50.167 -3.405 50.085 -4 50 C-3.835 49.01 -3.835 49.01 -3 44 C-3.99 43.67 -4.98 43.34 -6 43 C-5.457 42.588 -4.915 42.175 -4.355 41.75 C2.252 36.416 4.502 31.894 5.812 23.625 C6.519 15.06 3.763 7.563 0 0 Z " fill="#7F7E7E" transform="translate(125,30)"/>
<path d="M0 0 C4.931 -0.493 7.849 0.65 12.168 3.027 C14 4 14 4 15.676 4.504 C17 5 17 5 18 7 C18.098 9.18 18.139 11.321 18.125 13.5 C18.127 13.797 18.127 13.797 18.137 15.301 C18.127 19.747 18.127 19.747 17 22 C8.048 17.69 8.048 17.69 5 14 C5 13.34 5 12.68 5 12 C4.34 12 3.68 12 3 12 C-0.122 8.037 -0.385 4.946 0 0 Z " fill="#6A6969" transform="translate(56,64)"/>
<path d="M0 0 C-0.33 0.66 -0.66 1.32 -1 2 C-0.34 2 0.32 2 1 2 C1 2.66 1 3.32 1 4 C1.66 4 2.32 4 3 4 C5.558 9.555 5.365 14.099 4 20 C1.516 25.448 -2.544 29.813 -6.625 34.125 C-6.997 34.528 -7.369 34.931 -7.752 35.346 C-8.852 36.445 -8.852 36.445 -11 38 C-13.273 37.742 -13.273 37.742 -15 37 C-14.319 36.649 -13.639 36.299 -12.938 35.938 C-9.045 33.609 -6.076 30.288 -3 27 C-2.361 26.34 -1.721 25.68 -1.062 25 C0.511 22.039 0.487 19.284 0 16 C-1 14.25 -1 14.25 -2 13 C-2 12.01 -2 11.02 -2 10 C-3.94 10.087 -5.875 10.194 -7.812 10.312 C-8.36 10.335 -8.907 10.358 -9.471 10.381 C-12.206 10.563 -13.737 10.785 -15.887 12.543 C-16.254 13.024 -16.621 13.505 -17 14 C-16.414 9.41 -16.414 9.41 -16 8 C-15.34 7.67 -14.68 7.34 -14 7 C-13.732 6.402 -13.464 5.804 -13.188 5.188 C-11.433 1.956 -8.843 -0.187 -5.477 -1.672 C-3.224 -2.172 -1.922 -1.127 0 0 Z " fill="#676666" transform="translate(93,50)"/>
<path d="M0 0 C0.614 -0.007 1.229 -0.014 1.861 -0.021 C23.691 -0.215 43.287 1.644 62.414 13.203 C61.094 13.533 59.774 13.863 58.414 14.203 C58.744 15.028 58.744 15.028 60.414 19.203 C56.883 19.203 55.89 18.415 52.977 16.516 C47.4 13.002 41.53 10.612 35.414 8.203 C34.036 7.647 32.661 7.086 31.289 6.516 C31.03 6.411 31.03 6.411 29.719 5.879 C28.414 5.203 28.414 5.203 26.414 3.203 C19.017 1 10.058 2.095 2.414 2.141 C0.957 2.146 -0.5 2.15 -1.957 2.154 C-5.5 2.165 -9.043 2.182 -12.586 2.203 C-12.586 1.873 -12.586 1.543 -12.586 1.203 C-8.346 0.405 -4.31 0.033 0 0 Z " fill="#D2D2D2" transform="translate(66.5859375,-0.203125)"/>
<path d="M0 0 C0.33 0 0.66 0 1 0 C1 3.63 1 7.26 1 11 C1.99 10.67 2.98 10.34 4 10 C4.73 7.934 4.73 7.934 5.188 5.438 C5.346 4.611 5.505 3.785 5.668 2.934 C5.778 2.296 5.887 1.657 6 1 C6.66 1 7.32 1 8 1 C8.014 1.822 8.028 2.645 8.043 3.492 C8.342 11.958 9.506 19.338 15.664 25.727 C17.066 26.916 18.462 27.996 20 29 C18.19 29.658 16.952 30 15 30 C14.67 30.99 14.34 31.98 14 33 C10.5 32.442 9.116 31.442 7 28.625 C0.529 19.379 -0.624 10.907 0 0 Z " fill="#797979" transform="translate(11,44)"/>
<path d="M0 0 C0.051 5.214 0.086 10.429 0.11 15.643 C0.12 17.417 0.134 19.192 0.151 20.966 C0.175 23.515 0.186 26.064 0.195 28.613 C0.206 29.407 0.216 30.201 0.227 31.019 C0.227 31.759 0.227 32.5 0.227 33.263 C0.231 33.914 0.236 34.564 0.241 35.235 C-0.039 37.287 -0.74 38.381 -2 40 C-2.037 39.518 -2.075 39.036 -2.113 38.539 C-2.31 36.647 -2.539 34.846 -3 33 C-4.5 31.812 -4.5 31.812 -6 31 C-7.053 27.922 -7.093 25.098 -7.027 21.867 C-7.015 20.897 -7.003 19.926 -6.99 18.926 C-6.965 17.394 -6.937 15.862 -6.904 14.331 C-6.874 12.843 -6.857 11.355 -6.84 9.867 C-6.823 8.981 -6.806 8.096 -6.789 7.183 C-7 5 -7 5 -9 3 C-8.067 2.492 -7.128 1.994 -6.188 1.5 C-5.665 1.222 -5.143 0.943 -4.605 0.656 C-3 0 -3 0 0 0 Z M-2 18 C-2 20.31 -2 22.62 -2 25 C-1.67 25 -1.34 25 -1 25 C-1 22.69 -1 20.38 -1 18 C-1.33 18 -1.66 18 -2 18 Z " fill="#B6B6B6" transform="translate(76,26)"/>
<path d="M0 0 C0.33 0 0.66 0 1 0 C1.098 0.892 1.196 1.784 1.297 2.703 C1.447 3.886 1.598 5.068 1.75 6.25 C1.812 6.837 1.874 7.423 1.938 8.027 C2.348 11.075 2.848 12.785 4.656 15.344 C7.671 17.474 10.139 17.869 13.75 18.25 C14.352 18.327 14.954 18.405 15.574 18.484 C17.048 18.671 18.524 18.838 20 19 C19.67 20.98 19.34 22.96 19 25 C19.99 25.33 20.98 25.66 22 26 C20.376 26.98 18.75 27.959 17.125 28.938 C16.665 29.215 16.205 29.493 15.73 29.779 C10.155 33.133 10.155 33.133 6.375 33.062 C5.743 33.053 5.112 33.044 4.461 33.035 C3.979 33.024 3.497 33.012 3 33 C4.392 27.743 7.81 25.26 12 22 C11.469 21.781 10.938 21.562 10.391 21.336 C5.205 19.008 2.726 16.997 0 12 C-1.32 13.98 -2.64 15.96 -4 18 C-4.33 17.34 -4.66 16.68 -5 16 C-4.845 15.814 -4.845 15.814 -4.062 14.875 C-2.594 12.283 -2.393 9.948 -2 7 C-1.67 7 -1.34 7 -1 7 C-0.67 4.69 -0.34 2.38 0 0 Z " fill="#A7A6A6" transform="translate(102,55)"/>
<path d="M0 0 C-0.005 0.645 -0.01 1.291 -0.016 1.956 C-0.033 4.364 -0.045 6.772 -0.055 9.18 C-0.06 10.219 -0.067 11.259 -0.075 12.299 C-0.088 13.798 -0.093 15.298 -0.098 16.797 C-0.103 17.698 -0.108 18.598 -0.114 19.526 C-0.007 21.857 0.255 23.792 1 26 C2.562 27.25 2.562 27.25 4 28 C3.67 29.32 3.34 30.64 3 32 C-3.91 25.926 -6.076 20.903 -6.844 11.746 C-6.87 11.293 -6.87 11.293 -7 9 C-7.66 9 -8.32 9 -9 9 C-9.33 7.68 -9.66 6.36 -10 5 C-10.33 5.495 -10.33 5.495 -12 8 C-12 7.34 -12 6.68 -12 6 C-12.66 6 -13.32 6 -14 6 C-14 6.66 -14 7.32 -14 8 C-16 7 -16 7 -17 5 C-15.112 3.961 -13.217 2.945 -11.312 1.938 C-11.047 1.79 -11.047 1.79 -9.705 1.045 C-9.18 0.771 -8.654 0.497 -8.113 0.215 C-7.637 -0.042 -7.16 -0.298 -6.669 -0.563 C-4.272 -1.191 -2.368 -0.592 0 0 Z " fill="#A5A4A4" transform="translate(70,31)"/>
<path d="M0 0 C2.31 0.66 4.62 1.32 7 2 C6.234 2.962 5.462 3.92 4.688 4.875 C4.258 5.409 3.829 5.942 3.387 6.492 C2.026 7.972 0.668 8.901 -1 10 C-1.688 11.625 -1.688 11.625 -2 13 C-1.01 13.66 -0.02 14.32 1 15 C-2.96 16.32 -6.92 17.64 -11 19 C-10.34 19.66 -9.68 20.32 -9 21 C-10.624 21.081 -12.25 21.139 -13.875 21.188 C-14.78 21.222 -15.685 21.257 -16.617 21.293 C-19 21 -19 21 -20.32 19.488 C-20.545 18.997 -20.769 18.506 -21 18 C-20.546 17.887 -20.546 17.887 -18.25 17.312 C-14.557 16.119 -13.256 14.062 -11 11 C-10.34 11 -9.68 11 -9 11 C-8.745 10.417 -8.49 9.835 -8.227 9.234 C-6.883 6.786 -5.382 5.183 -3.375 3.25 C-2.743 2.636 -2.112 2.023 -1.461 1.391 C-1.22 1.161 -1.22 1.161 0 0 Z " fill="#D8D8D8" transform="translate(108,74)"/>
<path d="M0 0 C0.547 0.034 1.094 0.067 1.658 0.102 C1.938 0.111 1.938 0.111 3.352 0.156 C4.725 0.203 6.098 0.275 7.471 0.352 C10.018 4.703 11.525 8.246 10.471 13.352 C9.04 15.788 7.215 17.677 5.221 19.664 C4.73 20.188 4.238 20.712 3.732 21.252 C1.19 23.899 -1.053 25.986 -4.529 27.352 C-3.593 26.246 -2.655 25.142 -1.717 24.039 C-1.456 23.732 -1.456 23.732 -0.135 22.176 C1.471 20.352 1.471 20.352 3.154 18.84 C4.754 17.032 4.825 16.226 4.721 13.852 C4.705 13.264 4.69 12.676 4.674 12.07 C4.473 10.375 4.073 8.945 3.471 7.352 C2.01 7.607 0.552 7.882 -0.904 8.164 C-1.31 8.239 -1.31 8.239 -3.365 8.621 C-5.802 9.444 -6.403 10.093 -7.529 12.352 C-7.611 11.103 -7.669 9.852 -7.717 8.602 C-7.752 7.905 -7.786 7.209 -7.822 6.492 C-7.152 1.593 -4.876 -0.118 0 0 Z " fill="#4E4D4D" transform="translate(83.529296875,59.6484375)"/>
<path d="M0 0 C0.99 0.33 1.98 0.66 3 1 C3.33 3.64 3.66 6.28 4 9 C2.68 8.34 1.36 7.68 0 7 C-0.248 7.598 -0.495 8.196 -0.75 8.812 C-2.586 12.026 -4.478 13.531 -8.039 14.629 C-10.019 15.129 -12 15.587 -14 16 C-13.506 16.554 -13.013 17.109 -12.504 17.68 C-11.863 18.404 -11.223 19.129 -10.562 19.875 C-9.924 20.594 -9.286 21.314 -8.629 22.055 C-7 24 -7 24 -6 26 C-13.086 25.846 -17.705 22.393 -23 18 C-23.33 17.34 -23.66 16.68 -24 16 C-23.34 16 -22.68 16 -22 16 C-21.67 14.68 -21.34 13.36 -21 12 C-20.287 12.023 -19.574 12.046 -18.84 12.07 C-5.861 12.315 -5.861 12.315 -3 10 C-1.502 6.757 -0.678 3.499 0 0 Z " fill="#A7A7A7" transform="translate(47,61)"/>
<path d="M0 0 C4.789 1.916 6.875 5.096 9.062 9.684 C11.349 16.322 10.367 24.097 10 31 C9.34 31 8.68 31 8 31 C7.67 29.68 7.34 28.36 7 27 C6.34 27 5.68 27 5 27 C4.945 26.567 4.889 26.133 4.832 25.687 C4.578 23.707 4.32 21.729 4.062 19.75 C3.975 19.068 3.888 18.386 3.799 17.684 C3.368 14.396 2.914 11.196 2 8 C1.34 8 0.68 8 0 8 C0 5.36 0 2.72 0 0 Z " fill="#525252" transform="translate(128,26)"/>
<path d="M0 0 C1.319 0.397 2.63 0.818 3.938 1.25 C4.668 1.482 5.399 1.714 6.152 1.953 C8 3 8 3 8.672 4.965 C8.78 5.636 8.888 6.308 9 7 C9.681 8.199 10.366 9.397 11.102 10.562 C12.179 12.286 13.183 14.046 14.188 15.812 C14.786 16.864 15.384 17.916 16 19 C12.7 18.34 9.4 17.68 6 17 C5.67 17.66 5.34 18.32 5 19 C1.721 12.63 -0.95 7.37 0 0 Z " fill="#ABABAB" transform="translate(1,55)"/>
<path d="M0 0 C11.55 0.33 23.1 0.66 35 1 C35 1.33 35 1.66 35 2 C34.495 2.025 33.991 2.05 33.471 2.076 C31.189 2.192 28.907 2.315 26.625 2.438 C25.831 2.477 25.037 2.516 24.219 2.557 C23.458 2.599 22.698 2.64 21.914 2.684 C21.563 2.702 21.563 2.702 19.788 2.795 C18 3 18 3 16 4 C26.23 4 36.46 4 47 4 C47 4.33 47 4.66 47 5 C42.571 5.852 38.383 6.147 33.879 6.133 C33.216 6.134 32.553 6.135 31.87 6.136 C30.476 6.136 29.081 6.135 27.687 6.13 C25.572 6.125 23.457 6.13 21.342 6.137 C19.979 6.136 18.617 6.135 17.254 6.133 C16.942 6.134 16.942 6.134 15.366 6.139 C9.672 6.109 3.993 5.996 -1 3 C-0.67 2.01 -0.34 1.02 0 0 Z " fill="#828282" transform="translate(50,96)"/>
<path d="M0 0 C5.34 -0.509 7.899 0.644 12 4 C14.707 6.29 17.369 8.623 20 11 C19.422 11.103 18.845 11.206 18.25 11.312 C15.68 12.098 14.063 13.305 12 15 C2.878 7.317 2.878 7.317 0 3 C0 2.01 0 1.02 0 0 Z " fill="#9E9E9E" transform="translate(7,72)"/>
<path d="M0 0 C2.357 -0.292 4.227 -0.466 6.318 0.795 C7.669 1.916 8.932 3.087 10.188 4.312 C10.625 4.717 11.063 5.121 11.514 5.537 C13.644 7.537 15.523 9.45 17 12 C16.701 12.041 16.701 12.041 15.188 12.25 C12.398 13.206 11.655 14.629 10 17 C9.602 16.446 9.203 15.891 8.793 15.32 C8.263 14.596 7.733 13.871 7.188 13.125 C6.665 12.406 6.143 11.686 5.605 10.945 C4 9 4 9 2.344 7.969 C1 7 1 7 0.488 5.273 C0.43 4.647 0.372 4.02 0.312 3.375 C0.28 3.059 0.28 3.059 0.113 1.461 C0.095 1.22 0.095 1.22 0 0 Z " fill="#A1A1A1" transform="translate(125,14)"/>
<path d="M0 0 C2.125 0.375 2.125 0.375 4 1 C4 1.66 4 2.32 4 3 C4.742 3.268 5.485 3.536 6.25 3.812 C9 5 9 5 10.938 6.5 C13.543 8.395 15.918 9.089 19 10 C18.67 11.32 18.34 12.64 18 14 C18 13.34 18 12.68 18 12 C17.557 11.948 17.557 11.948 15.312 11.688 C12.037 11.158 9.841 9.705 7 8 C4.989 7.489 3.069 7.241 1 7 C1.144 7.615 1.289 8.23 1.438 8.863 C1.623 9.672 1.809 10.48 2 11.312 C2.186 12.113 2.371 12.914 2.562 13.738 C3 16 3 16 3 19 C-1.325 16.07 -1.325 16.07 -2 13 C-2.118 11.149 -2.175 9.293 -2.188 7.438 C-2.202 6.467 -2.216 5.496 -2.23 4.496 C-2 2 -2 2 0 0 Z " fill="#777676" transform="translate(55,57)"/>
<path d="M0 0 C5.676 0.92 5.676 0.92 8 3 C8 3.66 8 4.32 8 5 C9.32 5.33 10.64 5.66 12 6 C12.027 7.292 12.046 8.583 12.062 9.875 C12.074 10.594 12.086 11.314 12.098 12.055 C12 14 12 14 11 16 C9.68 15.34 8.36 14.68 7 14 C7 13.34 7 12.68 7 12 C6.422 11.773 5.845 11.546 5.25 11.312 C2.457 9.683 0.454 7.924 -1 5 C-0.75 2.188 -0.75 2.188 0 0 Z " fill="#5C5C5C" transform="translate(62,70)"/>
<path d="M0 0 C4.643 2.063 6.195 4.645 8.398 9.16 C9 11 9 11 8 13 C7.01 13 6.02 13 5 13 C2.64 15.36 2.509 16.779 2 20 C1.67 20 1.34 20 1 20 C-3.222 6.803 -3.222 6.803 -3 3 C-1.562 1.062 -1.562 1.062 0 0 Z " fill="#808080" transform="translate(139,25)"/>
<path d="M0 0 C-0.33 0.66 -0.66 1.32 -1 2 C-0.34 2 0.32 2 1 2 C1 2.66 1 3.32 1 4 C1.66 4 2.32 4 3 4 C4.87 7.904 5.155 10.416 4.625 14.812 C4.514 15.788 4.403 16.764 4.289 17.77 C4.241 18.138 4.241 18.138 4 20 C3.67 20 3.34 20 3 20 C2.939 19.241 2.879 18.481 2.816 17.699 C2.732 16.695 2.647 15.691 2.562 14.688 C2.481 13.701 2.4 12.715 2.316 11.699 C2.07 9.599 1.787 7.939 1 6 C-4.177 5.575 -8.585 6.079 -13 9 C-14.371 10.627 -15.101 12.044 -16 14 C-16.688 12.188 -16.688 12.188 -17 10 C-15.688 8.5 -15.688 8.5 -14 7 C-13.856 6.68 -13.856 6.68 -13.125 5.062 C-11.399 1.898 -8.771 -0.219 -5.477 -1.672 C-3.224 -2.172 -1.922 -1.127 0 0 Z " fill="#6B6B6B" transform="translate(93,50)"/>
<path d="M0 0 C0.103 0.454 0.206 0.907 0.312 1.375 C1.247 3.583 2.774 4.073 4.805 5.188 C6.598 6.407 7.116 8.056 8 10 C9.259 11.435 10.602 12.695 12 14 C7.452 14.236 4.12 13.997 0 12 C0 11.01 0 10.02 0 9 C-1.531 6.992 -1.531 6.992 -3.5 4.875 C-7 1.083 -7 1.083 -7 0 C-2.25 -1.125 -2.25 -1.125 0 0 Z " fill="#C5C5C4" transform="translate(39,76)"/>
<path d="M0 0 C0.99 0 1.98 0 3 0 C3.051 5.214 3.086 10.429 3.11 15.643 C3.12 17.417 3.134 19.192 3.151 20.966 C3.175 23.515 3.186 26.064 3.195 28.613 C3.206 29.407 3.216 30.201 3.227 31.019 C3.227 31.759 3.227 32.5 3.227 33.263 C3.231 33.914 3.236 34.564 3.241 35.235 C2.961 37.287 2.26 38.381 1 40 C-2.32 22.75 -2.32 22.75 -0.492 16.172 C0.22 13.029 0.105 9.961 0.062 6.75 C0.058 6.1 0.053 5.451 0.049 4.781 C0.037 3.187 0.019 1.594 0 0 Z M1 18 C1 20.31 1 22.62 1 25 C1.33 25 1.66 25 2 25 C2 22.69 2 20.38 2 18 C1.67 18 1.34 18 1 18 Z " fill="#C9C9C9" transform="translate(73,26)"/>
<path d="M0 0 C0.33 0 0.66 0 1 0 C1.33 1.98 1.66 3.96 2 6 C3.65 6.33 5.3 6.66 7 7 C7.99 11.95 8.98 16.9 10 22 C8.68 21.34 7.36 20.68 6 20 C6.66 20 7.32 20 8 20 C8 19.01 8 18.02 8 17 C7.402 16.856 6.804 16.711 6.188 16.562 C4.422 16.109 2.719 15.602 1 15 C0.34 15.66 -0.32 16.32 -1 17 C-1.027 14.729 -1.047 12.458 -1.062 10.188 C-1.067 9.866 -1.067 9.866 -1.088 8.24 C-1.091 7.618 -1.094 6.996 -1.098 6.355 C-1.1 6.07 -1.1 6.07 -1.114 4.626 C-0.995 2.932 -0.605 1.58 0 0 Z " fill="#C9C9C8" transform="translate(1,41)"/>
<path d="M0 0 C-0.33 0.66 -0.66 1.32 -1 2 C-1.495 2.124 -1.99 2.248 -2.5 2.375 C-2.995 2.581 -3.49 2.787 -4 3 C-4.092 3.606 -4.183 4.212 -4.277 4.836 C-5.296 7.886 -7.373 8.8 -10.062 10.25 C-10.535 10.518 -11.007 10.786 -11.494 11.062 C-12.656 11.72 -13.827 12.362 -15 13 C-15.33 11.35 -15.66 9.7 -16 8 C-16.66 8.33 -16.66 8.33 -20 10 C-14.796 4.125 -8.189 -1.05 0 0 Z " fill="#585757" transform="translate(45,12)"/>
<path d="M0 0 C0.365 -0 0.365 -0 2.215 -0.002 C9.236 0.065 16.034 0.962 22.938 2.188 C22.938 2.518 22.938 2.848 22.938 3.188 C22.057 3.176 21.177 3.164 20.27 3.152 C19.096 3.143 17.923 3.134 16.75 3.125 C16.461 3.121 16.461 3.121 14.998 3.1 C12.399 3.085 10.073 3.16 7.516 3.676 C3.961 4.381 0.491 4.411 -3.125 4.438 C-3.832 4.458 -4.539 4.479 -5.268 4.5 C-8.702 4.526 -10.562 4.492 -13.559 2.672 C-14.055 2.182 -14.551 1.692 -15.062 1.188 C-10.022 0.33 -5.11 -0.005 0 0 Z M13.938 3.188 C15.938 4.188 15.938 4.188 15.938 4.188 Z " fill="#959595" transform="translate(74.0625,4.8125)"/>
<path d="M0 0 C2.25 -0.312 2.25 -0.312 5 0 C6.875 2.188 6.875 2.188 7.828 3.57 C9.239 5.292 10.775 6.332 12.625 7.562 C15.341 9.4 16.929 10.787 18 14 C15.393 12.748 12.845 11.396 10.312 10 C9.711 9.67 9.109 9.34 8.488 9 C7 8 7 8 6 6 C4.68 6.33 3.36 6.66 2 7 C1.67 10.3 1.34 13.6 1 17 C-1 15 -1 15 -1.23 12.031 C-1.226 10.854 -1.212 9.677 -1.188 8.5 C-1.187 8.203 -1.187 8.203 -1.186 6.699 C-1.141 2.281 -1.141 2.281 0 0 Z " fill="#818180" transform="translate(52,52)"/>
<path d="M0 0 C6.75 2.25 6.75 2.25 10 5 C7.69 4.67 5.38 4.34 3 4 C3.01 4.534 3.021 5.067 3.032 5.617 C3.074 8.078 3.099 10.539 3.125 13 C3.142 13.839 3.159 14.678 3.176 15.543 C3.218 20.998 2.615 25.785 1 31 C0.67 31 0.34 31 0 31 C0 20.77 0 10.54 0 0 Z " fill="#808180" transform="translate(76,26)"/>
<path d="M0 0 C0 0.99 0 1.98 0 3 C-4.01 3.752 -7.739 4.12 -11.836 4.098 C-12.36 4.096 -12.884 4.095 -13.424 4.093 C-15.075 4.088 -16.725 4.075 -18.375 4.062 C-19.504 4.057 -20.633 4.053 -21.762 4.049 C-24.508 4.038 -27.254 4.021 -30 4 C-27.366 1.806 -25.653 0.631 -22.207 0.488 C-21.498 0.453 -20.789 0.417 -20.058 0.381 C-19.317 0.358 -18.576 0.336 -17.812 0.312 C-17.055 0.279 -16.298 0.246 -15.518 0.211 C-10.347 -0.002 -5.174 -0.133 0 0 Z " fill="#595A5A" transform="translate(94,97)"/>
<path d="M0 0 C1.98 0.66 3.96 1.32 6 2 C5.234 2.962 4.462 3.92 3.688 4.875 C3.258 5.409 2.829 5.942 2.387 6.492 C1.026 7.972 -0.332 8.901 -2 10 C-2.688 11.625 -2.688 11.625 -3 13 C-2.01 13.66 -1.02 14.32 0 15 C-4.257 16.622 -7.451 17.217 -12 17 C-9.886 13.297 -7.668 10.596 -4.312 7.938 C-0.6 4.931 -0.6 4.931 -0.062 2.125 C-0.042 1.424 -0.021 0.722 0 0 Z " fill="#C2C2C2" transform="translate(109,74)"/>
<path d="M0 0 C0.99 0.33 1.98 0.66 3 1 C3 1.99 3 2.98 3 4 C3.66 4 4.32 4 5 4 C8.46 9.997 8.134 16.282 8 23 C8.66 23 9.32 23 10 23 C10.33 24.32 10.66 25.64 11 27 C11.66 27 12.32 27 13 27 C13 22.38 13 17.76 13 13 C13.33 13 13.66 13 14 13 C14.058 15.437 14.094 17.875 14.125 20.312 C14.133 20.658 14.133 20.658 14.176 22.404 C14.182 23.071 14.189 23.738 14.195 24.426 C14.206 25.038 14.216 25.651 14.227 26.282 C13.959 28.312 13.24 29.397 12 31 C11.01 30.67 10.02 30.34 9 30 C9 29.34 9 28.68 9 28 C8.34 28 7.68 28 7 28 C6.983 27.789 6.983 27.789 6.896 26.722 C6.044 16.983 4.355 8.776 0 0 Z " fill="#6F6F6F" transform="translate(125,30)"/>
<path d="M0 0 C0 7.92 0 15.84 0 24 C-0.66 24 -1.32 24 -2 24 C-3.659 19.001 -4.378 14.313 -4.625 9.062 C-4.664 8.379 -4.702 7.695 -4.742 6.99 C-4.835 5.327 -4.921 3.664 -5 2 C-5.33 2.165 -5.33 2.165 -7 3 C-7.66 2.34 -8.32 1.68 -9 1 C-5.287 -1.338 -4.806 -0.961 0 0 Z " fill="#ADADAD" transform="translate(70,31)"/>
<path d="M0 0 C3 3 6 6 9 9 C7.35 9 5.7 9 4 9 C3.67 9.99 3.34 10.98 3 12 C0.665 11.827 -0.692 11.298 -2.379 9.668 C-6 5.428 -6 5.428 -6 3 C-5.01 3 -4.02 3 -3 3 C-1.312 1.5 -1.312 1.5 0 0 Z " fill="#878686" transform="translate(22,65)"/>
<path d="M0 0 C8.001 0.987 13.42 3.548 20 8 C17.509 9.245 16.589 8.777 14 8 C14 7.34 14 6.68 14 6 C13.01 6 12.02 6 11 6 C11 6.99 11 7.98 11 9 C6.377 7.679 2.877 5.832 -1 3 C-0.67 2.01 -0.34 1.02 0 0 Z " fill="#6F6F6F" transform="translate(103,11)"/>
<path d="M0 0 C0.66 0.99 1.32 1.98 2 3 C2.33 2.34 2.66 1.68 3 1 C3.33 1.99 3.66 2.98 4 4 C4.66 3.01 5.32 2.02 6 1 C6.699 2.766 6.699 2.766 7 5 C5.707 6.922 5.707 6.922 3.812 8.75 C3.506 9.057 3.506 9.057 1.957 10.609 C-0.267 12.19 -1.335 12.307 -4 12 C-3.67 10.02 -3.34 8.04 -3 6 C-3.99 5.67 -4.98 5.34 -6 5 C-4.02 3.35 -2.04 1.7 0 0 Z " fill="#878786" transform="translate(125,68)"/>
<path d="M0 0 C0.66 0.33 1.32 0.66 2 1 C1.564 1.389 1.129 1.779 0.68 2.18 C-6.374 8.806 -11.434 16.333 -13 26 C-12.34 26 -11.68 26 -11 26 C-11 26.66 -11 27.32 -11 28 C-10.01 28 -9.02 28 -8 28 C-7.67 27.34 -7.34 26.68 -7 26 C-7 28.97 -7 31.94 -7 35 C-7.33 33.68 -7.66 32.36 -8 31 C-9.65 31 -11.3 31 -13 31 C-14.66 27.713 -15.206 25.048 -14.488 21.402 C-11.59 12.709 -6.515 6.387 0 0 Z " fill="#D2D2D2" transform="translate(16,17)"/>
<path d="M0 0 C5.49 1.579 9.796 3.067 14 7 C12.68 7 11.36 7 10 7 C10.66 8.65 11.32 10.3 12 12 C7.652 12 5.042 10.027 2 7 C0.911 4.708 0.354 2.507 0 0 Z " fill="#B8B8B8" transform="translate(115,7)"/>
<path d="M0 0 C2.833 0.708 4.711 2.236 7 4 C6.786 4.055 6.786 4.055 5.702 4.335 C3.738 4.845 1.775 5.36 -0.188 5.875 C-0.524 5.962 -0.524 5.962 -2.229 6.402 C-5.944 7.381 -9.471 8.479 -13 10 C-13 9.01 -13 8.02 -13 7 C-12.34 7 -11.68 7 -11 7 C-10.67 6.34 -10.34 5.68 -10 5 C-9.67 4.67 -9.34 4.34 -9 4 C-10.32 3.67 -11.64 3.34 -13 3 C-10.255 1.842 -7.766 1.899 -4.812 1.938 C-3.911 1.947 -3.01 1.956 -2.082 1.965 C-1.395 1.976 -0.708 1.988 0 2 C0 1.34 0 0.68 0 0 Z " fill="#7F7F7F" transform="translate(54,8)"/>
<path d="M0 0 C1.319 0.397 2.63 0.818 3.938 1.25 C4.668 1.482 5.399 1.714 6.152 1.953 C8 3 8 3 8.688 4.969 C8.791 5.639 8.894 6.309 9 7 C9.637 8.348 10.296 9.686 11 11 C10.795 10.928 10.795 10.928 9.758 10.562 C9.219 10.377 8.68 10.191 8.125 10 C7.591 9.814 7.058 9.629 6.508 9.438 C5 9 5 9 3 9 C2.67 10.32 2.34 11.64 2 13 C-0.19 8.62 -0.216 4.847 0 0 Z " fill="#B9B9B8" transform="translate(1,55)"/>
<path d="M0 0 C0.66 0.33 1.32 0.66 2 1 C0.68 4.711 -0.875 7.399 -3.375 10.5 C-3.688 10.89 -4.001 11.28 -4.324 11.682 C-5.213 12.79 -6.107 13.895 -7 15 C-7.708 15.937 -8.417 16.875 -9.125 17.812 C-14.299 23.849 -14.299 23.849 -18.812 24.25 C-19.534 24.168 -20.256 24.085 -21 24 C-20.319 23.484 -19.639 22.969 -18.938 22.438 C-10.244 15.487 -10.244 15.487 -8 11 C-7.34 11 -6.68 11 -6 11 C-5.732 10.422 -5.464 9.845 -5.188 9.25 C-4 7 -4 7 -2.438 4.938 C-1.171 3.23 -0.508 2.033 0 0 Z " fill="#B9B9B9" transform="translate(101,66)"/>
<path d="M0 0 C1.113 0.007 2.227 0.019 3.34 0.035 C3.624 0.037 3.624 0.037 5.061 0.049 C6.466 0.061 7.872 0.079 9.277 0.098 C11.945 4.655 12.697 7.841 12.277 13.098 C11.947 13.263 11.947 13.263 10.277 14.098 C10.277 11.128 10.277 8.158 10.277 5.098 C5.691 3.241 3.082 2.844 -1.723 4.098 C-4.098 5.16 -4.098 5.16 -5.723 6.098 C-3.425 0.123 -3.425 0.123 0 0 Z " fill="#5B5B5B" transform="translate(81.72265625,59.90234375)"/>
<path d="M0 0 C2 2 2 2 2.227 3.512 C2.217 4.088 2.206 4.664 2.195 5.258 C2.189 5.883 2.182 6.508 2.176 7.152 C2.159 7.803 2.142 8.454 2.125 9.125 C2.116 9.784 2.107 10.442 2.098 11.121 C2.074 12.748 2.038 14.374 2 16 C1.34 16 0.68 16 0 16 C-0.33 14.68 -0.66 13.36 -1 12 C-1.66 12 -2.32 12 -3 12 C-3.081 10.563 -3.139 9.126 -3.188 7.688 C-3.222 6.887 -3.257 6.086 -3.293 5.262 C-2.938 2.521 -2.106 1.708 0 0 Z " fill="#484748" transform="translate(136,41)"/>
<path d="M0 0 C0.99 0 1.98 0 3 0 C4.141 1.172 4.141 1.172 5.25 2.75 C7.961 6.249 11.067 8.073 15 10 C14.67 10.495 14.67 10.495 13 13 C8.939 12.46 6.984 10.439 4.25 7.625 C3.839 7.225 3.428 6.826 3.004 6.414 C0 3.38 0 3.38 0 0 Z " fill="#838383" transform="translate(58,76)"/>
<path d="M0 0 C0.33 0 0.66 0 1 0 C1.098 0.892 1.196 1.784 1.297 2.703 C1.447 3.886 1.598 5.068 1.75 6.25 C1.812 6.837 1.874 7.423 1.938 8.027 C2.36 11.161 2.823 12.767 4.781 15.344 C7.182 17.136 8.82 17.733 11.75 18.25 C12.549 18.4 13.348 18.549 14.172 18.703 C14.775 18.801 15.378 18.899 16 19 C16 19.33 16 19.66 16 20 C10.738 20.353 7.155 20.443 3 17 C1.803 15.378 0.927 13.805 0 12 C-1.32 13.98 -2.64 15.96 -4 18 C-4.33 17.34 -4.66 16.68 -5 16 C-4.845 15.814 -4.845 15.814 -4.062 14.875 C-2.594 12.283 -2.393 9.948 -2 7 C-1.67 7 -1.34 7 -1 7 C-0.67 4.69 -0.34 2.38 0 0 Z " fill="#949493" transform="translate(102,55)"/>
<path d="M0 0 C0.33 0 0.66 0 1 0 C1.404 3.534 1.735 6.683 -0.043 9.867 C-1.292 11.399 -2.456 12.765 -4 14 C-4.66 14 -5.32 14 -6 14 C-6.33 15.32 -6.66 16.64 -7 18 C-7.33 18 -7.66 18 -8 18 C-7.858 16.895 -7.711 15.791 -7.562 14.688 C-7.481 14.073 -7.4 13.458 -7.316 12.824 C-7.023 11.13 -6.59 9.612 -6 8 C-5.34 8 -4.68 8 -4 8 C-4 7.01 -4 6.02 -4 5 C-3.34 5 -2.68 5 -2 5 C-1.34 3.35 -0.68 1.7 0 0 Z " fill="#595959" transform="translate(148,47)"/>
<path d="M0 0 C0.411 0.229 0.822 0.459 1.246 0.695 C1.03 0.881 1.03 0.881 -0.066 1.82 C-2.216 4.209 -3.428 6.79 -4.754 9.695 C-4.094 10.025 -3.434 10.355 -2.754 10.695 C-4.924 11.78 -5.996 11.802 -8.379 11.758 C-9.011 11.749 -9.642 11.74 -10.293 11.73 C-10.775 11.719 -11.257 11.707 -11.754 11.695 C-10.639 7.096 -5.256 -0.913 0 0 Z " fill="#B6B6B5" transform="translate(116.75390625,76.3046875)"/>
<path d="M0 0 C1.65 0 3.3 0 5 0 C5.33 1.32 5.66 2.64 6 4 C6.66 4 7.32 4 8 4 C8 4.66 8 5.32 8 6 C8.99 6 9.98 6 11 6 C10.34 7.65 9.68 9.3 9 11 C5.443 9.024 2.592 7.168 0 4 C-0.25 1.75 -0.25 1.75 0 0 Z " fill="#939393" transform="translate(11,76)"/>
<path d="M0 0 C7.098 -0.134 7.098 -0.134 10 1 C10 1.66 10 2.32 10 3 C11.32 3.33 12.64 3.66 14 4 C13.67 4.99 13.34 5.98 13 7 C12.01 6.67 11.02 6.34 10 6 C10 5.34 10 4.68 10 4 C7.352 2.927 4.717 1.884 2 1 C2.019 4.322 2.129 7.02 4.402 9.578 C5.894 10.799 7.395 11.935 9 13 C8.01 13.33 7.02 13.66 6 14 C5.161 13.215 4.329 12.421 3.5 11.625 C3.036 11.184 2.572 10.743 2.094 10.289 C1 9 1 9 1 7 C0.34 7 -0.32 7 -1 7 C-0.67 4.69 -0.34 2.38 0 0 Z " fill="#656464" transform="translate(60,69)"/>
<path d="M0 0 C0.33 0.66 0.66 1.32 1 2 C1.99 2 2.98 2 4 2 C3.67 5.63 3.34 9.26 3 13 C1.68 13.33 0.36 13.66 -1 14 C-1.027 12.229 -1.047 10.459 -1.062 8.688 C-1.074 7.701 -1.086 6.715 -1.098 5.699 C-1.018 3.485 -0.867 2.001 0 0 Z " fill="#525151" transform="translate(13,41)"/>
<path d="M0 0 C0.256 0.002 0.256 0.002 1.549 0.014 C2.803 0.025 4.058 0.043 5.312 0.062 C5.642 0.723 5.972 1.383 6.312 2.062 C8.875 2.688 8.875 2.688 11.312 3.062 C11.312 3.393 11.312 3.723 11.312 4.062 C9.208 4.144 7.106 4.203 5 4.25 C4.405 4.275 3.81 4.3 3.197 4.326 C-1.258 4.401 -1.258 4.401 -3.605 2.551 C-3.963 2.06 -4.32 1.569 -4.688 1.062 C-4.688 1.723 -4.688 2.383 -4.688 3.062 C-7.542 4.415 -9.7 3.789 -12.688 3.062 C-8.131 0.706 -5.196 -0.061 0 0 Z " fill="#858685" transform="translate(58.6875,6.9375)"/>
<path d="M0 0 C0.99 0.33 1.98 0.66 3 1 C3.33 3.64 3.66 6.28 4 9 C2.68 8.34 1.36 7.68 0 7 C-0.248 7.598 -0.495 8.196 -0.75 8.812 C-2.295 11.517 -3.206 12.567 -6 14 C-9.017 14.245 -11.98 14.174 -15 14 C-15 13.67 -15 13.34 -15 13 C-14.385 12.867 -13.77 12.734 -13.137 12.598 C-12.328 12.421 -11.52 12.244 -10.688 12.062 C-9.887 11.888 -9.086 11.714 -8.262 11.535 C-7.889 11.447 -7.889 11.447 -6 11 C-5.722 10.959 -5.722 10.959 -4.312 10.75 C-3 10 -3 10 -2.051 7.715 C-1.807 6.798 -1.564 5.882 -1.312 4.938 C-1.061 4.018 -0.81 3.099 -0.551 2.152 C-0.369 1.442 -0.187 0.732 0 0 Z " fill="#9A9A9A" transform="translate(47,61)"/>
<path d="M0 0 C0 3.3 0 6.6 0 10 C-0.33 10 -0.66 10 -1 10 C-1.121 9.434 -1.242 8.868 -1.367 8.285 C-1.535 7.552 -1.702 6.818 -1.875 6.062 C-2.037 5.332 -2.2 4.601 -2.367 3.848 C-3 2 -3 2 -5 1 C-7.094 1.086 -7.094 1.086 -9.5 1.375 C-10.294 1.465 -11.088 1.555 -11.906 1.648 C-14 2 -14 2 -16 3 C-15.052 0.63 -14.311 -0.767 -12.25 -2.312 C-7.594 -3.735 -4.244 -2.122 0 0 Z " fill="#535353" transform="translate(92,65)"/>
<path d="M0 0 C1.773 -0.238 1.773 -0.238 4 0 C5.852 1.645 5.852 1.645 7.625 3.812 C8.215 4.52 8.806 5.228 9.414 5.957 C10.691 7.602 11.882 9.245 13 11 C11.02 11.33 9.04 11.66 7 12 C7 11.01 7 10.02 7 9 C5.469 6.992 5.469 6.992 3.5 4.875 C0 1.083 0 1.083 0 0 Z " fill="#B6B6B6" transform="translate(32,76)"/>
<path d="M0 0 C0.33 0 0.66 0 1 0 C1.01 0.382 1.01 0.382 1.062 2.312 C1.372 3.199 1.681 4.086 2 5 C3.555 5.719 3.555 5.719 5.438 6.312 C7.344 6.977 7.344 6.977 9 8 C10.203 10.602 10.67 13.164 11 16 C9.68 15.34 8.36 14.68 7 14 C7.66 14 8.32 14 9 14 C9 13.01 9 12.02 9 11 C8.402 10.856 7.804 10.711 7.188 10.562 C5.422 10.109 3.719 9.602 2 9 C1.34 9.66 0.68 10.32 0 11 C0 7.37 0 3.74 0 0 Z " fill="#C0C0C0" transform="translate(0,47)"/>
<path d="M0 0 C1.314 0.114 2.626 0.241 3.938 0.375 C4.303 0.41 4.303 0.41 6.152 0.586 C6.762 0.723 7.372 0.859 8 1 C8.33 1.66 8.66 2.32 9 3 C8.196 3.124 7.391 3.248 6.562 3.375 C6.14 3.478 6.14 3.478 4 4 C3.67 4.66 3.34 5.32 3 6 C3.99 6.33 4.98 6.66 6 7 C4.728 6.885 3.458 6.758 2.188 6.625 C1.834 6.59 1.834 6.59 0.043 6.414 C-2.09 5.982 -3.296 5.323 -5 4 C-3.35 3.34 -1.7 2.68 0 2 C0 1.34 0 0.68 0 0 Z " fill="#929191" transform="translate(46,93)"/>
<path d="M0 0 C0.779 0.005 1.558 0.009 2.361 0.014 C4.262 0.025 6.162 0.042 8.062 0.062 C8.062 0.393 8.062 0.723 8.062 1.062 C6.082 1.062 4.102 1.062 2.062 1.062 C2.062 1.723 2.062 2.383 2.062 3.062 C-4.021 3.192 -9.905 2.861 -15.938 2.062 C-15.938 1.732 -15.938 1.402 -15.938 1.062 C-10.573 0.158 -5.434 -0.061 0 0 Z " fill="#AFAFAF" transform="translate(74.9375,4.9375)"/>
<path d="M0 0 C1.32 0.66 2.64 1.32 4 2 C1.206 5.8 -1.85 8.696 -5.512 11.668 C-7 13 -7 13 -8 15 C-7.34 15.66 -6.68 16.32 -6 17 C-7.98 17 -9.96 17 -12 17 C-9.886 13.297 -7.668 10.596 -4.312 7.938 C-0.6 4.931 -0.6 4.931 -0.062 2.125 C-0.042 1.424 -0.021 0.722 0 0 Z " fill="#CBCBCA" transform="translate(109,74)"/>
<path d="M0 0 C4.677 2.338 4.677 2.338 6.312 5.688 C6.426 6.069 6.426 6.069 7 8 C6.01 8 5.02 8 4 8 C4 6.68 4 5.36 4 4 C2.35 4 0.7 4 -1 4 C-0.34 5.98 0.32 7.96 1 10 C0.34 10.66 -0.32 11.32 -1 12 C-2.845 8.886 -3.464 6.617 -3 3 C-1.5 1.188 -1.5 1.188 0 0 Z " fill="#929292" transform="translate(139,25)"/>
<path d="M0 0 C0.66 0 1.32 0 2 0 C2.508 0.933 3.006 1.872 3.5 2.812 C3.778 3.335 4.057 3.857 4.344 4.395 C5 6 5 6 5 9 C1.758 8.65 0.385 8.438 -1.812 5.938 C-2.204 5.298 -2.596 4.659 -3 4 C-2.34 4 -1.68 4 -1 4 C-0.67 2.68 -0.34 1.36 0 0 Z " fill="#9A9999" transform="translate(26,73)"/>
<path d="M0 0 C1.292 2.584 1.029 4.883 0.523 7.637 C0 9 0 9 -2.062 10.375 C-2.702 10.581 -3.341 10.787 -4 11 C-4.33 10.34 -4.66 9.68 -5 9 C-5.66 8.67 -6.32 8.34 -7 8 C-6.01 6.02 -5.02 4.04 -4 2 C-3.34 2.33 -2.68 2.66 -2 3 C-1.34 2.01 -0.68 1.02 0 0 Z " fill="#7B7A7A" transform="translate(132,62)"/>
<path d="M0 0 C0.33 0 0.66 0 1 0 C1.266 6.95 0.612 13.235 -1 20 C-1.33 20 -1.66 20 -2 20 C-2.059 17.604 -2.094 15.209 -2.125 12.812 C-2.142 12.139 -2.159 11.465 -2.176 10.771 C-2.216 6.656 -1.826 3.703 0 0 Z " fill="#BFBFBF" transform="translate(73,30)"/>
<path d="M0 0 C1.46 0.282 2.918 0.576 4.375 0.875 C5.187 1.037 5.999 1.2 6.836 1.367 C9 2 9 2 11 4 C9.68 4.33 8.36 4.66 7 5 C7 4.34 7 3.68 7 3 C6.67 3.165 6.67 3.165 5 4 C5 4.99 5 5.98 5 7 C3.515 6.67 3.515 6.67 -4 5 C-4 4.67 -4 4.34 -4 4 C-2.35 3.67 -0.7 3.34 1 3 C0.67 2.01 0.34 1.02 0 0 Z " fill="#888888" transform="translate(98,8)"/>
<path d="M0 0 C0.33 0.66 0.66 1.32 1 2 C1.66 2 2.32 2 3 2 C3.289 2.639 3.578 3.279 3.875 3.938 C5 6 5 6 7 7 C6.34 8.32 5.68 9.64 5 11 C3.68 10.67 2.36 10.34 1 10 C0.635 8.899 0.284 7.794 -0.062 6.688 C-0.26 6.073 -0.457 5.458 -0.66 4.824 C-1.033 2.825 -0.809 1.838 0 0 Z " fill="#666566" transform="translate(15,58)"/>
<path d="M0 0 C0.33 0 0.66 0 1 0 C1.024 0.429 1.024 0.429 1.148 2.598 C1.531 8.65 1.987 14.23 4 20 C2.543 19.629 2.543 19.629 1 19 C0.312 16.938 0.312 16.938 0 15 C-0.66 15 -1.32 15 -2 15 C-2 14.01 -2 13.02 -2 12 C-1.34 12 -0.68 12 0 12 C0 8.04 0 4.08 0 0 Z " fill="#8F8E8E" transform="translate(18,45)"/>
<path d="M0 0 C2 1 2 1 3 2 C3.362 3.326 3.697 4.659 4 6 C3.175 6.495 3.175 6.495 -1 9 C-1.33 7.35 -1.66 5.7 -2 4 C-2.66 4.33 -2.66 4.33 -6 6 C-4 4 -2 2 0 0 Z " fill="#727272" transform="translate(31,16)"/>
<path d="M0 0 C2.527 1.06 4.759 2.432 7 4 C5.176 5.05 4.044 5.681 2 6 C-0.493 5.294 -2.72 4.222 -5 3 C-3.357 1.88 -1.783 0.891 0 0 Z " fill="#DADADA" transform="translate(100,2)"/>
<path d="M0 0 C2.97 0.99 5.94 1.98 9 3 C9 3.99 9 4.98 9 6 C8.216 5.67 7.433 5.34 6.625 5 C4 4 4 4 2 4 C1.67 5.32 1.34 6.64 1 8 C-0.391 5.218 -0.067 3.098 0 0 Z " fill="#B4B4B4" transform="translate(2,60)"/>
<path d="M0 0 C0.33 0 0.66 0 1 0 C1.054 1.27 1.093 2.541 1.125 3.812 C1.148 4.52 1.171 5.228 1.195 5.957 C0.979 8.215 0.401 9.251 -1 11 C-1.268 10.546 -1.536 10.093 -1.812 9.625 C-3.054 7.926 -4.203 7.062 -6 6 C-4 4 -2 2 0 0 Z " fill="#616161" transform="translate(148,55)"/>
<path d="M0 0 C0.99 0.33 1.98 0.66 3 1 C3 1.99 3 2.98 3 4 C3.66 4 4.32 4 5 4 C7.026 7.349 7.217 9.87 7.125 13.75 C7.107 14.735 7.089 15.72 7.07 16.734 C7.059 17.108 7.059 17.108 7 19 C6.67 19 6.34 19 6 19 C5.951 18.691 5.951 18.691 5.703 17.129 C4.609 10.934 2.8 5.627 0 0 Z " fill="#8D8C8C" transform="translate(125,30)"/>
<path d="M0 0 C0.99 0.33 1.98 0.66 3 1 C3.33 2.65 3.66 4.3 4 6 C3.01 5.67 2.02 5.34 1 5 C-1.899 7.395 -2.502 9.312 -3 13 C-3.33 13 -3.66 13 -4 13 C-4 10.69 -4 8.38 -4 6 C-3.34 6 -2.68 6 -2 6 C-1.856 5.196 -1.711 4.391 -1.562 3.562 C-1 1 -1 1 0 0 Z " fill="#888787" transform="translate(144,32)"/>
<path d="M0 0 C1.32 0.66 2.64 1.32 4 2 C4 2.99 4 3.98 4 5 C3.34 5.66 2.68 6.32 2 7 C1.01 7 0.02 7 -1 7 C-1.625 4.625 -1.625 4.625 -2 2 C-1.34 1.34 -0.68 0.68 0 0 Z " fill="#989797" transform="translate(135,20)"/>
<path d="M0 0 C4.338 -0.482 4.338 -0.482 6.223 0.891 C7.197 1.882 8.104 2.938 9 4 C8.67 4.165 8.67 4.165 7 5 C7 4.34 7 3.68 7 3 C4.677 4.373 3.373 5.677 2 8 C1.663 7.043 1.33 6.084 1 5.125 C0.814 4.591 0.629 4.058 0.438 3.508 C0 2 0 2 0 0 Z " fill="#B0B0B0" transform="translate(125,14)"/>
<path d="M0 0 C0.33 1.65 0.66 3.3 1 5 C-0.65 4.67 -2.3 4.34 -4 4 C-4 5.98 -4 7.96 -4 10 C-4.33 10 -4.66 10 -5 10 C-5.33 6.7 -5.66 3.4 -6 0 C-3.509 -1.245 -2.589 -0.777 0 0 Z " fill="#9A9A99" transform="translate(55,38)"/>
<path d="M0 0 C2.97 0.99 5.94 1.98 9 3 C7.35 4.65 5.7 6.3 4 8 C2 7 2 7 1.367 5.371 C1.139 4.476 1.139 4.476 0 0 Z " fill="#C6C6C5" transform="translate(115,7)"/>
<path d="M0 0 C0.66 0.33 1.32 0.66 2 1 C1.67 1.66 1.34 2.32 1 3 C1.99 3.33 2.98 3.66 4 4 C2.25 5.562 2.25 5.562 0 7 C-2.25 6.688 -2.25 6.688 -4 6 C-2.25 1.125 -2.25 1.125 0 0 Z " fill="#9A9A9A" transform="translate(120,77)"/>
<path d="M0 0 C0.33 0 0.66 0 1 0 C1.121 0.459 1.242 0.918 1.367 1.391 C3.723 10.018 3.723 10.018 6.625 12.25 C7.079 12.498 7.532 12.745 8 13 C7.67 13.99 7.34 14.98 7 16 C3.265 12.65 0.251 9.647 -0.113 4.352 C-0.123 2.901 -0.067 1.449 0 0 Z " fill="#919191" transform="translate(50,62)"/>
<path d="M0 0 C2.64 0 5.28 0 8 0 C8 0.99 8 1.98 8 3 C1.571 4.286 1.571 4.286 -1 3 C-0.67 2.01 -0.34 1.02 0 0 Z " fill="#6C6B6C" transform="translate(50,96)"/>
<path d="M0 0 C0.66 0.33 1.32 0.66 2 1 C0.413 6.077 -2.735 9.862 -6 14 C-6.33 13.34 -6.66 12.68 -7 12 C-5.635 9.407 -4.154 7.201 -2.375 4.875 C-1.149 3.203 -0.497 1.988 0 0 Z " fill="#BDBDBD" transform="translate(101,66)"/>
<path d="M0 0 C-0.33 0.66 -0.66 1.32 -1 2 C-1.495 2.124 -1.99 2.248 -2.5 2.375 C-2.748 2.478 -2.748 2.478 -4 3 C-4.688 5.062 -4.688 5.062 -5 7 C-5.66 7 -6.32 7 -7 7 C-7.33 5.02 -7.66 3.04 -8 1 C-5.218 -0.391 -3.098 -0.067 0 0 Z " fill="#686868" transform="translate(45,12)"/>
<path d="M0 0 C1.98 0 3.96 0 6 0 C6 0.99 6 1.98 6 3 C3.855 3.165 3.855 3.165 -7 4 C-7 3.67 -7 3.34 -7 3 C-5.845 2.835 -5.845 2.835 0 2 C0 1.34 0 0.68 0 0 Z " fill="#535352" transform="translate(88,97)"/>
<path d="M0 0 C1.793 -0.081 3.581 -0.14 5.375 -0.188 C5.883 -0.213 6.391 -0.238 6.914 -0.264 C8.398 -0.293 8.398 -0.293 11 0 C12.352 1.512 12.352 1.512 13 3 C10.69 3.33 8.38 3.66 6 4 C6 3.01 6 2.02 6 1 C4.02 1 2.04 1 0 1 C0 0.67 0 0.34 0 0 Z " fill="#606060" transform="translate(88,96)"/>
<path d="M0 0 C0.99 0.66 0.99 0.66 6 4 C5.34 4.66 4.68 5.32 4 6 C1.375 5.625 1.375 5.625 -1 5 C-1.33 3.68 -1.66 2.36 -2 1 C-1.34 0.67 -0.68 0.34 0 0 Z " fill="#D2D2D2" transform="translate(83,90)"/>
<path d="M0 0 C0.268 0.578 0.536 1.155 0.812 1.75 C2 4 2 4 3.625 6 C5.171 8.249 5.286 9.334 5 12 C4.34 12 3.68 12 3 12 C2.67 10.68 2.34 9.36 2 8 C1.34 8 0.68 8 0 8 C0 5.36 0 2.72 0 0 Z " fill="#555555" transform="translate(133,45)"/>
<path d="M0 0 C0.33 0 0.66 0 1 0 C1.33 1.65 1.66 3.3 2 5 C2.99 4.67 3.98 4.34 5 4 C5 4.66 5 5.32 5 6 C4.34 6 3.68 6 3 6 C3 6.99 3 7.98 3 9 C2.34 9 1.68 9 1 9 C0.67 10.65 0.34 12.3 0 14 C-1.031 10.731 -0.964 8.14 -0.562 4.75 C-0.461 3.858 -0.359 2.966 -0.254 2.047 C-0.17 1.371 -0.086 0.696 0 0 Z " fill="#7F7E7E" transform="translate(141,46)"/>
<path d="M0 0 C0.33 0.66 0.66 1.32 1 2 C1.99 2 2.98 2 4 2 C2.751 5.459 1.325 8.147 -1 11 C-1.027 9.729 -1.046 8.458 -1.062 7.188 C-1.074 6.48 -1.086 5.772 -1.098 5.043 C-1.007 3.142 -0.703 1.754 0 0 Z " fill="#454445" transform="translate(13,41)"/>
<path d="M0 0 C2.994 1.297 4.226 2.339 6 5 C8.125 6.188 8.125 6.188 10 7 C9.34 7 8.68 7 8 7 C8 7.66 8 8.32 8 9 C7.01 8.67 6.02 8.34 5 8 C5 7.34 5 6.68 5 6 C3.02 6 1.04 6 -1 6 C0.32 5.67 1.64 5.34 3 5 C2.752 4.773 2.752 4.773 1.5 3.625 C0 2 0 2 0 0 Z " fill="#DDDDDD" transform="translate(52,86)"/>
<path d="M0 0 C3.125 1.505 6.115 3.077 9 5 C9 5.66 9 6.32 9 7 C6.36 7 3.72 7 1 7 C1.99 6.34 2.98 5.68 4 5 C3.67 4.773 3.67 4.773 2 3.625 C1.34 3.089 0.68 2.552 0 2 C0 1.34 0 0.68 0 0 Z " fill="#D0D0D0" transform="translate(46,84)"/>
<path d="M0 0 C1.461 2.923 2.341 4.925 3 8 C0.69 8.33 -1.62 8.66 -4 9 C-2.68 6.03 -1.36 3.06 0 0 Z " fill="#C5C6C6" transform="translate(75,80)"/>
<path d="M0 0 C0.124 0.454 0.248 0.908 0.375 1.375 C1 3 1 3 3 5 C0.36 5.99 -2.28 6.98 -5 8 C-5 7.01 -5 6.02 -5 5 C-4.34 5 -3.68 5 -3 5 C-2.67 4.34 -2.34 3.68 -2 3 C-1.67 2.67 -1.34 2.34 -1 2 C-2.32 1.67 -3.64 1.34 -5 1 C-3.19 0.342 -1.952 0 0 0 Z " fill="#7F7F7F" transform="translate(46,10)"/>
<path d="M0 0 C-3.217 2.193 -5.192 3.126 -9.125 3.062 C-9.487 3.058 -9.487 3.058 -11.32 3.035 C-11.597 3.029 -11.597 3.029 -13 3 C-9.217 -0.948 -5.079 -0.293 0 0 Z " fill="#606060" transform="translate(77,98)"/>
<path d="M0 0 C-0.33 0.66 -0.66 1.32 -1 2 C-2.848 2.414 -2.848 2.414 -5.062 2.625 C-5.429 2.662 -5.429 2.662 -7.285 2.852 C-7.851 2.901 -8.417 2.95 -9 3 C-9 2.01 -9 1.02 -9 0 C-5.675 -1.108 -3.378 -0.845 0 0 Z " fill="#7C7C7B" transform="translate(47,94)"/>
<path d="M0 0 C0.33 2.31 0.66 4.62 1 7 C-0.65 7.33 -2.3 7.66 -4 8 C-3.886 6.853 -3.759 5.707 -3.625 4.562 C-3.555 3.924 -3.486 3.286 -3.414 2.629 C-3.346 2.36 -3.346 2.36 -3 1 C-1 0 -1 0 0 0 Z " fill="#929291" transform="translate(125,72)"/>
<path d="M0 0 C-0.241 0.055 -0.241 0.055 -1.461 0.332 C-2.093 0.491 -2.724 0.649 -3.375 0.812 C-3.688 0.888 -3.688 0.888 -5.273 1.27 C-7.34 2.144 -7.947 3.058 -9 5 C-10.32 4.67 -11.64 4.34 -13 4 C-12.067 3.182 -11.129 2.371 -10.188 1.562 C-9.665 1.11 -9.143 0.658 -8.605 0.191 C-5.181 -2.35 -3.657 -2.144 0 0 Z " fill="#707070" transform="translate(93,50)"/>
<path d="M0 0 C1.149 0.954 2.294 1.914 3.438 2.875 C4.076 3.409 4.714 3.942 5.371 4.492 C7 6 7 6 8 8 C5.69 7.67 3.38 7.34 1 7 C1.33 6.34 1.66 5.68 2 5 C1.062 2.375 1.062 2.375 0 0 Z " fill="#AEAEAE" transform="translate(33,79)"/>
<path d="M0 0 C3.597 0.617 6.668 1.572 10 3 C10 3.99 10 4.98 10 6 C6.387 4.658 3.226 3.12 0 1 C0 0.67 0 0.34 0 0 Z " fill="#989898" transform="translate(20,87)"/>
<path d="M0 0 C3.96 1.17 6.797 2.29 10 5 C7.36 5 4.72 5 2 5 C1.34 3.35 0.68 1.7 0 0 Z " fill="#959595" transform="translate(76,26)"/>
<path d="M0 0 C1.375 1.5 1.375 1.5 2 3 C-4.389 3.315 -4.389 3.315 -6.938 2 C-7.288 1.67 -7.639 1.34 -8 1 C-5.334 -0.333 -2.939 -0.493 0 0 Z " fill="#C0C0C0" transform="translate(49,87)"/>
<path d="M0 0 C2.64 0 5.28 0 8 0 C7.67 1.32 7.34 2.64 7 4 C5.02 4 3.04 4 1 4 C1.33 3.34 1.66 2.68 2 2 C1.34 1.34 0.68 0.68 0 0 Z " fill="#A7A6A6" transform="translate(5,67)"/>
<path d="M0 0 C0.808 0.102 1.616 0.204 2.449 0.309 C3.064 0.392 3.679 0.476 4.312 0.562 C2.992 0.892 1.672 1.222 0.312 1.562 C0.312 2.222 0.312 2.882 0.312 3.562 C-2.831 3.053 -5.165 2.554 -7.688 0.562 C-4.987 -0.617 -2.888 -0.377 0 0 Z " fill="#8B8A8A" transform="translate(37.6875,92.4375)"/>
<path d="M0 0 C0 3 0 3 -1 5 C-0.34 5.33 0.32 5.66 1 6 C-1.31 6.33 -3.62 6.66 -6 7 C-4.02 4.69 -2.04 2.38 0 0 Z " fill="#AAAAAA" transform="translate(113,81)"/>
<path d="M0 0 C2.64 0.66 5.28 1.32 8 2 C8.33 3.32 8.66 4.64 9 6 C7.68 5.67 6.36 5.34 5 5 C5 4.34 5 3.68 5 3 C4.361 2.876 3.721 2.752 3.062 2.625 C2.382 2.419 1.701 2.213 1 2 C0.67 1.34 0.34 0.68 0 0 Z " fill="#6C6B6B" transform="translate(65,67)"/>
<path d="M0 0 C0.33 0.66 0.66 1.32 1 2 C1.99 2 2.98 2 4 2 C4 2.66 4 3.32 4 4 C5.32 4 6.64 4 8 4 C7.67 4.99 7.34 5.98 7 7 C4.69 6.01 2.38 5.02 0 4 C0 2.68 0 1.36 0 0 Z " fill="#494849" transform="translate(113,15)"/>
<path d="M0 0 C3.459 1.249 6.147 2.675 9 5 C6.548 5.28 4.706 5.435 2.555 4.109 C1.332 3.117 0.162 2.062 -1 1 C-0.67 0.67 -0.34 0.34 0 0 Z " fill="#969695" transform="translate(26,84)"/>
<path d="M0 0 C0.66 0.66 1.32 1.32 2 2 C1.625 4.625 1.625 4.625 1 7 C-1.5 5.625 -1.5 5.625 -4 4 C-4 3.34 -4 2.68 -4 2 C-3.01 2 -2.02 2 -1 2 C-0.67 1.34 -0.34 0.68 0 0 Z " fill="#7B7B7B" transform="translate(20,66)"/>
<path d="M0 0 C0.99 0.33 1.98 0.66 3 1 C2.812 2.875 2.812 2.875 2 5 C-0.562 6.25 -0.562 6.25 -3 7 C-1.125 2.25 -1.125 2.25 0 0 Z " fill="#6A696A" transform="translate(145,39)"/>
<path d="M0 0 C1.675 0.286 3.344 0.618 5 1 C5 1.66 5 2.32 5 3 C5.66 3.33 6.32 3.66 7 4 C4.36 4 1.72 4 -1 4 C-1 1 -1 1 0 0 Z " fill="#7A7A79" transform="translate(31,89)"/>
<path d="M0 0 C1.32 0 2.64 0 4 0 C4 0.66 4 1.32 4 2 C4.66 2 5.32 2 6 2 C6 2.66 6 3.32 6 4 C4.35 4 2.7 4 1 4 C0.67 2.68 0.34 1.36 0 0 Z " fill="#6D6C6D" transform="translate(46,10)"/>
<path d="M0 0 C0.33 0.66 0.66 1.32 1 2 C1.99 2.66 2.98 3.32 4 4 C2.515 4.165 2.515 4.165 -5 5 C-3.35 3.35 -1.7 1.7 0 0 Z " fill="#BCBCBC" transform="translate(105,85)"/>
<path d="M0 0 C1.32 0.66 2.64 1.32 4 2 C3.34 3.32 2.68 4.64 2 6 C0.68 5.67 -0.64 5.34 -2 5 C-1.34 4.67 -0.68 4.34 0 4 C0 2.68 0 1.36 0 0 Z " fill="#8F8F8F" transform="translate(23,71)"/>
<path d="M0 0 C2.31 0.33 4.62 0.66 7 1 C6.34 2.32 5.68 3.64 5 5 C2.5 3.625 2.5 3.625 0 2 C0 1.34 0 0.68 0 0 Z " fill="#989898" transform="translate(15,82)"/>
<path d="M0 0 C0.825 0.33 0.825 0.33 5 2 C5 3.65 5 5.3 5 7 C3.5 5.625 3.5 5.625 2 4 C2 3.34 2 2.68 2 2 C1.34 2 0.68 2 0 2 C0 1.34 0 0.68 0 0 Z " fill="#575656" transform="translate(68,78)"/>
<path d="M0 0 C-0.99 0 -1.98 0 -3 0 C-3 0.66 -3 1.32 -3 2 C-5.854 3.352 -8.012 2.727 -11 2 C-4.458 -1.384 -4.458 -1.384 0 0 Z " fill="#9B9B9B" transform="translate(57,8)"/>
<path d="M0 0 C1.539 3.078 0.647 5.766 0 9 C-0.99 7.68 -1.98 6.36 -3 5 C-2.01 3.35 -1.02 1.7 0 0 Z " fill="#6C6B6B" transform="translate(132,62)"/>
<path d="M0 0 C0.825 0.33 0.825 0.33 5 2 C5 2.99 5 3.98 5 5 C2.5 3.625 2.5 3.625 0 2 C0 1.34 0 0.68 0 0 Z " fill="#898989" transform="translate(68,62)"/>
<path d="M0 0 C0.33 0 0.66 0 1 0 C1.188 2.375 1.188 2.375 1 5 C-0.5 6.312 -0.5 6.312 -2 7 C-2.125 4.625 -2.125 4.625 -2 2 C-1.34 1.34 -0.68 0.68 0 0 Z " fill="#636363" transform="translate(29,21)"/>
<path d="M0 0 C2 2 2 2 2.125 4.125 C2.084 4.744 2.043 5.363 2 6 C0.68 5.34 -0.64 4.68 -2 4 C-1.34 2.68 -0.68 1.36 0 0 Z " fill="#BDBDBD" transform="translate(121,11)"/>
<path d="M0 0 C-3.75 3 -3.75 3 -6 3 C-6 2.01 -6 1.02 -6 0 C-3.509 -1.245 -2.589 -0.777 0 0 Z " fill="#A3A3A3" transform="translate(124,81)"/>
<path d="M0 0 C1.65 1.65 3.3 3.3 5 5 C3.68 5 2.36 5 1 5 C0.34 3.68 -0.32 2.36 -1 1 C-0.67 0.67 -0.34 0.34 0 0 Z " fill="#DBDBDB" transform="translate(41,74)"/>
<path d="M0 0 C0.676 0.763 1.34 1.536 2 2.312 C2.186 2.527 2.186 2.527 3.125 3.613 C4 5 4 5 4 8 C0.062 4.554 0.062 4.554 -0.25 1.75 C-0.168 1.172 -0.085 0.595 0 0 Z " fill="#A9A9A8" transform="translate(103,65)"/>
<path d="M0 0 C0.66 0.165 0.66 0.165 4 1 C3.67 1.99 3.34 2.98 3 4 C1.68 3.67 0.36 3.34 -1 3 C-0.67 2.01 -0.34 1.02 0 0 Z " fill="#605F5F" transform="translate(103,11)"/>
<path d="M0 0 C2.375 -0.188 2.375 -0.188 5 0 C6.312 1.5 6.312 1.5 7 3 C6.031 2.876 5.061 2.752 4.062 2.625 C3.517 2.555 2.972 2.486 2.41 2.414 C2.177 2.346 2.177 2.346 1 2 C0.67 1.34 0.34 0.68 0 0 Z " fill="#828281" transform="translate(24,87)"/>
<path d="M0 0 C1.5 0.812 1.5 0.812 3 2 C3 2.99 3 3.98 3 5 C1.68 4.34 0.36 3.68 -1 3 C-0.67 2.01 -0.34 1.02 0 0 Z " fill="#CECECE" transform="translate(39,75)"/>
<path d="M0 0 C0.66 0.33 0.66 0.33 4 2 C3.34 3.32 2.68 4.64 2 6 C1.34 5.67 0.68 5.34 0 5 C0 3.35 0 1.7 0 0 Z " fill="#6F6F6F" transform="translate(18,63)"/>
<path d="M0 0 C0 0.66 0 1.32 0 2 C-1.65 2.66 -3.3 3.32 -5 4 C-5.66 3.34 -6.32 2.68 -7 2 C-4.353 0.539 -3.106 0 0 0 Z " fill="#B1B0B1" transform="translate(68,30)"/>
<path d="M0 0 C2.876 1.246 4.485 2.222 6 5 C3.562 4.188 3.562 4.188 1 3 C0.188 1.375 0.188 1.375 0 0 Z " fill="#CCCCCB" transform="translate(46,84)"/>
<path d="M0 0 C2.092 3.569 2.092 3.569 1.625 5.75 C1.419 6.162 1.212 6.575 1 7 C0.01 5.68 -0.98 4.36 -2 3 C-1.34 3 -0.68 3 0 3 C0 2.01 0 1.02 0 0 Z " fill="#A2A2A2" transform="translate(25,74)"/>
<path d="M0 0 C2.31 0.33 4.62 0.66 7 1 C3.431 3.092 3.431 3.092 1.25 2.625 C0.838 2.419 0.425 2.212 0 2 C0 1.34 0 0.68 0 0 Z " fill="#DFE0E0" transform="translate(7,29)"/>
<path d="M0 0 C0.66 0.33 1.32 0.66 2 1 C1.67 1.99 1.34 2.98 1 4 C0.01 4 -0.98 4 -2 4 C-2 3.01 -2 2.02 -2 1 C-1.34 0.67 -0.68 0.34 0 0 Z " fill="#8F8F8F" transform="translate(136,23)"/>
<path d="M0 0 C0.66 0.165 0.66 0.165 4 1 C3.67 1.66 3.34 2.32 3 3 C1.68 2.67 0.36 2.34 -1 2 C-0.67 1.34 -0.34 0.68 0 0 Z " fill="#757474" transform="translate(43,93)"/>
<path d="M0 0 C0.99 0.33 1.98 0.66 3 1 C2.67 2.32 2.34 3.64 2 5 C1.34 4.34 0.68 3.68 0 3 C0 2.01 0 1.02 0 0 Z " fill="#A7A7A6" transform="translate(8,74)"/>
<path d="M0 0 C0.825 0.165 0.825 0.165 5 1 C4.67 1.99 4.34 2.98 4 4 C2.68 2.68 1.36 1.36 0 0 Z " fill="#7B7B7B" transform="translate(114,20)"/>
<path d="M0 0 C0.99 0.165 0.99 0.165 6 1 C5.763 1.062 5.763 1.062 4.562 1.375 C3 2 3 2 2 4 C1.34 2.68 0.68 1.36 0 0 Z " fill="#979696" transform="translate(98,8)"/>
<path d="M0 0 C-0.33 0.99 -0.66 1.98 -1 3 C-2.65 3 -4.3 3 -6 3 C-2.25 0 -2.25 0 0 0 Z " fill="#B4B4B4" transform="translate(86,87)"/>
<path d="M0 0 C0.825 0.165 0.825 0.165 5 1 C5 1.66 5 2.32 5 3 C4.175 2.67 4.175 2.67 0 1 C0 0.67 0 0.34 0 0 Z " fill="#9D9D9D" transform="translate(20,87)"/>
<path d="M0 0 C1.32 0.33 2.64 0.66 4 1 C3.67 2.32 3.34 3.64 3 5 C2.01 3.35 1.02 1.7 0 0 Z " fill="#7D7D7C" transform="translate(70,66)"/>
<path d="M0 0 C0.66 1.32 1.32 2.64 2 4 C1.01 4.33 0.02 4.66 -1 5 C-0.67 3.35 -0.34 1.7 0 0 Z " fill="#727172" transform="translate(36,16)"/>
<path d="M0 0 C0.66 0.66 1.32 1.32 2 2 C1.34 2.66 0.68 3.32 0 4 C-0.99 3.01 -1.98 2.02 -3 1 C-2.01 0.67 -1.02 0.34 0 0 Z " fill="#DFDFDE" transform="translate(98,3)"/>
<path d="M0 0 C0.66 0 1.32 0 2 0 C2.33 1.32 2.66 2.64 3 4 C2.01 3.67 1.02 3.34 0 3 C0 2.01 0 1.02 0 0 Z " fill="#838383" transform="translate(19,61)"/>
<path d="M0 0 C0.33 0.99 0.66 1.98 1 3 C0.01 3 -0.98 3 -2 3 C-2 2.34 -2 1.68 -2 1 C-1.34 0.67 -0.68 0.34 0 0 Z " fill="#858685" transform="translate(140,28)"/>
<path d="M0 0 C0.66 0 1.32 0 2 0 C1.67 1.32 1.34 2.64 1 4 C0.34 3.01 -0.32 2.02 -1 1 C-0.67 0.67 -0.34 0.34 0 0 Z " fill="#B2B2B2" transform="translate(131,23)"/>
<path d="M0 0 C0.495 0.33 0.495 0.33 3 2 C1.68 2.33 0.36 2.66 -1 3 C-0.67 2.01 -0.34 1.02 0 0 Z " fill="#B6B6B6" transform="translate(111,85)"/>
<path d="M0 0 C0.99 0 1.98 0 3 0 C2.67 0.99 2.34 1.98 2 3 C1.34 2.67 0.68 2.34 0 2 C0 1.34 0 0.68 0 0 Z " fill="#919090" transform="translate(16,68)"/>
<path d="M0 0 C0.66 0.33 1.32 0.66 2 1 C1.01 1 0.02 1 -1 1 C-0.67 0.67 -0.34 0.34 0 0 Z " fill="#D7D7D7" transform="translate(20,14)"/>
<path d="M0 0 C4 1 4 1 4 1 Z " fill="#D8D8D8" transform="translate(49,2)"/>
<path d="M0 0 C3 1 3 1 3 1 Z " fill="#DADADA" transform="translate(35,6)"/>
<path d="M0 0 C3 1 3 1 3 1 Z " fill="#DADADA" transform="translate(38,5)"/>
<path d="M0 0 C3 1 3 1 3 1 Z " fill="#DBDBDA" transform="translate(41,4)"/>
<path d="M0 0 C3 1 3 1 3 1 Z " fill="#D9D9D9" transform="translate(45,3)"/>
<path d="M0 0 C2 1 2 1 2 1 Z " fill="#D8D8D8" transform="translate(23,12)"/>
<path d="M0 0 C2 1 2 1 2 1 Z " fill="#D6D6D6" transform="translate(25,11)"/>
<path d="M0 0 C2 1 2 1 2 1 Z " fill="#D8D9D8" transform="translate(27,10)"/>
<path d="M0 0 C2 1 2 1 2 1 Z " fill="#D9D9D9" transform="translate(29,9)"/>
<path d="M0 0 C2 1 2 1 2 1 Z " fill="#D9D9D9" transform="translate(31,8)"/>
<path d="M0 0 C2 1 2 1 2 1 Z " fill="#D7D7D7" transform="translate(33,7)"/>
<path d="" fill="#CFCFCE" transform="translate(0,0)"/>
<path d="" fill="#D3D3D3" transform="translate(0,0)"/>
</svg>
