<?xml version="1.0" encoding="UTF-8"?>
<!-- Generator: visioncortex VTracer 0.6.12 -->
<svg version="1.1" xmlns="http://www.w3.org/2000/svg" width="150" height="26">
<path d="M0 0 C49.5 0 99 0 150 0 C150 8.58 150 17.16 150 26 C100.5 26 51 26 0 26 C0 17.42 0 8.84 0 0 Z " fill="#D41F22" transform="translate(0,0)"/>
<path d="M0 0 C17.16 0 34.32 0 52 0 C52 8.58 52 17.16 52 26 C2.5 26 -47 26 -98 26 C-98 25.34 -98 24.68 -98 24 C-93.05 24 -88.1 24 -83 24 C-83 22.35 -83 20.7 -83 19 C-81.812 16.688 -81.812 16.688 -80 15 C-77.312 14.75 -77.312 14.75 -75 15 C-75.66 17.64 -76.32 20.28 -77 23 C-74.03 22.67 -71.06 22.34 -68 22 C-66.02 17.38 -64.04 12.76 -62 8 C-61.175 8.66 -61.175 8.66 -57 12 C-58.364 14.992 -59.949 17.29 -62.125 19.75 C-62.664 20.364 -63.203 20.977 -63.758 21.609 C-64.168 22.068 -64.578 22.527 -65 23 C-63.352 22.719 -61.707 22.425 -60.062 22.125 C-59.146 21.963 -58.229 21.8 -57.285 21.633 C-56.531 21.424 -55.777 21.215 -55 21 C-54.67 20.34 -54.34 19.68 -54 19 C-51.36 19 -48.72 19 -46 19 C-46 20.32 -46 21.64 -46 23 C-42.75 23.062 -42.75 23.062 -39 22 C-37.163 19.168 -36.132 16.164 -35 13 C-34 12 -34 12 -31 11.875 C-28 12 -28 12 -27 13 C-26.928 14.686 -26.916 16.375 -26.938 18.062 C-26.947 18.982 -26.956 19.901 -26.965 20.848 C-26.976 21.558 -26.988 22.268 -27 23 C-21.962 23.163 -19.287 23.16 -15.457 19.707 C-13.785 17.869 -12.113 16.03 -10.441 14.191 C-7.833 11.85 -6.813 11.32 -3.375 11.375 C-2.261 11.581 -1.147 11.787 0 12 C-3.079 15.871 -6.001 19.029 -10 22 C-4.512 22.274 -2.352 22.369 2 19 C5.75 18.812 5.75 18.812 9 19 C9 19.99 9 20.98 9 22 C11.31 22 13.62 22 16 22 C16.097 21.651 16.097 21.651 16.586 19.883 C16.716 19.428 16.716 19.428 17.375 17.125 C17.63 16.22 17.885 15.315 18.148 14.383 C19 12 19 12 21 10 C21.99 10 22.98 10 24 10 C23.67 13.96 23.34 17.92 23 22 C32.24 22.99 41.48 23.98 51 25 C50.67 21.37 50.34 17.74 50 14 C48.577 14.474 47.154 14.949 45.688 15.438 C40.524 17.159 36.513 18.104 31 18 C31.458 14.531 31.891 11.326 33 8 C35.906 6.684 35.906 6.684 39.5 5.438 C45.897 3.205 45.897 3.205 47 1 C31.49 1 15.98 1 0 1 C0 0.67 0 0.34 0 0 Z " fill="#A90806" transform="translate(98,0)"/>
<path d="M0 0 C32.34 0 64.68 0 98 0 C98 0.33 98 0.66 98 1 C76.22 1.33 54.44 1.66 32 2 C33.98 2.33 35.96 2.66 38 3 C37.35 7.714 35.484 11.577 33.438 15.812 C33.108 16.505 32.779 17.198 32.439 17.912 C31.631 19.61 30.816 21.306 30 23 C27.03 23 24.06 23 21 23 C21.875 17.25 21.875 17.25 23 15 C20.625 15.312 20.625 15.312 18 16 C16 19 16 19 15 24 C10.05 24 5.1 24 0 24 C0 16.08 0 8.16 0 0 Z " fill="#D02C1C" transform="translate(0,0)"/>
<path d="M0 0 C1.256 3.767 0.527 5.165 -0.75 8.875 C-1.095 9.904 -1.441 10.932 -1.797 11.992 C-2.975 14.936 -4.105 17.454 -6 20 C-9.688 20.312 -9.688 20.312 -13 20 C-13 18.68 -13 17.36 -13 16 C-15.64 16 -18.28 16 -21 16 C-21.33 16.99 -21.66 17.98 -22 19 C-25.215 20.607 -28.436 20.057 -32 20 C-28.889 12.599 -21.09 5.839 -14.227 1.828 C-9.668 0.133 -4.82 0.088 0 0 Z " fill="#7F7B7B" transform="translate(65,3)"/>
<path d="M0 0 C3 0.125 3 0.125 4 1.125 C4.072 2.811 4.084 4.5 4.062 6.188 C4.053 7.107 4.044 8.026 4.035 8.973 C4.024 9.683 4.012 10.393 4 11.125 C9.038 11.288 11.713 11.285 15.543 7.832 C17.215 5.994 18.887 4.155 20.559 2.316 C23.167 -0.025 24.187 -0.555 27.625 -0.5 C28.739 -0.294 29.852 -0.088 31 0.125 C27.921 3.996 24.999 7.154 21 10.125 C27.055 10.32 27.055 10.32 29 10.125 C29.66 9.465 30.32 8.805 31 8.125 C33.688 7.855 36.291 8.038 39 8.125 C39 9.445 39 10.765 39 12.125 C35.958 13.009 33.246 13.251 30.083 13.254 C29.108 13.258 28.133 13.261 27.129 13.264 C26.605 13.263 26.605 13.263 23.953 13.258 C22.868 13.259 21.783 13.26 20.665 13.261 C18.368 13.261 16.072 13.26 13.775 13.255 C10.277 13.25 6.779 13.255 3.281 13.262 C1.047 13.261 -1.188 13.26 -3.422 13.258 C-3.942 13.259 -3.942 13.259 -6.573 13.264 C-12.143 13.246 -17.49 12.952 -23 12.125 C-22.34 10.805 -21.68 9.485 -21 8.125 C-19.02 8.125 -17.04 8.125 -15 8.125 C-15 9.115 -15 10.105 -15 11.125 C-11.75 11.188 -11.75 11.188 -8 10.125 C-6.163 7.293 -5.132 4.289 -4 1.125 C-3 0.125 -3 0.125 0 0 Z " fill="#C60009" transform="translate(67,11.875)"/>
<path d="M0 0 C0.501 0.005 0.501 0.005 3.039 0.027 C3.81 0.039 4.581 0.051 5.375 0.062 C4.691 4.238 3.361 7.943 1.812 11.875 C1.357 13.036 0.902 14.198 0.434 15.395 C0.084 16.275 -0.265 17.155 -0.625 18.062 C-2.935 18.062 -5.245 18.062 -7.625 18.062 C-7.625 17.073 -7.625 16.082 -7.625 15.062 C-9.085 15.345 -10.543 15.639 -12 15.938 C-12.406 16.019 -12.406 16.019 -14.461 16.43 C-16.625 17.062 -16.625 17.062 -18.625 19.062 C-20.789 19.258 -20.789 19.258 -23.25 19.188 C-24.067 19.169 -24.885 19.151 -25.727 19.133 C-26.353 19.11 -26.98 19.086 -27.625 19.062 C-24.813 15.311 -21.849 12.42 -18.188 9.5 C-17.724 9.128 -17.724 9.128 -15.379 7.246 C-14.925 6.886 -14.925 6.886 -12.625 5.062 C-11.727 4.332 -10.828 3.601 -9.902 2.848 C-6.36 0.071 -4.454 -0.052 0 0 Z " fill="#9F9F9F" transform="translate(114.625,3.9375)"/>
<path d="M0 0 C2.333 -0.042 4.667 -0.041 7 0 C8 1 8 1 8.098 3.285 C8.086 4.202 8.074 5.118 8.062 6.062 C8.053 6.982 8.044 7.901 8.035 8.848 C8.024 9.558 8.012 10.268 8 11 C9.272 9.897 10.543 8.793 11.812 7.688 C12.52 7.073 13.228 6.458 13.957 5.824 C16 4 16 4 17.469 2.281 C19.581 0.514 20.978 0.695 23.688 0.812 C24.092 0.826 24.092 0.826 26.137 0.895 C26.752 0.929 27.366 0.964 28 1 C26.047 3.387 24.051 5.697 22 8 C21.565 8.498 21.131 8.996 20.683 9.509 C11.88 19.479 11.88 19.479 7.223 20.77 C4.75 20.75 4.75 20.75 1 20 C0.202 13.304 -0.129 6.742 0 0 Z " fill="#A4A3A3" transform="translate(70,3)"/>
<path d="M0 0 C1.031 0.206 2.062 0.413 3.125 0.625 C2.465 2.935 1.805 5.245 1.125 7.625 C3.765 7.625 6.405 7.625 9.125 7.625 C9.434 6.656 9.744 5.686 10.062 4.688 C11.125 1.625 11.125 1.625 12.125 0.625 C14.796 0.484 17.449 0.583 20.125 0.625 C18.693 4.284 17.136 7.865 15.5 11.438 C15.054 12.413 14.608 13.389 14.148 14.395 C13.811 15.131 13.473 15.867 13.125 16.625 C10.485 16.625 7.845 16.625 5.125 16.625 C5.455 14.975 5.785 13.325 6.125 11.625 C2.813 11.875 2.813 11.875 -0.875 12.625 C-1.37 13.306 -1.865 13.986 -2.375 14.688 C-2.87 15.327 -3.365 15.966 -3.875 16.625 C-7.562 16.875 -7.562 16.875 -10.875 16.625 C-10.509 9.674 -7.303 1.178 0 0 Z " fill="#D6D6D6" transform="translate(16.875,3.375)"/>
<path d="M0 0 C1 2 1 2 0.223 4.82 C-0.16 5.911 -0.543 7.001 -0.938 8.125 C-1.318 9.221 -1.698 10.316 -2.09 11.445 C-2.39 12.288 -2.691 13.131 -3 14 C-1.02 14 0.96 14 3 14 C3.33 13.34 3.66 12.68 4 12 C4 12.66 4 13.32 4 14 C5.585 13.716 7.168 13.422 8.75 13.125 C9.191 13.044 9.191 13.044 11.422 12.633 C13.878 12.03 15.761 11.139 18 10 C20.75 9.875 20.75 9.875 23 10 C24.706 13.411 24.054 17.248 24 21 C17.588 21.097 11.372 20.763 5 20.062 C4.143 19.975 3.286 19.888 2.402 19.799 C-3.872 19.128 -3.872 19.128 -5 18 C-5.074 11.334 -2.98 5.862 0 0 Z " fill="#711414" transform="translate(125,4)"/>
<path d="M0 0 C17.16 0 34.32 0 52 0 C52 4.95 52 9.9 52 15 C51.67 15 51.34 15 51 15 C51 13.35 51 11.7 51 10 C49.964 10.361 48.927 10.722 47.859 11.094 C46.49 11.563 45.12 12.032 43.75 12.5 C43.068 12.738 42.386 12.977 41.684 13.223 C38.236 14.394 35.683 15 32 15 C32.33 12.69 32.66 10.38 33 8 C33.463 7.831 33.463 7.831 35.809 6.977 C37.006 6.531 38.204 6.085 39.438 5.625 C40.035 5.405 40.035 5.405 43.059 4.289 C46 3 46 3 47 1 C31.49 1 15.98 1 0 1 C0 0.67 0 0.34 0 0 Z " fill="#BA090A" transform="translate(98,0)"/>
<path d="M0 0 C7.044 -0.211 13.241 -0.08 20 2 C19.35 6.714 17.484 10.577 15.438 14.812 C15.108 15.505 14.779 16.198 14.439 16.912 C13.631 18.61 12.816 20.306 12 22 C9.03 22 6.06 22 3 22 C3.33 20.68 3.66 19.36 4 18 C6.64 18.33 9.28 18.66 12 19 C12.17 18.432 12.34 17.863 12.516 17.277 C14.151 12.068 16.133 7.646 19 3 C13.593 3.177 13.593 3.177 11 4 C10.526 4.99 10.051 5.98 9.562 7 C9.047 7.99 8.531 8.98 8 10 C5.01 10.85 2.099 10.987 -1 11 C0.875 5.25 0.875 5.25 2 3 C-0.31 3 -2.62 3 -5 3 C-5 2.67 -5 2.34 -5 2 C-3.35 1.67 -1.7 1.34 0 1 C0 0.67 0 0.34 0 0 Z " fill="#B72B2B" transform="translate(18,1)"/>
<path d="M0 0 C-1.32 3.3 -2.64 6.6 -4 10 C-5.65 10 -7.3 10 -9 10 C-8.67 8.02 -8.34 6.04 -8 4 C-11.203 5.49 -13.865 6.885 -16.562 9.188 C-19.339 11.252 -20.626 11.386 -24 11 C-19.816 0.831 -9.87 -1.068 0 0 Z " fill="#E8E7E7" transform="translate(65,4)"/>
<path d="M0 0 C0.501 0.005 0.501 0.005 3.039 0.027 C3.81 0.039 4.581 0.051 5.375 0.062 C4.653 4.18 3.351 7.367 1.375 11.062 C-0.275 11.062 -1.925 11.062 -3.625 11.062 C-3.295 9.082 -2.965 7.102 -2.625 5.062 C-5.918 5.442 -7.012 6.393 -9.625 8.625 C-12.625 11.062 -12.625 11.062 -16.625 11.062 C-15.258 7.912 -13.768 6.054 -11.125 3.875 C-10.517 3.366 -9.908 2.857 -9.281 2.332 C-6.105 -0.102 -3.947 -0.046 0 0 Z " fill="#DBD6D7" transform="translate(114.625,3.9375)"/>
<path d="M0 0 C-0.33 1.98 -0.66 3.96 -1 6 C0.65 6 2.3 6 4 6 C3.67 7.32 3.34 8.64 3 10 C-4.26 10 -11.52 10 -19 10 C-18.34 8.68 -17.68 7.36 -17 6 C-16.587 6.062 -16.587 6.062 -14.5 6.375 C-10.07 5.9 -8.153 4.142 -4.832 1.312 C-3 0 -3 0 0 0 Z " fill="#A6A0A0" transform="translate(57,8)"/>
<path d="M0 0 C0.33 0.66 0.66 1.32 1 2 C3.062 2.625 3.062 2.625 5 3 C5.33 4.98 5.66 6.96 6 9 C12.523 8.508 12.523 8.508 14.938 5.938 C15.288 5.298 15.639 4.659 16 4 C16.66 4.33 17.32 4.66 18 5 C17.67 5.495 17.67 5.495 16 8 C15.67 9.65 15.34 11.3 15 13 C10.05 13 5.1 13 0 13 C0 8.71 0 4.42 0 0 Z " fill="#940201" transform="translate(0,11)"/>
<path d="M0 0 C2.97 0 5.94 0 9 0 C8.34 1.32 7.68 2.64 7 4 C6.118 5.913 5.243 7.83 4.375 9.75 C4.152 10.242 4.152 10.242 3.023 12.734 C2.686 13.482 2.348 14.23 2 15 C0.02 15 -1.96 15 -4 15 C-3.432 9.545 -2.054 5.089 0 0 Z " fill="#DEDDDE" transform="translate(126,3)"/>
<path d="M0 0 C3.63 1.65 7.26 3.3 11 5 C10.13 9.349 9.053 12.163 7 16 C6.34 16 5.68 16 5 16 C5 15.34 5 14.68 5 14 C4.361 13.876 3.721 13.752 3.062 13.625 C2.382 13.419 1.701 13.213 1 13 C-0.926 9.149 -0.049 4.2 0 0 Z " fill="#B60508" transform="translate(0,0)"/>
<path d="M0 0 C3 0.125 3 0.125 4 1.125 C4.072 2.644 4.084 4.167 4.062 5.688 C4.053 6.514 4.044 7.34 4.035 8.191 C4.024 8.829 4.012 9.468 4 10.125 C0.123 11.318 -2.916 12.125 -7 12.125 C-7.393 7.673 -6.186 4.973 -4 1.125 C-3 0.125 -3 0.125 0 0 Z " fill="#D90311" transform="translate(67,11.875)"/>
<path d="M0 0 C-1.464 1.737 -2.937 3.464 -4.43 5.176 C-5.621 6.56 -6.761 7.99 -7.875 9.438 C-11.181 11.869 -13.97 11.269 -18 11 C-14.168 2.633 -9.29 -1.327 0 0 Z " fill="#D8D3D3" transform="translate(98,4)"/>
<path d="M0 0 C0.33 0.66 0.66 1.32 1 2 C6.28 2 11.56 2 17 2 C16.34 3.32 15.68 4.64 15 6 C8.07 6 1.14 6 -6 6 C-6.33 4.35 -6.66 2.7 -7 1 C-4.69 1.33 -2.38 1.66 0 2 C0 1.34 0 0.68 0 0 Z " fill="#6C5E5E" transform="translate(128,16)"/>
<path d="M0 0 C2.333 -0.042 4.667 -0.041 7 0 C8 1 8 1 8.098 3.285 C8.086 4.202 8.074 5.118 8.062 6.062 C8.053 6.982 8.044 7.901 8.035 8.848 C8.024 9.558 8.012 10.268 8 11 C5.667 11.042 3.333 11.041 1 11 C0 10 0 10 -0.098 7.715 C-0.086 6.798 -0.074 5.882 -0.062 4.938 C-0.053 4.018 -0.044 3.099 -0.035 2.152 C-0.024 1.442 -0.012 0.732 0 0 Z " fill="#D2C0C0" transform="translate(70,3)"/>
<path d="M0 0 C0.986 0.048 1.972 0.097 2.988 0.146 C3.505 0.175 3.505 0.175 6.117 0.316 C7.157 0.369 8.198 0.421 9.27 0.475 C11.844 0.605 14.418 0.739 16.992 0.879 C16.662 2.199 16.332 3.519 15.992 4.879 C13.682 4.879 11.372 4.879 8.992 4.879 C8.992 3.889 8.992 2.899 8.992 1.879 C7.532 2.161 6.074 2.455 4.617 2.754 C3.805 2.916 2.993 3.079 2.156 3.246 C-0.008 3.879 -0.008 3.879 -2.008 5.879 C-4.172 6.074 -4.172 6.074 -6.633 6.004 C-7.45 5.986 -8.267 5.968 -9.109 5.949 C-9.736 5.926 -10.362 5.903 -11.008 5.879 C-7.324 1.09 -6.034 -0.312 0 0 Z " fill="#807B7B" transform="translate(98.0078125,17.12109375)"/>
<path d="M0 0 C-3.424 4.462 -6.91 8.422 -12 11 C-15.438 11.312 -15.438 11.312 -18 11 C-16.536 9.263 -15.063 7.536 -13.57 5.824 C-12.379 4.44 -11.239 3.01 -10.125 1.562 C-6.819 -0.869 -4.03 -0.269 0 0 Z " fill="#C20611" transform="translate(98,12)"/>
<path d="M0 0 C0.763 0.082 1.526 0.165 2.312 0.25 C1.652 2.89 0.992 5.53 0.312 8.25 C2.622 8.25 4.933 8.25 7.312 8.25 C7.312 8.58 7.312 8.91 7.312 9.25 C1.526 10.504 -4.176 10.362 -10.062 10.312 C-11.085 10.308 -12.107 10.303 -13.16 10.299 C-15.669 10.287 -18.178 10.271 -20.688 10.25 C-20.688 9.92 -20.688 9.59 -20.688 9.25 C-15.738 9.25 -10.787 9.25 -5.688 9.25 C-5.688 7.6 -5.688 5.95 -5.688 4.25 C-4.1 1.159 -3.519 0.327 0 0 Z " fill="#A60504" transform="translate(20.6875,14.75)"/>
<path d="M0 0 C1.093 0.083 2.186 0.165 3.312 0.25 C1.438 6 1.438 6 0.312 8.25 C2.293 8.25 4.273 8.25 6.312 8.25 C6.312 8.58 6.312 8.91 6.312 9.25 C1.692 9.25 -2.928 9.25 -7.688 9.25 C-5.918 0.401 -5.918 0.401 0 0 Z " fill="#EDECEC" transform="translate(16.6875,3.75)"/>
<path d="M0 0 C2.64 0 5.28 0 8 0 C6.793 3.103 5.494 6.012 4 9 C1.03 9 -1.94 9 -5 9 C-3.35 6.03 -1.7 3.06 0 0 Z " fill="#E1E0E0" transform="translate(29,4)"/>
<path d="M0 0 C0.788 2.295 1.136 3.58 0.379 5.923 C0.039 6.572 -0.302 7.222 -0.652 7.891 C-1.017 8.6 -1.381 9.309 -1.756 10.039 C-2.146 10.769 -2.536 11.498 -2.938 12.25 C-3.324 12.995 -3.71 13.74 -4.107 14.508 C-5.061 16.344 -6.029 18.173 -7 20 C-9.97 20 -12.94 20 -16 20 C-15.67 18.68 -15.34 17.36 -15 16 C-12.36 16.33 -9.72 16.66 -7 17 C-6.83 16.443 -6.66 15.886 -6.484 15.312 C-4.767 9.904 -2.647 5.019 0 0 Z " fill="#5B3434" transform="translate(37,3)"/>
<path d="M0 0 C1.256 3.767 0.527 5.165 -0.75 8.875 C-1.095 9.904 -1.441 10.932 -1.797 11.992 C-2.975 14.936 -4.105 17.454 -6 20 C-9.688 20.312 -9.688 20.312 -13 20 C-12.67 18.68 -12.34 17.36 -12 16 C-10.02 16.33 -8.04 16.66 -6 17 C-5.818 16.359 -5.636 15.719 -5.449 15.059 C-3.937 9.856 -2.25 4.929 0 0 Z " fill="#672325" transform="translate(65,3)"/>
<path d="M0 0 C1.65 1.32 3.3 2.64 5 4 C3.444 7.819 1.044 10.26 -2 13 C-2.66 13 -3.32 13 -4 13 C-3.409 8.153 -2.021 4.393 0 0 Z " fill="#BC0910" transform="translate(36,8)"/>
<path d="M0 0 C0.99 0 1.98 0 3 0 C1.938 7.608 1.938 7.608 0 11 C-2.578 11.637 -2.578 11.637 -5 12 C-4.55 10.373 -4.089 8.748 -3.625 7.125 C-3.37 6.22 -3.115 5.315 -2.852 4.383 C-2 2 -2 2 0 0 Z " fill="#B4090D" transform="translate(119,10)"/>
<path d="M0 0 C0.866 0.144 1.733 0.289 2.625 0.438 C1.337 3.31 0.246 5.63 -2.375 7.438 C-6.062 7.625 -6.062 7.625 -9.375 7.438 C-4.438 0.575 -4.438 0.575 0 0 Z " fill="#E2E3E3" transform="translate(92.375,5.5625)"/>
<path d="M0 0 C4.29 0.33 8.58 0.66 13 1 C12.67 2.65 12.34 4.3 12 6 C9.36 6 6.72 6 4 6 C4.33 4.35 4.66 2.7 5 1 C3.35 1 1.7 1 0 1 C0 0.67 0 0.34 0 0 Z " fill="#938C8C" transform="translate(18,14)"/>
<path d="M0 0 C2.438 -0.054 4.874 -0.094 7.312 -0.125 C8.003 -0.142 8.693 -0.159 9.404 -0.176 C13.171 -0.212 14.784 -0.144 18 2 C15.36 2 12.72 2 10 2 C9.34 3.32 8.68 4.64 8 6 C8 5.34 8 4.68 8 4 C7.237 3.897 6.474 3.794 5.688 3.688 C2.774 2.942 1.97 2.155 0 0 Z " fill="#CB1E1C" transform="translate(3,1)"/>
<path d="M0 0 C2.31 0 4.62 0 7 0 C6.125 5.75 6.125 5.75 5 8 C3.35 8 1.7 8 0 8 C0.875 3.25 0.875 3.25 2 1 C1.34 0.67 0.68 0.34 0 0 Z " fill="#EEF0F0" transform="translate(56,6)"/>
<path d="M0 0 C1.32 0 2.64 0 4 0 C3.125 6.875 3.125 6.875 2 8 C0.334 8.041 -1.334 8.043 -3 8 C-2.25 2.25 -2.25 2.25 0 0 Z " fill="#E5E5E5" transform="translate(114,7)"/>
<path d="M0 0 C0.66 0.33 1.32 0.66 2 1 C0.68 3.31 -0.64 5.62 -2 8 C-5.3 8 -8.6 8 -12 8 C-11.67 6.35 -11.34 4.7 -11 3 C-10.67 3.66 -10.34 4.32 -10 5 C-3.477 4.508 -3.477 4.508 -1.062 1.938 C-0.712 1.298 -0.361 0.659 0 0 Z " fill="#583434" transform="translate(16,15)"/>
<path d="M0 0 C3.96 0 7.92 0 12 0 C9 4 9 4 6.738 4.391 C5.938 4.344 5.137 4.298 4.312 4.25 C3.504 4.214 2.696 4.178 1.863 4.141 C1.248 4.094 0.634 4.048 0 4 C0 2.68 0 1.36 0 0 Z " fill="#6B5555" transform="translate(71,19)"/>
<path d="M0 0 C-0.66 2.31 -1.32 4.62 -2 7 C-4.64 7 -7.28 7 -10 7 C-4.34 -0 -4.34 -0 0 0 Z " fill="#A5191F" transform="translate(57,8)"/>
<path d="M0 0 C1.32 0.33 2.64 0.66 4 1 C3.01 2.98 2.02 4.96 1 7 C-1.31 7 -3.62 7 -6 7 C-4.02 4.69 -2.04 2.38 0 0 Z " fill="#982D2E" transform="translate(109,8)"/>
<path d="M0 0 C0.33 1.65 0.66 3.3 1 5 C-3.29 4.67 -7.58 4.34 -12 4 C-7.727 1.151 -5.218 -0.29 0 0 Z " fill="#970201" transform="translate(148,14)"/>
<path d="M0 0 C1.087 0.018 2.173 0.036 3.293 0.055 C3.709 0.066 3.709 0.066 5.812 0.125 C5.483 0.62 5.483 0.62 3.812 3.125 C1.188 3.312 1.188 3.312 -1.188 3.125 C-1.517 3.785 -1.847 4.445 -2.188 5.125 C-3.508 5.125 -4.828 5.125 -6.188 5.125 C-6.517 4.465 -6.847 3.805 -7.188 3.125 C-7.847 2.795 -8.508 2.465 -9.188 2.125 C-5.661 -0.226 -4.159 -0.089 0 0 Z " fill="#CBC0C0" transform="translate(59.1875,3.875)"/>
<path d="M0 0 C0.33 0.66 0.66 1.32 1 2 C3.31 2 5.62 2 8 2 C7.34 3.32 6.68 4.64 6 6 C3.69 6 1.38 6 -1 6 C-0.67 4.02 -0.34 2.04 0 0 Z " fill="#908C8C" transform="translate(7,14)"/>
<path d="M0 0 C0.33 0.66 0.66 1.32 1 2 C2.98 2 4.96 2 7 2 C6.67 2.495 6.67 2.495 5 5 C2.836 5.293 2.836 5.293 0.375 5.188 C-0.442 5.16 -1.26 5.133 -2.102 5.105 C-2.415 5.088 -2.415 5.088 -4 5 C-2.68 3.35 -1.36 1.7 0 0 Z " fill="#634243" transform="translate(91,18)"/>
<path d="M0 0 C0.33 0.66 0.66 1.32 1 2 C3.062 2.625 3.062 2.625 5 3 C6.125 6.75 6.125 6.75 5 9 C3.063 8.438 3.063 8.438 1 7 C0.25 3.375 0.25 3.375 0 0 Z " fill="#A50302" transform="translate(0,11)"/>
<path d="M0 0 C2.97 0.33 5.94 0.66 9 1 C6 4 6 4 3.957 4.293 C1.971 4.195 -0.014 4.098 -2 4 C-1.34 2.68 -0.68 1.36 0 0 Z " fill="#604242" transform="translate(35,19)"/>
<path d="M0 0 C0.998 0.023 1.995 0.046 3.023 0.07 C3.525 0.079 3.525 0.079 6.062 0.125 C6.833 0.148 7.604 0.171 8.398 0.195 C8.068 1.845 7.738 3.495 7.398 5.195 C6.738 4.535 6.078 3.875 5.398 3.195 C3.016 2.781 3.016 2.781 0.273 2.57 C-0.637 2.496 -1.547 2.421 -2.484 2.344 C-3.183 2.295 -3.882 2.246 -4.602 2.195 C-2.602 0.195 -2.602 0.195 0 0 Z " fill="#C7BEBE" transform="translate(111.6015625,3.8046875)"/>
<path d="M0 0 C0.99 0.165 0.99 0.165 6 1 C6.33 2.32 6.66 3.64 7 5 C4.69 5 2.38 5 0 5 C0 3.35 0 1.7 0 0 Z " fill="#F1F3F3" transform="translate(71,9)"/>
<path d="M0 0 C2.31 0 4.62 0 7 0 C6.34 1.98 5.68 3.96 5 6 C4.67 5.01 4.34 4.02 4 3 C2.35 3 0.7 3 -1 3 C-0.67 2.01 -0.34 1.02 0 0 Z " fill="#D1D1D1" transform="translate(13,4)"/>
<path d="M0 0 C2.31 0 4.62 0 7 0 C7 0.66 7 1.32 7 2 C9.31 2 11.62 2 14 2 C14 2.33 14 2.66 14 3 C9.05 3 4.1 3 -1 3 C-0.67 2.01 -0.34 1.02 0 0 Z " fill="#ADAEAE" transform="translate(40,14)"/>
<path d="M0 0 C-0.33 1.65 -0.66 3.3 -1 5 C-2.65 5 -4.3 5 -6 5 C-5.625 3.062 -5.625 3.062 -5 1 C-3 0 -3 0 0 0 Z " fill="#E9E9E9" transform="translate(130,10)"/>
<path d="M0 0 C1.418 0.08 2.836 0.177 4.25 0.312 C2.934 1.809 2.934 1.809 1.25 3.312 C-0.75 3.355 -2.75 3.353 -4.75 3.312 C-7.125 4.312 -7.125 4.312 -8.75 5.312 C-6.333 1.11 -4.736 -0.037 0 0 Z " fill="#CBC6C7" transform="translate(93.75,3.6875)"/>
<path d="M0 0 C0.33 1.32 0.66 2.64 1 4 C2.65 4 4.3 4 6 4 C5.67 4.99 5.34 5.98 5 7 C3.02 7 1.04 7 -1 7 C-0.67 4.69 -0.34 2.38 0 0 Z " fill="#A9A7A7" transform="translate(123,11)"/>
<path d="M0 0 C0.464 0.031 0.464 0.031 2.812 0.188 C2.812 1.178 2.812 2.168 2.812 3.188 C-0.157 3.188 -3.128 3.188 -6.188 3.188 C-3.188 0.188 -3.188 0.188 0 0 Z " fill="#F5F6F6" transform="translate(30.1875,9.8125)"/>
<path d="M0 0 C0.66 0.33 1.32 0.66 2 1 C2 2.32 2 3.64 2 5 C0.02 5.33 -1.96 5.66 -4 6 C-2.848 3.532 -1.952 1.952 0 0 Z " fill="#E6E4E5" transform="translate(102,9)"/>
<path d="M0 0 C2.31 0.33 4.62 0.66 7 1 C7 1.99 7 2.98 7 4 C4.69 4 2.38 4 0 4 C0 2.68 0 1.36 0 0 Z " fill="#654445" transform="translate(52,19)"/>
<path d="M0 0 C2.64 0 5.28 0 8 0 C7.67 0.99 7.34 1.98 7 3 C4.69 3 2.38 3 0 3 C0 2.01 0 1.02 0 0 Z " fill="#605858" transform="translate(107,19)"/>
<path d="M0 0 C9.41 -0.185 9.41 -0.185 14 1 C14 1.66 14 2.32 14 3 C11.69 2.835 11.69 2.835 0 2 C0 1.34 0 0.68 0 0 Z " fill="#AA9D9E" transform="translate(102,14)"/>
<path d="M0 0 C2.31 0 4.62 0 7 0 C6.67 1.32 6.34 2.64 6 4 C6 3.34 6 2.68 6 2 C4.02 3.32 2.04 4.64 0 6 C0.66 4.35 1.32 2.7 2 1 C1.34 0.67 0.68 0.34 0 0 Z " fill="#DDD9D9" transform="translate(56,6)"/>
<path d="M0 0 C2.97 0 5.94 0 9 0 C8.34 1.32 7.68 2.64 7 4 C6.67 3.34 6.34 2.68 6 2 C4.02 2 2.04 2 0 2 C0 1.34 0 0.68 0 0 Z " fill="#C29E9D" transform="translate(126,3)"/>
<path d="M0 0 C3.125 -0.188 3.125 -0.188 6 0 C5.67 0.99 5.34 1.98 5 3 C2.69 3 0.38 3 -2 3 C-1.34 2.01 -0.68 1.02 0 0 Z " fill="#F3F4F4" transform="translate(85,10)"/>
<path d="M0 0 C0.66 0.33 1.32 0.66 2 1 C1.34 1.66 0.68 2.32 0 3 C0.99 3.66 1.98 4.32 3 5 C0.69 5.33 -1.62 5.66 -4 6 C-2.848 3.532 -1.952 1.952 0 0 Z " fill="#DED8D8" transform="translate(45,9)"/>
<path d="M0 0 C2.64 0 5.28 0 8 0 C7.67 0.99 7.34 1.98 7 3 C4.36 3 1.72 3 -1 3 C-0.67 2.01 -0.34 1.02 0 0 Z " fill="#C8C4C5" transform="translate(29,4)"/>
<path d="M0 0 C-0.33 1.32 -0.66 2.64 -1 4 C-2.98 4 -4.96 4 -7 4 C-4.84 0.76 -3.884 0 0 0 Z " fill="#C6060F" transform="translate(110,11)"/>
</svg>
