<?xml version="1.0" encoding="UTF-8"?>
<!-- Generator: visioncortex VTracer 0.6.12 -->
<svg version="1.1" xmlns="http://www.w3.org/2000/svg" width="150" height="57">
<path d="M0 0 C2.951 0.008 5.9 -0.02 8.851 -0.052 C29.888 -0.13 55.399 2.306 72.218 16.446 C72.835 16.957 73.453 17.467 74.089 17.993 C77.52 21.321 78.687 24.104 79.03 28.884 C78.706 34.143 77.115 37.035 73.37 40.677 C67.03 45.889 60.361 48.969 52.655 51.634 C51.979 51.872 51.302 52.11 50.605 52.355 C36.119 57.069 21.558 57.958 6.436 57.892 C3.485 57.884 0.536 57.912 -2.415 57.944 C-23.452 58.022 -48.964 55.586 -65.782 41.446 C-66.4 40.936 -67.017 40.425 -67.653 39.899 C-71.084 36.571 -72.251 33.789 -72.595 29.009 C-72.271 23.749 -70.68 20.857 -66.935 17.216 C-60.595 12.003 -53.926 8.923 -46.22 6.259 C-45.543 6.021 -44.867 5.783 -44.17 5.537 C-29.683 0.824 -15.122 -0.066 0 0 Z " fill="#6D6D6E" transform="translate(71.7822265625,-0.446044921875)"/>
<path d="M0 0 C1.98 0.66 3.96 1.32 6 2 C4.812 6.75 3.228 10.796 0.902 15.105 C-0.025 17.053 -0.547 18.896 -1 21 C2.101 20.987 5.006 20.844 8 20 C10.062 16.937 10.062 16.937 11 14 C12.32 14 13.64 14 15 14 C15.165 14.495 15.165 14.495 16 17 C18.97 17.33 21.94 17.66 25 18 C24.711 17.336 24.422 16.672 24.125 15.988 C23.754 15.105 23.382 14.222 23 13.312 C22.629 12.442 22.257 11.572 21.875 10.676 C20.967 7.898 20.684 5.899 21 3 C23.565 0.435 25.477 0.46 29 0 C29 0.66 29 1.32 29 2 C31.31 1.34 33.62 0.68 36 0 C36.201 3.716 36.152 4.772 34 8 C33.586 10.699 33.586 10.699 33.375 13.688 C33.313 14.564 33.313 14.564 33 19 C36.63 19 40.26 19 44 19 C43.67 18.67 43.67 18.67 42 17 C41.75 14 41.75 14 42 11 C44 9 44 9 46.063 8.773 C46.477 8.778 46.477 8.778 48.57 8.805 C49.466 8.811 50.362 8.818 51.285 8.824 C51.754 8.833 51.754 8.833 54.125 8.875 C55.07 8.884 56.015 8.893 56.988 8.902 C59.326 8.926 61.663 8.959 64 9 C64 7.02 64 5.04 64 3 C66.301 2.734 66.301 2.734 69 3 C70.73 4.828 70.73 4.828 72.188 7.25 C72.432 7.644 72.432 7.644 73.668 9.641 C76.353 14.397 77.705 17.356 77 23 C67.789 31.868 53.385 35.199 41.027 35.266 C38 35 38 35 34.819 34 C30.76 32.937 27.031 32.711 22.871 32.734 C22.118 32.732 21.366 32.731 20.59 32.729 C19.009 32.727 17.429 32.731 15.848 32.739 C13.441 32.75 11.034 32.739 8.627 32.727 C7.083 32.728 5.54 32.73 3.996 32.734 C3.283 32.73 2.571 32.726 1.837 32.722 C-2.499 32.762 -5.954 33.486 -10 35 C-23.8 36.578 -36.421 32.307 -48 25 C-49 24 -49 24 -49.438 20.625 C-49.356 14.162 -45.877 7.933 -41.406 3.375 C-39.125 1.699 -37.53 0.957 -34.688 1.188 C-33 2 -33 2 -32 3 C-32 4.98 -32 6.96 -32 9 C-27.05 9 -22.1 9 -17 9 C-16.805 15.055 -16.805 15.055 -17 17 C-19 19 -19 19 -20.971 19.227 C-21.757 19.217 -22.542 19.206 -23.352 19.195 C-24.202 19.189 -25.053 19.182 -25.93 19.176 C-26.374 19.167 -26.374 19.167 -28.625 19.125 C-29.522 19.116 -30.419 19.107 -31.344 19.098 C-33.563 19.074 -35.781 19.041 -38 19 C-37.67 20.98 -37.34 22.96 -37 25 C-33.271 25.029 -29.542 25.047 -25.812 25.062 C-24.757 25.071 -23.702 25.079 -22.615 25.088 C-21.594 25.091 -20.572 25.094 -19.52 25.098 C-18.582 25.103 -17.645 25.108 -16.679 25.114 C-14.02 25.001 -11.591 24.594 -9 24 C-7.907 19.416 -7.677 14.875 -7.438 10.188 C-7.416 9.793 -7.416 9.793 -7.307 7.799 C-7.201 5.866 -7.1 3.933 -7 2 C-3.867 0.956 -3.01 1.066 0 2 C0 1.34 0 0.68 0 0 Z " fill="#302E2F" transform="translate(61,12)"/>
<path d="M0 0 C2.951 0.008 5.9 -0.02 8.851 -0.052 C29.888 -0.13 55.399 2.306 72.218 16.446 C72.835 16.957 73.453 17.467 74.089 17.993 C77.52 21.321 78.687 24.104 79.03 28.884 C78.706 34.143 77.115 37.035 73.37 40.677 C67.03 45.889 60.361 48.969 52.655 51.634 C51.979 51.872 51.302 52.11 50.605 52.355 C36.119 57.069 21.558 57.958 6.436 57.892 C3.485 57.884 0.536 57.912 -2.415 57.944 C-24.124 58.025 -51.176 55.454 -67.688 39.618 C-70.741 36.316 -70.741 36.316 -71.782 34.446 C-71.452 33.456 -71.122 32.466 -70.782 31.446 C-70.535 31.879 -70.535 31.879 -69.282 34.071 C-60.256 47.331 -42.018 50.461 -27.396 53.466 C-4.486 57.74 19.556 56.295 42.155 51.071 C43.008 50.874 43.86 50.677 44.738 50.475 C50.055 49.171 54.98 47.432 59.993 45.229 C62.218 44.446 62.218 44.446 66.218 44.446 C66.218 43.786 66.218 43.126 66.218 42.446 C67.897 41.044 67.897 41.044 70.093 39.509 C72.893 37.547 74.278 36.355 76.218 33.446 C76.218 32.456 76.218 31.466 76.218 30.446 C75.496 31.374 74.774 32.302 74.03 33.259 C71.723 36.024 69.536 37.921 66.218 39.446 C65.558 39.116 64.898 38.786 64.218 38.446 C64.878 38.116 65.538 37.786 66.218 37.446 C68.218 35.446 68.218 35.446 68.843 31.946 C68.484 25.481 65.104 19.367 60.601 14.809 C54.155 10.269 45.77 8.387 38.218 6.446 C37.895 6.362 37.895 6.362 36.26 5.937 C9.765 -0.561 -25.978 0.757 -50.782 12.446 C-55.23 15.595 -59.142 19.118 -60.782 24.446 C-61.217 28.375 -61.043 31.687 -59.782 35.446 C-57.536 38.066 -54.938 39.149 -51.782 40.446 C-50.839 40.874 -49.895 41.302 -48.923 41.743 C-40.419 45.339 -31.844 47.015 -22.782 48.446 C-22.782 48.776 -22.782 49.106 -22.782 49.446 C-37.053 50.833 -52.074 45.427 -63.782 37.446 C-67.342 34.231 -69.837 30.831 -71.782 26.446 C-71.881 22.774 -70.445 20.724 -68.095 18.071 C-50.676 1.721 -22.594 -0.099 0 0 Z " fill="#D0D2D4" transform="translate(71.7822265625,-0.446044921875)"/>
<path d="M0 0 C0.392 0.536 0.784 1.073 1.188 1.625 C1.786 2.409 2.384 3.192 3 4 C3.709 4.954 4.418 5.908 5.148 6.891 C8.079 10.382 11.359 12.195 15.438 14.125 C16.133 14.464 16.829 14.803 17.546 15.153 C24.16 18.271 30.887 20.299 38 22 C38.354 22.097 38.354 22.097 40.148 22.586 C44.435 23.545 48.538 23.558 52.615 22.002 C56.584 20.827 60.264 20.712 64.363 20.734 C64.759 20.733 64.759 20.733 66.762 20.729 C68.43 20.727 70.098 20.731 71.766 20.739 C74.294 20.75 76.822 20.739 79.35 20.727 C80.979 20.728 82.609 20.73 84.238 20.734 C84.982 20.73 85.726 20.726 86.493 20.722 C91.174 20.763 95.377 21.4 99.906 22.596 C103.686 23.325 107.25 22.668 111 22 C111.839 21.863 112.678 21.727 113.543 21.586 C118.733 20.659 123.206 19.261 128 17 C129.114 16.567 130.227 16.134 131.375 15.688 C138.141 12.538 143.971 8.516 149 3 C148.565 7.926 146.404 10.519 143 14 C140.188 15.375 140.188 15.375 138 16 C138 16.66 138 17.32 138 18 C127.596 21.741 117.236 25.226 106.375 27.375 C105.596 27.53 104.817 27.685 104.015 27.845 C84.972 31.388 64.033 31.621 45 28 C44.191 27.849 43.382 27.699 42.549 27.543 C28.37 24.8 11.309 21.125 2.062 8.965 C0.413 5.915 0.072 3.452 0 0 Z " fill="#5E5E5E" transform="translate(0,26)"/>
<path d="M0 0 C0 0.99 0 1.98 0 3 C-1.244 3.242 -2.488 3.485 -3.77 3.734 C-30.605 9.083 -30.605 9.083 -38.438 19.125 C-40.531 23.186 -40.477 27.026 -39.844 31.484 C-38.894 34.317 -38.207 35.23 -35.75 36.875 C-34.192 37.637 -32.604 38.341 -31 39 C-30.056 39.428 -29.113 39.856 -28.141 40.297 C-19.637 43.893 -11.062 45.569 -2 47 C-2 47.33 -2 47.66 -2 48 C-16.271 49.387 -31.292 43.981 -43 36 C-46.559 32.785 -49.055 29.385 -51 25 C-51.099 21.328 -49.662 19.278 -47.312 16.625 C-35.989 5.996 -15.395 -0.81 0 0 Z " fill="#DDDEE1" transform="translate(51,1)"/>
<path d="M0 0 C3.884 1.526 5.926 3.37 8 7 C8.936 11.703 9.084 15.978 6.777 20.281 C0.403 28.118 -8.24 31.964 -17.562 35.188 C-18.239 35.425 -18.916 35.663 -19.613 35.909 C-34.099 40.622 -48.66 41.512 -63.782 41.446 C-66.733 41.438 -69.682 41.466 -72.633 41.498 C-94.342 41.578 -121.394 39.008 -137.906 23.172 C-140.959 19.869 -140.959 19.869 -142 18 C-141.835 17.505 -141.835 17.505 -141 15 C-140.752 15.433 -140.752 15.433 -139.5 17.625 C-130.473 30.885 -112.236 34.015 -97.613 37.02 C-74.703 41.294 -50.662 39.849 -28.062 34.625 C-27.21 34.428 -26.358 34.231 -25.479 34.029 C-20.162 32.725 -15.238 30.986 -10.224 28.783 C-8 28 -8 28 -4 28 C-4 27.34 -4 26.68 -4 26 C-2.32 24.598 -2.32 24.598 -0.125 23.062 C2.675 21.101 4.061 19.909 6 17 C6 16.01 6 15.02 6 14 C5.34 14.33 4.68 14.66 4 15 C4.046 14.42 4.093 13.84 4.141 13.242 C4.41 7.409 3.712 4.524 0 0 Z " fill="#BBBBBD" transform="translate(142,16)"/>
<path d="M0 0 C-13.798 0.784 -27.55 1.16 -41.371 1.13 C-44.356 1.125 -47.341 1.13 -50.326 1.137 C-52.255 1.136 -54.184 1.135 -56.113 1.133 C-56.99 1.135 -57.868 1.137 -58.771 1.139 C-63.935 1.119 -68.888 0.743 -74 0 C-71.004 -1.997 -69.462 -2.464 -66 -3.062 C-65.134 -3.218 -64.267 -3.374 -63.375 -3.535 C-15.246 -10.164 -15.246 -10.164 0 0 Z " fill="#7E7F81" transform="translate(112,9)"/>
<path d="M0 0 C3.708 4.72 5.485 8.043 5.316 14.109 C4.817 17.093 3.361 18.213 1 20 C0.649 20.34 0.649 20.34 -1.125 22.062 C-5.146 24.773 -9.345 25.78 -14 27 C-15.217 27.351 -16.434 27.701 -17.688 28.062 C-18.234 28.217 -18.234 28.217 -21 29 C-22.073 29.392 -23.145 29.784 -24.25 30.188 C-29.78 31.386 -35.446 30.951 -40.925 29.485 C-44.331 28.689 -47.793 28.837 -51.273 28.832 C-51.674 28.83 -51.674 28.83 -53.702 28.822 C-55.395 28.817 -57.087 28.815 -58.78 28.815 C-61.359 28.813 -63.937 28.794 -66.516 28.775 C-68.164 28.772 -69.812 28.77 -71.461 28.77 C-72.227 28.762 -72.993 28.755 -73.782 28.748 C-78.262 28.767 -81.762 29.381 -86 31 C-88.711 31.227 -91.271 31.094 -94 31 C-94 30.01 -94 29.02 -94 28 C-93.584 27.934 -93.584 27.934 -91.48 27.598 C-90.394 27.421 -89.307 27.244 -88.188 27.062 C-87.109 26.888 -86.03 26.714 -84.918 26.535 C-82 26 -82 26 -79 25 C-76.423 24.891 -73.874 24.836 -71.297 24.832 C-70.919 24.83 -70.919 24.83 -69.006 24.822 C-67.405 24.817 -65.805 24.815 -64.205 24.815 C-61.773 24.813 -59.342 24.794 -56.91 24.775 C-55.352 24.772 -53.793 24.77 -52.234 24.77 C-51.514 24.762 -50.794 24.755 -50.052 24.748 C-45.375 24.769 -41.442 25.581 -37 27 C-24.319 28.714 -10.49 24.084 0 17 C1 16 1 16 1.188 12.688 C1 9 1 9 -0.062 6.875 C-1.349 4.303 -0.75 2.701 0 0 Z " fill="#A3A3A5" transform="translate(136,19)"/>
<path d="M0 0 C2.102 -0.135 4.207 -0.232 6.312 -0.312 C7.484 -0.371 8.656 -0.429 9.863 -0.488 C13 0 13 0 14.812 2.328 C15.204 3.21 15.596 4.092 16 5 C16.557 6.011 17.114 7.021 17.688 8.062 C19 11 19 11 19 15 C16.03 15 13.06 15 10 15 C9.67 13.68 9.34 12.36 9 11 C7.188 11.125 7.188 11.125 5 12 C3.25 15.063 3.25 15.063 2 18 C-0.97 18 -3.94 18 -7 18 C-6.565 13.539 -5.38 10.527 -3.035 6.809 C-1.782 4.619 -0.898 2.355 0 0 Z " fill="#F8F8F9" transform="translate(67,15)"/>
<path d="M0 0 C0.534 0.013 0.534 0.013 3.237 0.079 C3.817 0.087 3.817 0.087 6.753 0.128 C7.959 0.17 9.166 0.212 10.409 0.255 C11.02 0.266 11.02 0.266 14.112 0.323 C17.129 0.382 20.144 0.465 23.159 0.568 C23.159 2.548 23.159 4.528 23.159 6.568 C22.874 6.58 22.874 6.58 21.431 6.644 C18.861 6.759 16.291 6.882 13.722 7.005 C12.824 7.044 11.926 7.084 11.001 7.124 C10.147 7.166 9.293 7.208 8.413 7.251 C7.622 7.288 6.832 7.325 6.017 7.362 C4.159 7.568 4.159 7.568 3.159 8.568 C2.896 12.599 2.865 14.127 5.159 17.568 C1.199 17.238 -2.761 16.908 -6.841 16.568 C-7.333 6.36 -7.333 6.36 -5.196 2.917 C-2.841 0.568 -2.841 0.568 0 0 Z " fill="#DDDDDF" transform="translate(100.8408203125,14.432373046875)"/>
<path d="M0 0 C9.9 0 19.8 0 30 0 C30 1.98 30 3.96 30 6 C27.454 8.546 20.666 7.332 17.25 7.375 C16.701 7.394 16.701 7.394 13.922 7.488 C4.845 7.587 4.845 7.587 1.734 4.602 C0 2 0 2 0 0 Z " fill="#575657" transform="translate(94,31)"/>
<path d="M0 0 C7.59 0 15.18 0 23 0 C23 3.96 23 7.92 23 12 C20.36 12 17.72 12 15 12 C14.67 10.35 14.34 8.7 14 7 C11.69 6.835 11.69 6.835 0 6 C0 4.02 0 2.04 0 0 Z " fill="#E1E2E3" transform="translate(30,15)"/>
<path d="M0 0 C17.481 -0.687 38.564 1.157 53 12 C55 15 55 15 54.625 17.188 C54.419 17.786 54.213 18.384 54 19 C53.464 18.216 52.928 17.433 52.375 16.625 C49.698 13.666 47.816 12.954 44 12 C44 13.98 44 15.96 44 18 C43.67 18 43.34 18 43 18 C42.835 17.01 42.835 17.01 42 12 C34.41 11.67 26.82 11.34 19 11 C19 10.67 19 10.34 19 10 C24.94 9.01 30.88 8.02 37 7 C24.651 4.235 12.597 2.144 0 1 C0 0.67 0 0.34 0 0 Z " fill="#525152" transform="translate(81,3)"/>
<path d="M0 0 C2.979 -0.027 5.958 -0.047 8.938 -0.062 C9.788 -0.071 10.638 -0.079 11.514 -0.088 C12.323 -0.091 13.131 -0.094 13.965 -0.098 C14.714 -0.103 15.463 -0.108 16.234 -0.114 C18 0 18 0 19 1 C20.853 1.072 22.708 1.084 24.562 1.062 C25.574 1.053 26.586 1.044 27.629 1.035 C28.411 1.024 29.194 1.012 30 1 C29.812 2.875 29.812 2.875 29 5 C25.428 6.81 22.489 7.248 18.516 7.23 C17.499 7.229 16.481 7.227 15.434 7.225 C14.908 7.218 14.908 7.218 12.25 7.188 C11.184 7.187 10.118 7.186 9.02 7.186 C1.14 7.14 1.14 7.14 0 6 C-0.041 4 -0.043 2 0 0 Z " fill="#585758" transform="translate(23,31)"/>
<path d="M0 0 C0 0.99 0 1.98 0 3 C5.61 3.66 11.22 4.32 17 5 C17 5.33 17 5.66 17 6 C10.07 6 3.14 6 -4 6 C-4 8.31 -4 10.62 -4 13 C-4.33 13 -4.66 13 -5 13 C-5.66 10.69 -6.32 8.38 -7 6 C-10.354 6.288 -11.909 6.926 -14.562 9.062 C-19.149 14.59 -21.405 19.861 -22 27 C-22.33 27 -22.66 27 -23 27 C-24.221 21.06 -24.867 16.408 -21.5 11.125 C-16.073 4.103 -9.171 -0.539 0 0 Z " fill="#575758" transform="translate(34,8)"/>
<path d="M0 0 C0.664 1.773 0.664 1.773 1 4 C-1.117 7.773 -4.032 10.516 -7.875 12.438 C-8.576 12.623 -9.278 12.809 -10 13 C-10 13.66 -10 14.32 -10 15 C-13.286 16.164 -16.579 17.303 -19.875 18.438 C-20.334 18.6 -20.334 18.6 -22.656 19.424 C-28.789 21.518 -34.527 22.663 -41 23 C-37.822 18.666 -34.519 18.327 -29.523 17.492 C-26.092 16.823 -23.154 15.488 -20 14 C-18.886 13.567 -17.773 13.134 -16.625 12.688 C-10.058 9.63 -4.126 6.099 0 0 Z " fill="#605F60" transform="translate(148,29)"/>
<path d="M0 0 C3.708 4.72 5.485 8.043 5.316 14.109 C4.817 17.093 3.361 18.213 1 20 C0.649 20.34 0.649 20.34 -1.125 22.062 C-5.146 24.773 -9.345 25.78 -14 27 C-15.217 27.351 -16.434 27.701 -17.688 28.062 C-18.234 28.217 -18.234 28.217 -21 29 C-22.176 29.371 -23.351 29.742 -24.562 30.125 C-27.911 30.977 -30.566 31.319 -34 31 C-34.66 30.34 -35.32 29.68 -36 29 C-35.392 28.914 -34.783 28.827 -34.156 28.738 C-23.163 26.976 -7.223 24.223 1 16 C1.356 9.712 1.356 9.712 -0.062 6.875 C-1.349 4.303 -0.75 2.701 0 0 Z " fill="#BEBFC1" transform="translate(136,19)"/>
<path d="M0 0 C10.958 0.446 19.016 1.487 28 8 C26.653 12.041 24.616 12.903 21 15 C20.01 15 19.02 15 18 15 C18.144 14.464 18.289 13.928 18.438 13.375 C19.092 10.612 19.533 7.801 20 5 C13.73 5 7.46 5 1 5 C0.67 3.35 0.34 1.7 0 0 Z " fill="#282526" transform="translate(104,26)"/>
<path d="M0 0 C0 0.66 0 1.32 0 2 C2.31 1.34 4.62 0.68 7 0 C7.432 4.752 5.985 7.782 4 12 C0.7 12 -2.6 12 -6 12 C-7.869 8.263 -8.417 6.962 -8 3 C-5.487 0.487 -3.511 0 0 0 Z " fill="#515051" transform="translate(90,12)"/>
<path d="M0 0 C0.402 -0.002 0.402 -0.002 2.437 -0.01 C4.142 -0.015 5.846 -0.017 7.551 -0.017 C10.148 -0.02 12.744 -0.038 15.34 -0.057 C16.997 -0.06 18.655 -0.062 20.312 -0.062 C20.699 -0.066 20.699 -0.066 22.652 -0.084 C27.132 -0.065 30.699 0.478 34.922 2.168 C34.922 2.498 34.922 2.828 34.922 3.168 C19.082 3.168 3.242 3.168 -13.078 3.168 C-8.5 0.116 -5.386 0.008 0 0 Z " fill="#484748" transform="translate(64.078125,46.83203125)"/>
<path d="M0 0 C2.624 3.061 3 3.732 3 8 C0.03 8 -2.94 8 -6 8 C-6.33 6.68 -6.66 5.36 -7 4 C-8.812 4.125 -8.812 4.125 -11 5 C-12.75 8.062 -12.75 8.062 -14 11 C-16.97 11 -19.94 11 -23 11 C-22.25 5.25 -22.25 5.25 -20 3 C-20 3.66 -20 4.32 -20 5 C-18.02 4.67 -16.04 4.34 -14 4 C-14 3.67 -14 3.34 -14 3 C-9.38 3 -4.76 3 0 3 C0 2.01 0 1.02 0 0 Z " fill="#BABCBF" transform="translate(83,22)"/>
<path d="M0 0 C0.392 0.536 0.784 1.073 1.188 1.625 C1.786 2.409 2.384 3.192 3 4 C3.7 4.951 4.4 5.903 5.121 6.883 C8.148 10.496 11.657 12.279 15.875 14.25 C16.557 14.588 17.239 14.925 17.941 15.273 C22.218 17.342 26.399 18.823 31 20 C30.34 21.32 29.68 22.64 29 24 C18.114 21.308 7.08 16.992 1 7 C0.224 4.511 0.055 2.636 0 0 Z " fill="#5B5A5B" transform="translate(0,26)"/>
<path d="M0 0 C0.598 -0.002 0.598 -0.002 3.625 -0.012 C4.201 -0.011 4.201 -0.011 7.117 -0.008 C8.152 -0.007 9.187 -0.006 10.253 -0.004 C12.983 0.119 15.467 0.51 18.125 1.125 C17.795 1.785 17.465 2.445 17.125 3.125 C1.945 3.125 -13.235 3.125 -28.875 3.125 C-20.215 -1.205 -9.497 -0.031 0 0 Z " fill="#A4A5A7" transform="translate(76.875,3.875)"/>
<path d="M0 0 C1.98 0.66 3.96 1.32 6 2 C4.125 8.75 4.125 8.75 3 11 C-0.3 11 -3.6 11 -7 11 C-7 8.03 -7 5.06 -7 2 C-3.867 0.956 -3.01 1.066 0 2 C0 1.34 0 0.68 0 0 Z " fill="#4F4F50" transform="translate(61,12)"/>
<path d="M0 0 C1.987 -0.361 1.987 -0.361 4.45 -0.341 C5.371 -0.34 6.291 -0.34 7.24 -0.34 C7.738 -0.332 7.738 -0.332 10.258 -0.293 C11.276 -0.289 12.294 -0.284 13.343 -0.28 C16.604 -0.263 19.864 -0.226 23.125 -0.188 C25.332 -0.172 27.539 -0.159 29.746 -0.146 C35.164 -0.113 40.582 -0.063 46 0 C46 0.66 46 1.32 46 2 C46.66 2.33 47.32 2.66 48 3 C31.5 3 15 3 -2 3 C-1.34 2.01 -0.68 1.02 0 0 Z " fill="#E4E5E7" transform="translate(52,0)"/>
<path d="M0 0 C0 0.33 0 0.66 0 1 C-0.577 1.04 -0.577 1.04 -3.497 1.244 C-7.827 1.547 -12.156 1.858 -16.486 2.172 C-18.35 2.306 -20.215 2.438 -22.08 2.567 C-40.88 3.877 -40.88 3.877 -48.961 5.607 C-51.658 6.127 -54.264 6.148 -57 6 C-56 4 -56 4 -54.299 3.406 C-36.143 -0.406 -18.445 -0.439 0 0 Z " fill="#646364" transform="translate(92,2)"/>
<path d="M0 0 C2 2 2 2 2.125 5.312 C3.05 9.211 3.144 9.578 6.25 11.625 C17.008 17.423 28.054 20.114 40 22 C40 22.33 40 22.66 40 23 C25.592 24.4 10.907 18.878 -1 11 C-2.316 8.367 -1.748 7.198 -1.062 4.375 C-0.868 3.558 -0.673 2.74 -0.473 1.898 C-0.395 1.585 -0.395 1.585 0 0 Z " fill="#B8B9BC" transform="translate(9,26)"/>
<path d="M0 0 C0.99 0.021 1.98 0.042 2.999 0.063 C4.072 0.076 5.146 0.089 6.251 0.103 C7.371 0.136 8.49 0.17 9.644 0.204 C10.775 0.222 11.906 0.24 13.072 0.259 C15.867 0.306 18.661 0.372 21.456 0.454 C21.456 1.774 21.456 3.094 21.456 4.454 C12.546 4.454 3.636 4.454 -5.544 4.454 C-2.544 0.454 -2.544 0.454 0 0 Z " fill="#FEFEFE" transform="translate(101.543701171875,15.5458984375)"/>
<path d="M0 0 C9.9 0 19.8 0 30 0 C30 1.65 30 3.3 30 5 C29.67 4.34 29.34 3.68 29 3 C19.76 3.33 10.52 3.66 1 4 C0.67 2.68 0.34 1.36 0 0 Z " fill="#6E6E6F" transform="translate(94,31)"/>
<path d="M0 0 C0.33 0 0.66 0 1 0 C1.027 2.646 1.047 5.292 1.062 7.938 C1.071 8.692 1.079 9.447 1.088 10.225 C1.097 12.15 1.052 14.075 1 16 C-2.644 19.644 -13.238 18.057 -18.209 18.068 C-21.806 18.06 -25.403 18.036 -29 18 C-29 17.67 -29 17.34 -29 17 C-27.796 16.951 -26.592 16.902 -25.352 16.852 C-23.776 16.777 -22.2 16.701 -20.625 16.625 C-19.831 16.594 -19.037 16.563 -18.219 16.531 C-12.227 16.227 -12.227 16.227 -10 14 C-9.6 11.677 -9.26 9.343 -9 7 C-8.67 7 -8.34 7 -8 7 C-8 8.65 -8 10.3 -8 12 C-5.36 12 -2.72 12 0 12 C0 8.04 0 4.08 0 0 Z " fill="#858688" transform="translate(53,15)"/>
<path d="M0 0 C0.33 1.32 0.66 2.64 1 4 C0 5 0 5 -2.041 5.114 C-2.916 5.108 -3.79 5.103 -4.691 5.098 C-5.636 5.094 -6.58 5.091 -7.553 5.088 C-8.546 5.08 -9.539 5.071 -10.562 5.062 C-11.56 5.058 -12.557 5.053 -13.584 5.049 C-16.056 5.037 -18.528 5.021 -21 5 C-21 3.68 -21 2.36 -21 1 C-17.535 0.835 -17.535 0.835 0 0 Z " fill="#FEFEFE" transform="translate(52,15)"/>
<path d="M0 0 C0.516 0.701 1.031 1.403 1.562 2.125 C12.677 15.234 28.744 18.971 45 22 C45 22.33 45 22.66 45 23 C32.25 24.234 17 18.988 7 11 C4.397 8.52 1.951 6.03 0 3 C0 2.01 0 1.02 0 0 Z " fill="#B4B5B7" transform="translate(0,31)"/>
<path d="M0 0 C2.645 3.125 3.844 6.088 5 10 C1.621 10.285 -1.631 10.446 -5 10 C-7.34 7.376 -7.896 5.311 -9 2 C-6.03 2 -3.06 2 0 2 C0 1.34 0 0.68 0 0 Z " fill="#727374" transform="translate(86,28)"/>
<path d="M0 0 C0.66 0.33 1.32 0.66 2 1 C1.484 1.598 0.969 2.196 0.438 2.812 C0.2 3.173 0.2 3.173 -1 5 C-0.67 5.99 -0.34 6.98 0 8 C0.039 10 0.044 12 0 14 C0.66 13.67 1.32 13.34 2 13 C1.67 15.31 1.34 17.62 1 20 C-2.943 18.733 -4.467 16.318 -6.293 12.797 C-7 11 -7 11 -7.125 8.438 C-5.451 4.81 -2.941 2.691 0 0 Z " fill="#D6D7DA" transform="translate(7,15)"/>
<path d="M0 0 C3.884 1.526 5.926 3.37 8 7 C8.949 11.766 9.108 16.038 6.672 20.352 C3.041 24.718 -0.929 27.516 -6 30 C-6 29.34 -6 28.68 -6 28 C-5.34 28 -4.68 28 -4 28 C-4 27.34 -4 26.68 -4 26 C-2.32 24.598 -2.32 24.598 -0.125 23.062 C2.675 21.101 4.061 19.909 6 17 C6 16.01 6 15.02 6 14 C5.67 14.165 5.67 14.165 4 15 C4.023 14.71 4.023 14.71 4.141 13.242 C4.41 7.409 3.712 4.524 0 0 Z " fill="#B8B9BB" transform="translate(142,16)"/>
<path d="M0 0 C2 3 2 3 2 8 C-0.145 8.165 -0.145 8.165 -11 9 C-11 9.33 -11 9.66 -11 10 C-13.31 10 -15.62 10 -18 10 C-17.67 8.02 -17.34 6.04 -17 4 C-16.67 4.66 -16.34 5.32 -16 6 C-10.72 5.34 -5.44 4.68 0 4 C0 2.68 0 1.36 0 0 Z " fill="#DDDEE0" transform="translate(81,17)"/>
<path d="M0 0 C0.664 1.773 0.664 1.773 1 4 C-1.117 7.773 -4.032 10.516 -7.875 12.438 C-8.226 12.53 -8.226 12.53 -10 13 C-10 13.66 -10 14.32 -10 15 C-10.639 14.814 -11.279 14.629 -11.938 14.438 C-12.278 14.365 -12.278 14.365 -14 14 C-14.33 14.33 -14.66 14.66 -15 15 C-16.666 15.041 -18.334 15.043 -20 15 C-19.732 14.874 -19.732 14.874 -18.375 14.238 C-15.461 12.719 -12.75 10.986 -10 9.188 C-8.969 8.521 -7.938 7.855 -6.875 7.168 C-4.027 5.021 -2.087 2.874 0 0 Z " fill="#6E6E6F" transform="translate(148,29)"/>
<path d="M0 0 C1.961 0.051 1.961 0.051 4.375 0.312 C5.166 0.391 5.958 0.47 6.773 0.551 C9 1 9 1 12 3 C-4.5 3 -21 3 -38 3 C-38 2.67 -38 2.34 -38 2 C-36.884 1.975 -35.769 1.95 -34.619 1.924 C-30.495 1.83 -26.371 1.73 -22.247 1.628 C-20.459 1.584 -18.671 1.543 -16.884 1.503 C-14.319 1.445 -11.755 1.381 -9.191 1.316 C-8.387 1.3 -7.583 1.283 -6.755 1.266 C-1.114 1.114 -1.114 1.114 0 0 Z " fill="#8E8F90" transform="translate(95,5)"/>
<path d="M0 0 C0.33 0.66 0.66 1.32 1 2 C3.97 2 6.94 2 10 2 C9 6 9 6 8 7 C6.314 7.072 4.625 7.084 2.938 7.062 C2.018 7.053 1.099 7.044 0.152 7.035 C-0.558 7.024 -1.268 7.012 -2 7 C-1.34 4.69 -0.68 2.38 0 0 Z " fill="#595859" transform="translate(59,31)"/>
<path d="M0 0 C4.329 5.51 5.671 8.958 5 16 C3 18 3 18 1 19 C0.34 18.67 -0.32 18.34 -1 18 C-0.34 17.34 0.32 16.68 1 16 C1.452 9.903 1.452 9.903 -0.062 6.875 C-1.349 4.303 -0.75 2.701 0 0 Z " fill="#8A8B8C" transform="translate(136,19)"/>
<path d="M0 0 C0.33 0.66 0.66 1.32 1 2 C-0.363 4.785 -0.363 4.785 -2.312 8.062 C-2.948 9.147 -3.584 10.231 -4.238 11.348 C-6 14 -6 14 -8 15 C-8.421 11.565 -8.64 9.005 -6.734 6.012 C-2.801 1.4 -2.801 1.4 0 0 Z " fill="#E4E5E7" transform="translate(14,15)"/>
<path d="M0 0 C0.66 0.33 1.32 0.66 2 1 C1.023 4.158 -0.007 7.013 -1.562 9.938 C-3.155 13.329 -3.629 16.29 -4 20 C-4.33 20 -4.66 20 -5 20 C-5.997 15.152 -6.87 10.874 -4.73 6.266 C-3.244 4.079 -1.714 2.012 0 0 Z " fill="#6F6F70" transform="translate(16,15)"/>
<path d="M0 0 C0.33 0 0.66 0 1 0 C1 2.31 1 4.62 1 7 C3.64 6.67 6.28 6.34 9 6 C9.99 7.98 10.98 9.96 12 12 C8.04 11.67 4.08 11.34 0 11 C0 7.37 0 3.74 0 0 Z " fill="#ADAEB0" transform="translate(94,20)"/>
<path d="M0 0 C2.584 0.356 3.776 0.771 5.625 2.656 C7.406 5.692 7.301 7.757 7.188 11.25 C7.174 11.789 7.174 11.789 7.105 14.516 C7.071 15.335 7.036 16.155 7 17 C6.67 17 6.34 17 6 17 C5.909 16.71 5.909 16.71 5.449 15.242 C3.955 10.598 2.229 6.353 0 2 C0 1.34 0 0.68 0 0 Z " fill="#E1E2E4" transform="translate(136,17)"/>
<path d="M0 0 C0.33 0.66 0.66 1.32 1 2 C3.97 2 6.94 2 10 2 C9.34 3.32 8.68 4.64 8 6 C5.03 6 2.06 6 -1 6 C-0.67 4.02 -0.34 2.04 0 0 Z " fill="#8C8D8F" transform="translate(61,27)"/>
<path d="M0 0 C-0.66 1.32 -1.32 2.64 -2 4 C-2.33 3.67 -2.66 3.34 -3 3 C-4.779 2.842 -6.563 2.749 -8.348 2.684 C-9.427 2.642 -10.507 2.6 -11.619 2.557 C-12.187 2.537 -12.187 2.537 -15.062 2.438 C-16.203 2.394 -17.343 2.351 -18.518 2.307 C-21.345 2.2 -24.172 2.098 -27 2 C-27 1.67 -27 1.34 -27 1 C-17.989 0.367 -9.04 -0.172 0 0 Z " fill="#656465" transform="translate(53,32)"/>
<path d="M0 0 C0.66 0.33 1.32 0.66 2 1 C1.577 1.382 1.577 1.382 -0.562 3.312 C-2.558 5.639 -2.99 6.736 -3.109 9.848 C-2.84 12.592 -2.488 15.286 -2 18 C-4.279 15.784 -5.927 14.04 -7 11 C-7 7.107 -5.578 5.341 -2.938 2.688 C-1.968 1.801 -0.999 0.914 0 0 Z " fill="#C2C3C6" transform="translate(7,15)"/>
<path d="M0 0 C0 0.33 0 0.66 0 1 C-0.701 1.055 -1.402 1.111 -2.124 1.168 C-5.312 1.421 -8.5 1.679 -11.688 1.938 C-12.79 2.025 -13.893 2.112 -15.029 2.201 C-16.096 2.288 -17.163 2.375 -18.262 2.465 C-18.751 2.504 -18.751 2.504 -21.229 2.703 C-23.868 2.986 -26.408 3.435 -29 4 C-29 3.34 -29 2.68 -29 2 C-24.29 0.43 -19.429 0.301 -14.5 -0.125 C-13.971 -0.175 -13.971 -0.175 -11.293 -0.426 C-10.786 -0.47 -10.786 -0.47 -8.219 -0.695 C-7.754 -0.737 -7.754 -0.737 -5.404 -0.946 C-3 -1 -3 -1 0 0 Z " fill="#626263" transform="translate(119,10)"/>
<path d="M0 0 C0.392 0.536 0.784 1.073 1.188 1.625 C4.232 5.614 7.351 9.543 11 13 C9.68 13.33 8.36 13.66 7 14 C2.507 9.479 0.263 6.45 0 0 Z " fill="#7F7F81" transform="translate(0,26)"/>
<path d="M0 0 C-3.179 2.725 -5.923 4.906 -10 6 C-13.312 5.625 -13.312 5.625 -16 5 C-13.529 3.352 -11.239 2.063 -8.562 0.812 C-7.801 0.448 -7.039 0.083 -6.254 -0.293 C-3.71 -1.091 -2.475 -0.885 0 0 Z " fill="#A8AAAC" transform="translate(137,39)"/>
<path d="M0 0 C0.33 0 0.66 0 1 0 C1 1.65 1 3.3 1 5 C3.64 5 6.28 5 9 5 C9 5.99 9 6.98 9 8 C5.7 8.33 2.4 8.66 -1 9 C-0.67 6.03 -0.34 3.06 0 0 Z " fill="#B0B1B4" transform="translate(44,22)"/>
<path d="M0 0 C-0.624 0.296 -1.248 0.593 -1.891 0.898 C-4.038 2.02 -5.381 3.219 -7 5 C-7.66 4.34 -8.32 3.68 -9 3 C-11.602 2.586 -11.602 2.586 -14.625 2.375 C-15.126 2.338 -15.126 2.338 -17.664 2.148 C-18.435 2.099 -19.206 2.05 -20 2 C-20 1.67 -20 1.34 -20 1 C-13.288 0.12 -6.766 -0.114 0 0 Z " fill="#626263" transform="translate(88,12)"/>
<path d="M0 0 C0 0.66 0 1.32 0 2 C-4.927 3.971 -8.78 4.18 -14 4 C-14 3.01 -14 2.02 -14 1 C-12.043 0.638 -10.084 0.286 -8.125 -0.062 C-7.034 -0.26 -5.944 -0.457 -4.82 -0.66 C-2 -1 -2 -1 0 0 Z " fill="#838485" transform="translate(56,46)"/>
<path d="M0 0 C-10.374 5.556 -10.374 5.556 -16 6 C-14.083 2.167 -10.258 1.089 -6.375 -0.25 C-3 -1 -3 -1 0 0 Z " fill="#585758" transform="translate(137,43)"/>
<path d="M0 0 C0.33 0.66 0.66 1.32 1 2 C-3.21 7.272 -6.914 11.019 -13 14 C-13 13.34 -13 12.68 -13 12 C-12.34 12 -11.68 12 -11 12 C-11 11.34 -11 10.68 -11 10 C-9.355 8.633 -9.355 8.633 -7.188 7.125 C-4.173 5.028 -2.083 3.035 0 0 Z " fill="#C0C1C3" transform="translate(149,32)"/>
<path d="M0 0 C0.812 1.625 0.812 1.625 1 4 C-0.468 6.246 -2.159 8.024 -4 10 C-5.32 9.34 -6.64 8.68 -8 8 C-5.333 5.333 -2.667 2.667 0 0 Z " fill="#7D7D7E" transform="translate(148,29)"/>
<path d="M0 0 C3.265 1.804 4.889 2.834 7 6 C6.625 8.188 6.625 8.188 6 10 C3.613 7.037 1.265 4.057 -1 1 C-0.67 0.67 -0.34 0.34 0 0 Z " fill="#656465" transform="translate(129,12)"/>
<path d="M0 0 C0.66 1.32 1.32 2.64 2 4 C-0.97 4 -3.94 4 -7 4 C-7.33 3.01 -7.66 2.02 -8 1 C-5.36 0.67 -2.72 0.34 0 0 Z " fill="#535353" transform="translate(88,32)"/>
<path d="M0 0 C0.66 0.33 1.32 0.66 2 1 C1.67 2.32 1.34 3.64 1 5 C0.34 5 -0.32 5 -1 5 C-1 4.34 -1 3.68 -1 3 C-3.97 4.65 -6.94 6.3 -10 8 C-10.33 7.34 -10.66 6.68 -11 6 C-9.214 4.97 -7.421 3.951 -5.625 2.938 C-4.627 2.369 -3.63 1.801 -2.602 1.215 C-1.743 0.814 -0.885 0.413 0 0 Z " fill="#D2D3D5" transform="translate(19,8)"/>
<path d="M0 0 C-5.493 2.943 -9.846 3.103 -16 3 C-16 2.67 -16 2.34 -16 2 C-14.907 1.691 -13.814 1.381 -12.688 1.062 C-7.709 -0.372 -5.113 -1.023 0 0 Z " fill="#3C3B3C" transform="translate(119,44)"/>
<path d="M0 0 C3.96 0 7.92 0 12 0 C12 0.66 12 1.32 12 2 C12.66 2.33 13.32 2.66 14 3 C11.36 3 8.72 3 6 3 C6 2.67 6 2.34 6 2 C5.01 1.835 5.01 1.835 0 1 C0 0.67 0 0.34 0 0 Z " fill="#DEDFE1" transform="translate(86,0)"/>
<path d="M0 0 C4.62 0.66 9.24 1.32 14 2 C14 2.33 14 2.66 14 3 C12.252 3.223 10.501 3.428 8.75 3.625 C7.775 3.741 6.801 3.857 5.797 3.977 C2.866 4.001 1.455 3.531 -1 2 C-0.67 1.34 -0.34 0.68 0 0 Z " fill="#7C7D7E" transform="translate(94,45)"/>
<path d="M0 0 C4.557 0.438 7.577 0.85 11 4 C9.742 4.041 8.484 4.082 7.188 4.125 C6.48 4.148 5.772 4.171 5.043 4.195 C3 4 3 4 0 2 C0 1.34 0 0.68 0 0 Z " fill="#6D6C6D" transform="translate(8,39)"/>
<path d="M0 0 C2.64 0 5.28 0 8 0 C8 0.99 8 1.98 8 3 C5.36 3 2.72 3 0 3 C0 2.01 0 1.02 0 0 Z " fill="#D1D3D6" transform="translate(45,24)"/>
<path d="M0 0 C1 3 1 3 0.223 4.824 C-0.852 6.549 -1.926 8.275 -3 10 C-3.688 8.312 -3.688 8.312 -4 6 C-2.852 3.756 -1.79 1.79 0 0 Z " fill="#EDEEEF" transform="translate(11,19)"/>
<path d="M0 0 C2.97 0.33 5.94 0.66 9 1 C8.34 2.32 7.68 3.64 7 5 C5.35 4.67 3.7 4.34 2 4 C2.66 3.67 3.32 3.34 4 3 C4 2.34 4 1.68 4 1 C2.68 0.67 1.36 0.34 0 0 Z " fill="#6B6B6C" transform="translate(22,45)"/>
<path d="M0 0 C0.33 0 0.66 0 1 0 C1.25 3.312 1.25 3.312 1 7 C-1 8.938 -1 8.938 -3 10 C-3.33 9.01 -3.66 8.02 -4 7 C-3.526 6.587 -3.051 6.175 -2.562 5.75 C-0.837 3.818 -0.434 2.518 0 0 Z " fill="#444344" transform="translate(137,28)"/>
<path d="M0 0 C0.66 0.99 1.32 1.98 2 3 C4.125 4.188 4.125 4.188 6 5 C6 5.33 6 5.66 6 6 C3.69 6 1.38 6 -1 6 C-0.67 4.02 -0.34 2.04 0 0 Z " fill="#CECFD2" transform="translate(64,21)"/>
<path d="M0 0 C4.515 0.531 7.347 2.366 11 5 C10.34 5.66 9.68 6.32 9 7 C8.629 6.691 8.629 6.691 6.75 5.125 C4.512 3.396 2.563 2.139 0 1 C0 0.67 0 0.34 0 0 Z " fill="#C6C7CA" transform="translate(132,10)"/>
<path d="M0 0 C-1.65 1.32 -3.3 2.64 -5 4 C-7 3 -7 3 -8 1 C-4.933 -0.862 -3.403 -1.215 0 0 Z " fill="#A2A2A4" transform="translate(137,39)"/>
<path d="M0 0 C0.33 0.66 0.66 1.32 1 2 C3.97 2 6.94 2 10 2 C10 2.33 10 2.66 10 3 C7.03 3 4.06 3 1 3 C1 3.99 1 4.98 1 6 C0.34 6 -0.32 6 -1 6 C-0.67 4.02 -0.34 2.04 0 0 Z " fill="#656566" transform="translate(59,31)"/>
<path d="M0 0 C4.29 0 8.58 0 13 0 C13.33 0.66 13.66 1.32 14 2 C13.01 2.33 12.02 2.66 11 3 C10.34 2.67 9.68 2.34 9 2 C7.463 1.775 5.92 1.592 4.375 1.438 C3.558 1.354 2.74 1.27 1.898 1.184 C1.272 1.123 0.645 1.062 0 1 C0 0.67 0 0.34 0 0 Z " fill="#5B5A5A" transform="translate(42,12)"/>
<path d="M0 0 C2.301 3.452 2.138 4.235 1.625 8.188 C1.514 9.089 1.403 9.99 1.289 10.918 C1.194 11.605 1.098 12.292 1 13 C0.67 13 0.34 13 0 13 C-0.195 11.209 -0.381 9.417 -0.562 7.625 C-0.667 6.627 -0.771 5.63 -0.879 4.602 C-1 2 -1 2 0 0 Z " fill="#838486" transform="translate(11,22)"/>
<path d="M0 0 C4.29 0 8.58 0 13 0 C13 0.33 13 0.66 13 1 C12.241 1.061 11.481 1.121 10.699 1.184 C9.705 1.267 8.711 1.351 7.688 1.438 C6.701 1.519 5.715 1.6 4.699 1.684 C2 2 2 2 -1 3 C-0.67 2.01 -0.34 1.02 0 0 Z " fill="#E4E4E5" transform="translate(67,15)"/>
<path d="M0 0 C3.625 -0.188 3.625 -0.188 7 0 C7 0.66 7 1.32 7 2 C5.515 2.165 5.515 2.165 -2 3 C-1.34 2.01 -0.68 1.02 0 0 Z " fill="#CDCED0" transform="translate(98,1)"/>
<path d="M0 0 C3.63 0.66 7.26 1.32 11 2 C6.801 3.05 4.206 2.728 0 2 C0 1.34 0 0.68 0 0 Z " fill="#636263" transform="translate(13,42)"/>
</svg>
