<svg width="512" height="512" viewBox="0 0 512 512" fill="none" xmlns="http://www.w3.org/2000/svg">
<path fill-rule="evenodd" clip-rule="evenodd" d="M260.853 121.614C267.34 121.793 266.651 126.331 265.578 127.896C246.435 157.545 201.202 209.751 168.267 267.03C162.814 276.311 158.754 283.139 158.754 293.324C158.754 307.132 167.412 323.457 184.805 330.463C196.247 335.026 203.45 335.166 215.798 335.344C307.478 338.167 344.231 335.7 426.269 332.929C431.007 332.916 435.412 329.738 436.996 327.818C452.857 311.352 462 281.753 462 255.637C462 197.469 419.922 145.073 354.281 119.873L343.746 133.325C401.277 156.999 431.007 204.284 431.007 254.925C431.007 266.318 429.065 277.354 425.553 287.894C422.949 295.243 419.743 299.464 410.42 299.604C343.567 301.028 305.715 302.07 238.683 300.316C230.037 300.138 227.241 296.998 225.836 290.182C224.763 286.139 225.658 282.782 228.455 277.71C264.007 215.002 325.944 143.331 338.102 126.331C340.413 123.191 339.327 116.859 331.396 114.762C308.192 107.934 282.155 105.162 255.757 105.162C136.239 105.645 51.9406 172.573 50 255.637C54.7891 355.345 141.87 406.838 255.757 406.838C325.446 406.838 389.285 382.311 426.639 343.418L392.133 344.804C360.271 373.017 309.227 388.097 256.434 388.097C160.209 388.097 81.8621 340.455 81.8621 254.925C81.8621 181.36 160.196 121.436 256.434 121.436L260.853 121.614Z" fill="white"/>
</svg>
