<svg xmlns="http://www.w3.org/2000/svg" width="598" height="463" preserveAspectRatio="none" style="display:block" viewBox="0 0 2048 1586"><defs><linearGradient id="Q" x1="686.197" x2="735.765" y1="458.992" y2="531.047" gradientUnits="userSpaceOnUse"><stop class="stop0" offset="0" stop-color="#747474"/><stop class="stop1" offset="1" stop-color="#9b9b9b"/></linearGradient><linearGradient id="P" x1="748.959" x2="784.377" y1="517.43" y2="603.212" gradientUnits="userSpaceOnUse"><stop class="stop0" offset="0" stop-color="#a0a0a0"/><stop class="stop1" offset="1" stop-color="#fff"/></linearGradient><linearGradient id="O" x1="604.703" x2="660.685" y1="415.659" y2="485.061" gradientUnits="userSpaceOnUse"><stop class="stop0" offset="0" stop-color="#474646"/><stop class="stop1" offset="1" stop-color="#79797a"/></linearGradient><linearGradient id="N" x1="1626.89" x2="1523.35" y1="1188.72" y2="1108.59" gradientUnits="userSpaceOnUse"><stop class="stop0" offset="0" stop-color="#111"/><stop class="stop1" offset="1" stop-color="#393839"/></linearGradient><linearGradient id="M" x1="143.479" x2="199.909" y1="456.509" y2="745.024" gradientUnits="userSpaceOnUse"><stop class="stop0" offset="0" stop-color="#191718"/><stop class="stop1" offset="1" stop-color="#454646"/></linearGradient><linearGradient id="L" x1="496.832" x2="538.232" y1="1143.85" y2="1121.37" gradientUnits="userSpaceOnUse"><stop class="stop0" offset="0" stop-color="#8c8c8b"/><stop class="stop1" offset="1" stop-color="#c3c1c2"/></linearGradient><linearGradient id="K" x1="537.271" x2="589.876" y1="1124.23" y2="1094.23" gradientUnits="userSpaceOnUse"><stop class="stop0" offset="0" stop-color="#c8c7c7"/><stop class="stop1" offset="1" stop-color="#fffefd"/></linearGradient><linearGradient id="J" x1="405.092" x2="493.795" y1="1166.05" y2="1127.73" gradientUnits="userSpaceOnUse"><stop class="stop0" offset="0" stop-color="#636363"/><stop class="stop1" offset="1" stop-color="#949494"/></linearGradient><linearGradient id="I" x1="345.878" x2="460.66" y1="344.429" y2="517.977" gradientUnits="userSpaceOnUse"><stop class="stop0" offset="0" stop-color="#111010"/><stop class="stop1" offset="1" stop-color="#3c3b3c"/></linearGradient><linearGradient id="H" x1="212.201" x2="332.132" y1="1106.91" y2="1030.74" gradientUnits="userSpaceOnUse"><stop class="stop0" offset="0" stop-color="#1c1c1c"/><stop class="stop1" offset="1" stop-color="#5c5d5e"/></linearGradient><linearGradient id="G" x1="220.349" x2="126.086" y1="768.809" y2="1110.13" gradientUnits="userSpaceOnUse"><stop class="stop0" offset="0" stop-color="#474747"/><stop class="stop1" offset="1" stop-color="#8f8f90"/></linearGradient><linearGradient id="F" x1="1780.86" x2="1752.39" y1="1177.47" y2="1152.85" gradientUnits="userSpaceOnUse"><stop class="stop0" offset="0" stop-color="#151515"/><stop class="stop1" offset="1" stop-color="#413f42"/></linearGradient><linearGradient id="E" x1="1772.16" x2="1802.95" y1="1101.71" y2="1118.65" gradientUnits="userSpaceOnUse"><stop class="stop0" offset="0" stop-color="#424141"/><stop class="stop1" offset="1" stop-color="#8f8f8f"/></linearGradient><linearGradient id="D" x1="1632.09" x2="1763.36" y1="1128.77" y2="1153.79" gradientUnits="userSpaceOnUse"><stop class="stop0" offset="0" stop-color="#191919"/><stop class="stop1" offset="1" stop-color="#474748"/></linearGradient><linearGradient id="C" x1="1782.5" x2="1924.96" y1="838.783" y2="1056.92" gradientUnits="userSpaceOnUse"><stop class="stop0" offset="0" stop-color="#cecace"/><stop class="stop1" offset="1" stop-color="#f6f6f5"/></linearGradient><linearGradient id="B" x1="1647.63" x2="1540.4" y1="354.642" y2="1132.74" gradientUnits="userSpaceOnUse"><stop class="stop0" offset="0" stop-color="#161616"/><stop class="stop1" offset="1" stop-color="#4a4a4b"/></linearGradient><linearGradient id="A" x1="1471.28" x2="1536.19" y1="1314.44" y2="1383.01" gradientUnits="userSpaceOnUse"><stop class="stop0" offset="0" stop-color="#747473"/><stop class="stop1" offset="1" stop-color="#939393"/></linearGradient><linearGradient id="z" x1="1432.2" x2="1426.15" y1="1336.29" y2="1355.5" gradientUnits="userSpaceOnUse"><stop class="stop0" offset="0" stop-color="#b0b2a8"/><stop class="stop1" offset="1" stop-color="#c1bfc2"/></linearGradient><linearGradient id="y" x1="1514.9" x2="1303.81" y1="1340.8" y2="1420.18" gradientUnits="userSpaceOnUse"><stop class="stop0" offset="0" stop-color="#181416"/><stop class="stop1" offset="1" stop-color="#46494b"/></linearGradient><linearGradient id="x" x1="1388.32" x2="1444.51" y1="1270.54" y2="1342.82" gradientUnits="userSpaceOnUse"><stop class="stop0" offset="0" stop-color="#474747"/><stop class="stop1" offset="1" stop-color="#767676"/></linearGradient><linearGradient id="w" x1="1182.77" x2="1460.37" y1="128.914" y2="172.579" gradientUnits="userSpaceOnUse"><stop class="stop0" offset="0" stop-color="#424143"/><stop class="stop1" offset="1" stop-color="#717170"/></linearGradient><linearGradient id="v" x1="1156.97" x2="1127.98" y1="668.736" y2="469.878" gradientUnits="userSpaceOnUse"><stop class="stop0" offset="0" stop-color="#757575"/><stop class="stop1" offset="1" stop-color="#bebdbd"/></linearGradient><linearGradient id="u" x1="1331.71" x2="1282.71" y1="379.781" y2="295.972" gradientUnits="userSpaceOnUse"><stop class="stop0" offset="0" stop-color="#cacaca"/><stop class="stop1" offset="1" stop-color="#f2f0f0"/></linearGradient><linearGradient id="t" x1="515.99" x2="734.134" y1="1328.16" y2="1458.28" gradientUnits="userSpaceOnUse"><stop class="stop0" offset="0" stop-color="#0f0e0e"/><stop class="stop1" offset="1" stop-color="#313234"/></linearGradient><linearGradient id="s" x1="716.715" x2="547.652" y1="1247.48" y2="1362.01" gradientUnits="userSpaceOnUse"><stop class="stop0" offset="0" stop-color="#7a7a7a"/><stop class="stop1" offset="1" stop-color="#b1b0b1"/></linearGradient><linearGradient id="r" x1="571.537" x2="932.567" y1="1343.78" y2="1505.22" gradientUnits="userSpaceOnUse"><stop class="stop0" offset="0" stop-color="#8a8888"/><stop class="stop1" offset="1" stop-color="#d1d1d1"/></linearGradient><linearGradient id="q" x1="1721.13" x2="1356.26" y1="438.446" y2="1.05" gradientUnits="userSpaceOnUse"><stop class="stop0" offset="0" stop-color="#9c9c9b"/><stop class="stop1" offset="1" stop-color="#d7d6d6"/></linearGradient><linearGradient id="p" x1="1149.26" x2="1114.09" y1="757.073" y2="667.377" gradientUnits="userSpaceOnUse"><stop class="stop0" offset="0" stop-color="#474747"/><stop class="stop1" offset="1" stop-color="#7a7979"/></linearGradient><linearGradient id="o" x1="1177.35" x2="1300.82" y1="1056.03" y2="1009.65" gradientUnits="userSpaceOnUse"><stop class="stop0" offset="0" stop-color="#121212"/><stop class="stop1" offset="1" stop-color="#4a4a49"/></linearGradient><linearGradient id="n" x1="1558.99" x2="1557.95" y1="1310.39" y2="1194.96" gradientUnits="userSpaceOnUse"><stop class="stop0" offset="0" stop-color="#5f5e5e"/><stop class="stop1" offset="1" stop-color="#878787"/></linearGradient><linearGradient id="m" x1="708.933" x2="754.375" y1="392.584" y2="254.439" gradientUnits="userSpaceOnUse"><stop class="stop0" offset="0" stop-color="#a09e9f"/><stop class="stop1" offset="1" stop-color="#bdbebd"/></linearGradient><linearGradient id="l" x1="833.594" x2="946.529" y1="52.633" y2="260.644" gradientUnits="userSpaceOnUse"><stop class="stop0" offset="0" stop-color="#131212"/><stop class="stop1" offset="1" stop-color="#434344"/></linearGradient><linearGradient id="k" x1="718.596" x2="708.211" y1="1227.79" y2="1269.99" gradientUnits="userSpaceOnUse"><stop class="stop0" offset="0" stop-color="#434343"/><stop class="stop1" offset="1" stop-color="#747474"/></linearGradient><linearGradient id="j" x1="886.243" x2="891.169" y1="522.682" y2="436.067" gradientUnits="userSpaceOnUse"><stop class="stop0" offset="0" stop-color="#474647"/><stop class="stop1" offset="1" stop-color="#8c8c8b"/></linearGradient><linearGradient id="i" x1="897.237" x2="786.755" y1="896.778" y2="870.303" gradientUnits="userSpaceOnUse"><stop class="stop0" offset="0" stop-color="#111011"/><stop class="stop1" offset="1" stop-color="#3d3c3c"/></linearGradient><linearGradient id="h" x1="587.311" x2="764.829" y1="1240.24" y2="629.611" gradientUnits="userSpaceOnUse"><stop class="stop0" offset="0" stop-color="#848483"/><stop class="stop1" offset="1" stop-color="#dad9d9"/></linearGradient><linearGradient id="g" x1="1467.39" x2="1190.14" y1="1246.38" y2="566.05" gradientUnits="userSpaceOnUse"><stop class="stop0" offset="0" stop-color="#838383"/><stop class="stop1" offset="1" stop-color="#e2e1e1"/></linearGradient><linearGradient id="f" x1="480.992" x2="481.001" y1="1291" y2="1195" gradientUnits="userSpaceOnUse"><stop class="stop0" offset="0" stop-color="#696969"/><stop class="stop1" offset="1" stop-color="#868686"/></linearGradient><linearGradient id="e" x1="368.6" x2="109.304" y1="1127.29" y2="1184.43" gradientUnits="userSpaceOnUse"><stop class="stop0" offset="0" stop-color="#838783"/><stop class="stop1" offset="1" stop-color="#b4b2b5"/></linearGradient><linearGradient id="d" x1="526.971" x2="488.943" y1="1337.9" y2="1433.53" gradientUnits="userSpaceOnUse"><stop class="stop0" offset="0" stop-color="#5b5b5a"/><stop class="stop1" offset="1" stop-color="#828182"/></linearGradient><linearGradient id="c" x1="199.393" x2="525.176" y1="424.052" y2="1319.09" gradientUnits="userSpaceOnUse"><stop class="stop0" offset="0" stop-color="#202021"/><stop class="stop1" offset="1" stop-color="#3d3c3c"/></linearGradient><linearGradient id="b" x1="1968.82" x2="1804.09" y1="705.126" y2="361.878" gradientUnits="userSpaceOnUse"><stop class="stop0" offset="0" stop-color="#6d6d6d"/><stop class="stop1" offset="1" stop-color="#9c9c9c"/></linearGradient><linearGradient id="a" x1="1601.25" x2="1067.15" y1="1413.51" y2="698.505" gradientUnits="userSpaceOnUse"><stop class="stop0" offset="0" stop-color="#1f1f1f"/><stop class="stop1" offset="1" stop-color="#868686"/></linearGradient></defs><path fill="#f1f0f0" d="M37.506 859.725c-2.766-15.412-3.713-39.528-4.015-55.182a595.9 595.9 0 0 1 36.006-218.802c71.453-200.639 248.852-355.986 437.999-444.387C738.032 33.608 1004.11 5.648 1253.66 51.989c38 7.057 99.31 20.515 134.84 33.185 12.83 3.615 63.34 20.144 73.22 25.491 23.27 8.13 48.88 19.635 71.14 30.105a975.2 975.2 0 0 1 204.68 127.461c11.57 9.384 32.02 26.153 42.13 36.614 17.79 15.726 34.93 33.996 51 51.329 231.98 250.281 237.56 606.247 7.53 861.666-186.97 207.6-454.57 311.56-729.95 331.25-137.636 9.21-273.34-2.76-406.672-37.8-17.826-4.68-54.833-14.52-71.81-21.44a1052.2 1052.2 0 0 1-234.201-110.05c-14.336-7.59-43.569-29.37-57.014-39.17-41.135-30-83.289-67.97-117.914-105.33-25.707-27.75-49.21-61.45-72.936-90.38-7.487-7.34-19.848-28.97-25.304-38.08-43.564-72.68-68.575-144.786-82.762-227.784-1.066-6.923-1.616-12.338-2.132-19.331m879.298-380.54c7.5 19.728 23.301 74.406 20.903 94.657 3.221 61.346-4.987 104.241-14.803 164.644a5307 5307 0 0 1-27.097 151.835c-19.003 99.635-35.089 206.839-85.409 295.979-3.688 6.54-10.29 17.98-14.933 23.44-7.516 12.45-37.738 51.71-49.43 59.38l-.678.79c-30.976 35.74-98.172 75.71-138.266 100.96-2.208 1.39-4.344 2.94-4.948 5.5 8.244 10.89 115.501 42.16 134.827 47.52 7.46 2.07 20.48 4.78 28.356 7.62 182.689 40.85 345.314 39.3 526.924-4.02 34.91-9.18 121.21-35.46 150.59-51.88-20.89-8.28-86.75-54.16-105.72-69.02-18.58-13.59-38.41-32.26-53.73-49.36-12.62-11.78-26.99-31.97-36.84-46.2-56.91-82.29-72.88-177.43-92-273.574l-12.49-63.652c-1.68-8.737-5.19-24.668-5.98-32.842-1.53-6.712-2.91-13.615-3.99-20.411-7.17-45.148-17.28-91.683-21.76-137.131-1.44-7.32-2.41-16.473-3.41-23.986-4.36-18.849-4.6-61.904-3.71-80.739 4.29-90.866 44.76-169.629 114.16-228.162 22.02-18.566 41.73-31.776 65.57-47.997l76.94-51.747a3335 3335 0 0 1 42.97-28.293c9.26-6.023 22.84-14.206 30.54-21.538-8.29-3.472-19.19-7.223-26.84-11.175-6.65-1.733-14.69-4.657-21.2-7.047-65.45-24.02-131.94-37.939-200.55-49.267a1336 1336 0 0 0-164.9-12.187 1122 1122 0 0 0-309.156 44.589c-36.969 10.915-67.713 22.515-103.491 35.839l129.771 86.36c77.437 52.483 145.37 98.106 179.78 191.115M755.84 593.682l-.101-.751c-5.04-19.325-9.813-33.385-21.033-50.026-19.909-28.411-50.342-44.343-80.966-58.095-33.247-13.721-68.717-30.725-101.969-45.416-9.685-3.28-19.695-7.523-29.341-11.107-120.23-44.665-216.345-9.297-294.248 88.758-14.396 19.171-19.981 31.342-30.078 53.31-28.449 61.901-41.418 117.777-47.719 184.935-3.813 63.407 1.178 105.741 15.486 167.504 11.589 40.049 24.724 76.981 44.281 114.036 13.178 24.96 18.99 38.37 45.099 52.13 42.851 22.58 92.692 34.4 141.034 33.94 4.123-.58 8.168-.87 12.321-1.05 21.263-.9 41.608-4.99 62.395-9.33 9.837-3.78 19.148-5.03 29.104-8.07 12.759-3.9 24.454-9.9 36.232-16.04.62-.56 10.999-7.44 12.278-8.31 8.669-5.87 15.867-11.26 23.966-17.84 1.561-2.34 18.544-17.64 22.174-21.59a363 363 0 0 0 60.152-89.638c11.683-24.096 18.741-46.147 27.335-71.449a6560 6560 0 0 0 29.173-88.172 5175 5175 0 0 0 28.559-90.547c6.119-20.186 12.849-41.675 16.606-62.346 1.622-8.923.768-24.7.43-34.158a290 290 0 0 1-1.17-10.678m546.64-39.765c-29.06 62.641-11.74 110.935 9.66 172.263 46.36 132.853 69.99 293.52 206.01 365.64 41.5 21.33 77.79 26.32 122.77 30.76 49.58 3.02 96.42-11.35 140.9-31.32 2.18-2.13 21.39-11.3 24.99-15.39 11.81-13.46 23.26-37 31.05-52.87 34.07-69.367 52.22-143.453 54.44-220.662.47-16.353-1.22-32.083-.88-48.209-.8-4.771-1.12-9.929-1.54-14.775a556.6 556.6 0 0 0-47.07-172.061c-6.79-14.898-15.42-33.105-25.34-45.999-50.98-66.307-126.23-119.331-213.08-111.611a328 328 0 0 0-63.94 11.675c-40.96 11.849-81.11 31.481-120.07 48.861-39.81 17.756-75.94 29.822-104.75 64.354-3.23 4.038-11.87 18.017-13.15 19.344"/><path fill="url(#a)" d="M1822.83 374.194c1.19-5.951-25.95-29.362-28.68-34.548-6.96-13.194-99.49-90.962-99.64-91.391 2.49-9.856-2.51-6.627-4.96-13.325 5.29 2.145 6.64 4.755 11.27 8.11a795 795 0 0 1 53.24 42.098c7.29 6.19 14.24 12.671 21.49 18.86 1.99 1.698 1.2 1.184 4.12.847 17.79 15.726 34.93 33.996 51 51.329 231.98 250.281 237.56 606.247 7.53 861.666-186.97 207.6-454.57 311.56-729.95 331.25-137.636 9.21-273.34-2.76-406.672-37.8-17.826-4.68-54.833-14.52-71.81-21.44 1.945-.61 3.97-.43 6.037-.43l1.074-1.08c-.522-1.79-.618-2.48-.958-4.31 2.735-2.31 3.417-2.73 4.577-6.1 11.059-2.44 15.994-14.54 28.527-16.08 31.379-3.85 82.127 24.24 114.184 17.11a1171.03 1171.03 0 0 0 682.631-65.11c46.46-19.69 80.81-38.95 124.5-63 .93-.22 1.85-.5 2.75-.82 20.77-7.48 135.73-93.06 144.89-112.63.88-1.64 5.87-5.96 7.59-7.74 8.45-8.77 30.45-27.2 35.53-36.76 7.8-6.43 25.82-29.85 32.34-38.21a613.1 613.1 0 0 0 117.45-246.326c4.94-25.527 8.14-46.461 10.33-72.312a570.36 570.36 0 0 0-87.75-350.549c-23.62-37.817-45.83-65.628-74.2-99.266 2.1-.758 1.98-.447 4.46-.118 2.96-2.554 24.04-25.449 25.2-27.846 3.2 3.809 10.54 12.995 13.9 15.921"/><path fill="url(#b)" d="M1779.27 386.237c2.1-.758 1.98-.447 4.46-.118 2.96-2.554 24.04-25.449 25.2-27.846 3.2 3.809 10.54 12.995 13.9 15.921 16.66 20.94 32.85 41.721 47.62 64.077 76.3 115.474 114.32 252.536 98.63 390.94-1.1 9.343-2.3 18.675-3.57 27.996-.55-2.246 5.09-55.33 5.27-63.931.55-25.932.26-52.444-1.68-78.775-.46-6.264-2.27-11.941-2.5-18.394l-.78 2.721c-4.39 3.178-19.74 18.284-22.73 19.975-1.63-.498-1.03-.005-1.84-1.428l-.8.574c1.57 18.478 4.04 38.413 4.6 56.936 1.03 34.531-1.78 70.116-6.87 104.262-1.18 7.861-2.68 23.021-7.29 29.217 4.94-25.527 8.14-46.461 10.33-72.312a570.36 570.36 0 0 0-87.75-350.549c-23.62-37.817-45.83-65.628-74.2-99.266"/><path fill="url(#c)" d="m237.732 410.006 2.889 1.187C137.887 537.334 83.774 686.413 101.039 850.494 114.39 977.386 172.74 1095.7 257.375 1190.66c.719.53 1.437 1.05 2.155 1.58 51.03 10.2 132.982 9.2 184.468 1.39l1.203 2.02a16 16 0 0 1-3.328 2.19c5.036 3.86 36.559-1.18 45.247-.63 65.443 4.1 130.921.47 196.371 4.51 2.52.16 7.352 2.44 9.681 3.66l.627.33c11.707-1.18 29.93-30.41 39.902-34.79 15.356-17.33 31.043-45.81 41.725-66.24l2.763.35c-58.774 116.94-111.663 136.44-222.949 193.14a4096 4096 0 0 1-68.746 33.97c-8.681 4.24-27.881 14.22-35.815 17.06 8.087 6.86 34.28 20.6 44.523 26.13 91.307 49.29 187.124 81.03 288.007 103.63-32.057 7.13-82.805-20.96-114.184-17.11-12.533 1.54-17.468 13.64-28.527 16.08-1.16 3.37-1.842 3.79-4.577 6.1.34 1.83.436 2.52.958 4.31l-1.074 1.08c-2.067 0-4.092-.18-6.037.43a1052.2 1052.2 0 0 1-234.201-110.05c-14.336-7.59-43.569-29.37-57.014-39.17-41.135-30-83.289-67.97-117.914-105.33-25.707-27.75-49.21-61.45-72.936-90.38-7.487-7.34-19.848-28.97-25.304-38.08-43.564-72.68-68.575-144.786-82.762-227.784-1.066-6.923-1.616-12.338-2.132-19.331 3.114-17.895 4.344-37.541 4.406-55.749 3.784-19.106 18.429-30.166 25.748-43.618 12.321-22.644 26.74-64.805 30.006-90.309 1.123-2.918 2.228-7.047 3.039-10.118 7.772-29.431 17.993-56.953 29.758-84.998 1.894-1.87 4.81-8.931 6.304-11.667 22.421-41.037 46.624-81.724 74.323-119.467 8.525-11.616 17.783-22.493 26.643-33.793"/><path fill="url(#d)" d="M39.637 879.056c.325-3.701-.124-6.2 1.884-8.676l1.135.533c.133 8.155-3.577 10.953 3.331 14.947 1.947 8.211 10.454 42.844 10.709 49.346A625.07 625.07 0 0 0 224.858 1209.6c.849.07 1.697.14 2.546.2 16.154 15.99 33.197 31.06 50.587 45.69 6.206 5.22 13.03 11.45 19.791 15.84 4.24-8.17 12.421-9.61 17.726-18.32-4.468-4.41-13.669-12.99-17.121-17.67 8.815 7.29 16.515 15.37 25.042 22.8 37.919 33.02 83.315 66.41 127.25 91.06 8.087 6.86 34.28 20.6 44.523 26.13 91.307 49.29 187.124 81.03 288.007 103.63-32.057 7.13-82.805-20.96-114.184-17.11-12.533 1.54-17.468 13.64-28.527 16.08-1.16 3.37-1.842 3.79-4.577 6.1.34 1.83.436 2.52.958 4.31l-1.074 1.08c-2.067 0-4.092-.18-6.037.43a1052.2 1052.2 0 0 1-234.201-110.05c-14.336-7.59-43.569-29.37-57.014-39.17-41.135-30-83.289-67.97-117.914-105.33-25.707-27.75-49.21-61.45-72.936-90.38-7.487-7.34-19.848-28.97-25.304-38.08-43.564-72.68-68.575-144.786-82.762-227.784"/><path fill="url(#e)" d="M39.637 879.056c.325-3.701-.124-6.2 1.884-8.676l1.135.533c.133 8.155-3.577 10.953 3.331 14.947 1.947 8.211 10.454 42.844 10.709 49.346A625.07 625.07 0 0 0 224.858 1209.6c6.345 8.69 27.16 26.43 36.302 34.33a933.6 933.6 0 0 0 230.066 146.53c-4.64 1.84-61.338-28.52-69.382-32.99-5.059 6.82-7.541 18.2-14.02 22.56-6.688-.14-5.264-3.18-11.407-2.12l-.85 1.89c-14.336-7.59-43.569-29.37-57.014-39.17-41.135-30-83.289-67.97-117.914-105.33-25.707-27.75-49.21-61.45-72.936-90.38-7.487-7.34-19.848-28.97-25.304-38.08-43.564-72.68-68.575-144.786-82.762-227.784"/><path fill="#6e6d6e" d="M39.637 879.056c.325-3.701-.124-6.2 1.884-8.676l1.135.533c.133 8.155-3.577 10.953 3.331 14.947 1.947 8.211 10.454 42.844 10.709 49.346-2.947 5.811 2.037 17.266 4.013 23.542 15.72 49.952 35.635 98.222 61.505 143.802 5.665 9.98 22.84 32.56 25.489 42.37-7.487-7.34-19.848-28.97-25.304-38.08-43.564-72.68-68.575-144.786-82.762-227.784"/><path fill="url(#f)" d="m443.998 1193.63 1.203 2.02a16 16 0 0 1-3.328 2.19c5.036 3.86 36.559-1.18 45.247-.63 65.443 4.1 130.921.47 196.371 4.51 2.52.16 7.352 2.44 9.681 3.66l.627.33c11.707-1.18 29.93-30.41 39.902-34.79-43.811 58.22-152.65 108.94-223.626 120-74.423 11.59-143.417-11.82-202.121-57.18-14.338-11.08-29.115-26.52-44.093-34.98-2.66-1.51-2.53-1.55-3.661-4.58-.235-.64-.458-1.29-.67-1.94 51.03 10.2 132.982 9.2 184.468 1.39"/><path fill="url(#g)" d="M1146.2 556.587c2.29 10.04-6.92 36.99-4.5 49.82 9.6-12.525.79-21.721 17.67-26.955 17.94-5.567 34.95-6.077 53.55-4.331 5.7.535 10.93 7.265 15.77 8.775 1.92-10.703 8.44-26.821 12.42-37.315.76 2.327-2.77 11.668-3.92 14.429-22.46 54.027-9.68 101.82 4.8 155.292A4169 4169 0 0 0 1266 801.99a5262 5262 0 0 0 37.21 124.805c6.86 21.609 14.05 44.874 22.43 65.863a337 337 0 0 0 31.66 60.472 297.7 297.7 0 0 0 115.75 102.47c41.92 21.38 80.2 30.9 126.08 38.55-12.5 4.6-27.3 1.18-41.49 1.68l-124.46 3.87c-23.25.63-46.27 2.26-69.55 1.67-7.32-.18-15.91 4.5-24.06 3.54-2.2-1.41-8.1-5.98-9.14-6.56-3.4-4.61-6.92-5.13-11.66-8.97l-.6-.49-1.53.31c-7.52-6.14-17.4-21.27-23.13-29.76-47.66-70.67-69.26-154.02-90.73-235.412-14.78-56.006-28.44-112.216-39.81-169.044-.58-2.926-1.88-5.708-4.1-7.723l-1.78.46c-1 2.484-.86 4.705-.97 7.393-1.89-5.483-4.7-23.748-5.74-30.14a3478 3478 0 0 1-10.32-68.882c.33-3.589-.83-21.4-.9-26.278-.29-22.726.52-51.418 7.04-73.227"/><path fill="url(#h)" d="M443.998 1193.63c95.265-15.52 177.414-52.17 234.724-133.15 31.495-44.5 44.95-87.923 60.894-139.465a5113 5113 0 0 0 29.826-99.685 3814 3814 0 0 0 28.698-101.122c5.104-18.866 11.311-40.26 14.664-59.316a191.3 191.3 0 0 0 2.235-51.578 182 182 0 0 0-25.98-79.009c-2.491-4.04-21.279-29.295-21.258-30.714l1.99.542c31.776 41.491 48.278 80.016 48.012 133.514-.038 7.626-7.128 36.817-2.898 39.975l2.06-.346 3.044-4.608c23.265-6.771 38.677-10.162 63.735-1.57.606 2.361.984 5.529 3.431 6.325.02-1.33-.071-2.098.679-3.25 4.136-6.353 4.738-15.799 6.097-23.595l1.046.32c1.908 6.976-4.641 31.419-5.963 40.284-13.743 92.169-35.86 183.347-60.371 273.189-8.132 29.807-23.418 94.999-39.279 119.919-3.622 8.2-7.238 16.72-11.195 24.74l-2.763-.35c-10.682 20.43-26.369 48.91-41.725 66.24-9.972 4.38-28.195 33.61-39.902 34.79l-.627-.33c-2.329-1.22-7.161-3.5-9.681-3.66-65.45-4.04-130.928-.41-196.371-4.51-8.688-.55-40.211 4.49-45.247.63 1.239-.61 2.27-1.3 3.328-2.19z"/><path fill="#6e6d6e" d="M775.426 1104.68c2.312-4.98 9.602-21.12 12.696-24.73l1.262.34c-3.622 8.2-7.238 16.72-11.195 24.74z"/><path fill="url(#i)" d="M862.061 437.893c6.553 3.915 21.334.302 27.894-1.264 2.219-.53-.408 2.667 3.825 2.432 7.212 8.848 13.819 29.64 20.656 39.399l2.368.725c7.5 19.728 23.301 74.406 20.903 94.657 3.221 61.346-4.987 104.241-14.803 164.644a5307 5307 0 0 1-27.097 151.835c-19.003 99.635-35.089 206.839-85.409 295.979-3.688 6.54-10.29 17.98-14.933 23.44-7.516 12.45-37.738 51.71-49.43 59.38-7.47 1.39-9.46 6.59-14.177 9l-.229-1.53 2.552-2.65c-10.136-2.96-19.367-2.14-29.405-4.44-15.951-3.66-29.761-6.3-43.254-15.85-6.504 2.96-11.308 6.8-17.246 9.33l-.515-1.5c6.352-4.49 16.661-9.89 23.728-14.32a430 430 0 0 0 33.366-23.65c92.742-83.53 119.078-196.98 149.219-313.379a2148 2148 0 0 0 43.424-200.996c11.57-72.518 14.072-104.776-3.338-176.938-12.542-37.807-21.544-56.879-42.964-89.936 5.141-3.799 8.136-2.7 14.865-4.368"/><path fill="url(#j)" d="M862.061 437.893c6.553 3.915 21.334.302 27.894-1.264 2.219-.53-.408 2.667 3.825 2.432 7.212 8.848 13.819 29.64 20.656 39.399l2.368.725c7.5 19.728 23.301 74.406 20.903 94.657l-1.279-.389c-2.933-14.861-4.359-30.956-7.476-46.87-3.985-2.286-34.873-5.075-39.132-2.635.684 3.408.884 4.817.34 8.249-12.542-37.807-21.544-56.879-42.964-89.936 5.141-3.799 8.136-2.7 14.865-4.368"/><path fill="url(#k)" d="M700.855 1223.51c6.206 5.37 51.694 11.04 64.257 16.75.476 1.89.366 2.05 1.499 3.59 7.822-4.54 21.395-31.85 28.854-34.11-7.516 12.45-37.738 51.71-49.43 59.38-7.47 1.39-9.46 6.59-14.177 9l-.229-1.53 2.552-2.65c-10.136-2.96-19.367-2.14-29.405-4.44-15.951-3.66-29.761-6.3-43.254-15.85-6.504 2.96-11.308 6.8-17.246 9.33l-.515-1.5c6.352-4.49 16.661-9.89 23.728-14.32a430 430 0 0 0 33.366-23.65"/><path fill="url(#l)" d="M709.144 131.426a1141.7 1141.7 0 0 1 470.446-32.322c4.17 5.113 12.21 5.468 15.03 15.535 2.41 8.643-3.26 11.706-8.66 16.924l2.3 1.069-3.46.837a1336 1336 0 0 0-164.9-12.187 1122 1122 0 0 0-309.156 44.589c-36.969 10.915-67.713 22.515-103.491 35.839l129.771 86.36c77.437 52.483 145.37 98.106 179.78 191.115l-2.368-.725c-6.837-9.759-13.444-30.551-20.656-39.399-4.233.235-1.606-2.962-3.825-2.432-6.56 1.566-21.341 5.179-27.894 1.264-6.729 1.668-9.724.569-14.865 4.368l-6.96-9.781c-1.486-1.142-13.136-14.811-15.115-17.038a223 223 0 0 0-27.035-25.698c-17.428-13.832-41.079-23.16-57.308-36.405a525 525 0 0 1-17.582-10.843l-.043-2.762c-13.619-8.783-34.979-21.66-47.243-30.913-3.017-11.151-63.013-47.675-74.428-58.61-15.595-14.939-44.43-23.845-16.387-46.072l2.465-.48c-5.647-5.803-35.711 3.306-36.03-7.302 4.748-7.313 18.922-13.582 26.745-17.321 4.827-2.204 7.101-3.239 11.592-6.149l-.249-1.375c11.383-9.336 101.41-37.223 119.526-40.086"/><path fill="url(#m)" d="M587.56 203.659c2.486-.13 8.14-1.862 10.857-2.618a5400 5400 0 0 1 124.447 81.932c40.805 27.485 84.156 55.121 119.584 89.176 9.47 9.103 23.43 26.371 31.884 37.076 3.608 4.482 18.576 25.478 19.448 29.836-4.233.235-1.606-2.962-3.825-2.432-6.56 1.566-21.341 5.179-27.894 1.264-6.729 1.668-9.724.569-14.865 4.368l-6.96-9.781c-1.486-1.142-13.136-14.811-15.115-17.038a223 223 0 0 0-27.035-25.698c-17.428-13.832-41.079-23.16-57.308-36.405a525 525 0 0 1-17.582-10.843l-.043-2.762c-13.619-8.783-34.979-21.66-47.243-30.913-3.017-11.151-63.013-47.675-74.428-58.61-15.595-14.939-44.43-23.845-16.387-46.072z"/><path fill="#7a7a7a" d="M874.332 409.225c3.608 4.482 18.576 25.478 19.448 29.836-4.233.235-1.606-2.962-3.825-2.432-6.56 1.566-21.341 5.179-27.894 1.264 2.672-1.87 17.516 2.079 23.874-2.613 3.05-8.74-9.719-16.015-11.603-26.055m-34.096 23.255c5.882 1.742 4.502 5.554 7.742 5.758 5.9.372 7.344-2.338 14.083-.345-6.729 1.668-9.724.569-14.865 4.368z"/><path fill="#6e6d6e" d="M723.153 339.734c4.471 2.793 16.054 9.249 17.625 13.605a525 525 0 0 1-17.582-10.843z"/><path fill="#7a7a7a" d="M589.618 171.512c11.383-9.336 101.41-37.223 119.526-40.086l-1.326.769c-20.091 11.536-122.439 43.274-126.599 60.807-.353 1.488.283 2.083.895 3.409 5.481 3.936 14.072 3.254 16.303 4.63-2.717.756-8.371 2.488-10.857 2.618-5.647-5.803-35.711 3.306-36.03-7.302 4.748-7.313 18.922-13.582 26.745-17.321 4.827-2.204 7.101-3.239 11.592-6.149z"/><path fill="url(#n)" d="M1599.13 1194.15c33.15 3.95 61.62 6.32 95.04 5.63 30.81-.63 56.72-4.13 86.93-6.88-5.08 9.56-27.08 27.99-35.53 36.76-1.72 1.78-6.71 6.1-7.59 7.74-9.16 19.57-124.12 105.15-144.89 112.63-.9.32-1.82.6-2.75.82-7.94-6.49-49.71-25.47-62.39-31.71a3559 3559 0 0 1-82.94-41.98c-47.08-24.52-69.55-35.19-109.97-69.43l1.4-2.26c-2.51-2.35-5.88-4.47-6.01-7.12 1.04.58 6.94 5.15 9.14 6.56 8.15.96 16.74-3.72 24.06-3.54 23.28.59 46.3-1.04 69.55-1.67l124.46-3.87c14.19-.5 28.99 2.92 41.49-1.68"/><path fill="#333" d="M1336.44 1205.47a354.4 354.4 0 0 0 60.07 42.09c24.65 13.82 43.96 20.54 70.07 31.15 39.14 15.91 86.89 36.16 130.06 33.66 35.64-2.05 81.96-30.05 110.24-51.44 8.47-6.41 22.69-19.59 31.1-23.53-9.16 19.57-124.12 105.15-144.89 112.63-.9.32-1.82.6-2.75.82-7.94-6.49-49.71-25.47-62.39-31.71a3559 3559 0 0 1-82.94-41.98c-47.08-24.52-69.55-35.19-109.97-69.43z"/><path fill="url(#o)" d="M1110.33 683.42c.76-.857.96-.944 1.22-1.922 3.7-13.863 20.32-8.615 25.52-16.764.44-4.057.51-5.369 2.99-8.642q4.815 34.492 10.32 68.882c1.04 6.392 3.85 24.657 5.74 30.14 1 7.076 4.15 21.106 4.55 26.835 4.9 18.87 8.7 39.855 13.13 59.083a4130 4130 0 0 0 29.53 115.974c27.88 103.644 63.72 216.504 155.85 280.874 9.04 6.32 17.7 11.96 27.37 17.32 2.38 1.32 9.97 5.38 11.77 6.94l-5.06 8.93c-7.59 3.73-41.96 26.67-44.34 32.92-2.66-1.52-9.88-6.05-13.03-6.35-3.48 1.47-1.65 2.72-4.81 1.32-11.04-4.91-39.32-39.73-47.69-41.73-12.62-11.78-26.99-31.97-36.84-46.2-56.91-82.29-72.88-177.43-92-273.574l-12.49-63.652c-1.68-8.737-5.19-24.668-5.98-32.842-1.53-6.712-2.91-13.615-3.99-20.411-7.17-45.148-17.28-91.683-21.76-137.131"/><path fill="url(#p)" d="M1110.33 683.42c.76-.857.96-.944 1.22-1.922 3.7-13.863 20.32-8.615 25.52-16.764.44-4.057.51-5.369 2.99-8.642q4.815 34.492 10.32 68.882c1.04 6.392 3.85 24.657 5.74 30.14 1 7.076 4.15 21.106 4.55 26.835-3.13-1.956-6.4-21.738-7.12-26.466-8.44 4.395-19.15 6.85-28.21 10.248-1.44 12.708 13.62 65.235 10.74 75.231-1.53-6.712-2.91-13.615-3.99-20.411-7.17-45.148-17.28-91.683-21.76-137.131"/><path fill="url(#q)" d="M1289.06 63.09c27.47 4.107 56.97 16 82.7 20.744 7.2 1.39 9.54 2.02 16.74 1.34 12.83 3.615 63.34 20.144 73.22 25.491 23.27 8.13 48.88 19.635 71.14 30.105a975.2 975.2 0 0 1 204.68 127.461c11.57 9.384 32.02 26.153 42.13 36.614-2.92.337-2.13.851-4.12-.847-7.25-6.189-14.2-12.67-21.49-18.86a795 795 0 0 0-53.24-42.098c-4.63-3.355-5.98-5.965-11.27-8.11 2.45 6.698 7.45 3.469 4.96 13.325.15.429 92.68 78.197 99.64 91.391 2.73 5.186 29.87 28.597 28.68 34.548-3.36-2.926-10.7-12.112-13.9-15.921-1.16 2.397-22.24 25.292-25.2 27.846-2.48-.329-2.36-.64-4.46.118-5.82-4.846-18.3-20.159-25.04-26.841a989 989 0 0 0-63.78-56.925c-130.85-106.469-293.82-173.922-459.43-203.004-6.65-1.168-13.18-.834-20.09-2.148l-.65-1.189c6.18-3.42 72.02 12.835 83.83 14.109l4.36-6.484c-.03-4.62-4.16-19.508-6.09-24.332-1.18-2.958-10.49-3.857-13.25-8.99.12-3.537.13-3.648 1.88-6.78z"/><path fill="#6e6d6e" d="M1461.72 110.665c23.27 8.13 48.88 19.635 71.14 30.105a975.2 975.2 0 0 1 204.68 127.461c11.57 9.384 32.02 26.153 42.13 36.614-2.92.337-2.13.851-4.12-.847-7.25-6.189-14.2-12.67-21.49-18.86a795 795 0 0 0-53.24-42.098c-4.63-3.355-5.98-5.965-11.27-8.11 2.45 6.698 7.45 3.469 4.96 13.325.15.429 92.68 78.197 99.64 91.391 2.73 5.186 29.87 28.597 28.68 34.548-3.36-2.926-10.7-12.112-13.9-15.921-59.12-67.467-138.22-130.128-215.75-175.279a917 917 0 0 0-45.63-24.612c-7.07-3.538-21.69-10.157-27.89-13.935l-1.34-.833c-5.44-5.221-11.59-7.649-18.41-11.832l1.44.397c-3.82-5.344-35.24-13.428-39.63-21.514"/><path fill="#7a7a7a" d="M1371.76 83.834c7.2 1.39 9.54 2.02 16.74 1.34 12.83 3.615 63.34 20.144 73.22 25.491 4.39 8.086 35.81 16.17 39.63 21.514l-1.44-.397c6.82 4.183 12.97 6.611 18.41 11.832-29.01-12.062-56.13-24.448-85.85-35.63-10.54-3.967-52.04-19.352-60.71-24.15"/><path fill="url(#r)" d="m643.761 1261.48.515 1.5c5.938-2.53 10.742-6.37 17.246-9.33 13.493 9.55 27.303 12.19 43.254 15.85 10.038 2.3 19.269 1.48 29.405 4.44l-2.552 2.65.229 1.53c4.717-2.41 6.707-7.61 14.177-9l-.678.79c-30.976 35.74-98.172 75.71-138.266 100.96-2.208 1.39-4.344 2.94-4.948 5.5 8.244 10.89 115.501 42.16 134.827 47.52 7.46 2.07 20.48 4.78 28.356 7.62 182.689 40.85 345.314 39.3 526.924-4.02l.28 2.17c-2.97 2.04-3.61 2.19-7.05 3.45-41.23 8.64-74.38 15.64-116.63 21.68a600 600 0 0 1-36.39 4.04c-3.64.32-18.24 1.33-20.85 2.1-.91.75-2.2 1.51-3.21 2.16-16.69.58-35.7 4.17-52.4 3.09-33.7-2.18-69.967 1.26-103.335-1.46-5.087 5.55-9.77 11.22-14.612 16.92-1.908 2.25-7.113 2.08-9.189 6.87 5.538 1.55 41.204 3.62 50.228 4.34l-.088.81c-4.806.43-29.03-1.95-36.174-2.43-85.996-5.76-177.565-21.38-259.509-48.72-9.393-10.27-131.435-47.07-146.648-66.99-11.255-2.82-30.366-11.83-44.745-15.77l-5.797.84c-5.99-3-15.344-6.72-21.712-9.48 34.636-14.13 81.331-39.3 115.887-56.65 1.72-1.4 15.507-8.31 18.575-9.87 14.903-7.6 29.866-15.79 44.88-23.11"/><path fill="url(#s)" d="m643.761 1261.48.515 1.5c5.938-2.53 10.742-6.37 17.246-9.33 13.493 9.55 27.303 12.19 43.254 15.85 10.038 2.3 19.269 1.48 29.405 4.44l-2.552 2.65.229 1.53c-15.119 14.91-31.486 27.6-48.647 40.03-43.621 31.61-85.502 55.16-141.455 47.4-10.601-.89-21.154-1.94-31.692-3.44-6.252-.9-11.832-3.55-17.887-3.69l-.249 1.33-5.797.84c-5.99-3-15.344-6.72-21.712-9.48 34.636-14.13 81.331-39.3 115.887-56.65 1.72-1.4 15.507-8.31 18.575-9.87 14.903-7.6 29.866-15.79 44.88-23.11"/><path fill="#c6c5c5" d="M464.419 1351.11c34.636-14.13 81.331-39.3 115.887-56.65-1.091 1.46-2.02 2.7-3.195 4.1 4.309 15.34 66.679 21.99 74.111 28.91l.453 1.83c2.769-1.36 3.974-2.65 6.295-2.13-5.872 4.5-12.936 6.26-19.425 9.26-27.968 12.95-57.152 22.37-87.796 26.16-2.258.27-5.805 2.31-8.993 2.96-10.601-.89-21.154-1.94-31.692-3.44-6.252-.9-11.832-3.55-17.887-3.69l-.249 1.33-5.797.84c-5.99-3-15.344-6.72-21.712-9.48"/><path fill="url(#t)" d="M731.858 1278.12c4.717-2.41 6.707-7.61 14.177-9l-.678.79c-30.976 35.74-98.172 75.71-138.266 100.96-2.208 1.39-4.344 2.94-4.948 5.5 8.244 10.89 115.501 42.16 134.827 47.52 7.46 2.07 20.48 4.78 28.356 7.62l3.41 4.03c-16.083-3.06-32.254-4.79-48.377-8.34-49.817-10.97-98.827-24.85-147.284-40.76-11.723-3.86-24.425-8.24-36.402-10.92-11.255-2.82-30.366-11.83-44.745-15.77l.249-1.33c6.055.14 11.635 2.79 17.887 3.69 10.538 1.5 21.091 2.55 31.692 3.44 55.953 7.76 97.834-15.79 141.455-47.4 17.161-12.43 33.528-25.12 48.647-40.03"/><path fill="#121112" d="M765.326 1431.51c182.689 40.85 345.314 39.3 526.924-4.02l.28 2.17c-2.97 2.04-3.61 2.19-7.05 3.45-41.23 8.64-74.38 15.64-116.63 21.68a600 600 0 0 1-36.39 4.04c-3.64.32-18.24 1.33-20.85 2.1-3.99-.04-7.56.44-11.5.64-77.14 3.87-155.058 3.14-231.658-7.81-34.161-4.88-66.107-11.4-99.716-18.22z"/><path fill="url(#u)" d="M1406.55 189.783c7.25-1.073 31.94 7.464 36.48 10.822.82-.238 5.68-.598 6.83-.7 10.57 7.368 31.49 3.283 38.18 17.973.08 11.567-25.54 27.089-34.79 32.992-27.47 17.542-54.09 37.215-81.44 54.741-23.35 14.727-136.99 81.194-143.12 96.64-5.75 7.915-15.31 16.792-21.6 24.723-11.39 14.377-21.42 29.713-30.31 45.715-9.34 17.959-29.13 64.148-30.58 83.898-6.52 21.809-7.33 50.501-7.04 73.227.07 4.878 1.23 22.689.9 26.278-2.48 3.273-2.55 4.585-2.99 8.642-5.2 8.149-21.82 2.901-25.52 16.764-.26.978-.46 1.065-1.22 1.922-1.44-7.32-2.41-16.473-3.41-23.986-4.36-18.849-4.6-61.904-3.71-80.739 4.29-90.866 44.76-169.629 114.16-228.162 22.02-18.566 41.73-31.776 65.57-47.997l76.94-51.747a3335 3335 0 0 1 42.97-28.293c9.26-6.023 22.84-14.206 30.54-21.538-8.29-3.472-19.19-7.223-26.84-11.175"/><path fill="url(#v)" d="M1106.92 659.434c.92-10.776-.06-40.25-.46-52.913-1.59-50.204 9.51-114.025 35.97-157.64-.79 7.166-6.9 16.283-6.55 20.788 5.55 6.84 29.72 1.417 40.9 3.02-9.34 17.959-29.13 64.148-30.58 83.898-6.52 21.809-7.33 50.501-7.04 73.227.07 4.878 1.23 22.689.9 26.278-2.48 3.273-2.55 4.585-2.99 8.642-5.2 8.149-21.82 2.901-25.52 16.764-.26.978-.46 1.065-1.22 1.922-1.44-7.32-2.41-16.473-3.41-23.986"/><path fill="#121112" d="M1406.55 189.783c7.25-1.073 31.94 7.464 36.48 10.822-41.69 25.874-84.86 55.31-125.78 82.744-30 20.116-70.08 46.302-96.8 69.026a336.4 336.4 0 0 0-68.99 79.55c-1.9 3.119-8.02 13.648-9.03 16.956-26.46 43.615-37.56 107.436-35.97 157.64.4 12.663 1.38 42.137.46 52.913-4.36-18.849-4.6-61.904-3.71-80.739 4.29-90.866 44.76-169.629 114.16-228.162 22.02-18.566 41.73-31.776 65.57-47.997l76.94-51.747a3335 3335 0 0 1 42.97-28.293c9.26-6.023 22.84-14.206 30.54-21.538-8.29-3.472-19.19-7.223-26.84-11.175"/><path fill="url(#w)" d="M1179.59 99.104c50.71 7.117 101.73 15.843 150.23 32.73 15.31-2.173 86.9 23.855 102.47 31.572 5.86 2.408 11.82 4.945 17.7 7.255l.02 2.665c9.89 4.057 32.73 13.479 38.16 22.152.06 9.526-26.53 4.578-33.17 3.979l-5.14.448c-1.15.102-6.01.462-6.83.7-4.54-3.358-29.23-11.895-36.48-10.822-6.65-1.733-14.69-4.657-21.2-7.047-65.45-24.02-131.94-37.939-200.55-49.267l3.46-.837-2.3-1.069c5.4-5.218 11.07-8.281 8.66-16.924-2.82-10.067-10.86-10.422-15.03-15.535"/><path fill="#c6c5c5" d="M1329.82 131.834c15.31-2.173 86.9 23.855 102.47 31.572 5.86 2.408 11.82 4.945 17.7 7.255l.02 2.665c9.89 4.057 32.73 13.479 38.16 22.152.06 9.526-26.53 4.578-33.17 3.979l6.74-6.449c-27.93-25.939-94.81-46.189-131.92-61.174"/><path fill="#a5a2a3" d="M1432.29 163.406c5.86 2.408 11.82 4.945 17.7 7.255l.02 2.665c-6.02-2.145-15.8-3.876-17.72-9.92"/><path fill="#121112" d="M37.506 859.725c-2.766-15.412-3.713-39.528-4.015-55.182a595.9 595.9 0 0 1 36.006-218.802c71.453-200.639 248.852-355.986 437.999-444.387C738.032 33.608 1004.11 5.648 1253.66 51.989c38 7.057 99.31 20.515 134.84 33.185-7.2.68-9.54.05-16.74-1.34-25.73-4.744-55.23-16.637-82.7-20.744l-8.05.562-1.31.607-2.03-1.653-2.17 1.744-1.61-.228c-.28-2.008.16-1.186-1.23-2.513-1.32 1.548-1.37 1.505-2.94 2.813-2.86-.536-2.33-1.02-4.72-4.18-5.24 1.986-8.94-1.559-14.62-2.733-10.92-2.262-21.85-4.19-32.87-5.975a1235 1235 0 0 0-123.84-12.675c-5.86-.31-31.11-.44-34.25-2.82-51.71-.433-103.523-1.437-155.421 3.271-240.064 21.801-479.258 112.444-654.575 281.377-90.953 87.641-160.798 197.078-193.083 319.678-4.254 16.154-14.555 58.164-14.326 74.534-3.428 16.301-6.508 78.853-3.45 95.107l.928 1.219c1.813-2.454 1.828-4.157 2.418-7.249-.062 18.208-1.291 37.854-4.406 55.749"/><path fill="#c6c5c5" d="M1059.42 36.039a270 270 0 0 1 26.05.185c67.25 3.725 138.02 10.744 203.59 26.866l-8.05.562-1.31.607-2.03-1.653-2.17 1.744-1.61-.228c-.28-2.008.16-1.186-1.23-2.513-1.32 1.548-1.37 1.505-2.94 2.813-2.86-.536-2.33-1.02-4.72-4.18-5.24 1.986-8.94-1.559-14.62-2.733-10.92-2.262-21.85-4.19-32.87-5.975a1235 1235 0 0 0-123.84-12.675c-5.86-.31-31.11-.44-34.25-2.82"/><path fill="url(#x)" d="M1283.39 1257.23c8.37 2 36.65 36.82 47.69 41.73 3.16 1.4 1.33.15 4.81-1.32 3.15.3 10.37 4.83 13.03 6.35 2.38-6.25 36.75-29.19 44.34-32.92l5.06-8.93c26.95 14.2 57.35 30.5 84.75 43.66-8.4 22.9-34.01 29.35-48.01 43.68a430 430 0 0 1-80.78-38.44l-1.79 3.15c-2.85-1.47-8.27-5.63-11.13-7.71l-4.24.11c-18.58-13.59-38.41-32.26-53.73-49.36"/><path fill="#7a7a7a" d="m1341.36 1306.48-2.82-2.79-.01-1.66c3.95.42 13.81 6.66 15.75 9.01l-1.79 3.15c-2.85-1.47-8.27-5.63-11.13-7.71"/><path fill="url(#y)" d="M1341.36 1306.48c2.86 2.08 8.28 6.24 11.13 7.71l1.79-3.15a430 430 0 0 0 80.78 38.44c20.09 7.4 40.39 12.52 61.9 12.75 4.21.04 10.5-.25 14.24 1.46.12.99.34 1.4.03 2.16 6.31.15 18.11-2.62 25.62-3.24l.96 1.14c-81.74 26.17-167.17 56.62-252.33 69.36 3.44-1.26 4.08-1.41 7.05-3.45l-.28-2.17c34.91-9.18 121.21-35.46 150.59-51.88-20.89-8.28-86.75-54.16-105.72-69.02z"/><path fill="url(#z)" d="M1354.28 1311.04a430 430 0 0 0 80.78 38.44c20.09 7.4 40.39 12.52 61.9 12.75 4.21.04 10.5-.25 14.24 1.46.12.99.34 1.4.03 2.16-20.42 2.8-37.2 4.9-57.68.1-38.79-9.1-69.03-29.6-101.06-51.76z"/><path fill="#121112" d="M501.595 211.135c8.969-2.714 25.284-11.244 34.456-15.687a1113 1113 0 0 1 39.915-18.258l2.309 1.846c-7.823 3.739-21.997 10.008-26.745 17.321.319 10.608 30.383 1.499 36.03 7.302l-2.465.48c-28.043 22.227.792 31.133 16.387 46.072 11.415 10.935 71.411 47.459 74.428 58.61 12.264 9.253 33.624 22.13 47.243 30.913l.043 2.762c-50.117-31.451-103.828-60.694-154.451-91.401-20.157-12.227-48.282-26.895-67.15-39.96"/><path fill="#7a7a7a" d="M675.91 308.821c-23.74-10.787-50.889-34.948-74.151-48.487-9.873-5.746-46.956-29.976-49.028-39.86 1.838-12.477 22.233-15.44 32.364-16.335-28.043 22.227.792 31.133 16.387 46.072 11.415 10.935 71.411 47.459 74.428 58.61"/><path fill="url(#A)" d="M1483.07 1305.8c20.76 10.45 41.59 20.76 62.48 30.94 9.43 4.59 21.33 11.08 30.78 14.61-9.23 3.54-28.94 11.36-38.52 12.4l-.96-1.14c-7.51.62-19.31 3.39-25.62 3.24.31-.76.09-1.17-.03-2.16-3.74-1.71-10.03-1.42-14.24-1.46-21.51-.23-41.81-5.35-61.9-12.75 14-14.33 39.61-20.78 48.01-43.68"/><path fill="#6e6d6e" d="M1449.99 170.661c16.18 7.255 32.42 14.158 48.58 21.538 12.95 5.921 28.78 15.34 42.13 19.099l-165.21 96.428-3.68-2.115c27.35-17.526 53.97-37.199 81.44-54.741 9.25-5.903 34.87-21.425 34.79-32.992-6.69-14.69-27.61-10.605-38.18-17.973l5.14-.448c6.64.599 33.23 5.547 33.17-3.979-5.43-8.673-28.27-18.095-38.16-22.152zM294.799 345.078c19.553-21.544 53.032-47.504 76.937-64.925A1038 1038 0 0 1 803.494 99.006c11.913-2.13 88.742-15.168 94.87-11.775-169.652 17.033-344.312 72.704-486.281 168.566a899 899 0 0 0-113.29 91.431c-24.473 23.053-37.138 41.257-58.172 63.965l-2.889-1.187c2.556-5.319 8.103-10.213 11.647-14.945 13.404-17.899 31.475-32.914 45.42-49.983"/><path fill="#c6c5c5" d="M39.51 769.905c8.525-6.882 8.346-11.677 14.378-19.872 11.061-15.026 21.133-29.733 29.216-46.63 4.677-9.776 8.566-24.665 14.56-33.354-3.264 25.504-17.684 67.665-30.005 90.309-7.32 13.452-21.964 24.512-25.748 43.618-.59 3.092-.605 4.795-2.418 7.249l-.929-1.219c-3.057-16.254.023-78.806 3.45-95.107 1.292 9.391-1.574 22.642-2.1 32.619-.42 7.922-.478 14.411-.404 22.387"/><path fill="#a5a2a3" d="M130.462 574.933c-.42-5.465 7.334-18.298 9.784-23.981 26.008-60.32 65.684-114.503 109.172-163.372 14.575-16.378 26.586-30.635 45.381-42.502-13.945 17.069-32.016 32.084-45.42 49.983-3.544 4.732-9.091 9.626-11.647 14.945-8.86 11.3-18.118 22.177-26.643 33.793-27.699 37.743-51.902 78.43-74.323 119.467-1.494 2.736-4.41 9.797-6.304 11.667"/><path fill="#c6c5c5" d="M491.928 1359.75c14.379 3.94 33.49 12.95 44.745 15.77 15.213 19.92 137.255 56.72 146.648 66.99-28.824-2.22-175.515-63.81-197.19-81.92z"/><path fill="#6e6d6e" d="m1371.81 305.611 3.68 2.115-69.59 41.694c-30.09 18.079-51.07 29.482-77.21 52.831 6.13-15.446 119.77-81.913 143.12-96.64m-55.17 883.589 1.53-.31.6.49c4.74 3.84 8.26 4.36 11.66 8.97.13 2.65 3.5 4.77 6.01 7.12l-1.4 2.26c-6.34-6.09-12.59-11.91-18.4-18.53"/><path fill="#333" d="M575.966 177.19c3.847-1.891 9.546-4.012 13.652-5.678l.249 1.375c-4.491 2.91-6.765 3.945-11.592 6.149z"/><path fill="url(#B)" d="M1273.23 513.789c32.49-39.632 65.31-58.187 111.23-80.079 45.08-21.486 92.07-46.141 139.64-61.53a372 372 0 0 1 76.37-16.477c57.51-5.704 126.05 2.584 172.46 39.543 18.9 15.048 31.22 33.953 45.4 53.005 166.37 223.598 152.21 504.203-24.2 717.909-1.57 1.91-3.17 3.81-4.8 5.68l-10.53 12.14c-12.31 3.13-41.73 6.28-54.99 6.45-5.55 1.04-20.41.61-26.36.46-26.2.73-62.53 1.34-88.05-3.89 8.15-3.48 14.23 1.96 20.42-1.09 2.21-7.96-.37-17.41.88-25.36 1.89-12.02 2.27-23.28 2.9-35.39l7.32-2.58c49.58 3.02 96.42-11.35 140.9-31.32 2.18-2.13 21.39-11.3 24.99-15.39 11.81-13.46 23.26-37 31.05-52.87 34.07-69.367 52.22-143.453 54.44-220.662.47-16.353-1.22-32.083-.88-48.209-.8-4.771-1.12-9.929-1.54-14.775a556.6 556.6 0 0 0-47.07-172.061c-6.79-14.898-15.42-33.105-25.34-45.999-50.98-66.307-126.23-119.331-213.08-111.611a328 328 0 0 0-63.94 11.675c-40.96 11.849-81.11 31.481-120.07 48.861-39.81 17.756-75.94 29.822-104.75 64.354l-.1-2.353c1.2-1.63 1.35-1.547 1.6-3.513-8.68-5.868-32.77-6.289-43.9-14.918"/><path fill="url(#C)" d="M1891.42 754.129c4.2 2.655 3.34 41.984 3.68 49.459 2.63-9.153-1.23-34.532 2.29-39.174l1.6.348c7.89 14.971 18.72 21.856 22.21 38.422 2.39 19.21-.21 44.766-2.83 64.077a583.35 583.35 0 0 1-78.31 221.689c-7.59 12.76-19.73 32.33-28.85 44.08a92 92 0 0 1-5.52 6.45l3.22-15.04c-.58-4.27-.55-13.14-.66-17.76-2.58 6.1-6.45 20.25-6.87 26.83l-.84.57c-3.16 11.3-11.46 26.81-11.21 37.76l-10.53 12.14c-12.31 3.13-41.73 6.28-54.99 6.45-5.55 1.04-20.41.61-26.36.46-26.2.73-62.53 1.34-88.05-3.89 8.15-3.48 14.23 1.96 20.42-1.09 2.21-7.96-.37-17.41.88-25.36 1.89-12.02 2.27-23.28 2.9-35.39l7.32-2.58c49.58 3.02 96.42-11.35 140.9-31.32 2.18-2.13 21.39-11.3 24.99-15.39 11.81-13.46 23.26-37 31.05-52.87 34.07-69.367 52.22-143.453 54.44-220.662.47-16.353-1.22-32.083-.88-48.209"/><path fill="url(#D)" d="M1781.82 1091.26c-.55 1.41-.55 2.3-1.83 3.15-13.55 8.99-26.8 65.44-34.1 83.32 2.44-1.33 10.13-5.79 12.3-6.13-4.12 3.52-14.78 8.45-20.08 10.15-2.3.72-4.57 1.53-6.81 2.44 3.13 1.76 3.25 1.72 6.75 1.31l.73.71c-3.65.67-15.49 1.77-16.8 3.25l1.83.97c-5.55 1.04-20.41.61-26.36.46-26.2.73-62.53 1.34-88.05-3.89 8.15-3.48 14.23 1.96 20.42-1.09 2.21-7.96-.37-17.41.88-25.36 1.89-12.02 2.27-23.28 2.9-35.39l7.32-2.58c49.58 3.02 96.42-11.35 140.9-31.32"/><path fill="#7a7a7a" d="M1697.45 1190.89c10.33-1.32 22.12-4.97 33.85-6.7 3.13 1.76 3.25 1.72 6.75 1.31l.73.71c-3.65.67-15.49 1.77-16.8 3.25l1.83.97c-5.55 1.04-20.41.61-26.36.46"/><path fill="url(#E)" d="M1891.42 754.129c4.2 2.655 3.34 41.984 3.68 49.459a522.5 522.5 0 0 1-28.78 162.377c-6.41 18.744-12.81 28.11-15.14 48.525-.58 5.06-14.14 31.45-17.01 38.27-7.2 2.8-12.91 20.9-19.03 26.88-.36.34-.64 2.5-.7 2.99.29 6.3-4.16 17.68-6.19 24.05-2.58 6.1-6.45 20.25-6.87 26.83l-.84.57c-3.16 11.3-11.46 26.81-11.21 37.76l-10.53 12.14c-12.31 3.13-41.73 6.28-54.99 6.45l-1.83-.97c1.31-1.48 13.15-2.58 16.8-3.25l-.73-.71c-3.5.41-3.62.45-6.75-1.31 2.24-.91 4.51-1.72 6.81-2.44 5.3-1.7 15.96-6.63 20.08-10.15-2.17.34-9.86 4.8-12.3 6.13 7.3-17.88 20.55-74.33 34.1-83.32 1.28-.85 1.28-1.74 1.83-3.15 2.18-2.13 21.39-11.3 24.99-15.39 11.81-13.46 23.26-37 31.05-52.87 34.07-69.367 52.22-143.453 54.44-220.662.47-16.353-1.22-32.083-.88-48.209"/><path fill="url(#F)" d="m1795.36 1130.21 4.16 1.06c.31.79.86 2.04 1.02 2.81-3.16 11.3-11.46 26.81-11.21 37.76l-10.53 12.14c-12.31 3.13-41.73 6.28-54.99 6.45l-1.83-.97c1.31-1.48 13.15-2.58 16.8-3.25 39.09-4.34 44.88-22.72 56.58-56"/><path fill="#121112" d="M1814.44 1082.63c.29 6.3-4.16 17.68-6.19 24.05-2.58 6.1-6.45 20.25-6.87 26.83l-.84.57c-.16-.77-.71-2.02-1.02-2.81l-4.16-1.06c6.33-14.8 12.03-33.55 19.08-47.58"/><path fill="#7a7a7a" d="M1814.44 1082.63c.06-.49.34-2.65.7-2.99 6.12-5.98 11.83-24.08 19.03-26.88a741 741 0 0 0-25.26 71.68c-.58-4.27-.55-13.14-.66-17.76 2.03-6.37 6.48-17.75 6.19-24.05m75.44-343.276c.15-5.107.17-10.826.82-15.829l.74-.539 1.45.638c1.5 6.687 2.75 16.51 6.11 22.471 11.86 21.05 23.48 30.593 22.2 57.089-3.49-16.566-14.32-23.451-22.21-38.422l-1.6-.348c-3.52 4.642.34 30.021-2.29 39.174-.34-7.475.52-46.804-3.68-49.459-.8-4.771-1.12-9.929-1.54-14.775m-616.65-225.565c11.13 8.629 35.22 9.05 43.9 14.918-.25 1.966-.4 1.883-1.6 3.513l.1 2.353c-3.23 4.038-11.87 18.017-13.15 19.344-29.06 62.641-11.74 110.935 9.66 172.263 46.36 132.853 69.99 293.52 206.01 365.64-1.82 1.1-2.25 1.65-4.26 1.97 6.15 7.48 12.86 5.75 16.48 10.16-.71 9.56-32.06 45.19-40.42 48.27-3.79-1.82-5.02-2.45-9.08-3.42l-1.05.87c-19.71-7.65-52.24-31.37-68.06-45.55a301.4 301.4 0 0 1-67.14-88.74c-16.1-32.073-27.2-69.431-37.84-103.805a5730 5730 0 0 1-37.67-127.078 5450 5450 0 0 1-20.65-74.272c-7.15-26.489-13.17-46.485-15.18-73.958-2.85-38.98 13.28-93.171 39.95-122.478"/><path fill="#121112" d="M1302.48 553.917c-29.06 62.641-11.74 110.935 9.66 172.263 46.36 132.853 69.99 293.52 206.01 365.64-1.82 1.1-2.25 1.65-4.26 1.97-70.37-38.56-121.48-113.897-145.89-188.747-28.83-88.349-62-176.7-83.92-266.981-3.61-14.9 2.06-76.991 18.4-84.145"/><path fill="#c6c5c5" d="M802.739 595.262c3.006 6.792 4.602 28.74 4.76 36.65.462 23.229-6.691 47.423-12.643 69.774a4019 4019 0 0 1-19.628 70.932 5748 5748 0 0 1-39.191 132.901c-27.377 88.655-49.408 160.671-130.568 215.461-1.599-3.29-4.103-6.36-6.29-9.3-8.657-11.6-15.609-23.87-22.481-36.54-.81-1.49-7.122-4.86-8.901-5.78 1.217-1.67 3.476-2.92 5.34-5.16l-.556-1.94c1.561-2.34 18.544-17.64 22.174-21.59a363 363 0 0 0 60.152-89.638c11.683-24.096 18.741-46.147 27.335-71.449a6560 6560 0 0 0 29.173-88.172 5175 5175 0 0 0 28.559-90.547c6.119-20.186 12.849-41.675 16.606-62.346 1.622-8.923.768-24.7.43-34.158 1.433 3.487 1.97 7.378 2.681 11.114.195-2.637.014-4.293 1.574-6.396 6.819-.888 37.059-8.725 41.474-13.816"/><path fill="url(#G)" d="m106.927 761.916.636 6.982.688-.131.156-4.82c3.993-8.42 32.826-16.489 41.003-15.365l.975 6.708c-3.813 63.407 1.178 105.741 15.486 167.504 11.589 40.049 24.724 76.981 44.281 114.036 13.178 24.96 18.99 38.37 45.099 52.13 42.851 22.58 92.692 34.4 141.034 33.94-2.178.72-3.043 1.14-5.384.83l-1.066 1.04 2.683 1.24c-.393 2.81-.539 2.98-1.536 5.51 3.408 14.08 12.38 27.34 18.294 40.49 3.116 6.93 2.283 7.91 6.975 15.3-6.079 1.83-12.937-.1-17.566 3.36-41.667 2.65-87.124 1.19-128.837-5-12.508-1.85-17.287-11.6-23.784-21.59-5.88-6.49-12.001-14.53-17.527-21.44a127 127 0 0 1-4.025-5.13c-66.456-89.67-110.217-197.276-117.372-308.945-1.374-21.441-3.361-45.226-.213-66.649"/><path fill="url(#H)" d="M165.871 922.794c11.589 40.049 24.724 76.981 44.281 114.036 13.178 24.96 18.99 38.37 45.099 52.13 42.851 22.58 92.692 34.4 141.034 33.94-2.178.72-3.043 1.14-5.384.83l-1.066 1.04 2.683 1.24c-.393 2.81-.539 2.98-1.536 5.51 3.408 14.08 12.38 27.34 18.294 40.49 3.116 6.93 2.283 7.91 6.975 15.3-6.079 1.83-12.937-.1-17.566 3.36-41.667 2.65-87.124 1.19-128.837-5-12.508-1.85-17.287-11.6-23.784-21.59-5.88-6.49-12.001-14.53-17.527-21.44 3.742-3.06 4.415-3.74 7.296-7.61.081-7.29-.512-13.89-1.081-21.13-4.174-26.46-27.036-59.18-38.375-84.81-10.199-23.05-18.712-42.899-25.622-67.606-3.036-10.854-7.615-22.961-7.8-34.627-.035-2.151.84-2.172 2.916-4.063"/><path fill="#6e6d6e" d="M234.752 1113.9c2.506 8.44 11.828 43.32 11.312 50.18-5.88-6.49-12.001-14.53-17.527-21.44 3.742-3.06 4.415-3.74 7.296-7.61.081-7.29-.512-13.89-1.081-21.13"/><path fill="url(#I)" d="m240.638 424.983.436-.849c23.256-32.185 49.565-47.491 86.311-58.451 79.136-23.603 162.514-8.815 236.411 24.608 13.073 5.914 26.673 11.387 39.354 18.186l-.113 2.024 4.257 2.235c-1.352 6.75-18.905 16.509-24.754 21.978-4.079 3.813-7.581 7.103-11.481 11.252-5.727-2.935-13.177-7.735-19.288-6.572-9.685-3.28-19.695-7.523-29.341-11.107-120.23-44.665-216.345-9.297-294.248 88.758l-1.11-1.838c4.979-13.697 5.458-6.944 8.669-9.9-11.644-18.815 4.68-24.345 4.943-42.34.101-6.948-7.673-14.536-7.19-22.352.474-7.673 6.244-7.437 7.144-15.632"/><path fill="url(#J)" d="M536.337 1088.41c.62-.56 10.999-7.44 12.278-8.31 8.669-5.87 15.867-11.26 23.966-17.84l.556 1.94c-1.864 2.24-4.123 3.49-5.34 5.16 1.779.92 8.091 4.29 8.901 5.78 6.872 12.67 13.824 24.94 22.481 36.54 2.187 2.94 4.691 6.01 6.29 9.3l-2.422.77c2.873.39 4.785-.42 7.461-1.55-4.526 5.63-46.853 28.61-54.777 32.56-11.48 5.14-25.679 11.85-37.795 14.84-25.205 12.11-91.099 22.06-119.251 23.07 4.629-3.46 11.487-1.53 17.566-3.36-4.692-7.39-3.859-8.37-6.975-15.3-5.914-13.15-14.886-26.41-18.294-40.49.997-2.53 1.143-2.7 1.536-5.51l-2.683-1.24 1.066-1.04c2.341.31 3.206-.11 5.384-.83 4.123-.58 8.168-.87 12.321-1.05 21.263-.9 41.608-4.99 62.395-9.33 9.837-3.78 19.148-5.03 29.104-8.07 12.759-3.9 24.454-9.9 36.232-16.04"/><path fill="url(#K)" d="M536.337 1088.41c.62-.56 10.999-7.44 12.278-8.31 8.669-5.87 15.867-11.26 23.966-17.84l.556 1.94c-1.864 2.24-4.123 3.49-5.34 5.16 1.779.92 8.091 4.29 8.901 5.78 6.872 12.67 13.824 24.94 22.481 36.54 2.187 2.94 4.691 6.01 6.29 9.3l-2.422.77c2.873.39 4.785-.42 7.461-1.55-4.526 5.63-46.853 28.61-54.777 32.56-4.279-3.59-24.193-39.98-27.515-46.96-5.287-11.1 4.353-9.22 8.121-17.39"/><path fill="url(#L)" d="M471.001 1112.52c9.837-3.78 19.148-5.03 29.104-8.07 12.759-3.9 24.454-9.9 36.232-16.04-3.768 8.17-13.408 6.29-8.121 17.39 3.322 6.98 23.236 43.37 27.515 46.96-11.48 5.14-25.679 11.85-37.795 14.84l-.825-.66c-1.74 0-2.573.03-4.264.28l-1.434.22c-7.408-6.22-20.284-34.9-24.161-45.24-.551-1.47 3.697-6.72-.965-10-5.354.05-8.692.74-13.948 1.66z"/><path fill="url(#M)" d="M106.927 761.916c.001-4.954.459-10.58.848-15.58 8.545-109.833 52.533-215.252 118.316-303.035 4.706-6.28 9.297-12.626 14.547-18.318-.9 8.195-6.67 7.959-7.144 15.632-.483 7.816 7.291 15.404 7.19 22.352-.263 17.995-16.587 23.525-4.943 42.34-3.211 2.956-3.69-3.797-8.669 9.9l1.11 1.838c-14.396 19.171-19.981 31.342-30.078 53.31-28.449 61.901-41.418 117.777-47.719 184.935l-.975-6.708c-8.177-1.124-37.01 6.945-41.003 15.365l-.156 4.82-.688.131z"/><path fill="url(#N)" d="M1518.15 1091.82c41.5 21.33 77.79 26.32 122.77 30.76l-7.32 2.58c-.63 12.11-1.01 23.37-2.9 35.39-1.25 7.95 1.33 17.4-.88 25.36-6.19 3.05-12.27-2.39-20.42 1.09-31.38-.13-101.27-22.1-129.58-37.33l1.05-.87c4.06.97 5.29 1.6 9.08 3.42 8.36-3.08 39.71-38.71 40.42-48.27-3.62-4.41-10.33-2.68-16.48-10.16 2.01-.32 2.44-.87 4.26-1.97"/><path fill="url(#O)" d="M603.15 408.477c6.361 1.83 25.974 11.533 32.953 15.06 19.392 9.799 41.06 19.909 59.921 30.61-3.675 1.075-28.463 21.41-34.152 25.55-.53 3.158-.705 1.612.983 4.72l-9.115.393c-33.247-13.721-68.717-30.725-101.969-45.416 6.111-1.163 13.561 3.637 19.288 6.572 3.9-4.149 7.402-7.439 11.481-11.252 5.849-5.469 23.402-15.228 24.754-21.978l-4.257-2.235z"/><path fill="url(#P)" d="M765.719 510.735c15.185 19.23 37.929 60.13 40.024 83.753l-.425.968-1.803-5.5c-.381 2.027-.645 3.235-.776 5.306-4.415 5.091-34.655 12.928-41.474 13.816-1.56 2.103-1.379 3.759-1.574 6.396-.711-3.736-1.248-7.627-2.681-11.114a290 290 0 0 1-1.17-10.678l-.101-.751c-5.04-19.325-9.813-33.385-21.033-50.026-.292-4.566-1.956-7.918-3.682-12.112 4.159-11.892 29.381-12.477 34.695-20.058"/><path fill="#f1f0f0" d="m755.739 592.931.948-1.917c4.876 1.296 33.587-14.518 43.382-5.247.295 3.239.559 1.676-1.221 4.757-6.259 2.662-7.106 1.459-12.095 2.919-8.89 2.602-15.425 5.003-24.607 6.849-1.851-2.006-4.324-4.879-6.306-6.61z"/><path fill="url(#Q)" d="m653.74 484.81 9.115-.393c-1.688-3.108-1.513-1.562-.983-4.72 5.689-4.14 30.477-24.475 34.152-25.55 29.049 15.896 48.497 30.476 69.695 56.588-5.314 7.581-30.536 8.166-34.695 20.058 1.726 4.194 3.39 7.546 3.682 12.112-19.909-28.411-50.342-44.343-80.966-58.095"/><path fill="#c6c5c5" d="M965.163 79.474c7.96-1.429 44.937-.406 52.257 1.96-8.28.53-47.38 2.893-52.257-1.96"/><path fill="#a5a2a3" d="M912.932 83.452c5.243-.93 19.448-1.197 24.331 1.115-5.464.307-20.893 1.938-24.331-1.115"/></svg>