<?xml version="1.0" encoding="UTF-8"?>
<svg xmlns="http://www.w3.org/2000/svg" viewBox="0 0 220 180" role="img">
<rect width="220" height="180" rx="18" fill="#00253D"/>
<line x1="54.94" y1="107.25" x2="40.45" y2="103.37" stroke="#FFFFFF" stroke-width="7" stroke-linecap="round"/>
<line x1="55.01" y1="93.37" x2="46.14" y2="88.75" stroke="#FFFFFF" stroke-width="4" stroke-linecap="round"/>
<line x1="66.34" y1="85.36" x2="54.84" y2="75.72" stroke="#FFFFFF" stroke-width="7" stroke-linecap="round"/>
<line x1="72.26" y1="72.81" x2="66.17" y2="64.88" stroke="#FFFFFF" stroke-width="4" stroke-linecap="round"/>
<line x1="85.91" y1="70.34" x2="79.57" y2="56.75" stroke="#FFFFFF" stroke-width="7" stroke-linecap="round"/>
<line x1="96.58" y1="61.47" x2="94.42" y2="51.71" stroke="#FFFFFF" stroke-width="4" stroke-linecap="round"/>
<line x1="110.00" y1="65.00" x2="110.00" y2="50.00" stroke="#FFFFFF" stroke-width="7" stroke-linecap="round"/>
<line x1="123.42" y1="61.47" x2="125.58" y2="51.71" stroke="#FFFFFF" stroke-width="4" stroke-linecap="round"/>
<line x1="134.09" y1="70.34" x2="140.43" y2="56.75" stroke="#FF6A35" stroke-width="7" stroke-linecap="round"/>
<line x1="147.74" y1="72.81" x2="153.83" y2="64.88" stroke="#FF6A35" stroke-width="4" stroke-linecap="round"/>
<line x1="153.66" y1="85.36" x2="165.16" y2="75.72" stroke="#FF3030" stroke-width="7" stroke-linecap="round"/>
<line x1="164.99" y1="93.37" x2="173.86" y2="88.75" stroke="#FF3030" stroke-width="4" stroke-linecap="round"/>
<line x1="165.06" y1="107.25" x2="179.55" y2="103.37" stroke="#FF3030" stroke-width="7" stroke-linecap="round"/>
<text x="66.53333781699192" y="114.35314297038656" fill="#FFFFFF" font-size="10" font-family="Arial" text-anchor="middle">1</text>
<text x="75.52800005964599" y="97.07455756410573" fill="#FFFFFF" font-size="10" font-family="Arial" text-anchor="middle">2</text>
<text x="90.98217822166853" y="85.21614958335076" fill="#FFFFFF" font-size="10" font-family="Arial" text-anchor="middle">3</text>
<text x="109.99999999999999" y="81.0" fill="#FFFFFF" font-size="10" font-family="Arial" text-anchor="middle">4</text>
<text x="129.0178217783315" y="85.21614958335076" fill="#FFFFFF" font-size="10" font-family="Arial" text-anchor="middle">5</text>
<text x="144.471999940354" y="97.07455756410572" fill="#FFFFFF" font-size="10" font-family="Arial" text-anchor="middle">6</text>
<text x="110" y="86" fill="#FFFFFF" font-size="10" font-family="Arial" text-anchor="middle">× 1000</text>
<g transform="translate(148 84) scale(0.75)" fill="none" stroke="#52BBFF" stroke-width="2.2" stroke-linecap="round" stroke-linejoin="round"><circle cx="0" cy="0" r="15"/><path d="M0 0l8-8"/><path d="M-10 8h20"/><path d="M-9-4l-4-3M0-11v-5M9-4l4-3"/></g>
<g id="needle" class="needle" transform="rotate(220 110 122)">
<line x1="110.00" y1="122.00" x2="164.00" y2="122.00" stroke="#FFFFFF" stroke-width="8" stroke-linecap="round"/>
<line x1="116.00" y1="122.00" x2="164.00" y2="122.00" stroke="#C8D0D6" stroke-width="3" stroke-linecap="round"/>
</g>
<circle cx="110" cy="122" r="15" fill="#F3F5F6"/>
<circle cx="110" cy="122" r="9" fill="#C8D0D6"/>
<circle cx="110" cy="122" r="5" fill="#52BBFF"/>
</svg>